<svg width="720" height="1600" viewBox="0 0 720 1600" fill="none" xmlns="http://www.w3.org/2000/svg">
<mask id="mask0_1393_7" style="mask-type:luminance" maskUnits="userSpaceOnUse" x="0" y="0" width="720" height="1600">
<path d="M720 0H0V1600H720V0Z" fill="white"/>
</mask>
<g mask="url(#mask0_1393_7)">
<path d="M720 0H0V1600H720V0Z" fill="url(#paint0_linear_1393_7)"/>
<path d="M290.122 795.935H265.379C264.248 795.912 263.129 796.167 262.115 796.681C261.1 797.194 260.221 797.95 259.55 798.884C256.591 803.225 254.007 807.693 249.523 810.992C243.934 815.087 237.371 817.551 230.529 818.124C229.707 818.222 228.876 818.222 228.054 818.124C221.209 817.547 214.642 815.083 209.046 810.992C204.563 807.693 201.978 803.215 199.02 798.884C198.342 797.956 197.462 797.205 196.449 796.693C195.436 796.18 194.32 795.921 193.191 795.935H168.436C168.077 795.935 167.737 796.618 167.395 796.949C168.041 799.514 168.526 802.11 169.369 804.578C171.059 809.665 173.431 814.486 176.417 818.899C178.783 822.8 181.595 826.394 184.794 829.606C190.723 835.35 197.606 839.957 205.116 843.207C209.155 844.797 213.32 846.03 217.563 846.892C221.442 847.569 225.381 847.816 229.312 847.63C233.242 847.816 237.181 847.569 241.06 846.892C245.302 846.025 249.466 844.792 253.507 843.207C261.005 839.934 267.884 835.33 273.829 829.606C277.021 826.394 279.826 822.799 282.185 818.899C285.176 814.487 287.555 809.667 289.252 804.58C290.095 802.11 290.579 799.512 291.207 796.951C290.83 796.618 290.471 795.935 290.122 795.935Z" fill="white"/>
<path d="M295.68 771.037C294.531 771.038 293.413 770.651 292.499 769.935C291.586 769.219 290.926 768.214 290.623 767.075C288.695 759.449 285.464 752.234 281.08 745.768C276.508 739.149 270.86 733.389 264.384 728.74C264.018 728.46 263.584 728.289 263.129 728.248C262.675 728.207 262.218 728.297 261.81 728.507C261.402 728.718 261.059 729.041 260.82 729.44C260.581 729.84 260.455 730.3 260.456 730.769V753.934C260.456 754.3 260.386 754.662 260.25 754.999C260.113 755.337 259.914 755.644 259.662 755.902C259.411 756.161 259.112 756.366 258.783 756.506C258.455 756.646 258.102 756.718 257.747 756.718H250.393C249.672 756.714 248.982 756.417 248.473 755.892C247.965 755.366 247.68 754.655 247.68 753.914C247.68 747.601 247.68 741.4 247.68 735.19C247.68 730.269 247.788 725.325 247.68 720.447C247.652 718.777 246.988 717.186 245.83 716.014C244.672 714.842 243.113 714.184 241.488 714.181H217.023C215.39 714.175 213.82 714.832 212.655 716.008C211.489 717.185 210.823 718.786 210.799 720.464C210.799 725.329 210.889 730.269 210.799 735.208V753.934C210.799 754.302 210.728 754.666 210.591 755.006C210.454 755.346 210.253 755.655 210 755.915C209.747 756.175 209.447 756.382 209.116 756.522C208.785 756.663 208.43 756.736 208.072 756.736H200.719C200.362 756.738 200.009 756.668 199.679 756.53C199.349 756.391 199.049 756.186 198.797 755.927C198.545 755.668 198.345 755.36 198.21 755.021C198.075 754.681 198.007 754.318 198.01 753.952V730.767C197.997 730.316 197.867 729.877 197.634 729.495C197.4 729.113 197.071 728.802 196.681 728.595C196.291 728.388 195.854 728.293 195.416 728.318C194.978 728.343 194.554 728.488 194.189 728.739C187.715 733.393 182.065 739.153 177.485 745.768C173.115 752.239 169.891 759.453 167.962 767.075C167.657 768.207 167.003 769.206 166.096 769.921C165.19 770.636 164.081 771.027 162.939 771.037C161.989 771.039 161.079 771.428 160.408 772.119C159.737 772.81 159.36 773.746 159.36 774.722V778.694C159.36 779.178 159.453 779.657 159.633 780.104C159.813 780.551 160.078 780.957 160.411 781.3C160.744 781.642 161.139 781.913 161.574 782.098C162.009 782.284 162.476 782.379 162.947 782.379H194.46C197.537 782.382 200.489 783.635 202.673 785.863C204.771 787.867 206.722 790.026 208.512 792.322C209.055 793.064 209.76 793.665 210.57 794.076C211.38 794.487 212.272 794.697 213.176 794.69H245.453C246.342 794.686 247.217 794.47 248.011 794.059C248.805 793.648 249.494 793.054 250.026 792.322C251.821 790.002 253.775 787.815 255.873 785.78C258.059 783.586 260.996 782.362 264.052 782.371H295.68C296.629 782.369 297.538 781.981 298.209 781.292C298.879 780.602 299.257 779.668 299.259 778.694V774.685C299.259 773.709 298.882 772.773 298.211 772.082C297.54 771.391 296.63 771.002 295.68 770.999V771.037Z" fill="url(#paint1_linear_1393_7)"/>
<path d="M164.149 866.393C164.149 866.195 164.256 866.099 164.454 866.099H166.355C166.453 866.088 166.552 866.111 166.636 866.164C166.721 866.217 166.786 866.298 166.821 866.393L172.758 880.177L178.587 866.393C178.622 866.298 178.687 866.217 178.772 866.164C178.856 866.111 178.955 866.088 179.053 866.099H181.062C181.101 866.093 181.14 866.096 181.178 866.109C181.215 866.121 181.249 866.143 181.277 866.171C181.305 866.2 181.326 866.235 181.338 866.273C181.35 866.312 181.354 866.353 181.348 866.393V886.261C181.354 886.301 181.35 886.342 181.338 886.381C181.326 886.419 181.305 886.454 181.277 886.482C181.249 886.511 181.215 886.533 181.178 886.545C181.14 886.558 181.101 886.561 181.062 886.555H179.269C179.077 886.555 178.963 886.555 178.963 886.261V872.033H178.873L173.923 883.278C173.888 883.39 173.818 883.487 173.724 883.553C173.63 883.62 173.517 883.653 173.403 883.647H172.184C172.064 883.659 171.944 883.628 171.843 883.561C171.743 883.495 171.666 883.395 171.627 883.278L166.677 872.033H166.535V886.261C166.535 886.459 166.428 886.555 166.23 886.555H164.437C164.245 886.555 164.131 886.555 164.131 886.261L164.149 866.393Z" fill="white"/>
<path d="M191.43 866.392C191.443 866.309 191.485 866.234 191.547 866.18C191.609 866.126 191.688 866.097 191.77 866.098H193.69C193.777 866.095 193.862 866.122 193.932 866.176C194.001 866.229 194.051 866.305 194.074 866.392L200.89 886.259C200.89 886.456 200.89 886.553 200.698 886.553H198.641C198.552 886.558 198.464 886.532 198.392 886.479C198.32 886.425 198.268 886.347 198.246 886.259L196.721 881.891H188.669L187.144 886.359C187.122 886.446 187.072 886.522 187.002 886.575C186.933 886.629 186.847 886.656 186.76 886.653H184.721C184.529 886.653 184.452 886.653 184.506 886.359L191.43 866.392ZM195.878 879.292L192.739 870.077L189.583 879.292H195.878Z" fill="white"/>
<path d="M204.056 866.393C204.05 866.353 204.053 866.312 204.066 866.273C204.078 866.235 204.099 866.2 204.127 866.171C204.155 866.143 204.189 866.121 204.226 866.109C204.263 866.096 204.303 866.093 204.342 866.099H206.369C206.408 866.093 206.448 866.096 206.486 866.109C206.523 866.121 206.557 866.143 206.585 866.171C206.613 866.2 206.633 866.235 206.646 866.273C206.658 866.312 206.661 866.353 206.656 866.393V886.261C206.661 886.301 206.658 886.342 206.646 886.381C206.633 886.419 206.613 886.454 206.585 886.482C206.557 886.511 206.523 886.533 206.486 886.545C206.448 886.558 206.408 886.561 206.369 886.555H204.342C204.303 886.561 204.263 886.558 204.226 886.545C204.189 886.533 204.155 886.511 204.127 886.482C204.099 886.454 204.078 886.419 204.066 886.381C204.053 886.342 204.05 886.301 204.056 886.261V866.393Z" fill="white"/>
<path d="M211.573 866.393C211.573 866.195 211.68 866.099 211.878 866.099H213.667C213.77 866.088 213.874 866.111 213.964 866.164C214.054 866.216 214.126 866.296 214.17 866.393L223.139 881.745H223.267V866.393C223.261 866.353 223.265 866.312 223.277 866.273C223.289 866.235 223.31 866.2 223.338 866.171C223.366 866.143 223.4 866.121 223.437 866.109C223.475 866.096 223.514 866.093 223.553 866.099H225.347C225.386 866.093 225.425 866.096 225.463 866.109C225.5 866.121 225.534 866.143 225.562 866.171C225.59 866.2 225.611 866.235 225.623 866.273C225.635 866.312 225.639 866.353 225.633 866.393V886.261C225.639 886.301 225.635 886.342 225.623 886.381C225.611 886.419 225.59 886.454 225.562 886.482C225.534 886.511 225.5 886.533 225.463 886.545C225.425 886.558 225.386 886.561 225.347 886.555H223.553C223.453 886.564 223.352 886.541 223.266 886.488C223.179 886.435 223.11 886.356 223.07 886.261L214.011 870.972H213.921V886.261C213.927 886.301 213.923 886.342 213.911 886.381C213.899 886.419 213.878 886.454 213.85 886.482C213.822 886.511 213.788 886.533 213.751 886.545C213.713 886.558 213.674 886.561 213.635 886.555H211.841C211.649 886.555 211.536 886.555 211.536 886.261L211.573 866.393Z" fill="white"/>
<path d="M235.119 886.553C235.08 886.559 235.041 886.555 235.003 886.543C234.966 886.53 234.932 886.509 234.904 886.48C234.876 886.451 234.855 886.416 234.843 886.378C234.831 886.34 234.827 886.299 234.833 886.259V868.769C234.836 868.744 234.833 868.719 234.825 868.696C234.817 868.672 234.804 868.651 234.787 868.633C234.77 868.616 234.749 868.602 234.726 868.594C234.703 868.586 234.679 868.583 234.655 868.586H229.309C229.117 868.586 229.004 868.586 229.004 868.292V866.449C229.004 866.252 229.112 866.155 229.309 866.155H243.155C243.193 866.149 243.233 866.153 243.271 866.165C243.308 866.178 243.342 866.199 243.37 866.228C243.398 866.257 243.418 866.292 243.431 866.33C243.443 866.368 243.446 866.409 243.441 866.449V868.292C243.446 868.332 243.443 868.373 243.431 868.411C243.418 868.449 243.398 868.484 243.37 868.513C243.342 868.542 243.308 868.563 243.271 868.576C243.233 868.588 243.193 868.592 243.155 868.586H237.779C237.671 868.586 237.617 868.586 237.617 868.769V886.259C237.617 886.456 237.51 886.553 237.312 886.553H235.119Z" fill="white"/>
<path d="M246.474 866.393C246.469 866.353 246.472 866.312 246.484 866.273C246.497 866.235 246.518 866.2 246.545 866.171C246.573 866.143 246.607 866.121 246.645 866.109C246.682 866.096 246.722 866.093 246.761 866.099H258.741C258.78 866.093 258.82 866.096 258.857 866.109C258.895 866.121 258.929 866.143 258.957 866.171C258.984 866.2 259.005 866.235 259.018 866.273C259.03 866.312 259.033 866.353 259.027 866.393V868.235C259.033 868.275 259.03 868.316 259.018 868.354C259.005 868.393 258.984 868.428 258.957 868.456C258.929 868.485 258.895 868.506 258.857 868.519C258.82 868.532 258.78 868.535 258.741 868.529H249.255C249.231 868.526 249.206 868.529 249.183 868.537C249.16 868.546 249.139 868.559 249.122 868.577C249.105 868.594 249.092 868.616 249.084 868.639C249.076 868.663 249.073 868.688 249.076 868.713V874.74C249.073 874.765 249.076 874.79 249.084 874.813C249.092 874.837 249.105 874.858 249.122 874.876C249.139 874.893 249.16 874.907 249.183 874.915C249.206 874.923 249.231 874.926 249.255 874.923H257.307C257.346 874.917 257.386 874.921 257.423 874.933C257.461 874.946 257.494 874.967 257.522 874.996C257.55 875.025 257.571 875.06 257.583 875.098C257.596 875.136 257.599 875.177 257.593 875.217V877.06C257.599 877.1 257.596 877.141 257.583 877.179C257.571 877.217 257.55 877.252 257.522 877.281C257.494 877.31 257.461 877.331 257.423 877.344C257.386 877.356 257.346 877.36 257.307 877.354H249.255C249.13 877.354 249.076 877.354 249.076 877.537V883.766C249.076 883.894 249.076 883.949 249.255 883.949H258.743C258.782 883.943 258.822 883.947 258.859 883.959C258.897 883.972 258.931 883.993 258.958 884.022C258.986 884.051 259.007 884.085 259.02 884.124C259.032 884.162 259.035 884.203 259.029 884.243V886.086C259.035 886.126 259.032 886.167 259.02 886.205C259.007 886.243 258.986 886.278 258.958 886.307C258.931 886.335 258.897 886.357 258.859 886.37C258.822 886.382 258.782 886.386 258.743 886.38H246.762C246.724 886.386 246.684 886.382 246.646 886.37C246.609 886.357 246.575 886.335 246.547 886.307C246.519 886.278 246.499 886.243 246.486 886.205C246.474 886.167 246.471 886.126 246.476 886.086L246.474 866.393Z" fill="white"/>
<path d="M262.958 866.393C262.952 866.353 262.955 866.312 262.967 866.273C262.98 866.235 263.001 866.2 263.028 866.171C263.056 866.143 263.09 866.121 263.128 866.109C263.165 866.096 263.205 866.093 263.244 866.099H265.037C265.14 866.091 265.242 866.115 265.332 866.167C265.421 866.219 265.494 866.298 265.54 866.393L274.508 881.745H274.616V866.393C274.616 866.195 274.723 866.099 274.921 866.099H276.714C276.906 866.099 277.02 866.099 277.02 866.393V886.261C277.02 886.459 276.912 886.555 276.714 886.555H274.921C274.818 886.563 274.716 886.539 274.626 886.487C274.537 886.434 274.464 886.356 274.418 886.261L265.45 870.972V886.261C265.45 886.459 265.342 886.555 265.144 886.555H263.351C263.312 886.561 263.272 886.558 263.235 886.545C263.198 886.533 263.164 886.511 263.136 886.482C263.108 886.454 263.087 886.419 263.075 886.381C263.063 886.342 263.059 886.301 263.065 886.261L262.958 866.393Z" fill="white"/>
<path d="M287.278 866.392C287.287 866.308 287.328 866.23 287.391 866.176C287.454 866.121 287.535 866.093 287.618 866.098H289.519C289.608 866.093 289.696 866.119 289.768 866.173C289.84 866.226 289.892 866.304 289.914 866.392L296.73 886.259C296.73 886.457 296.73 886.553 296.538 886.553H294.47C294.382 886.561 294.295 886.536 294.224 886.482C294.153 886.427 294.104 886.348 294.086 886.259L292.562 881.891H284.517L282.993 886.36C282.971 886.446 282.921 886.522 282.851 886.576C282.781 886.629 282.696 886.657 282.609 886.654H280.57C280.378 886.654 280.301 886.654 280.355 886.36L287.278 866.392ZM291.727 879.293L288.588 870.078L285.414 879.293H291.727Z" fill="white"/>
<path d="M299.906 866.393C299.9 866.353 299.904 866.312 299.916 866.273C299.928 866.235 299.949 866.2 299.977 866.171C300.005 866.143 300.039 866.121 300.076 866.109C300.114 866.096 300.153 866.093 300.192 866.099H301.985C302.089 866.088 302.192 866.111 302.282 866.164C302.372 866.216 302.444 866.296 302.489 866.393L311.457 881.745H311.582V866.393C311.576 866.353 311.579 866.312 311.591 866.273C311.604 866.235 311.625 866.2 311.653 866.171C311.68 866.143 311.714 866.121 311.752 866.109C311.789 866.096 311.829 866.093 311.868 866.099H313.661C313.7 866.093 313.74 866.096 313.777 866.109C313.814 866.121 313.848 866.143 313.876 866.171C313.904 866.2 313.925 866.235 313.937 866.273C313.95 866.312 313.953 866.353 313.947 866.393V886.261C313.953 886.301 313.95 886.342 313.937 886.381C313.925 886.419 313.904 886.454 313.876 886.482C313.848 886.511 313.814 886.533 313.777 886.545C313.74 886.558 313.7 886.561 313.661 886.555H311.868C311.767 886.564 311.667 886.541 311.58 886.488C311.493 886.435 311.425 886.356 311.384 886.261L302.417 870.972H302.327V886.261C302.333 886.301 302.33 886.342 302.317 886.381C302.305 886.419 302.284 886.454 302.256 886.482C302.229 886.511 302.195 886.533 302.157 886.545C302.12 886.558 302.08 886.561 302.041 886.555H300.248C300.209 886.561 300.169 886.558 300.132 886.545C300.094 886.533 300.06 886.511 300.033 886.482C300.005 886.454 299.984 886.419 299.972 886.381C299.959 886.342 299.956 886.301 299.962 886.261L299.906 866.393Z" fill="white"/>
<path d="M318.881 882.076C318.779 881.774 318.695 881.467 318.63 881.154C318.55 880.79 318.497 880.42 318.469 880.048V872.604C318.497 872.232 318.551 871.863 318.63 871.499C318.697 871.187 318.781 870.88 318.881 870.578C319.264 869.096 320.132 867.794 321.339 866.892C322.575 866.068 324.027 865.655 325.5 865.709C326.865 865.671 328.211 866.043 329.374 866.778C330.496 867.511 331.374 868.579 331.889 869.838C331.924 869.907 331.93 869.988 331.906 870.062C331.883 870.136 331.832 870.197 331.765 870.233L329.971 871.099C329.938 871.124 329.899 871.141 329.857 871.147C329.816 871.154 329.774 871.149 329.735 871.135C329.695 871.12 329.66 871.095 329.632 871.063C329.605 871.031 329.585 870.992 329.576 870.951C329.211 870.194 328.691 869.527 328.051 868.998C327.312 868.45 326.413 868.178 325.503 868.224C324.564 868.182 323.637 868.459 322.867 869.013C322.162 869.584 321.643 870.361 321.379 871.243C321.307 871.471 321.253 871.705 321.218 871.943C321.16 872.254 321.119 872.567 321.093 872.882V879.72C321.119 880.035 321.16 880.349 321.218 880.659C321.248 880.898 321.303 881.132 321.379 881.36C321.647 882.233 322.165 883.003 322.865 883.569C323.632 884.131 324.561 884.409 325.501 884.358C326.411 884.404 327.309 884.132 328.047 883.585C328.707 883.058 329.241 882.383 329.608 881.612C329.608 881.415 329.823 881.373 330.004 881.464L331.797 882.33C331.863 882.369 331.913 882.433 331.936 882.507C331.959 882.582 331.954 882.663 331.922 882.735C331.412 883.991 330.534 885.054 329.411 885.775C328.248 886.51 326.901 886.882 325.536 886.844C324.064 886.898 322.611 886.485 321.375 885.66C320.173 884.79 319.294 883.526 318.881 882.076Z" fill="white"/>
<path d="M335.633 866.393C335.627 866.353 335.631 866.312 335.643 866.273C335.655 866.235 335.676 866.2 335.704 866.171C335.732 866.143 335.766 866.121 335.803 866.109C335.841 866.096 335.88 866.093 335.919 866.099H347.9C348.092 866.099 348.205 866.099 348.205 866.393V868.235C348.205 868.432 348.098 868.529 347.9 868.529H338.413C338.389 868.526 338.365 868.529 338.342 868.537C338.319 868.546 338.298 868.559 338.281 868.577C338.264 868.594 338.251 868.616 338.243 868.639C338.235 868.663 338.232 868.688 338.235 868.713V874.74C338.232 874.765 338.235 874.79 338.243 874.813C338.251 874.837 338.264 874.858 338.281 874.876C338.298 874.893 338.319 874.907 338.342 874.915C338.365 874.923 338.389 874.926 338.413 874.923H346.466C346.658 874.923 346.771 874.923 346.771 875.217V877.06C346.771 877.257 346.664 877.354 346.466 877.354H338.413C338.389 877.351 338.365 877.354 338.342 877.362C338.319 877.37 338.298 877.384 338.281 877.401C338.264 877.419 338.251 877.44 338.243 877.464C338.235 877.487 338.232 877.513 338.235 877.537V883.766C338.232 883.79 338.235 883.816 338.243 883.839C338.251 883.863 338.264 883.884 338.281 883.902C338.298 883.919 338.319 883.933 338.342 883.941C338.365 883.949 338.389 883.952 338.413 883.949H347.902C348.094 883.949 348.207 883.949 348.207 884.243V886.086C348.207 886.283 348.1 886.38 347.902 886.38H335.921C335.882 886.386 335.843 886.382 335.805 886.37C335.768 886.357 335.734 886.335 335.706 886.307C335.678 886.278 335.657 886.243 335.645 886.205C335.633 886.167 335.629 886.126 335.635 886.086L335.633 866.393Z" fill="white"/>
<path d="M358.752 881.54C358.751 880.406 359.076 879.297 359.685 878.352C360.517 877.122 361.534 876.037 362.698 875.136L361.546 873.587C361.272 873.184 361.021 872.766 360.793 872.334C360.612 871.98 360.461 871.611 360.344 871.229C360.251 870.881 360.202 870.522 360.2 870.16C360.202 869.565 360.317 868.977 360.54 868.428C360.757 867.895 361.085 867.417 361.5 867.027C361.919 866.623 362.414 866.31 362.953 866.106C363.526 865.884 364.134 865.772 364.746 865.774C365.36 865.773 365.969 865.892 366.54 866.126C367.076 866.332 367.565 866.652 367.974 867.065C368.378 867.458 368.696 867.936 368.907 868.465C369.122 869.003 369.232 869.579 369.23 870.16C369.231 870.604 369.166 871.045 369.038 871.468C368.892 871.898 368.693 872.307 368.446 872.685C368.114 873.144 367.748 873.575 367.352 873.976C366.909 874.418 366.353 874.915 365.683 875.469L369.468 880.464L371.495 877.9C371.516 877.865 371.545 877.836 371.58 877.817C371.614 877.797 371.653 877.786 371.693 877.786C371.733 877.786 371.772 877.797 371.806 877.817C371.841 877.836 371.87 877.865 371.891 877.9L373.043 878.914C373.076 878.938 373.103 878.969 373.122 879.006C373.141 879.043 373.15 879.084 373.15 879.126C373.15 879.168 373.141 879.209 373.122 879.246C373.103 879.282 373.076 879.314 373.043 879.338L371.015 882.268L371.975 883.558C372.137 883.765 372.324 883.951 372.532 884.11C372.716 884.223 372.928 884.28 373.142 884.276H373.592C373.784 884.276 373.878 884.387 373.878 884.59V886.267C373.884 886.307 373.88 886.348 373.868 886.386C373.856 886.424 373.835 886.459 373.807 886.488C373.779 886.516 373.745 886.538 373.708 886.551C373.67 886.563 373.631 886.567 373.592 886.561H372.803C372.317 886.587 371.833 886.498 371.386 886.302C370.93 886.013 370.544 885.623 370.255 885.16L369.448 884.11C368.713 884.95 367.854 885.665 366.902 886.229C366.024 886.682 365.051 886.909 364.069 886.892C363.302 886.91 362.54 886.772 361.826 886.486C361.207 886.25 360.649 885.872 360.194 885.381C359.739 884.898 359.391 884.32 359.173 883.686C358.908 883.003 358.765 882.275 358.752 881.54ZM361.066 881.392C361.015 882.268 361.305 883.13 361.872 883.787C362.171 884.096 362.532 884.335 362.93 884.488C363.328 884.641 363.753 884.703 364.176 884.671C364.854 884.677 365.52 884.485 366.096 884.118C366.846 883.617 367.513 882.995 368.07 882.276L364.038 876.858C363.176 877.511 362.409 878.287 361.761 879.162C361.304 879.81 361.065 880.592 361.079 881.392H361.066ZM364.51 873.652C364.979 873.29 365.427 872.902 365.854 872.49C366.142 872.219 366.399 871.916 366.622 871.587C366.778 871.348 366.899 871.088 366.981 870.813C367.008 870.575 367.008 870.334 366.981 870.095C366.99 869.803 366.939 869.513 366.831 869.243C366.723 868.973 366.56 868.729 366.353 868.529C366.134 868.315 365.874 868.15 365.591 868.042C365.308 867.934 365.006 867.886 364.704 867.901C364.404 867.882 364.104 867.928 363.823 868.036C363.542 868.144 363.286 868.312 363.072 868.529C362.692 868.97 362.493 869.544 362.515 870.133C362.489 870.347 362.489 870.563 362.515 870.778C362.596 871.023 362.704 871.258 362.838 871.478C363.014 871.793 363.212 872.095 363.429 872.382L364.51 873.652Z" fill="white"/>
<path d="M384.545 882.075C384.449 881.773 384.371 881.465 384.313 881.153C384.234 880.789 384.18 880.419 384.152 880.047C384.152 879.605 384.152 879.088 384.152 878.498V872.603C384.18 872.231 384.234 871.862 384.313 871.498C384.374 871.187 384.451 870.879 384.545 870.577C384.934 869.093 385.808 867.791 387.02 866.892C388.228 866.139 389.61 865.732 391.023 865.713C392.436 865.693 393.828 866.062 395.055 866.781C396.172 867.52 397.046 868.586 397.567 869.841C397.601 869.91 397.607 869.991 397.584 870.065C397.56 870.139 397.509 870.2 397.442 870.236L395.649 871.102C395.457 871.212 395.326 871.102 395.236 870.954C394.872 870.188 394.347 869.514 393.7 868.981C392.96 868.437 392.063 868.164 391.154 868.207C390.215 868.165 389.288 868.442 388.518 868.997C387.812 869.57 387.288 870.346 387.011 871.226L386.849 871.926C386.861 872.243 386.825 872.56 386.742 872.865C386.688 873.324 386.688 873.788 386.742 874.246V879.697C386.717 880.015 386.753 880.334 386.849 880.637C386.923 880.865 386.976 881.099 387.011 881.337C387.293 882.209 387.817 882.978 388.518 883.549C389.284 884.11 390.214 884.389 391.154 884.338C392.064 884.381 392.961 884.109 393.702 883.564C394.355 883.037 394.881 882.362 395.238 881.591C395.328 881.394 395.453 881.353 395.651 881.443L397.444 882.31C397.51 882.349 397.56 882.412 397.583 882.487C397.606 882.562 397.601 882.643 397.569 882.714C397.053 883.967 396.176 885.028 395.057 885.754C393.83 886.473 392.438 886.842 391.025 886.823C389.612 886.803 388.23 886.396 387.022 885.644C385.83 884.772 384.958 883.512 384.547 882.069L384.545 882.075Z" fill="white"/>
<path d="M407.896 886.884C406.388 886.94 404.9 886.522 403.628 885.687C402.424 884.822 401.543 883.561 401.132 882.112C401.03 881.804 400.946 881.491 400.881 881.173C400.802 880.802 400.748 880.426 400.719 880.048V872.602C400.749 872.224 400.803 871.849 400.881 871.478C400.946 871.166 401.03 870.858 401.132 870.557C401.547 869.104 402.426 867.837 403.628 866.962C404.925 866.177 406.402 865.764 407.906 865.764C409.41 865.764 410.887 866.177 412.184 866.962C413.395 867.832 414.28 869.1 414.695 870.557C414.748 870.872 414.832 871.181 414.947 871.478C415.025 871.849 415.078 872.224 415.108 872.602V880.048C415.08 880.426 415.026 880.802 414.947 881.173C414.907 881.496 414.823 881.813 414.695 882.112C414.284 883.565 413.397 884.828 412.184 885.687C410.908 886.528 409.411 886.946 407.896 886.884ZM407.896 884.396C408.865 884.444 409.821 884.167 410.623 883.607C411.355 883.048 411.891 882.258 412.147 881.358C412.186 881.127 412.24 880.899 412.309 880.675C412.362 880.399 412.399 880.068 412.453 879.661C412.512 879.197 412.548 878.729 412.56 878.261C412.56 877.708 412.56 877.063 412.56 876.418V874.575C412.548 874.101 412.512 873.627 412.453 873.157C412.44 872.814 412.392 872.474 412.309 872.143C412.255 871.867 412.201 871.646 412.147 871.46C411.891 870.56 411.355 869.77 410.623 869.211C409.818 868.659 408.863 868.383 407.896 868.422C406.935 868.382 405.986 868.658 405.187 869.211C404.459 869.771 403.93 870.561 403.68 871.46C403.642 871.691 403.588 871.919 403.519 872.143C403.506 872.485 403.458 872.825 403.375 873.157C403.316 873.627 403.28 874.101 403.267 874.575C403.267 875.11 403.267 875.759 403.267 876.418V878.261C403.279 878.729 403.315 879.197 403.375 879.661C403.342 880.006 403.392 880.354 403.519 880.675C403.605 880.894 403.659 881.124 403.68 881.358C403.93 882.257 404.459 883.047 405.187 883.607C405.982 884.167 406.934 884.444 407.896 884.396Z" fill="white"/>
<path d="M419.432 866.391C419.426 866.351 419.429 866.31 419.441 866.271C419.454 866.233 419.475 866.198 419.502 866.169C419.53 866.141 419.564 866.119 419.602 866.107C419.639 866.094 419.679 866.091 419.718 866.097H421.511C421.614 866.083 421.719 866.105 421.81 866.158C421.901 866.211 421.972 866.292 422.014 866.391L430.982 881.743H431.107V866.391C431.101 866.351 431.105 866.31 431.117 866.271C431.129 866.233 431.15 866.198 431.178 866.169C431.206 866.141 431.24 866.119 431.277 866.107C431.315 866.094 431.354 866.091 431.393 866.097H433.187C433.225 866.091 433.265 866.094 433.303 866.107C433.34 866.119 433.374 866.141 433.402 866.169C433.43 866.198 433.45 866.233 433.463 866.271C433.475 866.31 433.478 866.351 433.473 866.391V886.259C433.478 886.299 433.475 886.34 433.463 886.379C433.45 886.417 433.43 886.452 433.402 886.48C433.374 886.509 433.34 886.531 433.303 886.543C433.265 886.556 433.225 886.559 433.187 886.553H431.303C431.203 886.562 431.102 886.539 431.015 886.486C430.929 886.433 430.86 886.354 430.819 886.259L421.761 870.97V886.259C421.766 886.299 421.763 886.34 421.751 886.379C421.738 886.417 421.718 886.452 421.69 886.48C421.662 886.509 421.628 886.531 421.591 886.543C421.553 886.556 421.513 886.559 421.474 886.553H419.681C419.642 886.56 419.602 886.556 419.565 886.544C419.527 886.531 419.493 886.51 419.465 886.481C419.437 886.453 419.415 886.418 419.403 886.379C419.391 886.341 419.387 886.3 419.393 886.259L419.432 866.391Z" fill="white"/>
<path d="M442.996 886.552C442.804 886.552 442.691 886.552 442.691 886.258V868.768C442.691 868.658 442.691 868.585 442.529 868.585H437.153C436.961 868.585 436.848 868.585 436.848 868.291V866.448C436.848 866.251 436.956 866.154 437.153 866.154H451C451.192 866.154 451.306 866.154 451.306 866.448V868.291C451.306 868.488 451.198 868.585 451 868.585H445.624C445.6 868.582 445.576 868.585 445.553 868.593C445.53 868.601 445.509 868.615 445.492 868.632C445.475 868.65 445.462 868.671 445.454 868.695C445.446 868.718 445.443 868.744 445.446 868.768V886.258C445.446 886.455 445.338 886.552 445.141 886.552H442.996Z" fill="white"/>
<path d="M465.865 886.557C465.778 886.56 465.693 886.533 465.623 886.479C465.553 886.426 465.503 886.35 465.481 886.263L461.514 877.892H457.098C456.974 877.892 456.92 877.892 456.92 878.076V886.261C456.926 886.301 456.922 886.342 456.91 886.381C456.898 886.419 456.877 886.454 456.849 886.482C456.821 886.511 456.787 886.533 456.75 886.545C456.712 886.558 456.673 886.561 456.634 886.555H454.602C454.563 886.561 454.524 886.558 454.486 886.545C454.449 886.533 454.415 886.511 454.387 886.482C454.359 886.454 454.338 886.419 454.326 886.381C454.314 886.342 454.31 886.301 454.316 886.261V866.393C454.31 866.353 454.314 866.312 454.326 866.273C454.338 866.235 454.359 866.2 454.387 866.171C454.415 866.143 454.449 866.121 454.486 866.109C454.524 866.096 454.563 866.093 454.602 866.099H461.777C462.644 866.081 463.507 866.224 464.323 866.523C465.047 866.775 465.712 867.178 466.278 867.706C466.831 868.215 467.266 868.845 467.551 869.549C467.865 870.319 468.024 871.147 468.017 871.982C468.052 873.243 467.68 874.48 466.959 875.501C466.234 876.474 465.23 877.189 464.089 877.547L468.34 886.19C468.366 886.228 468.381 886.273 468.381 886.32C468.381 886.366 468.366 886.411 468.34 886.449H468.148L465.865 886.557ZM461.775 875.509C462.757 875.569 463.724 875.246 464.485 874.606C465.1 873.924 465.442 873.029 465.442 872.099C465.442 871.169 465.1 870.274 464.485 869.593C463.729 868.944 462.758 868.62 461.775 868.689H457.098C457.074 868.686 457.05 868.689 457.027 868.697C457.004 868.705 456.983 868.719 456.966 868.736C456.949 868.754 456.936 868.775 456.928 868.799C456.92 868.823 456.917 868.848 456.92 868.872V875.312C456.917 875.337 456.92 875.362 456.928 875.385C456.936 875.409 456.949 875.43 456.966 875.448C456.983 875.466 457.004 875.479 457.027 875.487C457.05 875.495 457.074 875.498 457.098 875.495L461.775 875.509Z" fill="white"/>
<path d="M477.56 866.391C477.573 866.305 477.618 866.227 477.684 866.173C477.75 866.119 477.834 866.092 477.919 866.097H479.819C479.907 866.089 479.995 866.115 480.066 866.169C480.137 866.223 480.186 866.302 480.203 866.391L487.019 886.258C487.019 886.455 487.019 886.552 486.827 886.552H484.783C484.694 886.557 484.606 886.531 484.535 886.477C484.463 886.424 484.411 886.346 484.389 886.258L482.882 881.89H474.818L473.232 886.26C473.21 886.346 473.16 886.423 473.09 886.476C473.02 886.529 472.935 886.557 472.848 886.554H470.803C470.611 886.554 470.534 886.554 470.588 886.26L477.56 866.391ZM482.008 879.292L478.869 870.076L475.713 879.292H482.008Z" fill="white"/>
<path d="M489.379 882.074C489.289 881.78 489.201 881.466 489.128 881.152C489.055 880.839 489.02 880.47 488.966 880.048C488.939 879.532 488.939 879.015 488.966 878.499V872.602C488.984 872.229 489.038 871.859 489.128 871.497C489.195 871.186 489.279 870.878 489.379 870.576C489.768 869.092 490.642 867.79 491.854 866.891C493.062 866.138 494.444 865.731 495.857 865.712C497.27 865.692 498.662 866.061 499.889 866.78C501.006 867.519 501.88 868.585 502.401 869.84C502.435 869.909 502.441 869.99 502.418 870.064C502.394 870.138 502.343 870.199 502.276 870.235L500.483 871.101C500.447 871.124 500.407 871.138 500.365 871.143C500.324 871.147 500.281 871.143 500.242 871.128C500.202 871.114 500.166 871.091 500.136 871.061C500.107 871.03 500.084 870.993 500.07 870.953C499.7 870.19 499.177 869.518 498.534 868.98C497.788 868.433 496.884 868.16 495.969 868.206C495.029 868.164 494.103 868.441 493.333 868.996C492.633 869.571 492.115 870.347 491.845 871.225L491.683 871.925C491.623 872.235 491.588 872.549 491.576 872.864V879.696C491.587 880.012 491.623 880.326 491.683 880.636C491.705 880.876 491.76 881.111 491.845 881.336C492.119 882.207 492.637 882.976 493.333 883.548C494.099 884.11 495.028 884.388 495.969 884.337C496.884 884.383 497.788 884.11 498.534 883.563C499.181 883.029 499.705 882.356 500.07 881.59C500.07 881.393 500.285 881.352 500.483 881.442L502.276 882.309C502.343 882.348 502.393 882.411 502.416 882.487C502.439 882.562 502.434 882.644 502.401 882.715C501.885 883.968 501.009 885.029 499.889 885.755C498.662 886.474 497.27 886.843 495.857 886.824C494.444 886.804 493.062 886.397 491.854 885.645C490.662 884.774 489.791 883.516 489.379 882.074Z" fill="white"/>
<path d="M510.042 886.553C510.004 886.559 509.964 886.555 509.926 886.543C509.889 886.53 509.855 886.509 509.827 886.48C509.799 886.451 509.779 886.416 509.766 886.378C509.754 886.34 509.751 886.299 509.756 886.259V868.769C509.759 868.744 509.756 868.719 509.748 868.696C509.74 868.672 509.727 868.651 509.71 868.633C509.693 868.616 509.672 868.602 509.649 868.594C509.626 868.586 509.602 868.583 509.578 868.586H504.202C504.163 868.592 504.123 868.588 504.086 868.576C504.048 868.563 504.014 868.542 503.987 868.513C503.959 868.484 503.938 868.449 503.926 868.411C503.913 868.373 503.91 868.332 503.916 868.292V866.449C503.91 866.409 503.913 866.368 503.926 866.33C503.938 866.292 503.959 866.257 503.987 866.228C504.014 866.199 504.048 866.178 504.086 866.165C504.123 866.153 504.163 866.149 504.202 866.155H518.083C518.122 866.149 518.162 866.153 518.199 866.165C518.237 866.178 518.271 866.199 518.299 866.228C518.326 866.257 518.347 866.292 518.36 866.33C518.372 866.368 518.375 866.409 518.37 866.449V868.292C518.375 868.332 518.372 868.373 518.36 868.411C518.347 868.449 518.326 868.484 518.299 868.513C518.271 868.542 518.237 868.563 518.199 868.576C518.162 868.588 518.122 868.592 518.083 868.586H512.707C512.683 868.583 512.659 868.586 512.636 868.594C512.613 868.602 512.592 868.616 512.575 868.633C512.558 868.651 512.545 868.672 512.537 868.696C512.529 868.719 512.526 868.744 512.529 868.769V886.259C512.535 886.299 512.531 886.34 512.519 886.378C512.507 886.416 512.486 886.451 512.458 886.48C512.43 886.509 512.396 886.53 512.359 886.543C512.321 886.555 512.282 886.559 512.243 886.553H510.042Z" fill="white"/>
<path d="M521.376 866.392C521.376 866.194 521.484 866.098 521.681 866.098H523.69C523.882 866.098 523.995 866.098 523.995 866.392V886.26C523.995 886.458 523.888 886.554 523.69 886.554H521.662C521.47 886.554 521.357 886.554 521.357 886.26L521.376 866.392Z" fill="white"/>
<path d="M528.837 866.393C528.831 866.353 528.835 866.312 528.847 866.273C528.859 866.235 528.88 866.2 528.908 866.171C528.936 866.143 528.97 866.121 529.007 866.109C529.045 866.096 529.084 866.093 529.123 866.099H531.007C531.11 866.091 531.212 866.115 531.302 866.167C531.391 866.219 531.464 866.298 531.51 866.393L540.478 881.745H540.586V866.393C540.58 866.353 540.583 866.312 540.596 866.273C540.608 866.235 540.629 866.2 540.657 866.171C540.684 866.143 540.718 866.121 540.756 866.109C540.793 866.096 540.833 866.093 540.872 866.099H542.665C542.857 866.099 542.97 866.099 542.97 866.393V886.261C542.97 886.459 542.863 886.555 542.665 886.555H540.872C540.769 886.565 540.665 886.543 540.575 886.49C540.485 886.437 540.413 886.358 540.369 886.261L531.312 870.972H531.222V886.261C531.228 886.301 531.224 886.342 531.212 886.381C531.2 886.419 531.179 886.454 531.151 886.482C531.123 886.511 531.089 886.533 531.052 886.545C531.014 886.558 530.975 886.561 530.936 886.555H529.143C529.104 886.561 529.064 886.558 529.027 886.545C528.989 886.533 528.955 886.511 528.927 886.482C528.9 886.454 528.879 886.419 528.866 886.381C528.854 886.342 528.851 886.301 528.856 886.261L528.837 866.393Z" fill="white"/>
<path d="M547.886 882.114C547.789 881.806 547.712 881.492 547.653 881.175C547.618 880.797 547.564 880.422 547.492 880.05C547.438 879.626 547.492 879.091 547.384 878.502C547.33 877.779 547.33 877.054 547.384 876.331V874.171C547.361 873.646 547.397 873.121 547.492 872.605C547.564 872.233 547.618 871.858 547.653 871.48C547.712 871.168 547.789 870.861 547.886 870.559C548.292 869.108 549.164 867.841 550.36 866.964C551.648 866.134 553.146 865.717 554.665 865.767C555.464 865.759 556.261 865.865 557.032 866.08C557.969 866.338 558.838 866.808 559.574 867.457C560.309 868.106 560.894 868.916 561.283 869.829C561.283 870.012 561.283 870.16 561.193 870.253L559.4 871.137C559.221 871.137 559.095 871.137 558.987 870.971C558.573 870.14 557.955 869.435 557.194 868.925C556.363 868.469 555.431 868.241 554.489 868.264C553.547 868.286 552.627 868.558 551.818 869.053C551.085 869.613 550.55 870.402 550.293 871.303C550.216 871.518 550.157 871.74 550.115 871.965C550.047 872.29 550.005 872.62 549.99 872.952C549.999 873.421 549.969 873.889 549.9 874.353C549.854 875.015 549.854 875.68 549.9 876.343V878.352C549.879 878.82 549.91 879.29 549.99 879.752C550.006 880.075 550.048 880.395 550.115 880.711C550.156 880.937 550.216 881.158 550.293 881.374C550.55 882.274 551.085 883.064 551.818 883.623C552.639 884.184 553.613 884.46 554.598 884.412C555.535 884.43 556.458 884.167 557.253 883.657C558.03 883.148 558.603 882.369 558.868 881.463C558.991 881.041 559.081 880.609 559.137 880.173C559.211 879.561 559.247 878.946 559.244 878.33C559.244 878.202 559.244 878.146 559.083 878.146H555.208C555.17 878.152 555.13 878.149 555.092 878.136C555.055 878.124 555.021 878.102 554.993 878.074C554.965 878.045 554.944 878.01 554.932 877.972C554.92 877.933 554.916 877.892 554.922 877.852V876.01C554.916 875.97 554.92 875.929 554.932 875.891C554.944 875.852 554.965 875.817 554.993 875.789C555.021 875.76 555.055 875.739 555.092 875.726C555.13 875.713 555.17 875.71 555.208 875.716H561.558C561.75 875.716 561.863 875.716 561.863 876.01V877.539C561.864 878.401 561.816 879.263 561.719 880.119C561.664 880.745 561.543 881.363 561.36 881.962C560.96 883.45 560.073 884.752 558.849 885.647C557.588 886.497 556.104 886.928 554.598 886.882C553.078 886.942 551.576 886.524 550.293 885.685C549.12 884.809 548.272 883.55 547.886 882.114Z" fill="white"/>
<path d="M447.752 845.531C436.631 845.531 428.751 842.896 424.113 837.624C419.474 832.353 417.156 824.102 417.158 812.873V769.988C417.156 769.207 416.853 768.458 416.315 767.906C415.777 767.353 415.048 767.041 414.288 767.039H411.007C410.231 767.039 409.487 766.722 408.939 766.159C408.391 765.595 408.083 764.831 408.083 764.034V749.198C408.08 748.802 408.154 748.409 408.3 748.043C408.446 747.676 408.661 747.343 408.933 747.062C409.205 746.781 409.528 746.558 409.884 746.406C410.24 746.254 410.621 746.176 411.007 746.176H414.29C415.05 746.173 415.779 745.861 416.317 745.309C416.855 744.756 417.158 744.008 417.16 743.226V724.373C417.16 723.342 417.359 722.32 417.744 721.367C418.129 720.415 418.694 719.55 419.406 718.822C420.117 718.094 420.962 717.518 421.891 717.127C422.82 716.735 423.815 716.536 424.819 716.541H437.159C439.185 716.544 441.128 717.372 442.561 718.844C443.994 720.316 444.802 722.311 444.806 724.393V742.97C444.806 743.386 444.886 743.798 445.041 744.183C445.196 744.568 445.424 744.917 445.71 745.212C445.997 745.506 446.337 745.739 446.711 745.899C447.085 746.058 447.487 746.14 447.892 746.14H454.869C456.295 746.14 457.662 746.722 458.671 747.758C459.679 748.794 460.245 750.199 460.245 751.664V761.602C460.245 763.067 459.679 764.472 458.671 765.508C457.662 766.544 456.295 767.126 454.869 767.126H447.892C447.074 767.126 446.289 767.46 445.71 768.054C445.131 768.649 444.806 769.455 444.806 770.296V811.86C444.806 815.546 445.452 818.071 446.78 819.49C447.705 820.286 448.777 820.883 449.932 821.244C451.086 821.605 452.3 821.723 453.5 821.591H455.293C456.58 821.614 457.808 822.15 458.718 823.085C459.628 824.02 460.149 825.282 460.172 826.604V840.388C460.182 841.055 460.063 841.718 459.822 842.337C459.582 842.957 459.225 843.522 458.772 844C458.318 844.477 457.778 844.858 457.181 845.121C456.584 845.383 455.943 845.522 455.293 845.53L447.752 845.531Z" fill="white"/>
<path d="M539.814 844.313C535.294 844.313 534.666 839.381 535.043 835.798C484.679 880.977 444.108 783.089 516.478 784.877C520.065 783.863 536.208 788.175 534.63 780.011C534.217 759.223 507.314 767.626 494.383 771.572C493.483 771.843 492.521 771.794 491.652 771.432C490.782 771.071 490.057 770.419 489.594 769.581L483.873 759.261C483.402 758.436 483.217 757.471 483.348 756.524C483.478 755.577 483.916 754.703 484.591 754.045C505.181 734.675 565.786 739.67 560.89 779.404V839.395C561.301 847.778 544.03 843.189 539.814 844.313ZM516.605 825.238C528.442 825.238 534.361 820.71 534.361 811.654V807.971C534.361 806.827 533.919 805.73 533.132 804.922C532.345 804.113 531.277 803.658 530.164 803.658H519.761C508.437 803.658 502.776 807.341 502.777 814.706C502.777 821.729 507.386 825.238 516.605 825.238Z" fill="white"/>
<path d="M351.272 847.685C338.896 847.354 321.714 844.404 312.818 836.637C311.99 835.925 311.309 835.049 310.817 834.061C310.324 833.073 310.03 831.993 309.951 830.886C309.873 829.779 310.011 828.667 310.359 827.616C310.707 826.565 311.256 825.597 311.975 824.768L316.837 819.244C317.961 817.909 319.473 816.979 321.151 816.591C322.828 816.204 324.582 816.379 326.154 817.092C336.396 821.699 349.363 828.757 360.233 824.721C362.681 823.677 364.802 821.962 366.367 819.763C373.146 808.981 352.215 806.863 343.158 806.511C314.264 807.046 301.045 771.716 322.172 753.471C335.069 742.423 369.433 741.768 384.536 753.692C385.395 754.369 386.113 755.216 386.648 756.183C387.183 757.15 387.524 758.217 387.651 759.322C387.778 760.426 387.688 761.546 387.387 762.614C387.087 763.683 386.581 764.678 385.899 765.543L382.078 770.39C380.843 771.945 379.102 772.988 377.177 773.326C375.252 773.665 373.273 773.277 371.605 772.233C369.768 770.937 367.748 769.942 365.614 769.283C364.941 769.13 364.281 768.92 363.641 768.656C344.754 760.472 325.168 777.52 348.413 782.423C350.328 782.794 352.277 782.955 354.225 782.902C409.277 782.371 406.084 849.492 351.272 847.685Z" fill="white"/>
</g>
<defs>
<linearGradient id="paint0_linear_1393_7" x1="383.76" y1="-1.46425e-07" x2="362.43" y2="1599.77" gradientUnits="userSpaceOnUse">
<stop stop-color="#29F19B"/>
<stop offset="1" stop-color="#0DB6E1"/>
</linearGradient>
<linearGradient id="paint1_linear_1393_7" x1="229.31" y1="714.181" x2="229.31" y2="794.69" gradientUnits="userSpaceOnUse">
<stop stop-color="#FECC00"/>
<stop offset="1" stop-color="#F8AE00"/>
</linearGradient>
</defs>
</svg>
