<svg width="16" height="16" viewBox="0 0 16 16" fill="none" xmlns="http://www.w3.org/2000/svg">
<path d="M4.80016 3.11798V4.09398H14.0672V6.02498L12.9852 9.45898H4.49316L3.27416 0.677979H0.410156V1.65298H2.42416L3.64416 10.434H13.7002L15.0422 6.17398V3.11798H4.80016Z" fill="white" stroke="white" stroke-width="0.3"/>
<path d="M5.32209 11.42C4.93622 11.42 4.55902 11.5344 4.23818 11.7488C3.91734 11.9632 3.66727 12.2679 3.51961 12.6244C3.37194 12.9809 3.3333 13.3731 3.40858 13.7516C3.48386 14.1301 3.66968 14.4777 3.94253 14.7505C4.21538 15.0234 4.56302 15.2092 4.94147 15.2845C5.31993 15.3598 5.71221 15.3211 6.06871 15.1735C6.42521 15.0258 6.72991 14.7757 6.94429 14.4549C7.15867 14.1341 7.27309 13.7569 7.27309 13.371C7.27256 12.8537 7.06684 12.3578 6.70107 11.992C6.33531 11.6262 5.83937 11.4205 5.32209 11.42ZM5.32209 14.347C5.12906 14.347 4.94036 14.2897 4.77986 14.1825C4.61936 14.0753 4.49426 13.9228 4.42039 13.7445C4.34652 13.5661 4.32719 13.3699 4.36485 13.1806C4.40251 12.9912 4.49546 12.8173 4.63196 12.6808C4.76845 12.5444 4.94236 12.4514 5.13169 12.4137C5.32101 12.3761 5.51725 12.3954 5.69559 12.4693C5.87393 12.5431 6.02636 12.6682 6.13361 12.8287C6.24085 12.9892 6.29809 13.1779 6.29809 13.371C6.29783 13.6297 6.19488 13.8777 6.01188 14.0605C5.82887 14.2433 5.58077 14.347 5.32209 14.347Z" fill="white" stroke="white" stroke-width="0.3"/>
<path d="M12.1462 11.42C11.7605 11.4208 11.3836 11.5359 11.0633 11.7508C10.743 11.9657 10.4935 12.2707 10.3465 12.6274C10.1995 12.984 10.1615 13.3762 10.2373 13.7544C10.3131 14.1326 10.4993 14.4799 10.7724 14.7523C11.0455 15.0247 11.3933 15.2101 11.7717 15.2849C12.1501 15.3597 12.5422 15.3207 12.8984 15.1728C13.2547 15.0249 13.5591 14.7746 13.7732 14.4538C13.9873 14.1329 14.1014 13.7557 14.1012 13.37C14.1004 12.8522 13.894 12.3559 13.5274 11.9902C13.1608 11.6246 12.664 11.4195 12.1462 11.42ZM12.1462 14.347C11.9532 14.347 11.7645 14.2897 11.604 14.1825C11.4435 14.0753 11.3184 13.9228 11.2445 13.7445C11.1706 13.5661 11.1513 13.3699 11.189 13.1806C11.2266 12.9913 11.3196 12.8173 11.4561 12.6808C11.5926 12.5444 11.7665 12.4514 11.9558 12.4137C12.1451 12.3761 12.3414 12.3954 12.5197 12.4693C12.6981 12.5431 12.8505 12.6682 12.9577 12.8287C13.065 12.9893 13.1222 13.1779 13.1222 13.371C13.122 13.6297 13.019 13.8777 12.836 14.0605C12.653 14.2433 12.4049 14.347 12.1462 14.347Z" fill="white" stroke="white" stroke-width="0.3"/>
</svg>
