<svg width="28" height="28" viewBox="0 0 28 28" fill="none" xmlns="http://www.w3.org/2000/svg">
<path opacity="0.2" d="M28 14C28 6.26801 21.732 0 14 0C6.26801 0 0 6.26801 0 14C0 21.732 6.26801 28 14 28C21.732 28 28 21.732 28 14Z" fill="url(#paint0_linear_1367_15505)"/>
<path d="M18.5164 20.746H11.8054C11.2334 20.746 10.6847 20.5187 10.2802 20.1142C9.87569 19.7097 9.64844 19.1611 9.64844 18.589V11.878C9.64844 11.3059 9.87569 10.7573 10.2802 10.3528C10.6847 9.94826 11.2334 9.721 11.8054 9.721H18.5164C19.0885 9.721 19.6371 9.94826 20.0417 10.3528C20.4462 10.7573 20.6734 11.3059 20.6734 11.878V18.589C20.6734 19.1611 20.4462 19.7097 20.0417 20.1142C19.6371 20.5187 19.0885 20.746 18.5164 20.746Z" fill="url(#paint1_linear_1367_15505)"/>
<path d="M11.085 8.762H18.152C18.0028 8.34172 17.7272 7.9779 17.363 7.72045C16.9989 7.46299 16.564 7.32451 16.118 7.324H9.407C8.83493 7.324 8.28629 7.55126 7.88177 7.95577C7.47725 8.36029 7.25 8.90893 7.25 9.481V16.192C7.25051 16.638 7.38899 17.0729 7.64645 17.437C7.9039 17.8012 8.26772 18.0768 8.688 18.226V11.159C8.688 10.5225 8.94086 9.91203 9.39094 9.46195C9.84103 9.01186 10.4515 8.759 11.088 8.759L11.085 8.762Z" fill="url(#paint2_linear_1367_15505)"/>
<defs>
<linearGradient id="paint0_linear_1367_15505" x1="14" y1="0" x2="14" y2="0" gradientUnits="userSpaceOnUse">
<stop stop-color="#29F19B"/>
<stop offset="1" stop-color="#0DB6E1"/>
</linearGradient>
<linearGradient id="paint1_linear_1367_15505" x1="15.1609" y1="9.721" x2="15.1609" y2="9.721" gradientUnits="userSpaceOnUse">
<stop stop-color="#29F19B"/>
<stop offset="1" stop-color="#0DB6E1"/>
</linearGradient>
<linearGradient id="paint2_linear_1367_15505" x1="12.701" y1="7.324" x2="12.701" y2="7.324" gradientUnits="userSpaceOnUse">
<stop stop-color="#29F19B"/>
<stop offset="1" stop-color="#0DB6E1"/>
</linearGradient>
</defs>
</svg>
