<svg width="250" height="146" viewBox="0 0 250 146" fill="none" xmlns="http://www.w3.org/2000/svg">
<g clip-path="url(#clip0_273_2243)">
<g opacity="0.1">
<path opacity="0.1" d="M183.808 143.032C186.477 143.032 188.64 140.201 188.64 136.708C188.64 133.216 186.477 130.385 183.808 130.385C181.14 130.385 178.977 133.216 178.977 136.708C178.977 140.201 181.14 143.032 183.808 143.032Z" fill="#3F3D56"/>
<path opacity="0.1" d="M187.632 109.657C188.309 108.482 188.66 107.148 188.649 105.792C188.649 102.292 186.486 99.4684 183.817 99.4684C181.149 99.4684 178.988 102.299 178.988 105.792C178.974 107.147 179.322 108.481 179.996 109.657C179.335 110.837 178.988 112.167 178.988 113.52C178.988 114.873 179.335 116.204 179.996 117.384C179.335 118.565 178.988 119.896 178.988 121.249C178.988 122.602 179.335 123.933 179.996 125.114C179.322 126.289 178.974 127.623 178.988 128.978C178.988 132.478 181.151 135.302 183.817 135.302C186.483 135.302 188.649 132.471 188.649 128.978C188.662 127.623 188.314 126.289 187.64 125.114C188.302 123.933 188.649 122.602 188.649 121.249C188.649 119.896 188.302 118.565 187.64 117.384C188.302 116.204 188.649 114.873 188.649 113.52C188.649 112.167 188.302 110.837 187.64 109.657H187.632Z" fill="#3F3D56"/>
<path opacity="0.1" d="M183.808 104.388C186.477 104.388 188.64 101.556 188.64 98.0643C188.64 94.572 186.477 91.741 183.808 91.741C181.14 91.741 178.977 94.572 178.977 98.0643C178.977 101.556 181.14 104.388 183.808 104.388Z" fill="#3F3D56"/>
<path opacity="0.1" d="M183.808 96.6579C186.477 96.6579 188.64 93.8268 188.64 90.3346C188.64 86.8423 186.477 84.0113 183.808 84.0113C181.14 84.0113 178.977 86.8423 178.977 90.3346C178.977 93.8268 181.14 96.6579 183.808 96.6579Z" fill="#3F3D56"/>
<path opacity="0.1" d="M201.892 37.4431C202.552 36.6024 203.152 35.7175 203.69 34.7943L191.004 32.7099L204.734 32.8127C206.049 29.9472 206.767 26.8434 206.842 23.6911C206.917 20.5389 206.349 17.4044 205.171 14.4794L186.75 24.0288L203.741 11.5485C202.148 8.80068 200.007 6.40999 197.451 4.52526C194.895 2.64053 191.979 1.30211 188.883 0.593296C185.787 -0.115514 182.579 -0.179538 179.457 0.405213C176.336 0.989964 173.368 2.21097 170.739 3.99223C168.109 5.77349 165.875 8.07687 164.174 10.759C162.474 13.4411 161.343 16.4446 160.854 19.5824C160.364 22.7202 160.526 25.9253 161.328 28.998C162.131 32.0708 163.557 34.9454 165.519 37.4431C164.49 38.7508 163.606 40.1653 162.881 41.6622L179.357 50.223L161.789 44.3175C160.553 47.9627 160.246 51.8587 160.895 55.6527C161.544 59.4466 163.13 63.0187 165.508 66.0454C162.823 69.4585 161.153 73.5581 160.688 77.8755C160.224 82.1929 160.984 86.5539 162.881 90.4599C164.778 94.3659 167.736 97.6592 171.417 99.9633C175.097 102.267 179.352 103.489 183.694 103.489C188.037 103.489 192.292 102.267 195.972 99.9633C199.653 97.6592 202.611 94.3659 204.508 90.4599C206.405 86.5539 207.165 82.1929 206.701 77.8755C206.236 73.5581 204.566 69.4585 201.881 66.0454C205.089 61.9671 206.834 56.9288 206.834 51.7399C206.834 46.551 205.089 41.5127 201.881 37.4343L201.892 37.4431Z" fill="#52CC6D"/>
<path opacity="0.1" d="M160.567 51.7497C160.559 56.9396 162.304 61.98 165.519 66.0542C162.834 69.4672 161.164 73.5668 160.7 77.8842C160.235 82.2016 160.995 86.5626 162.892 90.4686C164.789 94.3746 167.747 97.6679 171.428 99.972C175.109 102.276 179.363 103.498 183.706 103.498C188.048 103.498 192.303 102.276 195.983 99.972C199.664 97.6679 202.622 94.3746 204.519 90.4686C206.416 86.5626 207.176 82.2016 206.711 77.8842C206.247 73.5668 204.577 69.4672 201.892 66.0542C204.994 62.1171 160.567 49.1513 160.567 51.7497Z" fill="black"/>
</g>
<g opacity="0.1">
<path opacity="0.1" d="M48.2961 136.269C49.9196 136.269 51.2357 134.545 51.2357 132.419C51.2357 130.293 49.9196 128.57 48.2961 128.57C46.6726 128.57 45.3564 130.293 45.3564 132.419C45.3564 134.545 46.6726 136.269 48.2961 136.269Z" fill="#3F3D56"/>
<path opacity="0.1" d="M50.6343 115.952C51.0446 115.236 51.2568 114.423 51.2489 113.598C51.2489 111.472 49.9366 109.749 48.3071 109.749C46.6776 109.749 45.3675 111.472 45.3675 113.598C45.3589 114.423 45.5703 115.235 45.9799 115.952C45.5784 116.671 45.3676 117.48 45.3676 118.304C45.3676 119.127 45.5784 119.937 45.9799 120.656C45.5784 121.375 45.3676 122.185 45.3676 123.009C45.3676 123.832 45.5784 124.642 45.9799 125.361C45.57 126.076 45.3586 126.888 45.3675 127.712C45.3675 129.84 46.6798 131.564 48.3071 131.564C49.9344 131.564 51.2489 129.84 51.2489 127.712C51.2571 126.888 51.045 126.076 50.6343 125.361C51.037 124.642 51.2485 123.832 51.2485 123.009C51.2485 122.185 51.037 121.375 50.6343 120.656C51.037 119.938 51.2485 119.128 51.2485 118.304C51.2485 117.48 51.037 116.67 50.6343 115.952Z" fill="#3F3D56"/>
<path opacity="0.1" d="M48.2961 112.743C49.9196 112.743 51.2357 111.019 51.2357 108.893C51.2357 106.767 49.9196 105.044 48.2961 105.044C46.6726 105.044 45.3564 106.767 45.3564 108.893C45.3564 111.019 46.6726 112.743 48.2961 112.743Z" fill="#3F3D56"/>
<path opacity="0.1" d="M48.2961 108.038C49.9196 108.038 51.2357 106.315 51.2357 104.188C51.2357 102.062 49.9196 100.339 48.2961 100.339C46.6726 100.339 45.3564 102.062 45.3564 104.188C45.3564 106.315 46.6726 108.038 48.2961 108.038Z" fill="#3F3D56"/>
<path opacity="0.1" d="M37.292 71.9882C36.8906 71.4769 36.5251 70.9383 36.1984 70.3762L43.9259 69.1076L35.5685 69.1711C34.7684 67.4275 34.3319 65.5392 34.2856 63.6213C34.2394 61.7035 34.5844 59.7963 35.2995 58.0162L46.5046 63.8364L36.1656 56.2249C37.1353 54.5532 38.4387 53.099 39.9946 51.9526C41.5505 50.8063 43.3256 49.9924 45.2095 49.5616C47.0935 49.1307 49.0459 49.0922 50.9454 49.4483C52.8449 49.8044 54.6507 50.5476 56.2506 51.6316C57.8506 52.7156 59.2103 54.1173 60.2453 55.7494C61.2803 57.3814 61.9683 59.209 62.2666 61.1185C62.565 63.0279 62.4672 64.9782 61.9794 66.8482C61.4916 68.7182 60.6242 70.4678 59.4312 71.9882C60.057 72.7832 60.5952 73.6434 61.0366 74.5538L51.006 79.7682L61.7015 76.1789C62.4527 78.3988 62.6384 80.771 62.242 83.0807C61.8456 85.3904 60.8795 87.5649 59.4312 89.4073C61.0653 91.485 62.0817 93.9806 62.3644 96.6088C62.6471 99.237 62.1845 101.892 61.0295 104.269C59.8746 106.647 58.0739 108.652 55.8333 110.054C53.5928 111.457 51.0028 112.201 48.3594 112.201C45.7161 112.201 43.1261 111.457 40.8855 110.054C38.6449 108.652 36.8442 106.647 35.6893 104.269C34.5344 101.892 34.0718 99.237 34.3544 96.6088C34.6371 93.9806 35.6536 91.485 37.2877 89.4073C35.335 86.9241 34.2734 83.8567 34.2734 80.6977C34.2734 77.5388 35.335 74.4714 37.2877 71.9882H37.292Z" fill="#52CC6D"/>
<path opacity="0.1" d="M62.4449 80.6976C62.4496 83.8574 61.3876 86.9262 59.4309 89.4072C61.065 91.485 62.0815 93.9806 62.3642 96.6088C62.6468 99.237 62.1842 101.892 61.0293 104.269C59.8743 106.647 58.0737 108.652 55.8331 110.054C53.5925 111.457 51.0025 112.201 48.3592 112.201C45.7158 112.201 43.1258 111.457 40.8853 110.054C38.6447 108.652 36.844 106.647 35.6891 104.269C34.5341 101.892 34.0716 99.237 34.3542 96.6088C34.6369 93.9806 35.6533 91.485 37.2874 89.4072C35.3999 87.0209 62.4449 79.1163 62.4449 80.6976Z" fill="black"/>
</g>
<g opacity="0.1">
<path opacity="0.1" d="M114.569 139.619C116.742 139.619 118.503 137.313 118.503 134.469C118.503 131.624 116.742 129.318 114.569 129.318C112.395 129.318 110.634 131.624 110.634 134.469C110.634 137.313 112.395 139.619 114.569 139.619Z" fill="#3F3D56"/>
<path opacity="0.1" d="M117.684 112.43C118.232 111.472 118.515 110.384 118.504 109.28C118.504 106.437 116.754 104.129 114.567 104.129C112.38 104.129 110.63 106.437 110.63 109.28C110.618 110.385 110.902 111.472 111.452 112.43C110.913 113.392 110.63 114.476 110.63 115.579C110.63 116.681 110.913 117.765 111.452 118.727C110.913 119.688 110.63 120.772 110.63 121.874C110.63 122.977 110.913 124.06 111.452 125.022C110.902 125.98 110.618 127.067 110.63 128.171C110.63 131.015 112.393 133.322 114.567 133.322C116.741 133.322 118.504 131.015 118.504 128.171C118.515 127.067 118.232 125.98 117.684 125.022C118.221 124.06 118.504 122.976 118.504 121.874C118.504 120.772 118.221 119.689 117.684 118.727C118.221 117.765 118.504 116.681 118.504 115.579C118.504 114.476 118.221 113.392 117.684 112.43Z" fill="#3F3D56"/>
<path opacity="0.1" d="M114.569 108.136C116.742 108.136 118.503 105.83 118.503 102.986C118.503 100.141 116.742 97.8346 114.569 97.8346C112.395 97.8346 110.634 100.141 110.634 102.986C110.634 105.83 112.395 108.136 114.569 108.136Z" fill="#3F3D56"/>
<path opacity="0.1" d="M114.569 101.839C116.742 101.839 118.503 99.5333 118.503 96.6885C118.503 93.8437 116.742 91.5376 114.569 91.5376C112.395 91.5376 110.634 93.8437 110.634 96.6885C110.634 99.5333 112.395 101.839 114.569 101.839Z" fill="#3F3D56"/>
<path opacity="0.1" d="M99.8467 53.6002C99.3089 52.9161 98.8192 52.1955 98.3813 51.4436L108.72 49.7463L97.5392 49.8294C96.4663 47.4951 95.881 44.9666 95.8189 42.3983C95.7569 39.8301 96.2194 37.2762 97.1783 34.8928L112.183 42.675L98.3441 32.5044C99.637 30.2576 101.379 28.3015 103.462 26.7585C105.545 25.2155 107.924 24.1187 110.45 23.5365C112.976 22.9544 115.595 22.8995 118.143 23.3752C120.692 23.8509 123.114 24.8471 125.26 26.3014C127.406 27.7557 129.229 29.637 130.615 31.8276C132.001 34.0183 132.92 36.4712 133.315 39.0331C133.71 41.5951 133.573 44.211 132.911 46.7174C132.25 49.2238 131.078 51.5669 129.471 53.6002C130.308 54.6659 131.028 55.8186 131.618 57.0385L118.198 64.0114L132.509 59.1995C133.514 62.1699 133.763 65.3442 133.232 68.435C132.702 71.5258 131.409 74.4355 129.471 76.9007C131.657 79.6812 133.017 83.0208 133.396 86.5378C133.774 90.0549 133.155 93.6074 131.609 96.7892C130.064 99.971 127.654 102.654 124.656 104.531C121.657 106.407 118.192 107.403 114.654 107.403C111.117 107.403 107.651 106.407 104.653 104.531C101.654 102.654 99.2447 99.971 97.6991 96.7892C96.1536 93.6074 95.5345 90.0549 95.9128 86.5378C96.291 83.0208 97.6512 79.6812 99.8379 76.9007C97.2252 73.5777 95.8049 69.4732 95.8049 65.2461C95.8049 61.019 97.2252 56.9144 99.8379 53.5914L99.8467 53.6002Z" fill="#52CC6D"/>
<path opacity="0.1" d="M133.504 65.2559C133.51 69.4838 132.089 73.5901 129.47 76.9095C131.657 79.6899 133.017 83.0296 133.396 86.5466C133.774 90.0636 133.155 93.6161 131.609 96.7979C130.064 99.9797 127.654 102.662 124.656 104.539C121.657 106.416 118.192 107.412 114.654 107.412C111.117 107.412 107.651 106.416 104.653 104.539C101.654 102.662 99.2447 99.9797 97.6991 96.7979C96.1536 93.6161 95.5345 90.0636 95.9128 86.5466C96.291 83.0296 97.6512 79.6899 99.8379 76.9095C97.3117 73.703 133.504 63.1387 133.504 65.2559Z" fill="black"/>
</g>
<path d="M250 139.156C250 140.658 239.015 142.032 220.855 143.093C217.552 143.283 214.013 143.465 210.26 143.635C207.017 143.781 203.618 143.919 200.063 144.049C196.619 144.171 193.043 144.285 189.335 144.39C177.624 144.724 164.678 144.965 150.925 145.085C147.587 145.116 144.205 145.139 140.778 145.155C137.209 145.171 133.598 145.179 129.947 145.177C63.6437 145.177 9.89697 142.485 9.89697 139.162C9.89697 135.84 63.6437 133.148 129.947 133.148C158.493 133.148 184.707 133.648 205.31 134.48L207.563 134.571H207.576C233.53 135.672 250 137.327 250 139.156Z" fill="#3F3D56"/>
<path opacity="0.15" d="M250 139.156C250 140.658 239.015 142.032 220.855 143.093C217.552 143.283 214.013 143.465 210.26 143.635C207.017 143.781 203.618 143.919 200.063 144.049C196.619 144.171 193.043 144.285 189.335 144.39C177.624 144.724 164.678 144.965 150.925 145.085C147.587 145.116 144.205 145.139 140.778 145.155C137.209 145.171 133.598 145.179 129.947 145.177C63.6437 145.177 9.89697 142.485 9.89697 139.162C9.89697 135.84 63.6437 133.148 129.947 133.148C158.493 133.148 184.707 133.648 205.31 134.48L207.563 134.571H207.576C233.53 135.672 250 137.327 250 139.156Z" fill="black"/>
<path d="M240.103 138.097C240.103 139.353 229.119 140.503 210.958 141.378C207.657 141.538 204.116 141.689 200.365 141.831C197.121 141.953 193.722 142.068 190.168 142.176C186.724 142.278 183.148 142.374 179.44 142.463C167.727 142.743 154.781 142.944 141.028 143.045C137.693 143.069 134.311 143.088 130.881 143.102C127.312 143.115 123.702 143.121 120.052 143.121C53.7489 143.121 0 140.871 0 138.091C0 135.311 53.7489 133.06 120.052 133.06C148.596 133.06 174.81 133.478 195.413 134.173L197.666 134.25H197.682C223.644 135.184 240.103 136.56 240.103 138.097Z" fill="#3F3D56"/>
<path d="M31.0062 92.3993L27.9922 83.1714L100.171 82.3818L103.128 91.5178L31.0062 92.3993Z" fill="#3F3D56"/>
<path opacity="0.15" d="M31.0062 92.3993L27.9922 83.1714L100.171 82.3818L103.128 91.5178L31.0062 92.3993Z" fill="black"/>
<path d="M26.1942 92.3993L23.1802 83.1714L95.3587 82.3818L98.3158 91.5178L26.1942 92.3993Z" fill="#3F3D56"/>
<path d="M149.411 78.2195C141.949 78.2195 136.067 75.2573 131.767 69.3328C127.467 63.4084 125.317 56.2314 125.317 47.8018C125.317 39.3154 127.396 32.1529 131.555 26.3145C135.713 20.476 141.58 17.5597 149.153 17.5656C157.185 17.5656 163.236 20.6415 167.307 26.7935C171.378 32.9454 173.415 40.0656 173.416 48.1539C173.416 56.184 171.309 63.2035 167.095 69.2125C162.881 75.2216 156.986 78.2239 149.411 78.2195ZM149.63 71.5551C154.54 71.5551 158.209 69.4152 160.638 65.1356C163.068 60.8559 164.282 55.4607 164.282 48.9501C164.282 41.7031 163.039 35.7691 160.553 31.1482C158.067 26.5274 154.254 24.2162 149.114 24.2147C139.344 24.2147 134.459 31.975 134.459 47.4956C134.459 63.5367 139.515 71.5565 149.626 71.5551H149.63ZM152.089 135.376H141.295L211.959 18.7532H222.55L152.089 135.376ZM214.604 136.573C207.029 136.573 201.123 133.583 196.887 127.605C192.651 121.626 190.525 114.449 190.507 106.072C190.507 97.6421 192.572 90.5081 196.701 84.6697C200.831 78.8312 206.711 75.9149 214.343 75.9208C222.318 75.9208 228.327 78.9967 232.371 85.1487C236.414 91.3006 238.436 98.42 238.438 106.507C238.438 114.484 236.345 121.491 232.158 127.526C227.972 133.561 222.119 136.577 214.599 136.573H214.604ZM214.731 129.737C219.617 129.737 223.267 127.634 225.68 123.427C228.093 119.221 229.3 113.847 229.3 107.307C229.3 100.308 228.078 94.4385 225.636 89.6981C223.194 84.9576 219.389 82.5838 214.221 82.5765C204.395 82.5765 199.481 90.3368 199.481 105.857C199.478 121.779 204.56 129.739 214.726 129.737H214.731Z" fill="#3F3D56"/>
<path d="M149.411 78.2195C141.949 78.2195 136.067 75.2573 131.767 69.3328C127.467 63.4084 125.317 56.2314 125.317 47.8018C125.317 39.3154 127.396 32.1529 131.555 26.3145C135.713 20.476 141.58 17.5597 149.153 17.5656C157.185 17.5656 163.236 20.6415 167.307 26.7935C171.378 32.9454 173.415 40.0656 173.416 48.1539C173.416 56.184 171.309 63.2035 167.095 69.2125C162.881 75.2216 156.986 78.2239 149.411 78.2195ZM149.63 71.5551C154.54 71.5551 158.209 69.4152 160.638 65.1356C163.068 60.8559 164.282 55.4607 164.282 48.9501C164.282 41.7031 163.039 35.7691 160.553 31.1482C158.067 26.5274 154.254 24.2162 149.114 24.2147C139.344 24.2147 134.459 31.975 134.459 47.4956C134.459 63.5367 139.515 71.5565 149.626 71.5551H149.63ZM152.089 135.376H141.295L211.959 18.7532H222.55L152.089 135.376ZM214.604 136.573C207.029 136.573 201.123 133.583 196.887 127.605C192.651 121.626 190.525 114.449 190.507 106.072C190.507 97.6421 192.572 90.5081 196.701 84.6697C200.831 78.8312 206.711 75.9149 214.343 75.9208C222.318 75.9208 228.327 78.9967 232.371 85.1487C236.414 91.3006 238.436 98.42 238.438 106.507C238.438 114.484 236.345 121.491 232.158 127.526C227.972 133.561 222.119 136.577 214.599 136.573H214.604ZM214.731 129.737C219.617 129.737 223.267 127.634 225.68 123.427C228.093 119.221 229.3 113.847 229.3 107.307C229.3 100.308 228.078 94.4385 225.636 89.6981C223.194 84.9576 219.389 82.5838 214.221 82.5765C204.395 82.5765 199.481 90.3368 199.481 105.857C199.478 121.779 204.56 129.739 214.726 129.737H214.731Z" fill="#3F3D56"/>
<path opacity="0.15" d="M149.411 78.2195C141.949 78.2195 136.067 75.2573 131.767 69.3328C127.467 63.4084 125.317 56.2314 125.317 47.8018C125.317 39.3154 127.396 32.1529 131.555 26.3145C135.713 20.476 141.58 17.5597 149.153 17.5656C157.185 17.5656 163.236 20.6415 167.307 26.7935C171.378 32.9454 173.415 40.0656 173.416 48.1539C173.416 56.184 171.309 63.2035 167.095 69.2125C162.881 75.2216 156.986 78.2239 149.411 78.2195ZM149.63 71.5551C154.54 71.5551 158.209 69.4152 160.638 65.1356C163.068 60.8559 164.282 55.4607 164.282 48.9501C164.282 41.7031 163.039 35.7691 160.553 31.1482C158.067 26.5274 154.254 24.2162 149.114 24.2147C139.344 24.2147 134.459 31.975 134.459 47.4956C134.459 63.5367 139.515 71.5565 149.626 71.5551H149.63ZM152.089 135.376H141.295L211.959 18.7532H222.55L152.089 135.376ZM214.604 136.573C207.029 136.573 201.123 133.583 196.887 127.605C192.651 121.626 190.525 114.449 190.507 106.072C190.507 97.6421 192.572 90.5081 196.701 84.6697C200.831 78.8312 206.711 75.9149 214.343 75.9208C222.318 75.9208 228.327 78.9967 232.371 85.1487C236.414 91.3006 238.436 98.42 238.438 106.507C238.438 114.484 236.345 121.491 232.158 127.526C227.972 133.561 222.119 136.577 214.599 136.573H214.604ZM214.731 129.737C219.617 129.737 223.267 127.634 225.68 123.427C228.093 119.221 229.3 113.847 229.3 107.307C229.3 100.308 228.078 94.4385 225.636 89.6981C223.194 84.9576 219.389 82.5838 214.221 82.5765C204.395 82.5765 199.481 90.3368 199.481 105.857C199.478 121.779 204.56 129.739 214.726 129.737H214.731Z" fill="black"/>
<path d="M142.631 78.2195C135.168 78.2195 129.287 75.2573 124.987 69.3328C120.687 63.4084 118.537 56.2314 118.537 47.8018C118.537 39.3154 120.616 32.1529 124.775 26.3145C128.933 20.476 134.799 17.5597 142.373 17.5656C150.404 17.5656 156.456 20.6415 160.527 26.7935C164.598 32.9454 166.634 40.0656 166.636 48.1539C166.636 56.184 164.529 63.2035 160.315 69.2125C156.101 75.2216 150.206 78.2239 142.631 78.2195ZM142.85 71.5551C147.759 71.5551 151.429 69.4152 153.858 65.1356C156.287 60.8559 157.502 55.4607 157.502 48.9501C157.502 41.7031 156.259 35.7691 153.773 31.1482C151.287 26.5274 147.474 24.2162 142.334 24.2147C132.564 24.2147 127.679 31.975 127.679 47.4956C127.679 63.5367 132.735 71.5565 142.845 71.5551H142.85ZM145.308 135.376H134.514L205.179 18.7532H215.77L145.308 135.376ZM207.824 136.573C200.248 136.573 194.343 133.583 190.107 127.605C185.871 121.626 183.744 114.449 183.727 106.072C183.727 97.6421 185.792 90.5081 189.921 84.6697C194.051 78.8312 199.931 75.9149 207.563 75.9208C215.538 75.9208 221.547 78.9967 225.59 85.1487C229.634 91.3006 231.656 98.42 231.658 106.507C231.658 114.484 229.565 121.491 225.378 127.526C221.192 133.561 215.339 136.577 207.819 136.573H207.824ZM207.95 129.737C212.837 129.737 216.486 127.634 218.9 123.427C221.313 119.221 222.52 113.847 222.52 107.307C222.52 100.308 221.298 94.4385 218.856 89.6981C216.413 84.9576 212.607 82.5838 207.436 82.5765C197.61 82.5765 192.697 90.3368 192.697 105.857C192.697 121.779 197.78 129.739 207.946 129.737H207.95Z" fill="#3F3D56"/>
<path d="M166.244 138.303C167.146 136.632 166.122 134.584 164.945 133.093C163.768 131.601 162.334 130.052 162.364 128.152C162.408 125.424 165.304 123.812 167.614 122.364C169.331 121.291 170.916 120.018 172.334 118.572C172.927 118.014 173.418 117.357 173.784 116.629C174.263 115.562 174.247 114.348 174.221 113.18C174.121 109.284 173.928 105.394 173.644 101.509" stroke="#3F3D56" stroke-width="4" stroke-miterlimit="10"/>
<path d="M178.045 101.295C178.012 100.582 177.8 99.8892 177.429 99.2799C177.058 98.6705 176.539 98.1645 175.921 97.8083L174.967 99.6937L174.996 97.4103C174.541 97.2774 174.067 97.2205 173.594 97.2418C172.753 97.2813 171.943 97.5691 171.265 98.0691C170.588 98.569 170.074 99.2585 169.789 100.05C169.503 100.842 169.459 101.701 169.662 102.518C169.864 103.335 170.305 104.074 170.927 104.641C171.55 105.207 172.326 105.577 173.159 105.702C173.991 105.828 174.842 105.704 175.604 105.346C176.366 104.987 177.004 104.411 177.439 103.69C177.873 102.969 178.084 102.136 178.045 101.295Z" fill="#52CC6D"/>
<path d="M170.455 130.109C170.008 130.977 169.277 131.665 168.383 132.058C167.49 132.45 166.488 132.523 165.547 132.265C164.606 132.007 163.782 131.434 163.214 130.64C162.645 129.847 162.367 128.882 162.426 127.908C162.484 126.934 162.876 126.009 163.535 125.29C164.194 124.57 165.08 124.099 166.046 123.955C167.011 123.811 167.996 124.004 168.837 124.5C169.677 124.997 170.321 125.767 170.66 126.682L168.001 128.845L170.932 128.163C170.93 128.84 170.767 129.508 170.455 130.109Z" fill="#52CC6D"/>
<path d="M168.353 121.84C167.795 121.866 167.237 121.782 166.711 121.592C166.185 121.403 165.702 121.111 165.288 120.735C164.875 120.359 164.54 119.905 164.302 119.399C164.064 118.893 163.928 118.345 163.902 117.787C163.869 117.12 163.995 116.455 164.27 115.847C164.524 115.278 164.9 114.772 165.37 114.364C165.841 113.956 166.396 113.657 166.995 113.486L166.971 115.236L167.935 113.329C169.063 113.276 170.166 113.674 171 114.434C171.835 115.194 172.334 116.254 172.386 117.382C172.439 118.51 172.042 119.612 171.282 120.447C170.522 121.282 169.461 121.78 168.333 121.833L168.353 121.84Z" fill="#52CC6D"/>
<path d="M178.686 114.965C178.121 115.003 177.554 114.927 177.018 114.743C176.483 114.559 175.99 114.27 175.567 113.893C175.145 113.515 174.802 113.058 174.559 112.547C174.315 112.035 174.176 111.481 174.15 110.915C174.123 110.349 174.21 109.784 174.404 109.252C174.599 108.721 174.898 108.233 175.283 107.818C175.668 107.403 176.133 107.069 176.648 106.836C177.164 106.603 177.722 106.474 178.288 106.459C179.083 106.42 179.873 106.608 180.567 106.999L179.814 109.06L181.363 107.574C182.194 108.332 182.69 109.389 182.743 110.512C182.762 110.906 182.726 111.301 182.634 111.684C182.422 112.586 181.922 113.394 181.21 113.986C180.497 114.578 179.611 114.922 178.686 114.965Z" fill="#52CC6D"/>
<path opacity="0.1" d="M177.472 102.43C176.489 102.537 175.536 102.843 174.549 102.905C173.563 102.966 172.48 102.73 171.857 101.962C171.52 101.551 171.354 101.028 171.069 100.577C170.801 100.158 170.433 99.8116 169.998 99.5691C169.725 100.109 169.569 100.7 169.543 101.304C169.516 101.908 169.618 102.511 169.843 103.073C170.068 103.634 170.409 104.142 170.845 104.561C171.281 104.98 171.802 105.301 172.371 105.503C172.941 105.706 173.548 105.784 174.151 105.734C174.753 105.683 175.338 105.505 175.866 105.21C176.395 104.916 176.854 104.513 177.214 104.027C177.574 103.541 177.827 102.984 177.955 102.393C177.793 102.402 177.633 102.412 177.472 102.43Z" fill="black"/>
<path opacity="0.1" d="M178.685 114.965C177.952 114.998 177.222 114.842 176.567 114.51C175.912 114.178 175.354 113.683 174.946 113.072C174.539 112.461 174.296 111.756 174.242 111.023C174.188 110.291 174.324 109.557 174.637 108.893C174.974 109.122 175.264 109.413 175.492 109.751C175.796 110.208 175.98 110.737 176.336 111.157C176.992 111.938 178.132 112.191 179.158 112.146C180.183 112.1 181.176 111.807 182.2 111.708C182.342 111.695 182.487 111.686 182.637 111.682C182.426 112.585 181.926 113.394 181.212 113.987C180.499 114.579 179.612 114.923 178.685 114.965Z" fill="black"/>
<path opacity="0.1" d="M168.353 121.84C167.795 121.866 167.237 121.782 166.711 121.592C166.185 121.403 165.702 121.111 165.288 120.735C164.875 120.359 164.54 119.905 164.302 119.399C164.064 118.893 163.928 118.345 163.902 117.787C163.869 117.12 163.995 116.455 164.27 115.847C164.621 116.08 164.925 116.377 165.169 116.721C165.499 117.187 165.707 117.725 166.094 118.156C166.811 118.955 168.019 119.237 169.106 119.211C170.193 119.184 171.175 118.931 172.223 118.85C171.963 119.685 171.452 120.42 170.76 120.955C170.067 121.49 169.227 121.799 168.353 121.84Z" fill="black"/>
<path opacity="0.1" d="M170.455 130.109C169.96 131.083 169.109 131.828 168.08 132.192C167.05 132.556 165.92 132.51 164.923 132.064C163.926 131.618 163.139 130.806 162.724 129.795C162.309 128.785 162.299 127.654 162.695 126.636C163.045 126.867 163.36 127.147 163.629 127.469C164.033 127.964 164.3 128.524 164.768 128.983C165.643 129.836 167.043 130.188 168.294 130.221C169.016 130.227 169.738 130.19 170.455 130.109Z" fill="black"/>
<path d="M232.08 138.084C232.981 136.413 231.958 134.366 230.781 132.874C229.604 131.382 228.17 129.834 228.2 127.933C228.244 125.206 231.14 123.594 233.45 122.146C235.167 121.073 236.752 119.8 238.17 118.353C238.763 117.796 239.254 117.138 239.62 116.411C240.099 115.344 240.083 114.13 240.057 112.962C239.957 109.065 239.764 105.175 239.48 101.291" stroke="#3F3D56" stroke-width="4" stroke-miterlimit="10"/>
<path d="M243.88 101.076C243.847 100.363 243.635 99.6705 243.264 99.0611C242.893 98.4518 242.374 97.9458 241.756 97.5896L240.803 99.475L240.831 97.1915C240.376 97.0586 239.903 97.0017 239.429 97.0231C238.588 97.0625 237.778 97.3504 237.101 97.8503C236.423 98.3503 235.91 99.0398 235.624 99.8318C235.339 100.624 235.295 101.483 235.497 102.3C235.7 103.117 236.14 103.855 236.763 104.422C237.385 104.989 238.162 105.358 238.994 105.484C239.826 105.609 240.677 105.485 241.439 105.127C242.201 104.769 242.84 104.193 243.274 103.472C243.708 102.751 243.919 101.917 243.88 101.076Z" fill="#52CC6D"/>
<path d="M236.29 129.891C235.844 130.758 235.112 131.446 234.219 131.839C233.325 132.231 232.324 132.305 231.383 132.046C230.441 131.788 229.618 131.215 229.049 130.421C228.481 129.628 228.203 128.663 228.261 127.689C228.319 126.715 228.711 125.79 229.37 125.071C230.029 124.351 230.916 123.88 231.881 123.736C232.846 123.592 233.832 123.785 234.672 124.281C235.512 124.778 236.156 125.548 236.496 126.463L233.836 128.626L236.767 127.944C236.766 128.622 236.602 129.289 236.29 129.891Z" fill="#52CC6D"/>
<path d="M234.189 121.621C233.63 121.647 233.072 121.563 232.546 121.373C232.02 121.184 231.537 120.893 231.124 120.516C230.71 120.14 230.375 119.686 230.137 119.18C229.9 118.674 229.764 118.126 229.738 117.568C229.704 116.901 229.83 116.236 230.105 115.628C230.359 115.059 230.735 114.553 231.206 114.146C231.677 113.738 232.231 113.438 232.83 113.268L232.806 115.018L233.771 113.11H233.782C234.34 113.084 234.898 113.168 235.424 113.358C235.95 113.547 236.433 113.839 236.847 114.215C237.26 114.591 237.595 115.045 237.833 115.551C238.071 116.057 238.207 116.605 238.233 117.163C238.259 117.722 238.175 118.28 237.985 118.806C237.796 119.331 237.505 119.815 237.128 120.228C236.752 120.642 236.298 120.977 235.792 121.214C235.286 121.452 234.738 121.588 234.18 121.614L234.189 121.621Z" fill="#52CC6D"/>
<path d="M244.521 114.746C243.956 114.784 243.389 114.708 242.854 114.524C242.318 114.34 241.825 114.051 241.403 113.674C240.98 113.296 240.637 112.839 240.394 112.328C240.151 111.816 240.012 111.262 239.985 110.696C239.959 110.13 240.045 109.565 240.24 109.033C240.434 108.502 240.733 108.014 241.118 107.599C241.504 107.184 241.968 106.85 242.484 106.617C243 106.384 243.557 106.255 244.123 106.24C244.919 106.201 245.709 106.389 246.402 106.78L245.65 108.841L247.198 107.355C248.029 108.113 248.526 109.17 248.579 110.293C248.598 110.687 248.561 111.082 248.469 111.465C248.257 112.367 247.758 113.175 247.045 113.767C246.333 114.359 245.447 114.703 244.521 114.746Z" fill="#52CC6D"/>
<path opacity="0.1" d="M243.307 102.211C242.325 102.318 241.371 102.625 240.385 102.686C239.398 102.747 238.316 102.511 237.692 101.743C237.355 101.332 237.189 100.809 236.905 100.359C236.636 99.9392 236.268 99.5928 235.833 99.3503C235.56 99.8898 235.405 100.481 235.378 101.086C235.351 101.69 235.454 102.293 235.678 102.854C235.903 103.416 236.245 103.923 236.681 104.342C237.117 104.761 237.637 105.082 238.207 105.285C238.777 105.487 239.383 105.565 239.986 105.515C240.589 105.464 241.174 105.286 241.702 104.992C242.23 104.697 242.69 104.294 243.05 103.808C243.41 103.322 243.662 102.765 243.79 102.174C243.628 102.183 243.469 102.194 243.307 102.211Z" fill="black"/>
<path opacity="0.1" d="M244.521 114.746C243.788 114.78 243.058 114.623 242.403 114.292C241.748 113.96 241.19 113.465 240.782 112.854C240.375 112.243 240.132 111.537 240.078 110.805C240.024 110.073 240.16 109.339 240.473 108.675C240.81 108.903 241.1 109.194 241.328 109.532C241.632 109.989 241.815 110.518 242.172 110.938C242.828 111.719 243.968 111.973 244.994 111.927C246.019 111.881 247.012 111.588 248.036 111.49C248.178 111.477 248.323 111.468 248.473 111.463C248.262 112.366 247.762 113.176 247.048 113.768C246.335 114.361 245.448 114.704 244.521 114.746Z" fill="black"/>
<path opacity="0.1" d="M234.189 121.621C233.63 121.647 233.072 121.563 232.546 121.373C232.02 121.184 231.537 120.893 231.124 120.516C230.71 120.14 230.375 119.686 230.137 119.18C229.9 118.674 229.764 118.126 229.738 117.568C229.704 116.901 229.83 116.236 230.105 115.628C230.456 115.861 230.761 116.158 231.004 116.503C231.334 116.968 231.542 117.506 231.929 117.937C232.647 118.736 233.854 119.018 234.941 118.992C235.995 118.97 237.01 118.712 238.058 118.631C237.798 119.466 237.287 120.201 236.595 120.736C235.903 121.271 235.063 121.58 234.189 121.621Z" fill="black"/>
<path opacity="0.1" d="M236.29 129.891C235.795 130.864 234.945 131.61 233.915 131.974C232.885 132.338 231.755 132.292 230.758 131.845C229.761 131.399 228.974 130.587 228.56 129.577C228.145 128.566 228.134 127.435 228.53 126.417C228.881 126.648 229.195 126.929 229.464 127.251C229.869 127.745 230.136 128.305 230.604 128.764C231.479 129.617 232.878 129.969 234.13 130.002C234.851 130.008 235.573 129.971 236.29 129.891Z" fill="black"/>
<path d="M24.0441 135.241C23.1429 133.57 24.1666 131.522 25.3433 130.031C26.52 128.539 27.9548 126.99 27.9242 125.09C27.8805 122.362 24.9846 120.75 22.6749 119.302C20.9571 118.229 19.3727 116.956 17.9548 115.51C17.3611 114.953 16.8702 114.295 16.5047 113.567C16.0257 112.5 16.041 111.286 16.0673 110.118C16.1679 106.222 16.3603 102.332 16.6447 98.4472" stroke="#3F3D56" stroke-width="4" stroke-miterlimit="10"/>
<path d="M12.2439 98.2328C12.2768 97.5201 12.4886 96.8272 12.8598 96.2179C13.2309 95.6086 13.7495 95.1025 14.3677 94.7464L15.3213 96.6318L15.2929 94.3483C15.7478 94.2154 16.2215 94.1585 16.6949 94.1799C17.5358 94.2193 18.3461 94.5072 19.0234 95.0071C19.7006 95.507 20.2145 96.1966 20.4999 96.9885C20.7853 97.7805 20.8294 98.6393 20.6267 99.4563C20.4241 100.273 19.9837 101.012 19.3613 101.579C18.7388 102.145 17.9623 102.515 17.1299 102.64C16.2975 102.766 15.4466 102.642 14.6848 102.284C13.923 101.925 13.2845 101.349 12.85 100.628C12.4155 99.9074 12.2046 99.0737 12.2439 98.2328Z" fill="#52CC6D"/>
<path d="M19.8337 127.047C20.2804 127.915 21.0117 128.603 21.9052 128.995C22.7988 129.388 23.8001 129.461 24.7413 129.203C25.6824 128.945 26.5063 128.371 27.0746 127.578C27.643 126.784 27.9213 125.82 27.8628 124.846C27.8044 123.871 27.4128 122.947 26.7537 122.227C26.0946 121.508 25.208 121.036 24.2427 120.893C23.2774 120.749 22.2921 120.941 21.4519 121.438C20.6117 121.935 19.9678 122.705 19.6281 123.62L22.2878 125.783L19.3569 125.101C19.3582 125.778 19.5217 126.446 19.8337 127.047Z" fill="#52CC6D"/>
<path d="M21.9359 118.777C22.4942 118.804 23.0523 118.72 23.5782 118.53C24.1041 118.341 24.5875 118.049 25.0008 117.673C25.4142 117.297 25.7493 116.842 25.9871 116.337C26.2249 115.831 26.3608 115.283 26.3869 114.725C26.42 114.058 26.294 113.393 26.0194 112.784C25.7651 112.216 25.3894 111.71 24.9185 111.302C24.4477 110.894 23.8932 110.595 23.2941 110.424L23.3182 112.174L22.3536 110.267C21.2259 110.214 20.1234 110.612 19.2887 111.372C18.454 112.132 17.9554 113.192 17.9026 114.32C17.8498 115.448 18.2472 116.55 19.0072 117.385C19.7673 118.22 20.8279 118.718 21.9555 118.771L21.9359 118.777Z" fill="#52CC6D"/>
<path d="M11.6033 111.903C12.1683 111.94 12.7351 111.865 13.2706 111.681C13.806 111.497 14.2994 111.207 14.7218 110.83C15.1442 110.453 15.4871 109.996 15.7305 109.484C15.9739 108.973 16.1129 108.418 16.1394 107.853C16.1658 107.287 16.0793 106.722 15.8847 106.19C15.6901 105.658 15.3914 105.171 15.006 104.756C14.6207 104.341 14.1565 104.007 13.6406 103.774C13.1247 103.54 12.5674 103.412 12.0014 103.397C11.2096 103.36 10.4235 103.547 9.73326 103.937L10.4857 105.997L8.92617 104.519C8.09661 105.275 7.60035 106.329 7.54603 107.45C7.52666 107.844 7.56348 108.238 7.65539 108.622C7.86706 109.524 8.36703 110.332 9.07947 110.924C9.79192 111.516 10.678 111.86 11.6033 111.903Z" fill="#52CC6D"/>
<path opacity="0.1" d="M12.8174 99.3679C13.7994 99.4751 14.7531 99.7813 15.7395 99.8425C16.7259 99.9037 17.8086 99.6675 18.432 98.8998C18.7688 98.4886 18.935 97.9659 19.2194 97.5153C19.4879 97.0959 19.8561 96.7495 20.2911 96.507C20.5643 97.0465 20.7195 97.638 20.7461 98.2422C20.7728 98.8463 20.6704 99.4492 20.4458 100.011C20.2212 100.572 19.8796 101.079 19.4436 101.499C19.0076 101.918 18.4873 102.239 17.9174 102.441C17.3475 102.643 16.741 102.722 16.1384 102.671C15.5357 102.621 14.9508 102.443 14.4225 102.148C13.8942 101.854 13.4347 101.45 13.0745 100.965C12.7144 100.479 12.462 99.9217 12.334 99.3307C12.4958 99.3395 12.6555 99.3504 12.8174 99.3679Z" fill="black"/>
<path opacity="0.1" d="M11.6032 111.903C12.3367 111.936 13.0663 111.78 13.7214 111.448C14.3765 111.117 14.9348 110.621 15.3421 110.01C15.7494 109.4 15.992 108.694 16.0462 107.962C16.1005 107.229 15.9646 106.496 15.6518 105.831C15.3145 106.06 15.0242 106.351 14.7966 106.689C14.4925 107.146 14.3088 107.675 13.9523 108.095C13.2961 108.876 12.1566 109.13 11.1308 109.084C10.1049 109.038 9.11195 108.745 8.08833 108.646C7.94616 108.633 7.8018 108.624 7.65088 108.62C7.86235 109.523 8.36278 110.332 9.07614 110.925C9.7895 111.517 10.6768 111.861 11.6032 111.903Z" fill="black"/>
<path opacity="0.1" d="M21.9356 118.777C22.494 118.804 23.0521 118.719 23.578 118.53C24.1038 118.34 24.5873 118.049 25.0006 117.673C25.4139 117.296 25.749 116.842 25.9868 116.337C26.2247 115.831 26.3605 115.283 26.3866 114.724C26.4197 114.058 26.2938 113.393 26.0192 112.784C25.6682 113.018 25.3634 113.315 25.1202 113.659C24.7899 114.125 24.5821 114.663 24.195 115.094C23.4776 115.892 22.2702 116.175 21.1832 116.148C20.129 116.126 19.1141 115.868 18.0664 115.787C18.3261 116.623 18.8368 117.358 19.5291 117.893C20.2214 118.428 21.0616 118.737 21.9356 118.777Z" fill="black"/>
<path opacity="0.1" d="M19.834 127.047C20.3293 128.021 21.1798 128.766 22.2095 129.13C23.2392 129.494 24.3694 129.448 25.3663 129.002C26.3631 128.556 27.1503 127.744 27.565 126.733C27.9797 125.723 27.9902 124.592 27.5942 123.574C27.2438 123.805 26.9292 124.085 26.6603 124.407C26.2557 124.902 25.9888 125.462 25.5208 125.921C24.6459 126.774 23.246 127.126 21.995 127.159C21.2731 127.165 20.5514 127.128 19.834 127.047Z" fill="black"/>
<path d="M147.31 114.744C147.314 114.214 147.194 113.69 146.959 113.214C146.725 112.739 146.382 112.325 145.958 112.006C145.906 110 144.475 108.362 142.636 108.108C142.494 107.427 142.175 106.795 141.711 106.275C141.247 105.756 140.655 105.369 139.994 105.151C139.833 105.1 139.668 105.061 139.502 105.035H139.454L139.368 105.024H139.296H139.224H139.13H139.073H138.918C137.041 105.024 135.479 106.459 135.158 108.351C133.944 108.071 132.831 108.434 132.632 109.202C132.58 109.405 132.592 109.619 132.664 109.816C132.87 110.411 133.539 110.98 134.447 111.262L134.565 111.297C134.624 111.315 134.683 111.328 134.742 111.341H134.782C134.448 112.052 134.401 112.865 134.649 113.61C134.898 114.356 135.424 114.977 136.118 115.346C136.091 115.361 136.064 115.377 136.039 115.396C135.927 115.499 135.838 115.624 135.777 115.763C135.558 116.148 135.387 116.559 135.269 116.986C135.182 117.351 135.167 117.734 135.051 118.095C134.852 118.751 134.34 119.326 134.281 120.024C134.255 120.335 134.305 120.7 134.084 120.912C134.029 120.959 133.97 121.003 133.909 121.041C133.754 121.147 133.623 121.284 133.524 121.444C133.46 121.575 133.373 121.695 133.268 121.798C133.069 121.949 132.741 121.934 132.643 122.165C132.544 122.397 132.798 122.671 132.739 122.924C132.691 123.13 132.465 123.224 132.301 123.362C132.118 123.561 131.99 123.804 131.93 124.068C131.603 124.131 131.266 124.121 130.944 124.039C130.621 123.957 130.321 123.805 130.064 123.594C130.152 123.819 130.216 124.053 130.256 124.291C129.996 124.014 129.567 123.933 129.25 123.788C128.841 123.601 128.476 123.33 128.178 122.992L128.752 122.913L126.214 119.064L125.466 118.911L126.138 120.199C126.083 120.225 126.035 120.264 125.997 120.312C125.959 120.359 125.932 120.415 125.919 120.475C125.883 120.617 125.874 120.766 125.893 120.912C125.928 121.257 125.986 121.6 126.066 121.938L126.26 122.843C126.277 122.928 126.298 123.012 126.324 123.095C126.07 123.086 125.816 123.115 125.571 123.18C125.068 122.994 124.545 122.87 124.012 122.811C123.895 122.79 123.774 122.796 123.66 122.828C123.53 122.888 123.417 122.98 123.332 123.095C122.894 123.601 122.506 124.147 122.172 124.727C120.81 127.098 118.99 129.167 117.286 131.31C116.109 131.789 114.924 132.244 113.736 132.695L111.184 133.668C110.674 133.863 110.145 134.062 109.602 134.027C109.357 134.011 109.06 133.974 108.922 134.182C108.855 134.285 108.803 134.397 108.767 134.514C108.677 134.514 108.587 134.536 108.504 134.541H108.489C108.327 134.138 108.187 133.707 107.877 133.414C107.814 133.424 107.755 133.449 107.705 133.487C107.654 133.525 107.614 133.575 107.588 133.633C107.527 133.747 107.489 133.871 107.419 133.976C107.282 134.178 107.043 134.276 106.873 134.447C106.702 134.617 106.595 134.884 106.411 135.05C106.154 135.237 105.852 135.354 105.536 135.389C105.063 135.501 104.606 135.674 104.178 135.906C104.02 136.003 103.851 136.08 103.675 136.137C103.481 136.175 103.283 136.181 103.087 136.157L101.735 136.059C101.615 136.043 101.493 136.048 101.374 136.074C101.235 136.125 101.116 136.221 101.037 136.346C100.958 136.472 100.923 136.62 100.937 136.767C100.953 136.914 100.999 137.055 101.073 137.183C101.146 137.311 101.245 137.423 101.363 137.511C101.598 137.683 101.857 137.818 102.133 137.911C103.308 138.366 104.518 138.721 105.753 138.972V139.245C106.608 139.676 107.553 139.901 108.511 139.902C108.582 139.907 108.652 139.894 108.717 139.864C108.805 139.798 108.866 139.702 108.889 139.593C109.176 138.735 109.358 137.846 109.43 136.944C109.598 136.934 109.764 136.891 109.917 136.82C110.383 136.693 110.845 137.012 111.324 137.065C111.914 137.128 112.463 136.785 113.021 136.573C113.102 136.542 113.183 136.516 113.264 136.489C113.105 136.695 112.917 136.877 112.706 137.03C112.474 137.196 112.214 137.318 111.986 137.491C111.797 137.664 111.595 137.821 111.381 137.962C111.23 138.032 111.074 138.092 110.915 138.141C110.684 138.225 110.464 138.336 110.259 138.471C110.075 138.579 109.919 138.729 109.804 138.909C109.745 138.992 109.71 139.089 109.7 139.191C109.69 139.292 109.706 139.395 109.747 139.488C109.788 139.581 109.852 139.663 109.933 139.725C110.014 139.786 110.109 139.826 110.21 139.84C110.393 139.873 110.58 139.878 110.764 139.856C111.494 139.801 112.223 139.733 112.951 139.668C113.259 139.647 113.566 139.603 113.867 139.536C114.027 139.497 114.185 139.444 114.344 139.403C114.617 139.331 114.896 139.289 115.178 139.278C115.259 139.272 115.342 139.28 115.42 139.302C115.591 139.357 115.711 139.521 115.884 139.565C115.996 139.576 116.109 139.56 116.214 139.519C116.748 139.403 117.292 139.345 117.837 139.346C118.076 139.333 118.356 139.287 118.467 139.066C118.603 138.793 118.375 138.486 118.286 138.191C118.24 138.003 118.215 137.811 118.211 137.618C118.17 137.142 118.033 136.678 117.809 136.255C117.69 136.058 117.589 135.85 117.509 135.634C118.554 135.237 119.554 134.729 120.493 134.121C121.031 133.786 121.586 133.425 122.194 133.303C122.903 133.161 123.633 133.349 124.331 133.55C125.993 134.031 127.628 134.601 129.228 135.258C129.994 135.571 130.759 135.903 131.542 136.133C131.771 136.442 132.048 136.712 132.363 136.934C132.888 137.273 133.528 137.371 134.145 137.419C134.978 137.495 135.815 137.527 136.652 137.513C137.29 137.502 137.949 137.458 138.52 137.168C138.659 137.096 138.79 137.009 138.911 136.909C139.349 136.988 139.797 136.754 140.14 136.454C140.595 136.068 140.923 135.553 141.081 134.978C141.282 134.189 141.127 133.268 141.612 132.622C141.741 132.45 141.91 132.31 142.037 132.135C142.193 131.9 142.27 131.622 142.255 131.341L142.277 131.308C142.387 131.054 142.461 130.786 142.496 130.512C142.554 130.298 142.627 130.088 142.715 129.884C142.961 129.274 143.176 128.651 143.358 128.018C143.484 127.599 143.584 127.171 143.655 126.739C143.708 126.393 143.738 126.045 143.767 125.698C143.802 125.153 143.908 124.616 144.082 124.099C144.514 122.865 144.758 121.573 144.806 120.267C144.806 120.241 144.806 120.217 144.806 120.19C145.441 120.121 146.027 119.817 146.45 119.338C146.872 118.859 147.101 118.239 147.091 117.601C147.092 117.216 147.012 116.835 146.855 116.483C147.157 115.953 147.314 115.354 147.31 114.744ZM134.941 129.773C134.979 129.906 135.022 130.039 135.066 130.173C134.865 129.974 134.666 129.768 134.462 129.571C134.543 129.595 134.624 129.622 134.703 129.65C134.787 129.683 134.867 129.724 134.944 129.773H134.941ZM133.961 129.116C132.767 128.08 131.385 127.275 130.162 126.273C130.818 126.603 131.475 126.986 132.131 127.353C132.895 127.791 133.668 128.209 134.449 128.609C134.321 128.803 134.158 128.973 133.968 129.108L133.961 129.116ZM134.471 126.505L134.528 126.446C134.528 126.592 134.528 126.73 134.528 126.855C134.421 126.82 134.309 126.785 134.206 126.745C134.301 126.668 134.39 126.585 134.473 126.496L134.471 126.505ZM123.957 129.313C124.449 128.757 124.877 128.147 125.232 127.496C125.705 128.325 126.475 128.922 127.131 129.615C126.077 129.466 125.02 129.35 123.959 129.304L123.957 129.313Z" fill="url(#paint0_linear_273_2243)"/>
<path d="M125.663 119.23L126.417 119.383L128.987 123.18L127.852 123.333L125.663 119.23Z" fill="#2F2E41"/>
<path d="M107.389 134.641C107.592 135.314 107.843 135.972 108.139 136.61C108.99 136.432 109.828 136.193 110.645 135.895C110.487 135.648 110.313 135.412 110.125 135.188C109.924 134.965 109.684 134.78 109.416 134.644C109.156 134.53 108.834 134.615 108.557 134.63C108.167 134.645 107.778 134.649 107.389 134.641Z" fill="#FBBEBE"/>
<path d="M109.421 135.656C108.996 135.523 108.736 135.094 108.563 134.681C108.39 134.267 108.25 133.817 107.922 133.513C107.86 133.522 107.801 133.548 107.75 133.586C107.7 133.624 107.66 133.674 107.634 133.731C107.57 133.841 107.533 133.965 107.461 134.07C107.325 134.267 107.085 134.364 106.912 134.532C106.739 134.7 106.632 134.956 106.446 135.125C106.188 135.31 105.887 135.426 105.571 135.462C105.094 135.57 104.634 135.74 104.202 135.969C104.042 136.062 103.872 136.135 103.694 136.188C103.499 136.225 103.299 136.232 103.102 136.207L101.739 136.109C101.618 136.094 101.495 136.1 101.376 136.126C101.237 136.175 101.119 136.268 101.039 136.392C100.96 136.516 100.925 136.663 100.939 136.809C100.957 136.955 101.005 137.095 101.08 137.221C101.155 137.347 101.256 137.456 101.376 137.542C101.613 137.711 101.874 137.844 102.15 137.935C103.337 138.382 104.559 138.731 105.803 138.979V139.248C106.667 139.676 107.618 139.9 108.583 139.904C108.658 139.91 108.733 139.898 108.802 139.867C108.89 139.802 108.952 139.707 108.977 139.6C109.303 138.644 109.494 137.647 109.543 136.638C109.568 136.383 109.549 136.126 109.486 135.877C109.412 135.632 109.666 135.735 109.429 135.639" fill="#2F2E41"/>
<path d="M135.544 130.521C131.505 130.766 127.515 129.58 123.469 129.453C122.966 129.423 122.462 129.455 121.968 129.549C121.453 129.688 120.954 129.881 120.481 130.127C118.313 131.135 116.069 131.971 113.827 132.806L111.255 133.764C110.739 133.955 110.208 134.149 109.659 134.116C109.414 134.101 109.114 134.064 108.974 134.269C108.556 134.888 108.755 135.801 109.031 136.496C109.12 136.715 109.271 136.966 109.512 136.993C109.682 136.981 109.849 136.939 110.004 136.868C110.472 136.743 110.94 137.058 111.421 137.109C112.019 137.172 112.572 136.833 113.134 136.625C114.066 136.282 115.085 136.293 116.065 136.129C117.71 135.855 119.232 135.092 120.658 134.221C121.201 133.891 121.752 133.537 122.373 133.416C123.088 133.276 123.825 133.46 124.527 133.659C126.201 134.133 127.849 134.695 129.464 135.341C130.304 135.706 131.166 136.021 132.045 136.282C133.959 136.786 135.985 136.668 137.828 135.945C138.484 135.689 139.175 135.238 139.212 134.541C139.234 134.143 138.926 133.793 138.72 133.447C138.587 133.228 138.456 133.01 138.311 132.802C137.616 131.787 136.771 130.446 135.544 130.521Z" fill="#2F2E41"/>
<path opacity="0.1" d="M135.544 130.521C131.505 130.766 127.515 129.58 123.469 129.453C122.966 129.423 122.462 129.455 121.968 129.549C121.453 129.688 120.954 129.881 120.481 130.127C118.313 131.135 116.069 131.971 113.827 132.806L111.255 133.764C110.739 133.955 110.208 134.149 109.659 134.116C109.414 134.101 109.114 134.064 108.974 134.269C108.556 134.888 108.755 135.801 109.031 136.496C109.12 136.715 109.271 136.966 109.512 136.993C109.682 136.981 109.849 136.939 110.004 136.868C110.472 136.743 110.94 137.058 111.421 137.109C112.019 137.172 112.572 136.833 113.134 136.625C114.066 136.282 115.085 136.293 116.065 136.129C117.71 135.855 119.232 135.092 120.658 134.221C121.201 133.891 121.752 133.537 122.373 133.416C123.088 133.276 123.825 133.46 124.527 133.659C126.201 134.133 127.849 134.695 129.464 135.341C130.304 135.706 131.166 136.021 132.045 136.282C133.959 136.786 135.985 136.668 137.828 135.945C138.484 135.689 139.175 135.238 139.212 134.541C139.234 134.143 138.926 133.793 138.72 133.447C138.587 133.228 138.456 133.01 138.311 132.802C137.616 131.787 136.771 130.446 135.544 130.521Z" fill="black"/>
<path d="M115.142 134.838C115.775 135.053 116.412 135.251 117.054 135.433C117.415 134.84 118.088 134.429 118.241 133.753C118.25 133.724 118.25 133.693 118.241 133.664C118.225 133.635 118.199 133.612 118.169 133.598C117.708 133.344 117.196 133.194 116.671 133.161C116.255 133.134 116.067 133.567 115.879 133.871C115.814 133.994 115.311 134.895 115.142 134.838Z" fill="#FBBEBE"/>
<path d="M116.032 134.405C115.843 134.374 115.663 134.303 115.503 134.198C115.343 134.093 115.207 133.956 115.103 133.795C115.013 133.639 114.919 133.43 114.74 133.44C114.56 133.451 114.499 133.648 114.462 133.812C114.341 134.425 114.166 135.026 113.939 135.608C113.71 136.192 113.323 136.7 112.821 137.076C112.587 137.237 112.327 137.36 112.097 137.531C111.906 137.701 111.701 137.856 111.485 137.994C111.333 138.064 111.176 138.122 111.015 138.169C110.779 138.252 110.554 138.361 110.343 138.495C110.159 138.603 110.002 138.753 109.886 138.933C109.83 139.024 109.797 139.127 109.79 139.234C109.784 139.341 109.803 139.447 109.847 139.545C109.894 139.624 109.957 139.693 110.033 139.746C110.108 139.799 110.194 139.836 110.284 139.853C110.469 139.884 110.656 139.888 110.842 139.867C111.579 139.812 112.314 139.746 113.049 139.681C113.36 139.661 113.669 139.619 113.974 139.554C114.136 139.514 114.293 139.462 114.453 139.42C114.729 139.35 115.011 139.309 115.295 139.298C115.378 139.292 115.46 139.3 115.54 139.322C115.711 139.377 115.831 139.541 116.006 139.58C116.119 139.592 116.233 139.577 116.338 139.536C116.876 139.422 117.425 139.365 117.974 139.366C118.215 139.353 118.499 139.307 118.609 139.09C118.747 138.821 118.519 138.519 118.427 138.23C118.382 138.046 118.356 137.856 118.351 137.666C118.309 137.196 118.172 136.74 117.946 136.325C117.758 135.98 117.509 135.599 117.633 135.232C117.7 135.117 117.743 134.99 117.758 134.858C117.727 134.265 116.365 134.484 116.032 134.405Z" fill="#2F2E41"/>
<path d="M129.488 124.042C128.772 123.726 128.199 123.157 127.878 122.443C127.813 122.29 127.756 122.13 127.692 121.975C127.479 121.462 127.15 121.005 126.73 120.641C126.685 120.591 126.63 120.552 126.568 120.526C126.507 120.5 126.44 120.488 126.373 120.49C126.309 120.509 126.25 120.545 126.204 120.595C126.158 120.644 126.126 120.704 126.111 120.77C126.073 120.913 126.064 121.061 126.083 121.207C126.12 121.547 126.178 121.884 126.257 122.216L126.454 123.108C126.479 123.245 126.52 123.379 126.577 123.506C126.661 123.656 126.772 123.789 126.905 123.898C127.084 124.064 127.266 124.224 127.45 124.379C127.551 124.471 127.662 124.551 127.78 124.62C127.974 124.712 128.181 124.772 128.394 124.799C129.197 124.948 130.013 125.162 130.689 125.674C130.689 125.674 130.689 125.077 130.674 125.018C130.665 124.845 130.606 124.678 130.503 124.539C130.249 124.265 129.812 124.184 129.488 124.042Z" fill="#FBBEBE"/>
<path opacity="0.1" d="M129.488 124.042C128.772 123.726 128.199 123.157 127.878 122.443C127.813 122.29 127.756 122.13 127.692 121.975C127.479 121.462 127.15 121.005 126.73 120.641C126.685 120.591 126.63 120.552 126.568 120.526C126.507 120.5 126.44 120.488 126.373 120.49C126.309 120.509 126.25 120.545 126.204 120.595C126.158 120.644 126.126 120.704 126.111 120.77C126.073 120.913 126.064 121.061 126.083 121.207C126.12 121.547 126.178 121.884 126.257 122.216L126.454 123.108C126.479 123.245 126.52 123.379 126.577 123.506C126.661 123.656 126.772 123.789 126.905 123.898C127.084 124.064 127.266 124.224 127.45 124.379C127.551 124.471 127.662 124.551 127.78 124.62C127.974 124.712 128.181 124.772 128.394 124.799C129.197 124.948 130.013 125.162 130.689 125.674C130.689 125.674 130.689 125.077 130.674 125.018C130.665 124.845 130.606 124.678 130.503 124.539C130.249 124.265 129.812 124.184 129.488 124.042Z" fill="black"/>
<path d="M137.713 117.218C138.255 117.218 138.695 116.775 138.695 116.229C138.695 115.683 138.255 115.241 137.713 115.241C137.17 115.241 136.73 115.683 136.73 116.229C136.73 116.775 137.17 117.218 137.713 117.218Z" fill="#2F2E41"/>
<path d="M137.104 115.632C136.84 115.572 136.563 115.612 136.327 115.744C136.214 115.844 136.123 115.968 136.062 116.107C135.842 116.484 135.67 116.889 135.551 117.31C135.463 117.671 135.448 118.047 135.332 118.403C135.131 119.059 134.615 119.617 134.556 120.302C134.529 120.608 134.58 120.969 134.356 121.177C134.301 121.223 134.242 121.265 134.179 121.301C134.024 121.406 133.892 121.541 133.792 121.699C133.725 121.841 133.633 121.97 133.519 122.078C133.318 122.227 132.987 122.211 132.889 122.441C132.79 122.671 133.044 122.937 132.985 123.187C132.937 123.39 132.71 123.484 132.548 123.624C132.363 123.819 132.234 124.06 132.174 124.322C131.845 124.384 131.507 124.374 131.183 124.293C130.858 124.211 130.556 124.061 130.295 123.852C130.568 124.528 130.575 125.273 130.586 126.002C130.617 126.235 130.555 126.471 130.413 126.658C131.196 126.675 131.957 126.877 132.72 127.058C133.047 127.168 133.4 127.168 133.727 127.058C133.901 126.964 134.057 126.84 134.188 126.691C134.604 126.269 135.039 125.816 135.139 125.227C135.166 124.896 135.172 124.564 135.157 124.232C135.197 123.823 135.281 123.419 135.409 123.027C135.628 122.214 135.775 121.384 135.846 120.545C135.892 120.026 136.338 119.611 136.574 119.147C137.012 118.272 137.471 117.364 137.506 116.384C137.537 116.065 137.427 115.674 137.104 115.632Z" fill="#2F2E41"/>
<path opacity="0.1" d="M137.104 115.632C136.84 115.572 136.563 115.612 136.327 115.744C136.214 115.844 136.123 115.968 136.062 116.107C135.842 116.484 135.67 116.889 135.551 117.31C135.463 117.671 135.448 118.047 135.332 118.403C135.131 119.059 134.615 119.617 134.556 120.302C134.529 120.608 134.58 120.969 134.356 121.177C134.301 121.223 134.242 121.265 134.179 121.301C134.024 121.406 133.892 121.541 133.792 121.699C133.725 121.841 133.633 121.97 133.519 122.078C133.318 122.227 132.987 122.211 132.889 122.441C132.79 122.671 133.044 122.937 132.985 123.187C132.937 123.39 132.71 123.484 132.548 123.624C132.363 123.819 132.234 124.06 132.174 124.322C131.845 124.384 131.507 124.374 131.183 124.293C130.858 124.211 130.556 124.061 130.295 123.852C130.568 124.528 130.575 125.273 130.586 126.002C130.617 126.235 130.555 126.471 130.413 126.658C131.196 126.675 131.957 126.877 132.72 127.058C133.047 127.168 133.4 127.168 133.727 127.058C133.901 126.964 134.057 126.84 134.188 126.691C134.604 126.269 135.039 125.816 135.139 125.227C135.166 124.896 135.172 124.564 135.157 124.232C135.197 123.823 135.281 123.419 135.409 123.027C135.628 122.214 135.775 121.384 135.846 120.545C135.892 120.026 136.338 119.611 136.574 119.147C137.012 118.272 137.471 117.364 137.506 116.384C137.537 116.065 137.427 115.674 137.104 115.632Z" fill="black"/>
<path d="M136.185 131.371C135.343 130.971 134.729 130.225 134.048 129.587C132.749 128.366 131.161 127.504 129.796 126.36C128.893 125.604 128.084 124.722 127.089 124.088C126.213 123.529 125.221 123.181 124.188 123.071C124.07 123.05 123.949 123.056 123.834 123.088C123.704 123.147 123.59 123.237 123.504 123.351C123.063 123.848 122.671 124.386 122.334 124.958C120.603 127.894 118.147 130.363 116.111 133.095C116.046 133.159 116.007 133.246 116.002 133.337C115.998 133.429 116.028 133.519 116.087 133.589L116.5 134.401C116.732 134.853 117.104 135.383 117.594 135.293C117.819 135.228 118.02 135.1 118.173 134.923L120.033 133.145L121.981 131.282C123.123 130.188 124.285 129.073 125.03 127.677C125.612 128.685 126.645 129.346 127.353 130.271C127.622 130.621 127.841 131.008 128.082 131.38C128.469 131.977 128.906 132.537 129.344 133.095L131.581 135.949C131.863 136.356 132.213 136.711 132.616 136.999C133.145 137.334 133.79 137.423 134.414 137.478C135.253 137.555 136.097 137.585 136.94 137.57C137.583 137.559 138.252 137.517 138.821 137.231C139.39 136.944 139.873 136.356 139.842 135.715C139.807 135.379 139.698 135.056 139.521 134.768C138.731 133.303 137.686 132.078 136.185 131.371Z" fill="#2F2E41"/>
<path d="M138.316 117.673C138.732 117.673 139.07 117.333 139.07 116.914C139.07 116.495 138.732 116.155 138.316 116.155C137.899 116.155 137.561 116.495 137.561 116.914C137.561 117.333 137.899 117.673 138.316 117.673Z" fill="#E8E8F0"/>
<path d="M138.149 116.343C138.32 116.682 138.35 117.075 138.232 117.437C138.116 117.792 137.953 118.13 137.747 118.443C137.57 118.765 137.358 119.068 137.115 119.344C138.281 119.401 139.411 118.944 140.439 118.388C141.268 117.951 142.095 117.393 142.537 116.559C142.405 116.591 142.269 116.594 142.136 116.57C142.003 116.545 141.877 116.493 141.765 116.417C141.542 116.262 141.343 116.077 141.172 115.866L140.588 115.21C140.45 115.066 140.329 114.907 140.227 114.735C140.099 114.502 140.045 114.236 140.072 113.972C139.839 114.215 139.58 114.431 139.298 114.615C138.88 114.888 138.423 115.085 138.001 115.354C137.852 115.451 137.522 115.606 137.607 115.792C137.692 115.978 138.031 116.133 138.149 116.343Z" fill="#FBBEBE"/>
<path opacity="0.1" d="M138.149 116.343C138.32 116.682 138.35 117.075 138.232 117.437C138.116 117.792 137.953 118.13 137.747 118.443C137.57 118.765 137.358 119.068 137.115 119.344C138.281 119.401 139.411 118.944 140.439 118.388C141.268 117.951 142.095 117.393 142.537 116.559C142.405 116.591 142.269 116.594 142.136 116.57C142.003 116.545 141.877 116.493 141.765 116.417C141.542 116.262 141.343 116.077 141.172 115.866L140.588 115.21C140.45 115.066 140.329 114.907 140.227 114.735C140.099 114.502 140.045 114.236 140.072 113.972C139.839 114.215 139.58 114.431 139.298 114.615C138.88 114.888 138.423 115.085 138.001 115.354C137.852 115.451 137.522 115.606 137.607 115.792C137.692 115.978 138.031 116.133 138.149 116.343Z" fill="black"/>
<path d="M138.165 116.457C138.047 116.623 137.984 116.822 137.984 117.027C137.984 117.231 138.047 117.43 138.165 117.596C138.198 117.638 138.322 117.898 138.384 117.9C138.435 117.896 138.483 117.872 138.517 117.832C138.781 117.556 139.028 117.264 139.256 116.958C139.487 116.647 139.82 116.428 140.197 116.341C140.654 116.269 141.094 116.511 141.494 116.743C141.666 116.829 141.816 116.953 141.931 117.106C142.016 117.258 142.066 117.427 142.078 117.601C142.193 118.643 142.237 119.693 142.209 120.742C142.23 121.498 142.18 122.254 142.06 123.001C141.986 123.386 141.874 123.762 141.822 124.151C141.784 124.494 141.768 124.839 141.776 125.184V126.627C141.766 126.892 141.785 127.157 141.833 127.417C141.923 127.728 142.029 128.033 142.15 128.333C142.256 128.69 142.33 129.056 142.369 129.427L142.566 130.921C142.629 131.393 142.675 131.907 142.388 132.286C142.262 132.458 142.091 132.594 141.951 132.765C141.459 133.39 141.623 134.298 141.404 135.074C141.242 135.644 140.911 136.151 140.455 136.529C140.107 136.824 139.657 137.058 139.206 136.966C138.6 136.853 138.235 136.221 138.069 135.623C137.902 135.026 137.85 134.374 137.485 133.874C137.192 133.46 136.739 133.202 136.33 132.907C135.921 132.612 135.518 132.233 135.429 131.735C135.389 131.516 135.413 131.297 135.391 131.078C135.359 130.8 135.252 130.535 135.082 130.312C134.912 130.088 134.685 129.915 134.425 129.81C134.114 129.689 133.729 129.646 133.55 129.372C133.995 129.093 134.32 128.656 134.46 128.15C134.595 127.65 134.669 127.136 134.678 126.619L134.783 124.882C134.829 124.105 134.851 123.336 135.192 122.638C135.346 122.327 135.536 122.034 135.693 121.726C135.904 121.293 136.084 120.846 136.231 120.387C136.478 119.676 136.728 118.963 136.949 118.244C137.037 117.895 137.169 117.559 137.342 117.244C137.546 116.916 137.815 116.522 138.165 116.457Z" fill="#E8E8F0"/>
<path d="M134.309 127.741L134.768 127.756L134.867 127.063C134.88 126.924 134.912 126.788 134.963 126.658C135.039 126.521 135.128 126.392 135.228 126.271C135.68 125.632 135.648 124.783 135.759 124.007C135.908 122.972 136.341 122.001 136.77 121.048L137.662 119.06C137.741 118.896 137.805 118.725 137.852 118.55C137.891 118.356 137.91 118.159 137.907 117.962C137.907 117.655 138.008 116.538 138.014 116.229C138.014 116.115 137.765 116.179 137.712 116.078C137.601 115.86 137.448 116.455 137.238 116.586C137.04 116.737 136.896 116.948 136.826 117.187C136.634 117.688 136.516 118.215 136.337 118.718C136.179 119.233 135.892 119.7 135.503 120.072C135.322 120.234 135.11 120.361 134.937 120.532C134.381 121.081 134.329 121.947 134.309 122.719C134.296 123.198 134.206 127.741 134.309 127.741Z" fill="#2F2E41"/>
<path d="M140.925 115.628C140.488 115.803 140.234 116.284 140.109 116.752C139.985 117.22 139.932 117.714 139.692 118.13C139.132 119.105 137.703 119.39 137.308 120.444C137.207 120.8 137.153 121.168 137.148 121.538C137.078 122.292 136.829 123.023 136.754 123.777C136.716 124.364 136.73 124.954 136.796 125.538L137.297 131.494C137.394 132.371 137.343 133.258 137.146 134.119C137.659 134.193 138.183 134.106 138.646 133.871C139.116 133.653 139.545 133.364 139.996 133.115C140.772 132.677 141.63 132.382 142.308 131.802C142.431 131.706 142.536 131.59 142.62 131.459C142.729 131.208 142.803 130.944 142.839 130.674C142.897 130.463 142.97 130.257 143.058 130.057C143.309 129.457 143.528 128.843 143.714 128.22C143.841 127.806 143.941 127.384 144.014 126.958C144.068 126.619 144.097 126.275 144.127 125.934C144.162 125.397 144.269 124.868 144.444 124.359C144.878 123.146 145.124 121.874 145.173 120.586C145.188 120.4 145.175 120.213 145.136 120.031C145.06 119.81 144.959 119.598 144.834 119.401C144.626 119.009 144.501 118.578 144.304 118.182C143.867 117.286 143.082 116.605 142.262 116.035C141.842 115.757 141.38 115.455 140.925 115.628Z" fill="#2F2E41"/>
<path d="M130.483 125.346C130.128 125.16 129.807 124.916 129.532 124.624C129.407 124.477 129.313 124.313 129.178 124.169C128.856 123.827 128.439 123.589 127.981 123.487C127.526 123.386 127.06 123.341 126.595 123.353C126.283 123.332 125.971 123.369 125.674 123.465C125.525 123.513 125.39 123.599 125.283 123.714C125.176 123.829 125.1 123.969 125.061 124.121C124.993 124.493 125.236 124.854 125.527 125.09C125.798 125.311 126.116 125.466 126.457 125.543C126.735 125.591 127.015 125.624 127.297 125.641C128.95 125.814 130.427 126.713 131.874 127.533C133.147 128.252 134.445 128.925 135.768 129.552C135.82 129.156 135.842 128.757 135.833 128.358C135.833 128.06 135.811 127.605 135.529 127.43C135.201 127.225 134.654 127.179 134.291 127.056C133.439 126.778 132.607 126.442 131.8 126.05C131.343 125.829 130.906 125.595 130.483 125.346Z" fill="#FBBEBE"/>
<path d="M137.712 116.004C139.339 116.004 140.659 114.677 140.659 113.04C140.659 111.403 139.339 110.077 137.712 110.077C136.085 110.077 134.766 111.403 134.766 113.04C134.766 114.677 136.085 116.004 137.712 116.004Z" fill="#FBBEBE"/>
<path d="M141.767 118.987C141.533 119.317 141.341 119.675 141.196 120.052C140.831 120.803 140.26 121.446 139.976 122.24C139.674 123.064 139.685 124.046 139.101 124.696C138.984 124.794 138.895 124.923 138.845 125.068C138.842 125.158 138.831 125.248 138.815 125.337C138.731 125.573 138.344 125.584 138.272 125.825C138.252 125.895 138.272 125.971 138.237 126.043C138.178 126.199 137.975 126.22 137.837 126.314C137.55 126.509 137.618 126.96 137.399 127.24C137.31 127.344 137.196 127.422 137.067 127.468C136.938 127.513 136.799 127.523 136.664 127.498C136.396 127.441 136.138 127.345 135.899 127.211C135.815 127.164 135.722 127.135 135.626 127.126C135.511 127.128 135.401 127.166 135.308 127.233C134.764 127.579 134.508 128.265 134.512 128.913C134.551 129.56 134.704 130.196 134.965 130.79C134.996 130.892 135.047 130.987 135.116 131.069C135.295 131.26 135.61 131.229 135.851 131.122C136.076 130.989 136.316 130.881 136.566 130.803C137.021 130.72 137.467 131.034 137.929 131.008C138.266 130.957 138.584 130.817 138.85 130.601C139.318 130.317 139.737 129.959 140.092 129.541C140.293 129.276 140.442 128.974 140.619 128.692C140.845 128.345 141.094 128.014 141.363 127.699L143.062 125.619C143.233 125.422 143.386 125.21 143.519 124.987C143.672 124.684 143.792 124.366 143.876 124.038C144.058 123.489 144.176 122.922 144.228 122.347C144.237 121.871 144.195 121.395 144.103 120.927C144.046 120.462 143.923 120.008 143.738 119.578C143.36 118.812 142.461 118.178 141.767 118.987Z" fill="#2F2E41"/>
<path d="M147.686 115.127C147.688 114.601 147.566 114.083 147.328 113.614C147.091 113.145 146.746 112.739 146.321 112.43C146.308 111.497 145.965 110.599 145.351 109.896C144.738 109.193 143.895 108.731 142.972 108.591C142.794 107.708 142.31 106.915 141.604 106.354C140.899 105.793 140.018 105.498 139.117 105.522C138.216 105.547 137.353 105.888 136.679 106.487C136.005 107.086 135.564 107.903 135.433 108.795C134.208 108.519 133.088 108.878 132.885 109.633C132.666 110.422 133.541 111.345 134.836 111.695C135.242 111.81 135.665 111.852 136.085 111.82C136.386 112.262 136.776 112.636 137.231 112.919C137.685 113.201 138.193 113.386 138.723 113.46C138.878 114.174 139.23 114.829 139.738 115.354C140.246 115.878 140.891 116.25 141.599 116.428C141.795 116.902 142.099 117.323 142.487 117.657C142.487 117.749 142.472 117.843 142.472 117.94C142.458 118.276 142.512 118.611 142.631 118.926C142.75 119.241 142.931 119.529 143.164 119.771C143.397 120.014 143.676 120.208 143.986 120.34C144.295 120.472 144.629 120.54 144.965 120.54C145.302 120.54 145.635 120.472 145.944 120.34C146.254 120.208 146.533 120.014 146.766 119.771C146.999 119.529 147.181 119.241 147.3 118.926C147.418 118.611 147.473 118.276 147.458 117.94C147.459 117.562 147.377 117.189 147.22 116.846C147.528 116.325 147.688 115.731 147.686 115.127Z" fill="#F86D70"/>
<path opacity="0.1" d="M133.716 109.784C133.92 109.029 135.029 108.67 136.264 108.946C136.408 108.04 136.867 107.214 137.561 106.614C138.254 106.013 139.138 105.677 140.055 105.665C140.14 105.665 140.225 105.665 140.309 105.665C139.954 105.557 139.585 105.502 139.215 105.503C138.298 105.516 137.414 105.852 136.721 106.452C136.027 107.052 135.568 107.878 135.424 108.784C134.2 108.508 133.08 108.867 132.876 109.622C132.658 110.411 133.532 111.334 134.827 111.684C135.068 111.751 135.315 111.794 135.564 111.811C134.335 111.452 133.508 110.556 133.716 109.784Z" fill="black"/>
<path opacity="0.1" d="M143.303 118.093C143.303 117.997 143.303 117.902 143.318 117.808C142.93 117.475 142.626 117.054 142.43 116.581C141.722 116.402 141.079 116.029 140.571 115.504C140.063 114.98 139.711 114.324 139.554 113.611C139.024 113.537 138.516 113.353 138.061 113.07C137.607 112.788 137.217 112.413 136.916 111.971C136.671 111.99 136.425 111.983 136.181 111.951C136.484 112.359 136.864 112.702 137.3 112.961C137.737 113.22 138.22 113.39 138.723 113.46C138.878 114.174 139.23 114.83 139.738 115.354C140.246 115.878 140.891 116.25 141.599 116.428C141.795 116.902 142.099 117.323 142.487 117.658C142.487 117.749 142.472 117.843 142.472 117.94C142.46 118.61 142.715 119.258 143.18 119.741C143.644 120.225 144.281 120.505 144.952 120.521C144.463 120.332 144.043 119.998 143.748 119.564C143.453 119.131 143.298 118.617 143.303 118.093Z" fill="black"/>
<path d="M139.06 114.126C139.26 113.974 139.258 113.635 139.056 113.368C138.854 113.102 138.527 113.009 138.327 113.161C138.127 113.313 138.129 113.652 138.331 113.919C138.534 114.185 138.86 114.278 139.06 114.126Z" fill="#FBBEBE"/>
<path d="M68.6352 128.874L71.5486 127.161C71.1548 126.488 70.6514 125.886 70.0591 125.378L64.5647 127.087L68.8692 124.556C67.8033 123.972 66.6038 123.676 65.3887 123.697C64.1736 123.717 62.9849 124.054 61.9394 124.674C60.8939 125.293 60.0277 126.174 59.4261 127.23C58.8245 128.286 58.5082 129.48 58.5083 130.696C58.5083 134.56 61.6426 134.694 65.5074 134.694C69.3723 134.694 72.5066 134.56 72.5066 130.696C72.5089 129.716 72.3039 128.747 71.9051 127.852L68.6352 128.874Z" fill="#52CC6D"/>
<path opacity="0.1" d="M69.3766 132.631C69.0664 132.32 68.7197 132.048 68.3443 131.82C67.8171 131.468 67.2681 131.109 66.6448 130.991C66.098 130.886 65.5337 130.976 64.9759 130.943C64.0075 130.884 63.0958 130.466 62.4191 129.77C62.021 129.359 61.7082 128.854 61.2292 128.539C60.6938 128.221 60.0622 128.105 59.4488 128.213C59.271 128.238 59.095 128.274 58.9217 128.32C58.6475 129.082 58.5077 129.886 58.5083 130.696C58.5083 134.56 61.6426 134.694 65.5074 134.694C67.3841 134.694 69.0857 134.663 70.3434 134.189L70.1247 133.797C69.926 133.378 69.6746 132.986 69.3766 132.631Z" fill="black"/>
</g>
<defs>
<linearGradient id="paint0_linear_273_2243" x1="124.126" y1="139.904" x2="124.126" y2="104.987" gradientUnits="userSpaceOnUse">
<stop stop-color="#808080" stop-opacity="0.25"/>
<stop offset="0.54" stop-color="#808080" stop-opacity="0.12"/>
<stop offset="1" stop-color="#808080" stop-opacity="0.1"/>
</linearGradient>
<clipPath id="clip0_273_2243">
<rect width="250" height="145.173" fill="white"/>
</clipPath>
</defs>
</svg>
