<svg width="211" height="200" viewBox="0 0 211 200" fill="none" xmlns="http://www.w3.org/2000/svg">
<g clip-path="url(#clip0_273_2715)">
<path d="M150.331 34.4444C155.301 31.6899 160.349 28.7383 163.861 24.2713C167.528 19.6062 169.094 12.6287 165.695 7.76441C162.84 3.67837 157.155 2.24168 152.312 3.42253C147.469 4.60337 143.415 7.96766 140.266 11.8319C141.297 7.08236 136.287 2.49639 131.446 2.91701C126.604 3.33763 122.719 7.56954 121.426 12.2545C120.133 16.9394 120.975 21.953 122.362 26.6109C124.698 34.4208 128.515 41.708 133.605 48.075C134.386 46.6609 135.329 45.3429 136.416 44.148C140.239 39.9439 145.361 37.1988 150.331 34.4444Z" fill="#004AAD"/>
<path d="M133.152 48.3023C126.648 41.1316 121.885 32.5584 119.232 23.2483C117.868 18.4121 117.069 12.9135 119.113 8.14209C120.693 4.45172 124.062 1.11275 128.238 0.803629C132.645 0.477418 137.537 4.55831 136.593 9.22476C136.523 9.57324 136.982 9.94089 137.253 9.60913C140.781 5.30363 145.63 1.33766 151.408 0.948881C156.555 0.602602 161.961 3.17444 163.46 8.4026C165.021 13.8481 162.327 19.6091 158.555 23.4598C154.369 27.7313 148.921 30.3959 143.779 33.305C138.72 36.1674 133.574 39.4728 130.462 44.5324C128.983 46.8727 128.07 49.5249 127.793 52.2792C127.549 55.1221 128.26 57.8101 129.636 60.2892C131.098 62.9224 132.906 65.3228 134.226 68.0417C135.524 70.7288 136.512 73.5553 137.169 76.4663C138.498 82.2687 138.506 88.2954 137.195 94.1017C134.769 104.684 127.691 113.997 118.271 119.355C117.133 120.001 115.963 120.589 114.766 121.118C114.302 121.323 114.703 122.004 115.164 121.8C120.154 119.56 124.64 116.336 128.352 112.319C132.064 108.302 134.926 103.577 136.766 98.4261C140.751 87.1127 139.223 74.0774 132.848 63.9356C131.179 61.2813 129.252 58.7073 128.702 55.5451C128.199 52.6473 128.819 49.6244 130.042 46.981C132.663 41.3196 137.856 37.6395 143.102 34.6023C148.347 31.5658 153.95 28.9361 158.395 24.7244C162.352 20.9751 165.271 15.6255 164.585 10.0211C164.303 7.45994 163.11 5.08527 161.225 3.32863C159.325 1.65739 156.967 0.593987 154.456 0.275625C148.855 -0.514042 143.605 2.14343 139.613 5.89994C138.573 6.88604 137.598 7.9384 136.695 9.05043L137.355 9.43481C138.207 5.22278 134.859 1.35316 130.938 0.287876C126.675 -0.870617 122.448 1.62186 119.991 5.00089C116.923 9.22161 116.672 14.6343 117.569 19.6109C118.499 24.7735 120.426 29.8277 122.766 34.5081C125.374 39.7165 128.681 44.5452 132.593 48.861C132.935 49.2387 133.493 48.6786 133.152 48.3023L133.152 48.3023Z" fill="#3F3D56"/>
<path d="M130.402 190.505L126.673 191.563L112.023 144.911L122.773 143.057L130.402 190.505Z" fill="#9F616A"/>
<path d="M86.6401 190.773L82.9529 189.983L92.4911 142.175L102.863 145.554L86.6401 190.773Z" fill="#9F616A"/>
<path d="M125.908 199.567C126.929 200.033 127.785 197.145 128.646 197.991C131.055 200.359 136.833 199.828 136.833 199.828C137.027 199.766 137.206 199.664 137.36 199.531C137.514 199.397 137.639 199.234 137.728 199.05C137.817 198.867 137.867 198.667 137.877 198.463C137.886 198.26 137.854 198.057 137.782 197.866C137.697 197.637 137.557 197.433 137.375 197.271C137.193 197.109 136.974 196.993 136.738 196.934L134.176 196.293L130.153 189.219L125.77 188.665L125.659 188.846C124.812 190.211 124.265 191.742 124.056 193.336C123.847 194.93 123.981 196.55 124.448 198.088C124.812 199.256 125.309 199.293 125.908 199.567Z" fill="#2F2E41"/>
<path d="M81.2845 197.509C82.2031 198.154 83.5716 195.471 84.2636 196.46C86.1993 199.228 91.9775 199.762 91.9775 199.762C92.1797 199.736 92.3745 199.67 92.5501 199.566C92.7258 199.463 92.8786 199.325 92.9994 199.161C93.1201 198.997 93.2063 198.81 93.2527 198.611C93.2991 198.413 93.3048 198.207 93.2693 198.006C93.2268 197.766 93.1267 197.54 92.9774 197.347C92.8282 197.154 92.6343 197 92.4125 196.899L90.0109 195.801L87.349 188.111L83.1406 186.765L82.9987 186.923C81.9159 188.111 81.0989 189.516 80.6023 191.045C80.1057 192.573 79.9409 194.19 80.1188 195.788C80.2637 197.003 80.7448 197.13 81.2845 197.509Z" fill="#2F2E41"/>
<path d="M117.977 109.374C119.941 112.394 121.844 115.443 122.686 118.913C124.722 127.408 126.175 136.032 127.037 144.724C120.215 148.638 114.297 150.884 108.516 151.272C108.247 151.29 107.979 151.302 107.711 151.312L105.603 139.415L103.922 151.181C103.09 151.093 102.256 150.966 101.418 150.798C97.7943 150.071 94.1044 148.585 90.1617 146.304C88.7482 140.682 88.1547 134.885 88.3997 129.093C88.7236 121.347 90.4751 114.715 92.1712 109.39L117.977 109.374Z" fill="#2F2E41"/>
<path d="M103.498 74.2952L94.2307 71.1444C97.5832 67.8625 98.9524 64.2591 97.5669 60.2092L107.946 62.0626C105.483 66.8093 102.259 69.6674 103.498 74.2952Z" fill="#9F616A"/>
<path d="M117.977 109.374C109.547 116.08 100.965 116.853 92.1711 109.39C95.7162 98.2596 88.4839 87.793 89.5374 79.8918C90.1947 74.9623 92.2449 68.8564 97.012 67.4368L102.132 69.0012C103.908 69.5432 105.515 70.532 106.799 71.8731C108.084 73.2141 109.002 74.8624 109.467 76.6602L110.073 79.0174C113.004 82.1357 113.981 86.2338 113.22 91.209C113.863 92.6207 113.568 94.4011 113.273 96.1842C112.994 97.8803 112.714 99.5791 113.241 100.962C114.375 103.935 116.201 106.642 117.977 109.374" fill="#3F3D56"/>
<path d="M45.9961 193.162H39.7283C36.4497 193.162 33.5209 193.394 31.5875 194.637C30.6783 192.982 29.3412 191.602 27.7161 190.641C26.0909 189.68 24.2374 189.173 22.3494 189.174H16.0816C14.6973 189.174 13.3265 189.446 12.0476 189.976C10.7687 190.506 9.60661 191.282 8.62776 192.261C7.64891 193.24 6.87244 194.402 6.34269 195.681C5.81294 196.96 5.54028 198.331 5.54028 199.715V199.715H56.5374V199.715C56.5374 193.893 51.8179 193.162 45.9961 193.162Z" fill="#E6E6E6"/>
<path d="M175.915 200H202.687C202.552 195.005 198.811 194.017 192.435 194.017H186.167C179.791 194.017 176.05 195.005 175.915 200Z" fill="#E6E6E6"/>
<path d="M210.32 199.319H0V199.889H210.32V199.319Z" fill="#3F3D56"/>
<path d="M105.351 66.3257C109.957 66.3257 113.692 62.5915 113.692 57.9853C113.692 53.379 109.957 49.6449 105.351 49.6449C100.745 49.6449 97.0107 53.379 97.0107 57.9853C97.0107 62.5915 100.745 66.3257 105.351 66.3257Z" fill="#9F616A"/>
<path d="M133.991 105.473L128.148 103.561L128.574 98.8727L134.99 98.7301C135.496 98.7189 135.998 98.8189 136.461 99.023C136.924 99.2272 137.337 99.5306 137.67 99.9117C138.003 100.293 138.249 100.742 138.389 101.229C138.529 101.715 138.561 102.226 138.482 102.726C138.404 103.221 138.219 103.693 137.941 104.109C137.663 104.525 137.298 104.876 136.871 105.137C136.444 105.398 135.965 105.564 135.468 105.622C134.97 105.68 134.467 105.629 133.991 105.473Z" fill="#9F616A"/>
<path opacity="0.2" d="M122.686 118.913C120.271 117.781 114.774 114.926 106.833 109.14C95.898 101.17 98.6792 81.7091 98.6792 81.7091L113.273 96.1842C112.994 97.8803 112.714 99.5791 113.241 100.962C115.627 107.22 121.082 112.303 122.686 118.913Z" fill="black"/>
<path d="M129.26 105.062C121.348 106.815 114.875 107.866 109.614 104.135C101.27 94.4315 96.5285 84.6897 98.3034 74.8794C98.4681 73.9957 98.8798 73.1768 99.4908 72.5175C100.102 71.8582 100.887 71.3856 101.756 71.1544C102.896 70.8463 104.11 70.9706 105.163 71.5035C106.217 72.0364 107.037 72.9401 107.464 74.0409L113.768 95.1675L130.097 98.328L129.26 105.062Z" fill="#2F2E41"/>
<path d="M116.86 126.005C115.931 126.003 115.031 125.686 114.307 125.105C113.583 124.524 113.078 123.714 112.875 122.807L112.39 120.622L120.36 118.851L120.845 121.037C121.08 122.094 120.886 123.2 120.304 124.114C119.723 125.027 118.803 125.672 117.746 125.907C117.455 125.972 117.158 126.005 116.86 126.005ZM113.018 121.022L113.389 122.693C113.491 123.149 113.681 123.58 113.949 123.963C114.217 124.345 114.557 124.671 114.951 124.922C115.345 125.172 115.785 125.343 116.244 125.424C116.704 125.505 117.176 125.494 117.631 125.393C118.087 125.292 118.519 125.102 118.901 124.834C119.283 124.566 119.609 124.225 119.86 123.831C120.11 123.437 120.281 122.998 120.362 122.538C120.443 122.078 120.432 121.607 120.331 121.151L119.96 119.48L113.018 121.022Z" fill="#3F3D56"/>
<path d="M113.661 54.4991C113.661 54.4991 115 44.0791 104.076 47.4961C104.076 47.4961 96.2732 46.0644 93.7144 55.8241L91.1235 66.0547L92.3862 65.3674L92.9749 66.6542L95.021 67.1723L95.8966 65.4345L96.3201 67.5449L113.079 69.2156C113.079 69.2156 105.573 64.7767 105.454 56.821L106.884 58.3318L113.661 54.4991Z" fill="#2F2E41"/>
<path d="M14.3875 194.16C14.3875 194.16 19.5157 138.319 14.3875 129.487C14.3875 129.487 36.0399 163.96 23.7892 195.869L14.3875 194.16Z" fill="#E6E6E6"/>
<path d="M18.5771 193.875C18.5771 193.875 35.0271 164.608 34.379 158.526C34.379 158.526 37.8039 182.664 23.304 197.109L18.5771 193.875Z" fill="#E6E6E6"/>
<path d="M183.903 196.448C183.903 196.448 187.53 156.957 183.903 150.711C183.903 150.711 199.216 175.09 190.552 197.657L183.903 196.448Z" fill="#E6E6E6"/>
<path d="M186.866 196.246C186.866 196.246 198.5 175.548 198.041 171.247C198.041 171.247 200.464 188.318 190.209 198.533L186.866 196.246Z" fill="#E6E6E6"/>
</g>
<defs>
<clipPath id="clip0_273_2715">
<rect width="210.32" height="200" fill="white"/>
</clipPath>
</defs>
</svg>
