<svg width="256" height="200" viewBox="0 0 256 200" fill="none" xmlns="http://www.w3.org/2000/svg">
<g clip-path="url(#clip0_273_2906)">
<path opacity="0.1" d="M89.6612 196.126C114.285 196.126 134.247 192.345 134.247 187.68C134.247 183.015 114.285 179.234 89.6612 179.234C65.0369 179.234 45.075 183.015 45.075 187.68C45.075 192.345 65.0369 196.126 89.6612 196.126Z" fill="#004AAD"/>
<path opacity="0.1" d="M148.507 28.205C132.12 27.6379 116.514 22.3463 101.611 16.5584C86.7088 10.7706 71.948 4.35988 55.9542 1.29379C45.6672 -0.67854 33.9016 -0.959577 25.6147 4.54977C17.6368 9.8667 15.0594 19.0194 13.6745 27.5189C12.6313 33.9144 12.0186 40.6466 14.8746 46.6345C16.8595 50.7918 20.3788 54.2858 22.8145 58.2685C31.2887 72.1229 25.2983 89.2079 16.1177 102.736C11.8135 109.081 6.81308 115.142 3.48874 121.889C0.164391 128.637 -1.37245 136.394 1.53667 143.296C4.41793 150.132 11.2869 155.257 18.7281 158.865C33.8408 166.194 51.6424 168.291 69.0135 169.481C107.455 172.109 146.099 170.972 184.642 169.83C198.906 169.41 213.231 168.982 227.263 166.777C235.056 165.551 243.1 163.607 248.759 158.913C255.939 152.955 257.719 142.868 252.906 135.399C244.834 122.867 222.523 119.755 216.875 106.308C213.771 98.905 216.958 90.6612 221.473 83.7973C231.154 69.0694 247.381 56.1493 248.234 39.3174C248.822 27.7569 241.021 16.1787 228.959 10.7073C216.318 4.97259 198.785 5.69418 189.462 15.1862C179.854 24.949 162.976 28.7089 148.507 28.205Z" fill="#004AAD"/>
<path d="M135.485 91.5879L127.73 86.3596L131.642 80.5363L111.159 78.9032L103.799 84.5949L94.5855 79.4298L86.9013 80.354L86.8102 78.3285C86.7151 76.2169 86.5029 74.1122 86.1747 72.0241C86.2076 71.3912 86.2304 70.6645 86.2278 69.8746C86.2278 66.5452 85.7772 62.1321 83.7973 59.1901L84.253 55.0935L80.5565 50.726C81.1501 49.5435 81.827 48.4047 82.5819 47.3181C82.7085 47.1358 82.8351 46.9586 82.9719 46.7864C87.7698 46.4396 91.5549 42.4949 91.5549 37.6717C91.5549 37.4489 91.5549 37.2261 91.5296 37.0058C91.5296 36.9172 91.5119 36.8261 91.5017 36.7374C91.9701 36.9906 92.4436 37.2438 92.917 37.497C93.0057 37.6236 93.1069 37.7502 93.2183 37.8996L93.2411 37.9274L93.3829 38.1021L93.4285 38.1553C93.4791 38.2161 93.5323 38.2743 93.5855 38.3351L93.6209 38.3756C93.7551 38.525 93.8969 38.6769 94.0488 38.8262C94.0669 38.841 94.0838 38.857 94.0994 38.8743L94.2893 39.0516L94.3425 39.0997C94.5045 39.244 94.6767 39.3833 94.8489 39.5149L94.9046 39.5554L95.1223 39.7048L95.1932 39.7504C95.2767 39.801 95.3628 39.8542 95.4464 39.9023L95.4768 39.92C95.5755 39.9732 95.6768 40.0238 95.7781 40.0719L95.8287 40.0922C95.9148 40.1293 95.9992 40.1648 96.0819 40.1985L96.1604 40.2264C96.249 40.2567 96.3351 40.2846 96.4262 40.3099L96.4819 40.3251C96.5933 40.353 96.7047 40.3757 96.8187 40.3935H96.8313C96.9386 40.4108 97.0468 40.4218 97.1554 40.4264H97.2288C97.3258 40.4315 97.423 40.4315 97.52 40.4264H97.5833C97.7047 40.4194 97.8256 40.405 97.9453 40.3833C98.5118 40.3089 99.0558 40.1137 99.5404 39.8111C99.6638 39.7286 99.7732 39.6269 99.8645 39.5098C100.371 38.8465 99.8139 38.1198 99.8139 38.1198C99.6164 37.6489 98.3352 37.3172 98.3352 37.3172C98.3352 37.3172 94.2843 35.626 94.2843 34.279C94.2843 32.932 93.2715 25.9441 82.8174 24.3465C82.8174 24.3465 76.0168 23.9642 74.1053 27.605L74.0647 28.0303C73.5027 28.3823 73.0368 29.0887 72.4823 29.2963C72.2428 29.3477 72.0117 29.433 71.7962 29.5495V29.5014C71.7322 29.5573 71.6797 29.6253 71.6417 29.7014C71.5226 29.9384 71.4512 30.1964 71.4316 30.4609C71.3745 30.7841 71.2624 31.0949 71.0999 31.38C71.0546 31.461 71.0039 31.5388 70.948 31.6129L70.905 31.6813C71.1989 31.7042 71.4941 31.6565 71.7658 31.5421C71.723 31.8887 71.638 32.2288 71.5126 32.5548C71.6736 32.56 71.8326 32.5189 71.9709 32.4363C72.1091 32.3537 72.2207 32.2331 72.2924 32.0889V32.0687L72.3253 32.0231C72.389 31.9059 72.4416 31.783 72.4823 31.656L72.4545 31.6864C72.5051 31.5218 72.5507 31.3547 72.6064 31.1927C72.6319 31.1014 72.6739 31.0156 72.7304 30.9395C72.798 30.8713 72.8806 30.82 72.9717 30.7897C73.0627 30.7594 73.1596 30.7508 73.2545 30.7648L73.1507 32.9599H73.1963C73.1353 33.1196 73.0608 33.2737 72.9735 33.4207C72.614 34.003 71.9608 34.4005 71.7202 35.0386C71.6165 35.3463 71.5769 35.672 71.6038 35.9956C71.6038 36.1855 71.6265 36.3779 71.6417 36.5678V36.5526C71.6772 37.059 71.6873 37.5401 71.4139 37.9477C71.2265 38.2262 70.9252 38.4363 70.8214 38.7528C70.7927 38.841 70.7798 38.9336 70.7834 39.0263C70.8037 39.3037 70.8617 39.5771 70.9556 39.839C70.9567 39.834 70.9567 39.8288 70.9556 39.8238C71.0188 40.0164 71.0335 40.2216 70.9986 40.4213C70.8847 40.9277 70.2695 41.3505 70.2999 41.8341C70.2981 41.8977 70.3075 41.9611 70.3277 42.0215C70.4461 42.2577 70.6511 42.4391 70.8999 42.5278C71.2903 42.7498 71.7386 42.8487 72.1861 42.8114C72.3538 42.7811 72.516 42.7256 72.6671 42.6468C72.4899 43.0545 72.3076 43.457 72.1228 43.8393C72.0949 43.9001 72.0646 43.9609 72.0342 44.0216C72.0342 44.0216 70.4695 42.976 69.5808 45.1078C69.3214 45.5508 69.1358 46.0331 69.0314 46.5358C68.9869 46.7369 68.9242 46.9335 68.844 47.1232C68.4495 47.7911 67.859 48.3215 67.1527 48.6423C65.3399 49.4728 58.0177 58.6052 57.8886 60.97C57.8253 61.8931 57.6692 62.8075 57.4228 63.6993C56.8464 65.7996 56.6983 67.9944 56.9873 70.1531C57.0777 70.8507 57.2277 71.5394 57.4354 72.2115C58.2127 74.5737 58.7317 78.9817 58.7317 78.9817L59.5723 86.633C59.5411 87.689 59.5868 88.7459 59.709 89.7953C58.8507 90.7752 55.4049 94.8591 56.7214 95.9706C57.7342 96.8466 59.5065 96.7023 60.5015 96.5225C59.6635 98.5961 58.3444 102.201 58.1697 104.678C57.9165 108.341 58.6026 113.195 59.6888 115.058C60.775 116.922 64.3955 121.702 64.3955 121.702C64.3955 121.702 64.2259 128.259 65.5197 130.642C66.8135 133.024 67.335 137.967 67.335 137.967C67.335 137.967 68.5427 142.139 67.9376 143.674C67.3325 145.208 69.0592 146.484 67.2464 147.504C65.4336 148.525 63.1144 171.522 63.1144 171.522C63.1144 171.522 62.1801 186.594 63.1144 187.361C63.1644 187.397 63.2178 187.429 63.2739 187.455V192.518C63.2739 192.518 62.6257 193.582 65.2614 193.797C67.0666 193.941 72.1836 194.268 75.2193 194.458L77.5714 194.605C77.5714 194.605 83.1415 195.714 85.6025 194.605C88.0634 193.496 92.4259 193.521 91.7777 190.592C91.6918 190.193 91.5767 189.801 91.4334 189.419C90.7219 187.601 89.5142 187.394 87.2887 186.887C87.1596 186.86 87.0355 186.834 86.9216 186.814C84.5771 186.406 83.8074 187.498 82.4933 186.077C81.3515 184.849 77.7157 183.475 76.4776 183.039C76.508 182.948 76.546 182.859 76.5764 182.766C76.2258 182.706 75.8997 182.547 75.637 182.307L78.9918 182.52L80.9894 182.644C80.9894 182.644 85.724 183.588 87.8254 182.644C89.9269 181.7 93.6234 181.725 93.0715 179.236C92.9988 178.897 92.9015 178.564 92.7803 178.239C92.1752 176.694 91.1473 176.525 89.256 176.097C89.1471 176.074 89.0458 176.051 88.9445 176.033C86.952 175.686 86.2987 176.613 85.1822 175.408C84.2251 174.38 81.2046 173.228 80.1184 172.836C80.1184 172.273 79.3589 171.473 78.8804 170.671C78.3183 169.734 79.3563 166.455 79.3563 166.455L79.9488 152.852C80.1744 152.751 80.4131 152.683 80.6577 152.649C80.6577 152.649 83.3364 150.092 82.7313 147.368C82.608 146.544 82.5437 145.712 82.5389 144.879C83.42 144.061 84.6328 142.853 84.9771 142.109C85.5392 140.896 84.9771 135.02 84.9771 135.02V112.549L89.4585 113.002L93.5247 113.42L94.7628 113.547L98.829 113.957L108.174 114.901L116.595 113.306L120.238 112.618L127.73 111.2V92.869L135.485 91.5879ZM73.8065 30.8458L73.2849 30.7901C73.4571 30.7977 73.6394 30.8306 73.8065 30.8458Z" fill="url(#paint0_linear_273_2906)"/>
<path d="M117.309 103.49C114.777 107.113 105.675 105.194 105.675 105.194L98.6213 98.5935L97.6719 97.6997L99.2644 94.3171C99.2644 94.3171 99.7708 94.4564 100.639 94.7045C105.199 96.0287 119.446 100.444 117.309 103.49Z" fill="#EFB7B9"/>
<path opacity="0.1" d="M100.634 94.7045C100.323 95.7882 99.4695 97.4111 98.6213 98.5935L97.6719 97.6997L99.2644 94.3171C99.2644 94.3171 99.7759 94.4564 100.634 94.7045Z" fill="black"/>
<path d="M76.4422 56.5595C76.4422 56.5595 69.9404 59.4433 70.2594 66.5249C70.489 71.0873 70.9861 75.6322 71.7481 80.1363C71.7481 80.1363 70.4189 90.7929 75.9536 93.54C81.4883 96.2871 86.6102 98.5455 86.6102 98.5455C86.6102 98.5455 95.2692 99.4772 96.3453 99.8621C97.4213 100.247 100.784 94.3629 100.163 93.4463C99.543 92.5298 91.5955 90.6081 90.5827 89.0788C89.57 87.5496 87.228 86.6052 87.228 86.6052C87.228 86.6052 84.8101 85.1418 84.6455 83.8202C84.4809 82.4985 85.119 81.5136 85.281 80.9338C85.443 80.354 85.8532 74.7561 85.8532 74.7561C85.8532 74.7561 88.5825 54.8302 76.4422 56.5595Z" fill="#DCE6F2"/>
<path opacity="0.1" d="M80.7339 79.845C80.7339 79.845 71.8141 81.3388 72.6775 84.4606C72.6775 84.4606 75.9158 81.0907 80.7339 79.845Z" fill="black"/>
<path opacity="0.1" d="M80.802 81.1084C80.802 81.1084 75.8978 85.1113 76.8574 85.3164C77.8169 85.5214 80.802 81.1084 80.802 81.1084Z" fill="black"/>
<path opacity="0.1" d="M83.1595 82.5034C83.1595 82.5034 81.8454 85.1948 82.6531 85.0125C83.4608 84.8302 83.1595 82.5034 83.1595 82.5034Z" fill="black"/>
<path opacity="0.1" d="M100.964 94.9906L100.422 94.8362C100.576 94.3298 100.619 93.9197 100.493 93.7298C99.8723 92.8132 91.9298 90.8941 90.9196 89.3623C89.9094 87.8305 87.5649 86.8887 87.5649 86.8887C87.5649 86.8887 85.1469 85.4252 84.9824 84.1036C84.8178 82.782 85.4558 81.7971 85.6179 81.2173C85.7799 80.6375 86.1901 75.037 86.1901 75.037C86.1901 75.037 88.9118 55.1137 76.7715 56.843C76.7715 56.843 70.2697 59.7293 70.5861 66.8109C70.8158 71.3734 71.3137 75.9183 72.0774 80.4223C72.0774 80.4223 70.7482 91.0789 76.2828 93.826C81.8175 96.5731 86.9395 98.8315 86.9395 98.8315C86.9395 98.8315 95.5959 99.7607 96.6745 100.148C97.0822 100.295 97.8189 99.5379 98.5405 98.4973L98.9507 98.8796L106.004 105.478C106.004 105.478 115.107 107.399 117.638 103.776C119.778 100.728 105.534 96.3123 100.964 94.9906Z" fill="black"/>
<path d="M72.7 29.9798C72.4521 30.0283 72.2147 30.12 71.9986 30.2507C71.7455 30.4609 71.7455 30.8204 71.6822 31.1344C71.6078 31.5711 71.4346 31.9851 71.1758 32.3446C71.4639 32.3657 71.7529 32.318 72.0189 32.2054C71.9756 32.5519 71.8905 32.8919 71.7657 33.2181C71.9235 33.2221 72.079 33.1805 72.2138 33.0984C72.3485 33.0162 72.4566 32.8969 72.5253 32.7548C72.6592 32.4695 72.7652 32.1718 72.8418 31.8661C72.8655 31.7746 72.9068 31.6887 72.9633 31.6129C73.1962 31.3369 73.6292 31.461 73.9887 31.4964C74.2879 31.5217 74.5884 31.4664 74.8591 31.3364C75.1297 31.2064 75.3607 31.0064 75.5281 30.7571C75.9104 30.1773 75.9332 28.6937 75.0217 28.5367C74.0697 28.3797 73.4773 29.6912 72.7 29.9798Z" fill="#965D7B"/>
<g opacity="0.1">
<path opacity="0.1" d="M71.9735 30.5622C71.9963 30.4381 72.0115 30.309 72.0394 30.1849C71.7988 30.3951 71.7862 30.7521 71.7229 31.0686C71.691 31.2512 71.6409 31.4301 71.5735 31.6028C71.7728 31.285 71.9087 30.9316 71.9735 30.5622Z" fill="black"/>
<path opacity="0.1" d="M72.0544 32.6535C72.1805 32.3277 72.2656 31.9875 72.3076 31.6407C72.0541 31.7474 71.7797 31.7951 71.505 31.78C71.4251 31.9581 71.3275 32.1277 71.2139 32.2864C71.501 32.3086 71.7892 32.2617 72.0544 32.1496C72.0124 32.4964 71.9273 32.8366 71.8013 33.1624C71.959 33.1661 72.1144 33.1244 72.2491 33.0422C72.3837 32.9601 72.4919 32.841 72.5608 32.6991C72.6239 32.584 72.6748 32.4626 72.7127 32.337C72.6384 32.4408 72.5392 32.5243 72.4241 32.5796C72.3091 32.6349 72.1819 32.6603 72.0544 32.6535Z" fill="black"/>
<path opacity="0.1" d="M74.2776 30.9318C73.9181 30.8964 73.4826 30.7723 73.2497 31.0483C73.1942 31.1247 73.1531 31.2104 73.1281 31.3015C73.1054 31.3673 73.0851 31.4357 73.0674 31.504C73.3079 31.3141 73.6978 31.4154 74.0244 31.4483C74.3235 31.4728 74.6238 31.4171 74.8943 31.2872C75.1648 31.1573 75.3959 30.9577 75.5638 30.709C75.6405 30.5861 75.6978 30.452 75.7334 30.3115C75.56 30.5261 75.3366 30.6949 75.0828 30.8031C74.829 30.9112 74.5525 30.9554 74.2776 30.9318Z" fill="black"/>
</g>
<path d="M80.3212 50.8906L84.1823 55.5341L83.6784 60.2206L79.0122 52.9161L80.3212 50.8906Z" fill="#DCE6F2"/>
<path opacity="0.1" d="M84.1798 55.5341L83.7063 59.942L83.6759 60.2206L79.4654 53.6276L79.0122 52.9161L79.1439 52.711L80.3187 50.8906L80.5794 51.2046L84.1798 55.5341Z" fill="black"/>
<path d="M86.1849 44.604C84.8784 44.9787 83.6302 46.2649 82.544 47.8271C81.8099 48.9049 81.1533 50.0336 80.5793 51.2046C80.2223 51.9186 79.9084 52.6047 79.6476 53.2023L79.4653 53.6276C79.0247 54.6682 78.7792 55.3645 78.7792 55.3645C78.7792 55.3645 68.7783 47.8448 70.3607 47.3384C70.8924 47.1688 71.5912 46.0295 72.2824 44.5939L72.3685 44.4116C72.8065 43.49 73.2369 42.4621 73.6192 41.4949C74.4015 39.5074 74.9813 37.7806 74.9813 37.7806C74.9813 37.7806 90.1726 43.4647 86.1849 44.604Z" fill="#EFB7B9"/>
<path d="M92.1677 37.3577C92.1677 37.3577 94.4768 41.5353 97.5783 40.9656C100.68 40.3959 99.4038 38.7223 99.4038 38.7223L92.1677 37.3577Z" fill="#444053"/>
<path d="M87.6938 181.965C85.648 182.9 81.0223 181.965 81.0223 181.965L79.0728 181.844C76.5409 181.682 72.3025 181.408 70.8037 181.287C68.6161 181.107 69.1529 180.211 69.1529 180.211V174.795L79.7665 172.106C79.7665 172.106 83.9618 173.542 85.1113 174.795C86.2025 175.99 86.8405 175.071 88.7876 175.415C88.8838 175.433 88.985 175.453 89.0914 175.479C90.9396 175.902 91.9423 176.069 92.5347 177.6C92.6538 177.922 92.7494 178.252 92.8208 178.588C93.3677 181.054 89.737 181.036 87.6938 181.965Z" fill="#A36468"/>
<path opacity="0.1" d="M92.5347 177.6C92.1544 177.838 91.7546 178.043 91.3397 178.213C89.9471 178.849 88.623 179.623 87.2153 180.223C85.8075 180.823 84.291 181.251 82.7668 181.137C81.9692 181.079 81.154 180.884 80.3919 181.112C79.9206 181.294 79.4767 181.54 79.0728 181.844C76.5409 181.682 72.3025 181.408 70.8037 181.287C68.6161 181.107 69.1529 180.211 69.1529 180.211V179.578C69.2314 179.578 69.32 179.555 69.4213 179.547C69.9452 179.539 70.467 179.617 70.9657 179.778C72.0645 180.077 73.1583 180.37 74.2571 180.664C74.3475 180.323 74.5064 180.004 74.724 179.726C74.9416 179.448 75.2135 179.218 75.5231 179.049C76.1503 178.716 76.8542 178.554 77.5638 178.58C79.2677 178.603 80.8805 179.411 82.5819 179.492C83.0576 179.535 83.5365 179.455 83.9719 179.259C84.2049 179.142 84.4099 178.973 84.6378 178.844C85.0025 178.667 85.3878 178.537 85.7848 178.456C86.9005 178.178 87.996 177.825 89.0635 177.398C89.3674 177.279 89.7218 177.064 89.6813 176.74C89.6281 176.309 88.9521 176.259 88.7749 175.864C88.7436 175.792 88.7292 175.715 88.7327 175.637C88.7362 175.559 88.7576 175.484 88.7952 175.415C88.8914 175.433 88.9926 175.453 89.099 175.479C90.9396 175.902 91.9423 176.069 92.5347 177.6Z" fill="black"/>
<path d="M85.5317 193.815C83.1264 194.914 77.6829 193.815 77.6829 193.815L75.3916 193.681C72.4242 193.491 67.4263 193.174 65.6616 193.025C63.0867 192.812 63.7196 191.759 63.7196 191.759V185.376L76.2094 182.211C76.2094 182.211 81.1465 183.9 82.4985 185.376C83.7822 186.781 84.524 185.7 86.8255 186.105C86.9394 186.125 87.0584 186.151 87.1825 186.179C89.3574 186.685 90.5372 186.875 91.2335 188.678C91.3744 189.056 91.487 189.445 91.5702 189.84C92.1981 192.741 87.937 192.718 85.5317 193.815Z" fill="#A36468"/>
<path opacity="0.1" d="M91.2284 188.677C90.781 188.957 90.311 189.198 89.8232 189.399C88.1851 190.146 86.6255 191.057 84.9696 191.764C83.3138 192.47 81.5288 192.971 79.7337 192.84C78.7969 192.771 77.8374 192.536 76.9487 192.809C76.3918 193.026 75.8678 193.319 75.3916 193.68C72.4242 193.49 67.4263 193.174 65.6616 193.025C63.0867 192.812 63.7196 191.759 63.7196 191.759V191.014C63.8245 190.997 63.9301 190.985 64.0361 190.979C64.6529 190.968 65.2673 191.059 65.854 191.25L69.7252 192.293C69.8331 191.891 70.0218 191.514 70.28 191.187C70.5381 190.861 70.8603 190.59 71.2266 190.391C71.9646 189.998 72.7937 189.808 73.6294 189.84C75.6346 189.867 77.531 190.817 79.5337 190.913C80.0914 190.964 80.6529 190.871 81.1642 190.642C81.4402 190.503 81.6706 190.303 81.9491 190.153C82.3773 189.944 82.8309 189.791 83.2986 189.698C84.6043 189.368 85.8866 188.952 87.1369 188.452C87.4939 188.31 87.9117 188.057 87.8636 187.677C87.8003 187.171 87.0053 187.11 86.7951 186.644C86.7597 186.56 86.7436 186.469 86.748 186.378C86.7523 186.287 86.7771 186.198 86.8204 186.118C86.9344 186.138 87.0534 186.163 87.1774 186.191C89.3523 186.677 90.5321 186.875 91.2284 188.677Z" fill="black"/>
<path d="M80.0882 150.016L79.4122 165.923C79.4122 165.923 78.3994 169.172 78.9489 170.101C79.4983 171.03 80.4249 171.957 80.0882 172.506C79.7515 173.056 75.7005 178.996 74.3915 176.717C73.0825 174.438 71.7913 164.564 71.7913 164.564L72.999 152.368L80.0882 150.016Z" fill="#444053"/>
<path d="M83.02 110.382L84.8986 112.894V134.739C84.8986 134.739 85.4481 140.562 84.8986 141.764C84.3492 142.967 81.5642 145.372 81.5642 145.372L79.2222 133.346L79.7285 120.623L83.02 110.382Z" fill="#444053"/>
<path opacity="0.1" d="M80.0882 150.016L79.4122 165.923C79.4122 165.923 78.3994 169.172 78.9489 170.101C79.4983 171.03 80.4249 171.957 80.0882 172.506C79.7515 173.056 75.7005 178.996 74.3915 176.717C73.0825 174.438 71.7913 164.564 71.7913 164.564L72.999 152.368L80.0882 150.016Z" fill="black"/>
<path opacity="0.1" d="M83.02 110.382L84.8986 112.894V134.739C84.8986 134.739 85.4481 140.562 84.8986 141.764C84.3492 142.967 81.5642 145.372 81.5642 145.372L79.2222 133.346L79.7285 120.623L83.02 110.382Z" fill="black"/>
<path d="M84.8986 101.065V112.881L82.7895 122.079C82.7895 122.079 82.1135 144.276 82.7035 146.975C83.2934 149.674 80.678 152.209 80.678 152.209C80.678 152.209 79.1588 152.378 79.1588 153.558C79.1588 154.738 76.627 158.115 76.627 158.115L76.7105 164.698C76.7105 164.698 77.8094 177.021 76.1206 179.383C74.4318 181.745 76.7105 182.085 76.7105 182.085C74.6015 189.004 64.474 187.402 63.56 186.642C62.646 185.882 63.56 170.944 63.56 170.944C63.56 170.944 65.8235 148.158 67.5958 147.145C69.3681 146.132 67.6819 144.866 68.2718 143.347C68.8617 141.828 67.6819 137.693 67.6819 137.693C67.6819 137.693 67.1755 132.797 65.9096 130.434C64.6436 128.072 64.8107 121.573 64.8107 121.573C64.8107 121.573 61.2661 116.846 60.2129 114.99C59.1596 113.134 58.4811 108.324 58.7342 104.693C58.9064 102.24 60.1951 98.6671 61.0129 96.6112C61.4054 95.6263 61.6889 94.9883 61.6889 94.9883L61.9295 95.0516L75.7585 98.6721L84.8986 101.065Z" fill="#444053"/>
<path opacity="0.1" d="M86.1849 44.6041C84.8785 44.9788 83.6302 46.265 82.5441 47.8271H82.2605C80.6684 47.8283 79.1043 47.4091 77.7261 46.612C76.3479 45.8149 75.2046 44.6681 74.4117 43.2875C74.0803 42.7154 73.8137 42.1083 73.6167 41.4772C74.399 39.4897 74.9788 37.7629 74.9788 37.7629C74.9788 37.7629 90.1726 43.4647 86.1849 44.6041Z" fill="black"/>
<path d="M91.3121 38.2743C91.3143 39.6597 90.9986 41.027 90.3891 42.2711C89.7796 43.5152 88.8927 44.6027 87.7967 45.45C86.7007 46.2973 85.4248 46.8818 84.0673 47.1583C82.7099 47.4348 81.3071 47.396 79.9669 47.045C78.6268 46.6939 77.3852 46.0399 76.3376 45.1334C75.2901 44.2268 74.4646 43.0919 73.9247 41.8161C73.3849 40.5403 73.1451 39.1576 73.2239 37.7745C73.3026 36.3914 73.6978 35.0448 74.3789 33.8385C74.6533 33.3483 74.9738 32.8854 75.336 32.4561C75.933 31.7448 76.6348 31.1284 77.4172 30.6281C78.7387 29.7883 80.2555 29.3057 81.8193 29.2274C83.3831 29.1491 84.9404 29.4778 86.3392 30.1814C87.738 30.885 88.9303 31.9394 89.7997 33.2416C90.6691 34.5438 91.1859 36.0493 91.2994 37.611C91.3045 37.8338 91.3121 38.054 91.3121 38.2743Z" fill="#EFB7B9"/>
<path opacity="0.1" d="M83.7062 59.9421L83.6758 60.2206L79.4653 53.6378C79.0247 54.6784 78.7792 55.3746 78.7792 55.3746C78.7792 55.3746 68.7783 47.8448 70.3607 47.3385C70.8924 47.1688 71.5912 46.0295 72.2824 44.5939L72.3685 44.4116C73.1027 46.5992 77.3689 50.9717 79.1437 52.7237C79.3488 52.9263 79.5185 53.0934 79.6501 53.2149L79.921 53.4681L80.0628 53.6099C80.7084 54.2758 83.4327 57.2128 83.7062 59.9421Z" fill="black"/>
<path d="M86.8532 82.2782L86.3924 97.1074L86.3113 99.7481C86.3113 99.7481 80.8526 99.2417 75.7585 98.6847C71.6569 98.2366 67.7907 97.753 67.1957 97.4694C66.4362 97.1124 64.8082 96.8365 63.5245 96.6618C62.532 96.5276 61.7522 96.4567 61.7522 96.4567C61.7522 96.4567 61.4611 96.5428 61.0129 96.6238C60.0356 96.801 58.319 96.9453 57.3189 96.0769C56.0403 94.9654 59.4001 90.9271 60.2382 89.9574L60.423 89.7472L60.1065 86.8229L59.2836 79.24C59.2836 79.24 58.7773 74.8725 58.0177 72.5305C57.8146 71.8647 57.6681 71.1829 57.5797 70.4924C57.2975 68.3534 57.4421 66.1796 58.005 64.0969C58.2456 63.2118 58.3982 62.3053 58.4608 61.3903C58.5874 59.0483 65.7399 49.9969 67.5122 49.174C68.3095 48.8022 68.951 48.1625 69.325 47.3663C69.4485 47.1159 69.5412 46.8515 69.601 46.5789C70.3606 43.2874 72.2823 44.5939 72.2823 44.5939C72.7456 47.1688 79.9184 53.9846 79.9184 53.9846L80.0602 54.1264C80.7716 54.8555 83.9415 58.2786 83.7162 61.2004C83.6712 62.2879 83.8335 63.374 84.1947 64.4007C85.6537 68.9947 86.4924 73.763 86.6886 78.5792L86.8532 82.2782Z" fill="#DCE6F2"/>
<path opacity="0.1" d="M76.6904 64.6691C76.6904 64.6691 74.9181 68.9732 73.5889 69.6695C72.2596 70.3658 77.3234 71.138 76.6904 64.6691Z" fill="black"/>
<path opacity="0.1" d="M78.0197 72.7078C78.0197 72.7078 73.9688 73.2141 73.9688 73.9737C73.9688 74.7333 78.0197 72.7078 78.0197 72.7078Z" fill="black"/>
<path opacity="0.1" d="M82.2606 77.6449C82.2606 77.6449 76.374 90.1776 74.7283 90.5574C73.0826 90.9372 82.2606 77.6449 82.2606 77.6449Z" fill="black"/>
<path opacity="0.1" d="M79.807 54.6201L74.9382 56.7368L69.0618 47.86C69.1852 47.6097 69.2779 47.3453 69.3377 47.0726C70.0973 43.7812 72.019 45.0876 72.019 45.0876C72.4823 47.6626 79.6551 54.4783 79.6551 54.4783L79.807 54.6201Z" fill="black"/>
<path d="M80.0602 54.1138L75.1914 56.2304L69.3149 47.3537C69.4384 47.1033 69.5311 46.8389 69.5909 46.5663C70.3505 43.2748 72.2722 44.5813 72.2722 44.5813C72.7355 47.1562 79.9083 53.972 79.9083 53.972L80.0602 54.1138Z" fill="#DCE6F2"/>
<path opacity="0.1" d="M86.3114 99.748C86.3114 99.748 80.8527 99.2416 75.7586 98.6846L84.8986 101.077V103.862C84.4986 104.224 84.1517 104.412 83.9264 104.315C82.8731 103.872 74.2774 102.48 74.2774 102.48C74.2774 102.48 69.2846 99.948 63.8968 96.9098C63.766 96.8373 63.6392 96.7579 63.517 96.6718C62.8888 96.2452 62.3474 95.7031 61.9219 95.0742C60.9269 93.6335 60.4408 91.7827 60.2306 89.9674C60.1125 88.927 60.0685 87.8795 60.099 86.8329C60.1251 85.6462 60.2333 84.4626 60.423 83.2908C59.902 78.7523 59.6484 74.1871 59.6635 69.6187C59.7268 62.5295 66.3729 59.9976 66.3729 59.9976C78.5892 58.9216 74.8015 78.6702 74.8015 78.6702C74.8015 78.6702 74.0951 84.2403 73.9027 84.81C73.7103 85.3796 73.0191 86.3291 73.1128 87.6583C73.2064 88.9875 75.5408 90.5776 75.5408 90.5776C75.5408 90.5776 77.8195 91.646 78.7588 93.2284C79.4424 94.3956 83.8833 95.978 86.3924 97.1072L86.3114 99.748Z" fill="black"/>
<path opacity="0.1" d="M90.403 32.6536C90.4077 33.0706 90.3213 33.4836 90.1498 33.8638C90.02 34.174 89.8695 34.4752 89.6991 34.7651C89.4327 35.2986 89.0544 35.7683 88.5902 36.1425C88.0053 36.5602 87.266 36.6767 86.5647 36.8463C85.8634 37.016 85.1342 37.2869 84.7341 37.8844C84.5173 38.2685 84.3723 38.6889 84.3063 39.125C84.2392 39.5608 84.0652 39.9731 83.7999 40.3251C83.6617 40.497 83.4704 40.6182 83.2559 40.6695C83.0414 40.7208 82.816 40.6994 82.615 40.6087C82.4032 40.466 82.2427 40.2593 82.1567 40.0188C81.8681 39.3681 81.7946 38.6465 81.6782 37.9452C81.5617 37.2438 81.3971 36.5223 80.9667 35.9577C80.5363 35.3931 79.7742 35.0209 79.0982 35.2411C78.8719 35.3282 78.6656 35.4602 78.4916 35.629C78.3175 35.7978 78.1794 36 78.0855 36.2235C77.8984 36.671 77.7699 37.1407 77.7031 37.6211C77.3892 39.3394 77.0187 41.0476 76.5916 42.7456C76.5786 42.8152 76.5501 42.881 76.5081 42.938C76.4408 43.0051 76.3499 43.0433 76.2549 43.0444C75.6878 43.1203 75.1434 42.7228 74.5712 42.7659C74.5123 42.7698 74.4538 42.7791 74.3965 42.7937C73.4714 41.1859 73.0629 39.3325 73.2264 37.4847C73.3899 35.6369 74.1174 33.8841 75.3105 32.4637L75.3561 32.451C75.7367 32.3159 76.0826 32.098 76.3688 31.813C76.7343 31.4472 77.0728 31.0555 77.3816 30.6407L77.5841 30.3875C78.1661 29.6864 78.829 29.0567 79.559 28.5114C79.7583 28.3482 79.9868 28.2244 80.2325 28.1468C80.4427 28.1059 80.6581 28.099 80.8705 28.1266C81.7449 28.2315 82.6264 28.2646 83.5062 28.2253C84.1192 28.129 84.7371 28.0664 85.357 28.038C86.9597 28.0835 88.3269 29.2153 89.3396 30.4559C89.884 31.0914 90.3701 31.8231 90.403 32.6536Z" fill="black"/>
<path d="M73.1963 34.079C72.8444 34.6563 72.2089 35.0487 71.9709 35.6817C71.6215 36.6007 72.2114 37.7451 71.6696 38.5655C71.4898 38.8414 71.1936 39.0465 71.0923 39.363C70.9201 39.8972 71.3911 40.4669 71.2695 41.0163C71.148 41.5657 70.4239 42.0291 70.6163 42.5658C70.73 42.7999 70.9295 42.9812 71.1733 43.0722C71.557 43.2923 71.9985 43.3903 72.4393 43.3532C73.1305 43.2393 73.6444 42.5608 74.3458 42.5101C74.9154 42.4696 75.4598 42.8646 76.0269 42.7912C76.122 42.7878 76.2123 42.749 76.2801 42.6823C76.3231 42.6259 76.3518 42.5598 76.3637 42.4899C76.789 40.7935 77.1604 39.0853 77.4777 37.3654C77.5423 36.8848 77.67 36.4149 77.8575 35.9678C77.9522 35.7447 78.0906 35.5429 78.2645 35.3742C78.4384 35.2055 78.6444 35.0733 78.8702 34.9854C79.5462 34.7677 80.3058 35.1373 80.7387 35.7019C81.1717 36.2665 81.3363 36.9881 81.4527 37.6894C81.5692 38.3908 81.6426 39.1124 81.9287 39.763C82.0156 40.0044 82.177 40.2118 82.3895 40.3555C82.7693 40.5758 83.2807 40.4011 83.5719 40.0719C83.8386 39.7197 84.0127 39.3062 84.0783 38.8693C84.1443 38.434 84.2893 38.0144 84.5062 37.6312C84.9062 37.0337 85.6379 36.7628 86.3367 36.5931C87.0355 36.4235 87.7723 36.3045 88.3622 35.8867C88.8258 35.513 89.204 35.0442 89.4711 34.5119C89.8459 33.8587 90.1953 33.1498 90.1649 32.3978C90.132 31.5775 89.6459 30.8458 89.1268 30.2078C88.1141 28.9671 86.7443 27.8354 85.1417 27.7924C84.5216 27.8183 83.9036 27.8808 83.2909 27.9797C82.411 28.0193 81.5294 27.9854 80.6552 27.8784C80.4426 27.853 80.2274 27.8607 80.0171 27.9012C79.7712 27.9763 79.543 28.1003 79.3462 28.2658C78.6155 28.8102 77.9518 29.4391 77.3688 30.1394C76.9929 30.6378 76.5853 31.1114 76.1484 31.5572C75.8621 31.8427 75.5163 32.0614 75.1357 32.1978C74.8825 32.2687 74.6293 32.2181 74.3888 32.2966C73.6419 32.532 73.5432 33.5068 73.1963 34.079Z" fill="#965D7B"/>
<path opacity="0.1" d="M97.5783 40.963C95.5528 41.3352 93.8742 39.6971 92.945 38.5021C92.6596 38.1391 92.3999 37.7567 92.1677 37.3577L99.1202 38.6692L99.4013 38.7223C99.4013 38.7223 100.68 40.3959 97.5783 40.963Z" fill="black"/>
<g opacity="0.1">
<path opacity="0.1" d="M71.2695 40.2922C71.2978 39.9611 71.2475 39.6279 71.1226 39.3199C71.1226 39.3453 71.0998 39.3706 71.0922 39.3959C70.9834 39.7352 71.1302 40.0871 71.2239 40.439C71.244 40.3918 71.2593 40.3425 71.2695 40.2922Z" fill="black"/>
<path opacity="0.1" d="M71.8722 36.1476C71.8462 36.4977 71.8529 36.8495 71.8924 37.1983C71.9184 36.8482 71.9116 36.4964 71.8722 36.1476Z" fill="black"/>
<path opacity="0.1" d="M89.4561 33.7803C89.1896 34.3137 88.8114 34.7834 88.3471 35.1576C87.7623 35.5754 87.0255 35.6918 86.3216 35.8615C85.6178 36.0311 84.8911 36.302 84.4911 36.8995C84.2747 37.2838 84.1297 37.7042 84.0632 38.1402C83.9973 38.577 83.8232 38.9904 83.5568 39.3428C83.2657 39.6719 82.7542 39.8492 82.3744 39.6264C82.1619 39.4827 82.0006 39.2752 81.9137 39.0339C81.6276 38.3832 81.5516 37.6642 81.4377 36.9603C81.3237 36.2564 81.1541 35.5374 80.7237 34.9728C80.2933 34.4082 79.5312 34.036 78.8551 34.2563C78.6291 34.3438 78.423 34.4758 78.249 34.6446C78.075 34.8133 77.9367 35.0154 77.8424 35.2386C77.655 35.6858 77.5273 36.1557 77.4626 36.6362C77.147 38.3562 76.7756 40.0644 76.3486 41.7607C76.3367 41.8307 76.3081 41.8967 76.265 41.9532C76.1973 42.0199 76.1069 42.0587 76.0119 42.062C75.4447 42.1354 74.9004 41.7405 74.3307 41.781C73.6294 41.8316 73.1154 42.5102 72.4242 42.6216C71.9833 42.6611 71.541 42.5629 71.1583 42.3405C70.9823 42.2648 70.8244 42.1526 70.6949 42.0114C70.6357 42.0962 70.5965 42.1934 70.5802 42.2956C70.564 42.3978 70.5712 42.5023 70.6012 42.6013C70.7128 42.837 70.913 43.0191 71.1583 43.1077C71.541 43.3301 71.9833 43.4283 72.4242 43.3887C73.1154 43.2773 73.6294 42.5988 74.3307 42.5481C74.9004 42.5076 75.4447 42.9026 76.0119 42.8292C76.1069 42.8259 76.1973 42.787 76.265 42.7203C76.3081 42.6639 76.3367 42.5978 76.3486 42.5279C76.7739 40.84 77.1453 39.1318 77.4626 37.4034C77.5273 36.9229 77.655 36.453 77.8424 36.0058C77.9367 35.7825 78.075 35.5805 78.249 35.4117C78.423 35.243 78.6291 35.1109 78.8551 35.0234C79.5312 34.8031 80.2907 35.1753 80.7237 35.7399C81.1566 36.3045 81.3212 37.0261 81.4377 37.7275C81.5541 38.4288 81.6276 39.1504 81.9137 39.8011C82.0006 40.0424 82.1619 40.2499 82.3744 40.3935C82.7542 40.6138 83.2657 40.4391 83.5568 40.11C83.8232 39.7575 83.9973 39.3441 84.0632 38.9073C84.1297 38.4713 84.2747 38.051 84.4911 37.6667C84.8911 37.0692 85.6228 36.8008 86.3216 36.6286C87.0204 36.4565 87.7572 36.3425 88.3471 35.9248C88.8114 35.5506 89.1896 35.0808 89.4561 34.5474C89.8308 33.8967 90.1802 33.1878 90.1498 32.4358C90.1449 32.3392 90.1347 32.2428 90.1195 32.1472C89.9973 32.7267 89.7726 33.2797 89.4561 33.7803Z" fill="black"/>
</g>
<path opacity="0.1" d="M90.1596 33.8561C90.8089 35.0105 91.1937 36.2947 91.2863 37.6159C89.0304 36.35 86.9087 34.96 85.8377 34.4764C83.9717 33.6333 76.9939 33.7599 74.3708 33.8384C74.6452 33.3482 74.9657 32.8853 75.3279 32.456C75.9273 31.7441 76.6316 31.1276 77.4167 30.6279C78.4564 29.9681 79.6197 29.5272 80.8356 29.3323C82.0515 29.1373 83.2943 29.1923 84.4882 29.494C85.6821 29.7957 86.8019 30.3376 87.7792 31.0868C88.7565 31.8359 89.5708 32.7765 90.1722 33.851L90.1596 33.8561Z" fill="black"/>
<path opacity="0.1" d="M98.2113 39.8895C96.9935 40.2643 95.0059 39.5401 92.945 38.5021C92.6596 38.1391 92.3999 37.7567 92.1677 37.3577L99.1202 38.6692C99.581 38.9831 99.6975 39.4313 98.2113 39.8895Z" fill="black"/>
<path d="M82.7996 25.0781C82.7996 25.0781 76.1534 24.6984 74.2849 28.3063L73.9836 31.504L73.4772 31.4483L73.376 33.6232C73.376 33.6232 83.5338 33.1801 85.8454 34.2232C88.157 35.2664 95.3399 40.5225 98.2187 39.6364C101.097 38.7502 97.9655 37.9274 97.9655 37.9274C97.9655 37.9274 94.0031 36.2487 94.0031 34.9322C94.0031 33.6156 93.0207 26.6606 82.7996 25.0781Z" fill="#444053"/>
<path opacity="0.1" d="M69.981 143.62C69.981 143.62 74.2218 147.735 76.0574 147.418C76.0574 147.418 70.8671 146.975 69.981 143.62Z" fill="black"/>
<path opacity="0.1" d="M69.0947 145.527C69.0947 145.527 69.4745 147.643 70.4873 147.436C71.5 147.228 69.0947 145.527 69.0947 145.527Z" fill="black"/>
<path opacity="0.1" d="M75.741 180.902C75.741 180.902 69.7202 185.586 70.7355 185.713C71.7508 185.839 75.741 180.902 75.741 180.902Z" fill="black"/>
<path d="M83.7947 87.9394L103.29 84.767V103.224L84.7669 102.255L83.7947 87.9394Z" fill="#004AAD"/>
<path opacity="0.05" d="M83.7947 87.9394L103.29 84.767V103.224L84.7669 102.255L83.7947 87.9394Z" fill="black"/>
<path d="M103.29 84.767L126.67 86.5165L125.376 102.579L103.29 103.224V84.767Z" fill="#004AAD"/>
<path opacity="0.1" d="M103.29 84.767L126.67 86.5165L125.376 102.579L103.29 103.224V84.767Z" fill="black"/>
<path d="M110.478 79.1335L103.29 84.767L126.67 86.5165L130.49 80.7514L110.478 79.1335Z" fill="#004AAD"/>
<path d="M76.7358 81.7869L94.2868 79.65L103.29 84.7669L83.7947 87.9394L76.7358 81.7869Z" fill="#004AAD"/>
<path d="M107.564 89.5597V114.795L98.4314 113.858L94.4589 113.453L93.2487 113.326L89.2787 112.919L83.7947 112.357V87.9393L103.288 89.266L107.564 89.5597Z" fill="#004AAD"/>
<path d="M126.669 86.5166V111.126L119.35 112.532L115.79 113.215L107.564 114.795V89.5599L126.669 86.5166Z" fill="#004AAD"/>
<path opacity="0.05" d="M126.669 86.5166V111.126L119.35 112.532L115.79 113.215L107.564 114.795V89.5599L126.669 86.5166Z" fill="black"/>
<path d="M76.7358 93.2512L83.7947 87.9393L107.564 89.5597L104.065 95.4539L76.7358 93.2512Z" fill="#004AAD"/>
<path opacity="0.1" d="M76.7358 93.2512L83.7947 87.9393L107.564 89.5597L104.065 95.4539L76.7358 93.2512Z" fill="white"/>
<path d="M126.669 86.5166L107.564 89.5599L113.782 95.13L134.247 91.6968L126.669 86.5166Z" fill="#004AAD"/>
<path opacity="0.1" d="M126.669 86.5166L107.564 89.5599L113.782 95.13L134.247 91.6968L126.669 86.5166Z" fill="white"/>
<path opacity="0.1" d="M119.35 112.531L115.79 113.215V107.956L119.125 107.116L119.35 112.531Z" fill="white"/>
<path opacity="0.1" d="M98.4315 110.379V113.858L94.459 113.453V110.379H98.4315Z" fill="white"/>
<path opacity="0.1" d="M93.2488 111.476V113.327L89.2788 112.919V111.476H93.2488Z" fill="white"/>
<path opacity="0.1" d="M105.174 108.534C102.452 112.015 93.4639 109.61 93.4639 109.61L86.7848 102.642L85.8784 101.698L87.6507 98.4062C87.6507 98.4062 88.1571 98.5733 89.0027 98.867C93.4791 100.432 107.465 105.604 105.174 108.534Z" fill="black"/>
<path d="M104.921 108.027C102.199 111.509 93.2107 109.103 93.2107 109.103L86.5317 102.136L85.6252 101.191L87.3976 97.8999C87.3976 97.8999 87.9039 98.067 88.7496 98.3607C93.2259 99.9254 107.212 105.098 104.921 108.027Z" fill="#EFB7B9"/>
<path opacity="0.1" d="M88.7396 98.3607C88.3699 99.4241 87.4306 100.999 86.5216 102.136L85.6152 101.191L87.3875 97.8999C87.3875 97.8999 87.8964 98.067 88.7396 98.3607Z" fill="black"/>
<path d="M66.6261 58.985C66.6261 58.985 59.98 61.5169 59.9167 68.6061C59.9015 73.1745 60.1552 77.7397 60.6762 82.2782C60.6762 82.2782 58.7773 92.8488 64.1575 95.8871C69.5378 98.9253 74.5382 101.457 74.5382 101.457C74.5382 101.457 83.1339 102.85 84.1897 103.293C85.2455 103.736 88.9142 98.0391 88.3445 97.0897C87.7748 96.1402 79.9488 93.7983 79.0196 92.2158C78.0904 90.6334 75.8016 89.5675 75.8016 89.5675C75.8016 89.5675 73.4672 87.975 73.3735 86.6457C73.2799 85.3165 73.9685 84.367 74.1635 83.7974C74.3584 83.2277 75.0648 77.6576 75.0648 77.6576C75.0648 77.6576 78.8424 57.8963 66.6261 58.985Z" fill="#DCE6F2"/>
<path opacity="0.1" d="M69.6643 82.4554C69.6643 82.4554 60.6762 83.4682 61.3724 86.633C61.3724 86.633 64.7879 83.4403 69.6643 82.4554Z" fill="black"/>
<path opacity="0.1" d="M69.6643 83.7214C69.6643 83.7214 64.5626 87.456 65.4994 87.7091C66.4362 87.9623 69.6643 83.7214 69.6643 83.7214Z" fill="black"/>
<path opacity="0.1" d="M71.943 85.2405C71.943 85.2405 70.4872 87.8584 71.3101 87.7217C72.1329 87.585 71.943 85.2405 71.943 85.2405Z" fill="black"/>
<path d="M165.526 28.4557C165.526 28.4557 155.905 27.8759 157.029 34.6259C157.029 34.6259 156.804 35.8184 157.885 36.3602C157.885 36.3602 157.903 35.8538 158.872 36.0285C159.218 36.0866 159.569 36.1036 159.918 36.0792C160.391 36.0476 160.841 35.8617 161.199 35.55C161.199 35.55 163.906 34.4334 164.959 30.0077C164.959 30.0077 165.739 29.0406 165.718 28.7924L164.093 29.4887C164.093 29.4887 164.647 30.661 164.209 31.6357C164.209 31.6357 164.159 29.5317 163.845 29.5798C163.782 29.5798 163.002 29.9875 163.002 29.9875C163.002 29.9875 163.956 32.0282 163.235 33.5144C163.235 33.5144 163.508 30.9977 162.703 30.1343L161.559 30.8027C161.559 30.8027 162.675 32.9118 161.918 34.6335C161.918 34.6335 162.113 31.9927 161.318 30.9648L160.28 31.7724C160.28 31.7724 161.331 33.8536 160.69 35.2816C160.69 35.2816 160.607 32.2079 160.055 31.975C160.055 31.975 159.148 32.7751 159.012 33.1042C159.012 33.1042 159.728 34.6233 159.282 35.4107C159.282 35.4107 159.009 33.3625 158.776 33.3523C158.776 33.3523 157.872 34.7094 157.779 35.631C157.822 34.7718 158.09 33.9391 158.556 33.2156C158.035 33.3142 157.554 33.5633 157.173 33.9321C157.173 33.9321 157.313 32.9726 158.779 32.889C158.779 32.889 159.538 31.8585 159.726 31.7952C159.726 31.7952 158.267 31.6737 157.384 32.0661C157.384 32.0661 158.161 31.1623 159.994 31.5598L161.007 30.7243C161.007 30.7243 159.088 30.4711 158.272 30.7521C158.272 30.7521 159.209 29.952 161.283 30.5344L162.397 29.8685C162.397 29.8685 160.761 29.514 159.786 29.6431C159.786 29.6431 160.814 29.0887 162.723 29.6887L163.521 29.3317C163.521 29.3317 162.321 29.0963 161.971 29.0583C161.622 29.0203 161.602 28.9241 161.602 28.9241C162.361 28.7977 163.14 28.8854 163.852 29.1773C163.852 29.1773 165.562 28.562 165.526 28.4557Z" fill="#004AAD"/>
<path opacity="0.1" d="M194.759 62.2157C194.759 62.2157 185.138 61.6359 186.262 68.3859C186.262 68.3859 186.037 69.5784 187.118 70.1202C187.118 70.1202 187.136 69.6138 188.108 69.7885C188.453 69.8467 188.804 69.8636 189.154 69.8392C189.621 69.8053 190.066 69.6205 190.42 69.3125C190.42 69.3125 193.129 68.1935 194.182 63.7677C194.182 63.7677 194.959 62.8031 194.929 62.555L193.303 63.2487C193.303 63.2487 193.858 64.421 193.422 65.3957C193.422 65.3957 193.369 63.2918 193.058 63.3399C192.994 63.3399 192.212 63.7475 192.212 63.7475C192.212 63.7475 193.169 65.7907 192.448 67.2744C192.448 67.2744 192.721 64.7577 191.913 63.8943L190.782 64.5552C190.782 64.5552 191.898 66.6642 191.141 68.3859C191.141 68.3859 191.336 65.7451 190.541 64.7172L189.506 65.5274C189.506 65.5274 190.554 67.6061 189.916 69.034C189.916 69.034 189.832 65.9603 189.28 65.7274C189.28 65.7274 188.374 66.5275 188.235 66.8566C188.235 66.8566 188.954 68.3758 188.508 69.1632C188.508 69.1632 188.235 67.1149 188.002 67.1048C188.002 67.1048 187.098 68.4618 187.004 69.3834C187.049 68.5241 187.318 67.6915 187.784 66.968C187.262 67.0668 186.781 67.3159 186.399 67.6845C186.399 67.6845 186.541 66.725 188.007 66.6414C188.007 66.6414 188.754 65.6109 188.954 65.5477C188.954 65.5477 187.495 65.4261 186.612 65.8186C186.612 65.8186 187.389 64.9147 189.219 65.3248L190.232 64.4893C190.232 64.4893 188.311 64.2361 187.498 64.5172C187.498 64.5172 188.435 63.7171 190.508 64.2994L191.622 63.6336C191.622 63.6336 189.984 63.2816 189.009 63.4082C189.009 63.4082 190.04 62.8537 191.949 63.4538L192.746 63.0968C192.746 63.0968 191.546 62.8613 191.194 62.8234C190.842 62.7854 190.825 62.6892 190.825 62.6892C191.585 62.5627 192.365 62.6504 193.078 62.9424C193.078 62.9424 194.79 62.322 194.759 62.2157Z" fill="#004AAD"/>
<path opacity="0.1" d="M136.311 56.2227C136.311 56.2227 138.526 46.832 131.68 46.7991C131.68 46.7991 130.543 46.3737 129.827 47.3459C129.827 47.3459 130.315 47.4497 129.983 48.3764C129.869 48.7041 129.792 49.0439 129.756 49.3892C129.707 49.8598 129.812 50.3336 130.057 50.7386C130.057 50.7386 130.697 53.5997 134.867 55.3922C134.867 55.3922 135.688 56.324 135.936 56.3341L135.531 54.6149C135.531 54.6149 134.28 54.9618 133.394 54.3618C133.394 54.3618 135.478 54.6681 135.48 54.3618C135.48 54.2985 135.227 53.4604 135.227 53.4604C135.227 53.4604 133.052 54.0529 131.71 53.0882C131.71 53.0882 134.143 53.787 135.133 53.1414L134.678 51.8957C134.678 51.8957 132.399 52.6376 130.839 51.597C130.839 51.597 133.409 52.24 134.559 51.6324L133.938 50.4728C133.938 50.4728 131.71 51.1513 130.411 50.2778C130.411 50.2778 133.45 50.7184 133.779 50.2171C133.779 50.2171 133.146 49.1866 132.845 48.9942C132.845 48.9942 131.234 49.4449 130.525 48.8701C130.525 48.8701 132.589 48.9486 132.637 48.7309C132.637 48.7309 131.455 47.6093 130.553 47.3561C131.393 47.5473 132.169 47.9539 132.804 48.5359C132.795 48.0053 132.631 47.4889 132.333 47.0497C132.333 47.0497 133.255 47.3535 133.093 48.822C133.093 48.822 133.979 49.7335 134.007 49.9411C134.007 49.9411 134.374 48.5258 134.138 47.5865C134.138 47.5865 134.898 48.5081 134.181 50.2424L134.83 51.3944C134.83 51.3944 135.417 49.5461 135.268 48.6954C135.268 48.6954 135.898 49.7537 134.969 51.6982L135.437 52.911C135.437 52.911 136.063 51.3564 136.103 50.3791C136.103 50.3791 136.475 51.4881 135.556 53.268L135.774 54.1136C135.774 54.1136 136.209 52.9718 136.306 52.6325C136.402 52.2932 136.501 52.2907 136.501 52.2907C136.497 53.0609 136.278 53.8149 135.87 54.4681C135.87 54.4681 136.202 56.2353 136.311 56.2227Z" fill="#004AAD"/>
<path opacity="0.1" d="M115.241 59.4229C115.241 59.4229 107.513 53.6427 104.751 59.904C104.751 59.904 103.908 60.7775 104.513 61.8231C104.513 61.8231 104.802 61.4155 105.526 62.0915C105.782 62.3301 106.066 62.5375 106.371 62.7093C106.785 62.9395 107.262 63.0284 107.731 62.9625C107.731 62.9625 110.607 63.5169 113.919 60.4002C113.919 60.4002 115.101 60.0204 115.213 59.7976L113.468 59.4913C113.468 59.4913 113.286 60.7749 112.387 61.3497C112.387 61.3497 113.499 59.5622 113.21 59.433C113.152 59.4052 112.281 59.3064 112.281 59.3064C112.281 59.3064 111.957 61.5396 110.539 62.3827C110.539 62.3827 112.152 60.4306 111.952 59.2659L110.628 59.195C110.628 59.195 110.402 61.5725 108.822 62.5953C108.822 62.5953 110.435 60.4964 110.341 59.2001L109.03 59.3064C109.03 59.3064 108.764 61.618 107.445 62.4586C107.445 62.4586 109.063 59.8457 108.731 59.3495C108.731 59.3495 107.534 59.5191 107.237 59.7166C107.237 59.7166 107.007 61.3724 106.197 61.7927C106.197 61.7927 107.096 59.9318 106.913 59.8027C106.913 59.8027 105.412 60.4382 104.822 61.1623C105.332 60.469 106.015 59.9209 106.802 59.5723C106.312 59.3687 105.774 59.3124 105.252 59.4102C105.252 59.4102 105.895 58.6861 107.166 59.4229C107.166 59.4229 108.356 58.9748 108.559 59.0305C108.559 59.0305 107.407 58.1266 106.452 57.9696C106.452 57.9696 107.602 57.6405 108.906 58.9824L110.22 58.8482C110.22 58.8482 108.759 57.5822 107.921 57.3696C107.921 57.3696 109.144 57.2151 110.554 58.8406L111.85 58.8988C111.85 58.8988 110.678 57.7038 109.795 57.2733C109.795 57.2733 110.957 57.3746 112.223 58.9267L113.086 59.0659C113.086 59.0659 112.212 58.2101 111.939 57.9873C111.666 57.7645 111.704 57.6709 111.704 57.6709C112.408 57.9828 113.012 58.4841 113.448 59.1191C113.448 59.1191 115.208 59.5267 115.241 59.4229Z" fill="#004AAD"/>
<path opacity="0.1" d="M140.967 5.71957C140.967 5.71957 133.24 -0.0632255 130.477 6.20062C130.477 6.20062 129.634 7.07412 130.239 8.11978C130.239 8.11978 130.528 7.71215 131.252 8.38816C131.51 8.62554 131.795 8.83202 132.1 9.0034C132.514 9.23383 132.991 9.32275 133.46 9.25659C133.46 9.25659 136.336 9.81107 139.648 6.6918C139.648 6.6918 140.83 6.31456 140.939 6.08922L139.195 5.78793C139.195 5.78793 139.015 7.07159 138.113 7.64632C138.113 7.64632 139.228 5.85882 138.939 5.72969C138.881 5.70184 138.01 5.6031 138.01 5.6031C138.01 5.6031 137.675 7.84127 136.258 8.67932C136.258 8.67932 137.868 6.72725 137.67 5.56259L136.346 5.4917C136.346 5.4917 136.118 7.86912 134.541 8.88947C134.541 8.88947 136.154 6.79055 136.06 5.49423L134.751 5.60057C134.751 5.60057 134.483 7.9147 133.164 8.75528C133.164 8.75528 134.784 6.14239 134.452 5.64614C134.452 5.64614 133.255 5.81578 132.959 6.01326C132.959 6.01326 132.728 7.66911 131.918 8.0894C131.918 8.0894 132.817 6.22847 132.635 6.09682C132.635 6.09682 131.133 6.73485 130.543 7.45896C131.053 6.7649 131.735 6.21665 132.523 5.86895C132.033 5.66388 131.493 5.60753 130.971 5.70691C130.971 5.70691 131.617 4.98279 132.888 5.71957C132.888 5.71957 134.078 5.26889 134.28 5.32713C134.28 5.32713 133.128 4.42325 132.174 4.26374C132.174 4.26374 133.321 3.93713 134.625 5.27649L135.939 5.1423C135.939 5.1423 134.48 3.87636 133.64 3.66116C133.64 3.66116 134.863 3.50924 136.275 5.1347L137.572 5.19041C137.572 5.19041 136.399 3.99536 135.513 3.56748C135.513 3.56748 136.678 3.66875 137.944 5.22079L138.805 5.36004C138.805 5.36004 137.929 4.5144 137.655 4.29666C137.382 4.07891 137.42 3.9827 137.42 3.9827C138.124 4.29427 138.728 4.79571 139.164 5.43093C139.164 5.43093 140.924 5.81578 140.967 5.71957Z" fill="#004AAD"/>
<path opacity="0.1" d="M170.494 13.0442C170.494 13.0442 167.405 3.90165 161.579 7.49437C161.579 7.49437 160.389 7.74756 160.295 8.94007C160.295 8.94007 160.764 8.7679 160.971 9.73001C161.049 10.0723 161.165 10.4044 161.318 10.72C161.528 11.1446 161.869 11.4901 162.291 11.7049C162.291 11.7049 164.346 13.7937 168.843 13.1025C168.843 13.1025 170.03 13.462 170.248 13.3379L168.982 12.0948C168.982 12.0948 168.106 13.0493 167.038 13.0113C167.038 13.0113 168.97 12.1707 168.81 11.8998C168.777 11.8467 168.116 11.2719 168.116 11.2719C168.116 11.2719 166.582 12.9252 164.936 12.8164C164.936 12.8164 167.369 12.1226 167.866 11.0441L166.817 10.2364C166.817 10.2364 165.283 12.0644 163.402 12.0087C163.402 12.0087 165.934 11.196 166.574 10.0718L165.435 9.41606C165.435 9.41606 163.916 11.1706 162.341 11.1149C162.341 11.1149 165.157 9.88193 165.164 9.28441C165.164 9.28441 164.083 8.74512 163.726 8.74005C163.726 8.74005 162.597 9.97308 161.701 9.86167C161.701 9.86167 163.493 8.83626 163.417 8.62612C163.417 8.62612 161.822 8.29951 160.923 8.56282C161.736 8.27977 162.609 8.21431 163.455 8.37293C163.166 7.92707 162.754 7.57512 162.268 7.36018C162.268 7.36018 163.21 7.12979 163.84 8.45648C163.84 8.45648 165.076 8.76284 165.207 8.92235C165.207 8.92235 164.772 7.52729 164.075 6.85381C164.075 6.85381 165.207 7.23612 165.516 9.08692L166.676 9.71989C166.676 9.71989 166.197 7.84377 165.62 7.18802C165.62 7.18802 166.716 7.75516 166.954 9.89459L167.992 10.6769C167.992 10.6769 167.704 9.02616 167.218 8.17038C167.218 8.17038 168.119 8.91475 168.281 10.9124L168.911 11.515C168.911 11.515 168.678 10.3149 168.582 9.97561C168.486 9.63634 168.564 9.61355 168.564 9.61355C168.967 10.2704 169.18 11.0257 169.18 11.796C169.18 11.796 170.405 13.1101 170.494 13.0442Z" fill="#004AAD"/>
<path opacity="0.1" d="M150.335 13.4949C150.335 13.4949 140.739 12.4265 141.531 19.2347C141.531 19.2347 141.245 20.4145 142.291 21.007C142.291 21.007 142.334 20.5006 143.304 20.7285C143.646 20.8022 143.996 20.837 144.347 20.8323C144.82 20.8237 145.278 20.6611 145.651 20.369C145.651 20.369 148.413 19.3891 149.702 15.0217C149.702 15.0217 150.527 14.0975 150.509 13.8469L148.851 14.4596C148.851 14.4596 149.357 15.6572 148.851 16.6091C148.851 16.6091 148.904 14.5051 148.598 14.5381C148.535 14.5381 147.734 14.9027 147.734 14.9027C147.734 14.9027 148.585 16.9914 147.79 18.4473C147.79 18.4473 148.19 15.9458 147.428 15.0444L146.251 15.6521C146.251 15.6521 147.264 17.8168 146.415 19.498C146.415 19.498 146.745 16.8699 146.003 15.804L144.927 16.5636C144.927 16.5636 145.868 18.6929 145.157 20.0879C145.157 20.0879 145.23 17.0142 144.691 16.7534C144.691 16.7534 143.744 17.513 143.59 17.827C143.59 17.827 144.23 19.3714 143.747 20.1436C143.747 20.1436 143.577 18.0852 143.354 18.065C143.354 18.065 142.382 19.3739 142.24 20.2981C142.328 19.4413 142.639 18.6225 143.142 17.9232C142.616 17.9958 142.123 18.2202 141.724 18.5688C141.724 18.5688 141.911 17.6194 143.38 17.6092C143.38 17.6092 144.177 16.6193 144.392 16.5661C144.392 16.5661 142.942 16.3711 142.038 16.718C142.038 16.718 142.861 15.8521 144.668 16.3559L145.734 15.5736C145.734 15.5736 143.808 15.1837 142.992 15.4369C142.992 15.4369 143.97 14.6773 146.01 15.3736L147.157 14.7634C147.157 14.7634 145.539 14.3279 144.56 14.4064C144.56 14.4064 145.615 13.9 147.491 14.6014L148.307 14.2849C148.307 14.2849 147.119 13.9886 146.77 13.9329C146.42 13.8772 146.408 13.781 146.408 13.781C147.173 13.6932 147.948 13.8194 148.646 14.1456C148.646 14.1456 150.352 13.6013 150.335 13.4949Z" fill="#004AAD"/>
<path opacity="0.1" d="M234.292 87.9749C234.292 87.9749 224.701 86.9065 225.494 93.7071C225.494 93.7071 225.207 94.8869 226.253 95.4794C226.253 95.4794 226.296 94.973 227.266 95.1983C227.608 95.2746 227.958 95.3094 228.309 95.3021C228.783 95.2949 229.241 95.1321 229.613 94.8388C229.613 94.8388 232.375 93.859 233.651 89.494C233.651 89.494 234.477 88.5674 234.459 88.3192L232.801 88.9294C232.801 88.9294 233.307 90.1295 232.801 91.0815C232.801 91.0815 232.854 88.975 232.547 89.0104C232.484 89.0104 231.684 89.3725 231.684 89.3725C231.684 89.3725 232.535 91.4613 231.74 92.9171C231.74 92.9171 232.14 90.4181 231.378 89.5143L230.2 90.1245C230.2 90.1245 231.213 92.2892 230.367 93.9704C230.367 93.9704 230.694 91.3423 229.952 90.2738L228.876 91.0334C228.876 91.0334 229.818 93.1627 229.107 94.5552C229.107 94.5552 229.18 91.4815 228.641 91.2233C228.641 91.2233 227.696 91.9829 227.539 92.2968C227.539 92.2968 228.182 93.8412 227.696 94.6135C227.696 94.6135 227.527 92.5551 227.304 92.5348C227.304 92.5348 226.332 93.8438 226.19 94.7679C226.278 93.9111 226.588 93.0923 227.091 92.393C226.565 92.4643 226.072 92.6889 225.673 93.0386C225.673 93.0386 225.861 92.0867 227.329 92.0765C227.329 92.0765 228.129 91.0866 228.342 91.0359C228.342 91.0359 226.891 90.8384 225.987 91.1853C225.987 91.1853 226.81 90.3219 228.62 90.8258L229.684 90.0434C229.684 90.0434 227.78 89.6839 226.952 89.932C226.952 89.932 227.929 89.1725 229.97 89.8662L231.117 89.2586C231.117 89.2586 229.499 88.8231 228.519 88.9016C228.519 88.9016 229.575 88.3952 231.451 89.0965L232.266 88.7775C232.266 88.7775 231.079 88.4813 230.73 88.4281C230.38 88.3749 230.367 88.2762 230.367 88.2762C231.133 88.1868 231.908 88.3121 232.606 88.6382C232.606 88.6382 234.317 88.0838 234.292 87.9749Z" fill="#004AAD"/>
<path opacity="0.1" d="M248.954 96.9326C248.954 96.9326 239.363 95.8667 240.155 102.665C240.155 102.665 239.872 103.845 240.915 104.437C240.915 104.437 240.958 103.931 241.928 104.159C242.269 104.233 242.619 104.267 242.968 104.26C243.44 104.25 243.895 104.089 244.267 103.799C244.267 103.799 247.027 102.819 248.303 98.4517C248.303 98.4517 249.131 97.5276 249.111 97.2769L247.452 97.8871C247.452 97.8871 247.959 99.0872 247.452 100.039C247.452 100.039 247.505 97.9352 247.199 97.9681C247.136 97.9681 246.336 98.3302 246.336 98.3302C246.336 98.3302 247.186 100.419 246.391 101.875C246.391 101.875 246.791 99.3758 246.029 98.4745L244.852 99.0821C244.852 99.0821 245.865 101.247 245.019 102.928C245.019 102.928 245.346 100.3 244.604 99.234L243.528 99.9936C243.528 99.9936 244.47 102.123 243.761 103.518C243.761 103.518 243.832 100.442 243.292 100.183C243.292 100.183 242.348 100.943 242.191 101.257C242.191 101.257 242.834 102.801 242.348 103.574C242.348 103.574 242.178 101.515 241.956 101.495C241.956 101.495 240.983 102.804 240.844 103.728C240.932 102.872 241.242 102.053 241.743 101.353C241.218 101.426 240.725 101.65 240.325 101.999C240.325 101.999 240.515 101.047 241.983 101.039C241.983 101.039 242.781 100.049 242.996 99.9961C242.996 99.9961 241.545 99.8012 240.642 100.148C240.642 100.148 241.464 99.2821 243.275 99.786L244.338 99.0036C244.338 99.0036 242.434 98.6441 241.606 98.8922C241.606 98.8922 242.583 98.1327 244.624 98.8289L245.771 98.2188C245.771 98.2188 244.153 97.7833 243.173 97.8618C243.173 97.8618 244.229 97.3554 246.105 98.0567L246.921 97.7402C246.921 97.7402 245.733 97.444 245.386 97.3883C245.039 97.3326 245.022 97.2364 245.022 97.2364C245.787 97.1486 246.562 97.2748 247.26 97.601C247.26 97.601 248.979 97.0414 248.954 96.9326Z" fill="#004AAD"/>
<path opacity="0.1" d="M216.401 21.4804C216.401 21.4804 208.674 15.7002 205.912 21.9615C205.912 21.9615 205.069 22.835 205.674 23.8806C205.674 23.8806 205.963 23.473 206.687 24.149C206.943 24.3876 207.227 24.595 207.532 24.7668C207.946 24.9968 208.423 25.0857 208.892 25.02C208.892 25.02 211.768 25.5744 215.082 22.4577C215.082 22.4577 216.262 22.0779 216.374 21.8551L214.634 21.5412C214.634 21.5412 214.452 22.8248 213.553 23.3996C213.553 23.3996 214.665 21.6121 214.376 21.4829C214.318 21.4551 213.449 21.3563 213.449 21.3563C213.449 21.3563 213.123 23.5894 211.705 24.4326C211.705 24.4326 213.318 22.4805 213.118 21.3158L211.793 21.2449C211.793 21.2449 211.568 23.6224 209.988 24.6452C209.988 24.6452 211.604 22.5463 211.507 21.25L210.196 21.3563C210.196 21.3563 209.943 23.6679 208.611 24.5085C208.611 24.5085 210.231 21.8956 209.897 21.3994C209.897 21.3994 208.699 21.569 208.403 21.7665C208.403 21.7665 208.175 23.4223 207.365 23.8426C207.365 23.8426 208.261 21.9817 208.079 21.8526C208.079 21.8526 206.578 22.4881 205.988 23.2122C206.498 22.5189 207.181 21.9708 207.968 21.6222C207.478 21.4186 206.94 21.3623 206.418 21.4601C206.418 21.4601 207.064 20.736 208.335 21.4728C208.335 21.4728 209.522 21.0247 209.725 21.0804C209.725 21.0804 208.573 20.1765 207.618 20.0195C207.618 20.0195 208.768 19.6904 210.072 21.0323L211.386 20.8981C211.386 20.8981 209.927 19.6321 209.087 19.4195C209.087 19.4195 210.31 19.265 211.72 20.8905L213.019 20.9487C213.019 20.9487 211.844 19.7537 210.96 19.3233C210.96 19.3233 212.125 19.4245 213.388 20.9766L214.252 21.1158C214.252 21.1158 213.378 20.26 213.105 20.0372C212.831 19.8144 212.872 19.741 212.872 19.741C213.575 20.0534 214.178 20.5547 214.614 21.1892C214.614 21.1892 216.368 21.5842 216.401 21.4804Z" fill="#004AAD"/>
<path opacity="0.1" d="M222.371 63.2106C222.371 63.2106 219.708 53.9364 213.717 57.2658C213.717 57.2658 212.517 57.4506 212.368 58.6507C212.368 58.6507 212.844 58.5013 213.008 59.471C213.07 59.8194 213.171 60.1593 213.312 60.4838C213.5 60.9201 213.826 61.2829 214.239 61.5168C214.239 61.5168 216.199 63.6942 220.721 63.2081C220.721 63.2081 221.89 63.6182 222.113 63.5068L220.916 62.2055C220.916 62.2055 219.996 63.122 218.933 63.0359C218.933 63.0359 220.898 62.2763 220.746 62.0054C220.715 61.9497 220.083 61.3446 220.083 61.3446C220.083 61.3446 218.477 62.9296 216.837 62.7447C216.837 62.7447 219.3 62.1624 219.842 61.1142L218.829 60.2584C218.829 60.2584 217.214 62.0156 215.338 61.8788C215.338 61.8788 217.89 61.1775 218.594 60.0863L217.485 59.3799C217.485 59.3799 215.877 61.0636 214.317 60.937C214.317 60.937 217.186 59.8306 217.222 59.2356C217.222 59.2356 216.163 58.6482 215.806 58.6279C215.806 58.6279 214.624 59.8078 213.725 59.6559C213.725 59.6559 215.563 58.7115 215.497 58.4988C215.497 58.4988 213.917 58.1013 213.008 58.3216C213.832 58.0774 214.704 58.0521 215.54 58.2481C215.273 57.79 214.876 57.4203 214.401 57.1848C214.401 57.1848 215.353 56.9949 215.92 58.3494C215.92 58.3494 217.138 58.7089 217.265 58.876C217.265 58.876 216.892 57.4607 216.226 56.7594C216.226 56.7594 217.341 57.1898 217.566 59.0533L218.695 59.7394C218.695 59.7394 218.3 57.8405 217.753 57.1721C217.753 57.1721 218.822 57.7873 218.966 59.9344L219.979 60.7623C219.979 60.7623 219.764 59.1014 219.318 58.2304C219.318 58.2304 220.186 59.0153 220.257 61.0155L220.86 61.6484C220.86 61.6484 220.683 60.4382 220.607 60.0939C220.531 59.7495 220.607 59.7014 220.607 59.7014C220.981 60.3749 221.161 61.1394 221.126 61.9092C221.126 61.9092 222.28 63.2714 222.371 63.2106Z" fill="#004AAD"/>
<path opacity="0.1" d="M163.019 84.1087C163.019 84.1087 157.847 75.9611 153.044 80.8375C153.044 80.8375 151.945 81.3439 152.137 82.5465C152.137 82.5465 152.555 82.268 152.986 83.1541C153.14 83.4682 153.332 83.7623 153.558 84.0302C153.86 84.3957 154.273 84.6519 154.735 84.7593C154.735 84.7593 157.229 86.2987 161.432 84.5568C161.432 84.5568 162.67 84.6226 162.852 84.453L161.333 83.5415C161.333 83.5415 160.708 84.6809 159.662 84.8961C159.662 84.8961 161.338 83.6301 161.113 83.3972C161.07 83.3516 160.29 82.9516 160.29 82.9516C160.29 82.9516 159.194 84.9214 157.568 85.2075C157.568 85.2075 159.768 83.9542 159.996 82.7946L158.784 82.2604C158.784 82.2604 157.728 84.3998 155.89 84.7923C155.89 84.7923 158.143 83.4023 158.51 82.1566L157.244 81.792C157.244 81.792 156.176 83.8605 154.644 84.177C154.644 84.177 157.085 82.3085 156.95 81.7262C156.95 81.7262 155.771 81.4603 155.431 81.5414C155.431 81.5414 154.629 83.0073 153.722 83.1136C153.722 83.1136 155.221 81.6907 155.097 81.5034C155.097 81.5034 153.469 81.5667 152.659 82.0351C153.382 81.5669 154.214 81.2962 155.074 81.2502C154.689 80.8858 154.206 80.642 153.684 80.5489C153.684 80.5489 154.543 80.1007 155.457 81.2401C155.457 81.2401 156.723 81.2401 156.897 81.3667C156.897 81.3667 156.138 80.1007 155.305 79.6273C155.305 79.6273 156.495 79.7285 157.234 81.4527L158.513 81.792C158.513 81.792 157.599 80.083 156.887 79.5944C156.887 79.5944 158.085 79.883 158.827 81.9059L160.022 82.4123C160.022 82.4123 159.348 80.8805 158.672 80.164C158.672 80.164 159.725 80.6704 160.356 82.5718L161.115 83.0098C161.115 83.0098 160.609 81.8984 160.429 81.592C160.25 81.2856 160.32 81.2147 160.32 81.2147C160.868 81.7559 161.255 82.4388 161.437 83.1871C161.437 83.1871 162.951 84.1947 163.019 84.1087Z" fill="#004AAD"/>
<path d="M197.015 42.4798C197.015 42.4798 192.096 34.1778 187.141 38.9022C187.141 38.9022 186.027 39.3833 186.184 40.5834C186.184 40.5834 186.606 40.315 187.012 41.2138C187.156 41.5333 187.339 41.8343 187.556 42.1101C187.847 42.4835 188.252 42.7505 188.71 42.8697C188.71 42.8697 191.154 44.485 195.41 42.8697C195.41 42.8697 196.645 42.9735 196.833 42.8089L195.346 41.8519C195.346 41.8519 194.688 42.9684 193.635 43.1533C193.635 43.1533 195.349 41.9304 195.134 41.7C195.088 41.6518 194.324 41.2265 194.324 41.2265C194.324 41.2265 193.166 43.1634 191.539 43.3988C191.539 43.3988 193.777 42.2139 194.037 41.0645L192.842 40.5024C192.842 40.5024 191.721 42.6114 189.87 42.9482C189.87 42.9482 192.166 41.6291 192.572 40.396L191.321 39.9909C191.321 39.9909 190.186 42.0164 188.647 42.2949C188.647 42.2949 191.144 40.5024 191.027 39.9175C191.027 39.9175 189.857 39.6137 189.508 39.6846C189.508 39.6846 188.66 41.1252 187.751 41.2037C187.751 41.2037 189.293 39.8314 189.176 39.639C189.176 39.639 187.546 39.6517 186.723 40.0947C187.46 39.6501 188.3 39.4058 189.161 39.3858C188.787 39.0095 188.311 38.7507 187.791 38.6415C187.791 38.6415 188.665 38.2186 189.564 39.3858C189.564 39.3858 190.83 39.4289 190.999 39.558C190.999 39.558 190.283 38.2921 189.462 37.7705C189.462 37.7705 190.647 37.9072 191.333 39.6542L192.599 40.034C192.599 40.034 191.741 38.2971 191.042 37.7857C191.042 37.7857 192.232 38.1123 192.911 40.1555L194.088 40.7049C194.088 40.7049 193.463 39.1529 192.822 38.4262C192.822 38.4262 193.858 38.9655 194.432 40.8847L195.174 41.3455C195.174 41.3455 194.698 40.2188 194.531 39.9074C194.364 39.596 194.435 39.5276 194.435 39.5276C194.966 40.0854 195.331 40.7796 195.491 41.5329C195.491 41.5329 196.942 42.5633 197.015 42.4798Z" fill="#004AAD"/>
<path d="M165.891 59.9369C165.891 59.9369 166.144 50.2905 159.442 51.6501C159.442 51.6501 158.242 51.4653 157.736 52.5641C157.736 52.5641 158.242 52.5641 158.1 53.5389C158.054 53.8865 158.049 54.2383 158.085 54.5871C158.131 55.0602 158.331 55.505 158.655 55.853C158.655 55.853 159.862 58.5216 164.321 59.428C164.321 59.428 165.311 60.1749 165.559 60.1344L164.8 58.5343C164.8 58.5343 163.648 59.1267 162.658 58.7242C162.658 58.7242 164.759 58.6001 164.701 58.2912C164.701 58.2279 164.265 57.4582 164.265 57.4582C164.265 57.4582 162.255 58.4836 160.749 57.8102C160.749 57.8102 163.28 58.0001 164.108 57.1671L163.402 56.0455C163.402 56.0455 161.331 57.2304 159.584 56.5316C159.584 56.5316 162.23 56.6379 163.232 55.81L162.389 54.7972C162.389 54.7972 160.346 55.9163 158.898 55.3239C158.898 55.3239 161.966 55.139 162.189 54.5795C162.189 54.5795 161.359 53.7009 161.024 53.5667C161.024 53.5667 159.541 54.3263 158.731 53.9161C158.731 53.9161 160.756 53.5769 160.769 53.3515C160.769 53.3515 159.384 52.4932 158.45 52.4299C159.311 52.4453 160.153 52.6863 160.893 53.1287C160.777 52.6112 160.514 52.1387 160.133 51.7691C160.133 51.7691 161.098 51.878 161.23 53.3389C161.23 53.3389 162.285 54.0529 162.354 54.2503C162.354 54.2503 162.427 52.7895 162.004 51.9185C162.004 51.9185 162.936 52.6654 162.587 54.5086L163.455 55.5062C163.455 55.5062 163.653 53.5769 163.336 52.7743C163.336 52.7743 164.167 53.6832 163.655 55.7745L164.356 56.8658C164.356 56.8658 164.655 55.2175 164.496 54.2478C164.496 54.2478 165.083 55.2606 164.546 57.1873L164.931 57.9722C164.931 57.9722 165.126 56.7645 165.151 56.4126C165.177 56.0606 165.273 56.0378 165.273 56.0378C165.425 56.7931 165.365 57.5759 165.098 58.2988C165.098 58.2988 165.779 59.9699 165.891 59.9369Z" fill="#004AAD"/>
<path opacity="0.1" d="M176.97 182.51C180.736 182.51 183.788 181.994 183.788 181.358C183.788 180.722 180.736 180.206 176.97 180.206C173.204 180.206 170.152 180.722 170.152 181.358C170.152 181.994 173.204 182.51 176.97 182.51Z" fill="#004AAD"/>
<path opacity="0.1" d="M152.115 200C155.88 200 158.933 199.484 158.933 198.848C158.933 198.212 155.88 197.696 152.115 197.696C148.349 197.696 145.296 198.212 145.296 198.848C145.296 199.484 148.349 200 152.115 200Z" fill="#004AAD"/>
<path opacity="0.1" d="M23.5818 191.04C27.3474 191.04 30.4001 190.524 30.4001 189.888C30.4001 189.251 27.3474 188.736 23.5818 188.736C19.8161 188.736 16.7634 189.251 16.7634 189.888C16.7634 190.524 19.8161 191.04 23.5818 191.04Z" fill="#004AAD"/>
<path opacity="0.1" d="M203.831 198.848C207.596 198.848 210.649 198.332 210.649 197.696C210.649 197.06 207.596 196.544 203.831 196.544C200.065 196.544 197.012 197.06 197.012 197.696C197.012 198.332 200.065 198.848 203.831 198.848Z" fill="#004AAD"/>
<path d="M210.93 184.801C216.553 184.801 221.111 184.03 221.111 183.079C221.111 182.129 216.553 181.358 210.93 181.358C205.307 181.358 200.749 182.129 200.749 183.079C200.749 184.03 205.307 184.801 210.93 184.801Z" fill="#004AAD"/>
<path d="M215.151 180.262C215.615 179.884 215.954 179.373 216.12 178.798C216.247 178.216 215.999 177.52 215.444 177.307C214.822 177.069 214.156 177.499 213.649 177.935C213.143 178.37 212.568 178.869 211.907 178.778C212.247 178.47 212.5 178.079 212.644 177.644C212.788 177.209 212.817 176.744 212.728 176.294C212.699 176.108 212.62 175.933 212.5 175.788C212.153 175.418 211.528 175.578 211.112 175.869C209.796 176.795 209.429 178.583 209.421 180.193C209.289 179.613 209.401 179.008 209.398 178.421C209.396 177.833 209.231 177.155 208.727 176.846C208.418 176.674 208.069 176.586 207.715 176.593C207.122 176.573 206.461 176.631 206.059 177.064C205.552 177.601 205.687 178.504 206.122 179.089C206.558 179.674 207.223 180.051 207.836 180.462C208.327 180.754 208.745 181.153 209.062 181.629C209.098 181.695 209.127 181.765 209.15 181.836H212.862C213.693 181.418 214.463 180.888 215.151 180.262Z" fill="#004AAD"/>
<path d="M19.0042 184.533C19.0042 184.533 22.8906 184.414 24.0679 183.578C25.2452 182.743 30.0507 181.748 30.3419 183.087C30.633 184.426 36.1854 189.743 31.7952 189.779C27.4049 189.814 21.5943 189.095 20.4245 188.381C19.2548 187.667 19.0042 184.533 19.0042 184.533Z" fill="#A8A8A8"/>
<path opacity="0.2" d="M31.8686 189.313C27.4783 189.349 21.6677 188.629 20.498 187.915C19.6067 187.374 19.2523 185.427 19.1333 184.528H19.0042C19.0042 184.528 19.2573 187.665 20.4195 188.376C21.5816 189.088 27.3998 189.809 31.7901 189.774C33.056 189.774 33.494 189.313 33.4713 188.645C33.294 189.052 32.8104 189.306 31.8686 189.313Z" fill="black"/>
</g>
<defs>
<linearGradient id="paint0_linear_273_2906" x1="56.4581" y1="109.736" x2="135.485" y2="109.736" gradientUnits="userSpaceOnUse">
<stop stop-color="#808080" stop-opacity="0.25"/>
<stop offset="0.54" stop-color="#808080" stop-opacity="0.12"/>
<stop offset="1" stop-color="#808080" stop-opacity="0.1"/>
</linearGradient>
<clipPath id="clip0_273_2906">
<rect width="255.602" height="200" fill="white"/>
</clipPath>
</defs>
</svg>
