<svg width="222" height="200" viewBox="0 0 222 200" fill="none" xmlns="http://www.w3.org/2000/svg">
<g clip-path="url(#clip0_273_2542)">
<path d="M140.995 115.756L110.381 79.3363L48.9302 79.8979L11.6533 116.207L12.4065 116.691H12.1376V192.213H140.912V116.691L140.995 115.756Z" fill="#3F3D56"/>
<path d="M110.412 79.4139L72.1675 124.252V192.213H140.912V115.723L110.412 79.4139Z" fill="#004AAD"/>
<path d="M113.802 154.629H99.7622V167.039H113.802V154.629Z" fill="white"/>
<path d="M113.802 133.151H99.7622V145.363H113.802V133.151Z" fill="white"/>
<path d="M51.4095 151.337H37.3701V163.746H51.4095V151.337Z" fill="white"/>
<path d="M51.4095 129.858H37.3701V142.07H51.4095V129.858Z" fill="white"/>
<path d="M221.817 191.977H0V192.505H221.817V191.977Z" fill="#3F3D56"/>
<path d="M188.412 183.637L189.467 188.916L184.189 189.971L184.981 183.374L188.412 183.637Z" fill="#A0616A"/>
<path d="M205.038 182.582L203.718 189.18H197.384L200.023 181.262L205.038 182.582Z" fill="#A0616A"/>
<path d="M210.844 136.661L211.9 143.787L210.58 159.358L209.524 165.164L205.038 184.165C205.038 184.165 200.024 184.165 199.232 182.054L200.551 171.234C200.551 171.234 201.607 162.525 201.343 161.469C201.079 160.413 197.121 143.523 197.121 143.523C197.121 143.523 191.314 170.178 190.523 172.553C189.731 174.928 188.675 185.221 188.675 185.221C188.675 185.221 184.189 186.013 183.925 185.221C183.661 184.429 183.397 165.691 183.397 162.788C183.397 159.885 183.925 158.302 183.925 157.774C183.925 157.246 181.846 132.05 181.846 132.05L210.844 136.661Z" fill="#2F2E41"/>
<path d="M200.023 187.86C200.023 187.86 201.343 188.124 202.134 187.86C202.926 187.596 202.134 186.013 202.134 186.013H205.037C205.037 186.013 208.204 193.138 209.524 193.666C210.843 194.194 215.066 200 210.052 200C206.958 199.96 203.938 199.045 201.343 197.361C201.343 197.361 200.815 194.986 198.44 194.722C196.064 194.458 194.481 191.555 194.481 191.555L197.912 185.221C197.912 185.221 198.704 188.124 200.023 187.86Z" fill="#2F2E41"/>
<path d="M187.62 187.596C187.62 187.596 187.092 188.652 186.564 188.124C186.036 187.596 185.508 186.277 185.508 186.277C185.508 186.277 183.925 185.485 183.661 186.277C183.397 187.068 182.342 191.291 181.814 191.819C181.286 192.347 175.744 197.889 181.286 198.944C186.828 200 187.884 197.625 187.884 197.625C187.884 197.625 187.092 196.305 188.675 195.778C190.259 195.25 190.523 193.402 190.523 193.402L189.467 185.485C189.467 185.485 188.411 188.124 187.62 187.596Z" fill="#2F2E41"/>
<path d="M216.913 118.188L217.705 131.911C217.705 131.911 221.4 140.62 216.386 140.356C211.371 140.092 214.538 131.647 214.538 131.647L209.629 119.399L216.913 118.188Z" fill="#A0616A"/>
<path d="M176.271 114.229L175.479 127.952C175.479 127.952 171.785 136.661 176.799 136.398C181.813 136.134 178.646 127.688 178.646 127.688L183.556 115.441L176.271 114.229Z" fill="#A0616A"/>
<path d="M197.384 84.4071C201.174 84.4071 204.246 81.335 204.246 77.5454C204.246 73.7558 201.174 70.6837 197.384 70.6837C193.595 70.6837 190.522 73.7558 190.522 77.5454C190.522 81.335 193.595 84.4071 197.384 84.4071Z" fill="#A0616A"/>
<path d="M202.794 80.3164C202.794 80.3164 200.947 87.7059 204.641 89.5533C208.336 91.4007 193.029 94.0398 191.974 89.5533L192.501 87.442C192.501 87.442 194.613 84.8029 194.085 82.4277L202.794 80.3164Z" fill="#A0616A"/>
<path d="M198.704 89.6852C198.704 89.6852 194.15 90.1105 192.732 87.1268C192.732 87.1268 182.077 87.8379 179.702 97.6026L183.661 122.938C183.661 122.938 179.438 130.328 179.966 131.119C179.966 131.119 177.327 138.509 201.607 138.773L212.163 138.245C212.306 136.745 212.217 135.231 211.899 133.758C211.371 131.383 208.468 114.757 208.468 114.757C208.468 114.757 216.386 102.353 215.594 100.506C214.802 98.6582 213.534 91.3741 203.348 88.4184C203.348 88.4184 203.19 89.9492 198.704 89.6852Z" fill="#E6E6E6"/>
<path d="M212.163 96.019L215.594 100.506C215.594 100.506 219.025 119.243 217.969 119.507C216.913 119.771 210.579 121.882 209.524 121.091C208.468 120.299 203.718 104.728 203.718 104.728L212.163 96.019Z" fill="#E6E6E6"/>
<path d="M184.189 94.6996L179.702 97.6026C179.702 97.6026 173.104 116.076 174.952 116.868C176.799 117.66 187.092 117.132 187.092 117.132L184.189 94.6996Z" fill="#E6E6E6"/>
<path d="M204.884 71.4048C204.884 71.4048 202.508 66.2553 197.952 67.4437C193.397 68.632 190.822 70.4145 190.624 72.197C190.426 73.9796 190.723 76.6533 190.723 76.6533C190.723 76.6533 191.218 72.9893 194.387 73.7815C196.073 74.2029 198.263 74.232 199.943 74.167C200.273 74.1535 200.602 74.2072 200.91 74.325C201.218 74.4427 201.498 74.622 201.735 74.852C201.971 75.0819 202.158 75.3575 202.284 75.6621C202.411 75.9668 202.473 76.2939 202.469 76.6236L202.386 82.2959C202.386 82.2959 208.984 78.0733 204.884 71.4048Z" fill="#2F2E41"/>
<path d="M172.521 73.4015H79.3115C78.8539 73.401 78.4152 73.2189 78.0916 72.8954C77.768 72.5718 77.586 72.133 77.5854 71.6754V28.8766C77.586 28.419 77.768 27.9803 78.0916 27.6567C78.4152 27.3331 78.8539 27.1511 79.3115 27.1505H172.521C172.979 27.151 173.417 27.3331 173.741 27.6567C174.065 27.9803 174.247 28.419 174.247 28.8766V71.6754C174.247 72.133 174.065 72.5718 173.741 72.8954C173.417 73.2189 172.979 73.401 172.521 73.4015ZM79.3115 27.841C79.037 27.8413 78.7737 27.9505 78.5796 28.1446C78.3854 28.3388 78.2762 28.602 78.2759 28.8766V71.6754C78.2762 71.95 78.3854 72.2132 78.5796 72.4074C78.7737 72.6016 79.037 72.7108 79.3115 72.7111H172.521C172.796 72.7108 173.059 72.6016 173.253 72.4074C173.447 72.2132 173.556 71.95 173.557 71.6754V28.8766C173.556 28.602 173.447 28.3388 173.253 28.1446C173.059 27.9505 172.796 27.8413 172.521 27.841H79.3115Z" fill="#E6E6E6"/>
<path d="M93.104 49.3432C96.9872 49.3432 100.135 46.1952 100.135 42.312C100.135 38.4287 96.9872 35.2808 93.104 35.2808C89.2207 35.2808 86.0728 38.4287 86.0728 42.312C86.0728 46.1952 89.2207 49.3432 93.104 49.3432Z" fill="#004AAD"/>
<path d="M109.343 37.6244C109.189 37.6242 109.036 37.6543 108.894 37.7131C108.751 37.7719 108.622 37.8582 108.513 37.967C108.404 38.0758 108.317 38.2051 108.258 38.3474C108.199 38.4897 108.169 38.6422 108.169 38.7963C108.169 38.9503 108.199 39.1028 108.258 39.2451C108.317 39.3874 108.404 39.5167 108.513 39.6255C108.622 39.7344 108.751 39.8206 108.894 39.8794C109.036 39.9382 109.189 39.9684 109.343 39.9681H164.588C164.899 39.9681 165.197 39.8447 165.416 39.6249C165.636 39.4051 165.76 39.1071 165.76 38.7963C165.76 38.4855 165.636 38.1874 165.416 37.9676C165.197 37.7479 164.899 37.6244 164.588 37.6244H109.343Z" fill="#E6E6E6"/>
<path d="M109.343 44.6559C109.189 44.6557 109.036 44.6858 108.894 44.7446C108.751 44.8034 108.622 44.8897 108.513 44.9985C108.404 45.1073 108.317 45.2366 108.258 45.3789C108.199 45.5212 108.169 45.6737 108.169 45.8278C108.169 45.9818 108.199 46.1343 108.258 46.2766C108.317 46.4189 108.404 46.5482 108.513 46.657C108.622 46.7659 108.751 46.8521 108.894 46.9109C109.036 46.9697 109.189 46.9999 109.343 46.9996H133.115C133.269 46.9999 133.421 46.9697 133.564 46.9109C133.706 46.8521 133.836 46.7659 133.945 46.657C134.054 46.5482 134.14 46.4189 134.199 46.2766C134.258 46.1343 134.288 45.9818 134.288 45.8278C134.288 45.6737 134.258 45.5212 134.199 45.3789C134.14 45.2366 134.054 45.1073 133.945 44.9985C133.836 44.8897 133.706 44.8034 133.564 44.7446C133.421 44.6858 133.269 44.6557 133.115 44.6559H109.343Z" fill="#E6E6E6"/>
<path d="M87.7111 55.8965C86.8196 55.8965 86.0942 56.4223 86.0942 57.0684C86.0942 57.7145 86.8196 58.2402 87.7111 58.2402H163.933C164.824 58.2402 165.549 57.7144 165.549 57.0684C165.549 56.4223 164.824 55.8965 163.933 55.8965H87.7111Z" fill="#E6E6E6"/>
<path d="M87.7111 62.9279C86.8196 62.9279 86.0942 63.4536 86.0942 64.0997C86.0942 64.7458 86.8196 65.2716 87.7111 65.2716H163.933C164.824 65.2716 165.549 64.7458 165.549 64.0997C165.549 63.4536 164.824 62.9279 163.933 62.9279H87.7111Z" fill="#E6E6E6"/>
<path d="M155.734 25.0093C162.64 25.0093 168.239 19.4108 168.239 12.5047C168.239 5.59853 162.64 0 155.734 0C148.828 0 143.229 5.59853 143.229 12.5047C143.229 19.4108 148.828 25.0093 155.734 25.0093Z" fill="#004AAD"/>
<path d="M155.734 32.8327L151.824 26.0604L147.914 19.2882H155.734H163.554L159.644 26.0604L155.734 32.8327Z" fill="#004AAD"/>
<path d="M155.835 16.913C158.312 16.913 160.321 14.9044 160.321 12.4266C160.321 9.94873 158.312 7.94006 155.835 7.94006C153.357 7.94006 151.348 9.94873 151.348 12.4266C151.348 14.9044 153.357 16.913 155.835 16.913Z" fill="white"/>
<path d="M202.914 78.8649C203.497 78.8649 203.97 78.2742 203.97 77.5454C203.97 76.8166 203.497 76.2258 202.914 76.2258C202.331 76.2258 201.858 76.8166 201.858 77.5454C201.858 78.2742 202.331 78.8649 202.914 78.8649Z" fill="#A0616A"/>
</g>
<defs>
<clipPath id="clip0_273_2542">
<rect width="221.817" height="200" fill="white"/>
</clipPath>
</defs>
</svg>
