<svg width="71" height="71" viewBox="0 0 71 71" fill="none" xmlns="http://www.w3.org/2000/svg">
<g filter="url(#filter0_d_1367_15333)">
<path d="M44 20H27C23.134 20 20 23.134 20 27V44C20 47.866 23.134 51 27 51H44C47.866 51 51 47.866 51 44V27C51 23.134 47.866 20 44 20Z" fill="#3158B2"/>
</g>
<path d="M38.5127 36.061L38.9057 33.5H36.4487V31.837C36.4317 31.6458 36.458 31.4532 36.5255 31.2735C36.593 31.0938 36.7 30.9316 36.8386 30.7988C36.9773 30.666 37.144 30.5661 37.3264 30.5064C37.5089 30.4467 37.7024 30.4288 37.8927 30.454H39.0097V28.273C38.3538 28.1671 37.691 28.1092 37.0267 28.1C36.5696 28.0652 36.1104 28.1313 35.6817 28.2937C35.253 28.4561 34.8653 28.7107 34.5459 29.0396C34.2266 29.3685 33.9834 29.7636 33.8337 30.1969C33.684 30.6302 33.6315 31.0911 33.6797 31.547V33.5H31.4297V36.061H33.6797V42.253H36.4487V36.061H38.5127Z" fill="white"/>
<defs>
<filter id="filter0_d_1367_15333" x="0" y="0" width="71" height="71" filterUnits="userSpaceOnUse" color-interpolation-filters="sRGB">
<feFlood flood-opacity="0" result="BackgroundImageFix"/>
<feColorMatrix in="SourceAlpha" type="matrix" values="0 0 0 0 0 0 0 0 0 0 0 0 0 0 0 0 0 0 127 0" result="hardAlpha"/>
<feOffset/>
<feGaussianBlur stdDeviation="10"/>
<feColorMatrix type="matrix" values="0 0 0 0 0 0 0 0 0 0 0 0 0 0 0 0 0 0 0.122 0"/>
<feBlend mode="normal" in2="BackgroundImageFix" result="effect1_dropShadow_1367_15333"/>
<feBlend mode="normal" in="SourceGraphic" in2="effect1_dropShadow_1367_15333" result="shape"/>
</filter>
</defs>
</svg>
