<svg width="23" height="20" viewBox="0 0 23 20" fill="none" xmlns="http://www.w3.org/2000/svg">
<path d="M19.7385 2.095C18.6467 1.21111 17.2593 0.776045 15.8582 0.878202C14.4572 0.98036 13.1476 1.61208 12.1955 2.645L11.3955 3.466L10.5955 2.645C9.64342 1.61208 8.33382 0.98036 6.93277 0.878202C5.53172 0.776045 4.14433 1.21111 3.05249 2.095C2.45709 2.6091 1.97248 3.23893 1.62815 3.9462C1.28381 4.65348 1.08695 5.4234 1.04953 6.20915C1.01212 6.9949 1.13493 7.78004 1.4105 8.51683C1.68607 9.25363 2.10863 9.92666 2.65249 10.495L10.4745 18.572C10.5928 18.6956 10.7349 18.794 10.8922 18.8613C11.0496 18.9285 11.2189 18.9631 11.39 18.9631C11.5611 18.9631 11.7304 18.9285 11.8878 18.8613C12.0451 18.794 12.1872 18.6956 12.3055 18.572L20.1275 10.495C20.6714 9.92666 21.0939 9.25363 21.3695 8.51683C21.6451 7.78004 21.7679 6.9949 21.7305 6.20915C21.693 5.4234 21.4962 4.65348 21.1518 3.9462C20.8075 3.23893 20.3229 2.6091 19.7275 2.095H19.7385Z" stroke="#7E7E7E"/>
</svg>
