<svg width="71" height="71" viewBox="0 0 71 71" fill="none" xmlns="http://www.w3.org/2000/svg">
<g filter="url(#filter0_d_1367_15337)">
<path d="M44 20H27C23.134 20 20 23.134 20 27V44C20 47.866 23.134 51 27 51H44C47.866 51 51 47.866 51 44V27C51 23.134 47.866 20 44 20Z" fill="#16384E"/>
</g>
<path d="M35.4994 26.522C33.1183 26.522 30.8347 27.4679 29.151 29.1516C27.4673 30.8353 26.5214 33.1189 26.5214 35.5C26.5139 35.7851 26.5289 36.0703 26.5664 36.353C26.7317 38.0846 27.3965 39.731 28.4799 41.0919C29.5633 42.4528 31.0188 43.4696 32.6693 44.0188C34.3199 44.568 36.0944 44.6259 37.7772 44.1854C39.46 43.7449 40.9786 42.8251 42.1484 41.5377C43.3183 40.2503 44.0889 38.6508 44.3666 36.9336C44.6444 35.2164 44.4173 33.4555 43.713 31.8649C43.0087 30.2744 41.8575 28.9227 40.3994 27.9742C38.9412 27.0257 37.2389 26.5212 35.4994 26.522ZM35.4994 27.805C37.5268 27.8072 39.4715 28.6089 40.9114 30.036V30.677C38.3769 29.8048 35.6218 29.816 33.0944 30.709C32.892 30.5138 32.6387 30.3796 32.3634 30.322H32.2034C32.1264 30.053 32.0564 29.783 31.9984 29.508C31.9404 29.233 31.9084 28.984 31.8714 28.722C32.9846 28.1213 34.2295 27.8062 35.4944 27.805H35.4994ZM33.5714 31.569C35.9003 30.7889 38.4243 30.8181 40.7344 31.652C40.4221 33.2812 39.7399 34.817 38.7404 36.141C38.4609 36.0228 38.1514 35.9945 37.855 36.06C37.5586 36.1256 37.29 36.2818 37.0864 36.507C36.8642 36.3879 36.6501 36.2543 36.4454 36.107C35.1511 35.2432 34.0701 34.0963 33.2844 32.753C33.4112 32.5954 33.5034 32.4129 33.5551 32.2174C33.6068 32.0219 33.6168 31.8176 33.5844 31.618L33.5714 31.569ZM31.0104 29.26C31.0192 29.3983 31.0407 29.5356 31.0744 29.67C31.1324 29.952 31.2094 30.228 31.2864 30.504C31.0409 30.6495 30.8433 30.8636 30.7181 31.12C30.5928 31.3764 30.5453 31.6639 30.5814 31.947C29.569 32.6079 28.6647 33.4212 27.9004 34.358C28.0538 33.3431 28.4086 32.3691 28.9439 31.4932C29.4792 30.6174 30.1842 29.8574 31.0174 29.258L31.0104 29.26ZM31.0104 39.334C30.76 39.418 30.5362 39.5667 30.3617 39.7649C30.1871 39.9631 30.068 40.204 30.0164 40.463H29.6064C28.5709 39.228 27.9515 37.6976 27.8364 36.09L27.9074 35.968C28.7103 34.7229 29.7599 33.6556 30.9914 32.832C31.1765 33.0242 31.41 33.1628 31.6674 33.2332C31.9247 33.3036 32.1963 33.3032 32.4534 33.232C33.3112 34.6815 34.4838 35.9196 35.8844 36.855C36.1474 37.028 36.4164 37.188 36.6844 37.342C36.6628 37.5872 36.7023 37.8339 36.7994 38.06C35.6258 38.9918 34.2721 39.6707 32.8234 40.054C32.6556 39.7401 32.3815 39.4961 32.0503 39.3657C31.7191 39.2352 31.3523 39.2268 31.0154 39.342L31.0104 39.334ZM35.4994 43.182C34.1945 43.1828 32.9111 42.8496 31.7714 42.214L31.9514 42.176C32.2067 42.0924 32.4348 41.9417 32.612 41.7397C32.7891 41.5378 32.9088 41.292 32.9584 41.028C34.5982 40.61 36.129 39.8447 37.4474 38.784C37.7609 38.9667 38.1309 39.0269 38.4862 38.9531C38.8414 38.8792 39.1568 38.6765 39.3714 38.384C40.2761 38.6192 41.2067 38.7398 42.1414 38.743H42.4814C41.8623 40.0729 40.8761 41.1982 39.639 41.9866C38.4019 42.7749 36.9654 43.1935 35.4984 43.193L35.4994 43.182ZM39.6714 37.475C39.6707 37.2062 39.5974 36.9426 39.4594 36.712C40.5266 35.318 41.2694 33.7034 41.6334 31.986C41.9541 32.1353 42.2704 32.302 42.5824 32.486C43.2871 34.1526 43.3824 36.0142 42.8514 37.744C41.7869 37.8263 40.716 37.742 39.6774 37.494L39.6714 37.475Z" fill="white"/>
<defs>
<filter id="filter0_d_1367_15337" x="0" y="0" width="71" height="71" filterUnits="userSpaceOnUse" color-interpolation-filters="sRGB">
<feFlood flood-opacity="0" result="BackgroundImageFix"/>
<feColorMatrix in="SourceAlpha" type="matrix" values="0 0 0 0 0 0 0 0 0 0 0 0 0 0 0 0 0 0 127 0" result="hardAlpha"/>
<feOffset/>
<feGaussianBlur stdDeviation="10"/>
<feColorMatrix type="matrix" values="0 0 0 0 0 0 0 0 0 0 0 0 0 0 0 0 0 0 0.122 0"/>
<feBlend mode="normal" in2="BackgroundImageFix" result="effect1_dropShadow_1367_15337"/>
<feBlend mode="normal" in="SourceGraphic" in2="effect1_dropShadow_1367_15337" result="shape"/>
</filter>
</defs>
</svg>
