<svg width="88" height="84" viewBox="0 0 88 84" fill="none" xmlns="http://www.w3.org/2000/svg">
<path d="M81.777 51.2763H66.303C65.596 51.2617 64.896 51.4216 64.2617 51.7425C63.6274 52.0635 63.0772 52.5361 62.6575 53.1206C60.8071 55.8347 59.1909 58.629 56.3872 60.6917C52.8917 63.2522 48.7869 64.7932 44.5082 65.1514C43.994 65.2125 43.4746 65.2125 42.9604 65.1514C38.6796 64.7907 34.5727 63.25 31.073 60.6917C28.2692 58.629 26.653 55.8285 24.8027 53.1206C24.3791 52.5402 23.8282 52.0707 23.1948 51.7502C22.5613 51.4297 21.8632 51.2674 21.1572 51.2763H5.67595C5.45141 51.2763 5.23888 51.7032 5.02515 51.9104C5.4286 53.5142 5.73239 55.1377 6.25952 56.681C7.31641 59.8621 8.80002 62.8762 10.6675 65.6362C12.1467 68.0752 13.9056 70.323 15.9063 72.3313C19.6143 75.9232 23.9185 78.8037 28.6151 80.8362C31.1414 81.8302 33.7457 82.6011 36.3995 83.1407C38.8256 83.5636 41.2888 83.7182 43.7469 83.6021C46.205 83.7182 48.6682 83.5636 51.0943 83.1407C53.7474 82.5982 56.3514 81.8273 58.8787 80.8362C63.568 78.7895 67.8699 75.9106 71.5875 72.3313C73.584 70.3226 75.3384 68.0748 76.8131 65.6362C78.6842 62.877 80.1718 59.8634 81.2331 56.6822C81.7602 55.1377 82.0628 53.5129 82.4554 51.9116C82.2201 51.7032 81.9956 51.2763 81.777 51.2763Z" fill="url(#paint0_linear_1441_4)"/>
<path d="M85.2532 35.5531C84.5345 35.5538 83.8355 35.3117 83.264 34.864C82.6925 34.4164 82.2801 33.7881 82.0904 33.0759C80.8846 28.3067 78.864 23.7955 76.1227 19.7523C73.2634 15.613 69.7311 12.011 65.681 9.10448C65.4523 8.92899 65.1805 8.82238 64.8962 8.79662C64.6119 8.77085 64.3262 8.82694 64.0711 8.9586C63.8161 9.09026 63.6018 9.29229 63.4522 9.54205C63.3026 9.79181 63.2237 10.0794 63.2242 10.3727V24.8584C63.2242 25.087 63.1804 25.3134 63.0953 25.5245C63.0101 25.7357 62.8853 25.9276 62.728 26.0893C62.5707 26.2509 62.3839 26.3791 62.1783 26.4666C61.9728 26.5541 61.7525 26.5991 61.53 26.5991H56.9311C56.4801 26.5968 56.0484 26.4111 55.7304 26.0825C55.4125 25.754 55.2341 25.3094 55.2344 24.8461C55.2344 20.8983 55.2344 17.0209 55.2344 13.1373C55.2344 10.0606 55.3017 6.96901 55.2344 3.91815C55.2168 2.87418 54.8014 1.87897 54.0773 1.14634C53.3532 0.41371 52.3783 0.00212513 51.362 2.04392e-05H36.0621C35.0405 -0.00333814 34.0587 0.407336 33.33 1.14293C32.6012 1.87853 32.1841 2.87972 32.1693 3.92925C32.1693 6.97147 32.2257 10.0606 32.1693 13.1484V24.8584C32.1693 25.0885 32.1252 25.3163 32.0395 25.5288C31.9538 25.7413 31.8282 25.9345 31.6699 26.0971C31.5115 26.2598 31.3236 26.3888 31.1167 26.4769C30.9098 26.5649 30.6881 26.6102 30.4642 26.6102H25.8653C25.6423 26.612 25.4212 26.5682 25.2149 26.4814C25.0085 26.3946 24.8211 26.2664 24.6634 26.1044C24.5057 25.9424 24.381 25.7498 24.2965 25.5378C24.2119 25.3258 24.1693 25.0986 24.1711 24.8695V10.3715C24.1632 10.0895 24.082 9.81492 23.9359 9.57616C23.7897 9.3374 23.584 9.1432 23.3401 9.01376C23.0963 8.88431 22.8231 8.82434 22.549 8.84008C22.2749 8.85582 22.0099 8.94669 21.7816 9.10325C17.7328 12.0136 14.1994 15.6154 11.3351 19.7523C8.60211 23.7987 6.58593 28.3092 5.37935 33.0759C5.18906 33.7835 4.77949 34.4081 4.21268 34.8551C3.64587 35.3021 2.95271 35.5471 2.2382 35.5531C1.64415 35.5544 1.07487 35.7977 0.65526 36.2298C0.235654 36.6618 -1.36194e-06 37.2472 0 37.8576L0 40.3409C0 40.6436 0.0580169 40.9432 0.170738 41.2228C0.283459 41.5024 0.448677 41.7565 0.656959 41.9704C0.865241 42.1844 1.11251 42.3542 1.38464 42.47C1.65677 42.5858 1.94844 42.6454 2.243 42.6454H21.9509C23.8757 42.6476 25.7219 43.4306 27.0877 44.8241C28.3993 46.077 29.6197 47.4269 30.7392 48.8631C31.0787 49.327 31.5195 49.7027 32.0261 49.9598C32.5326 50.2169 33.0908 50.3483 33.6558 50.3435H53.8416C54.3973 50.3411 54.945 50.2062 55.4413 49.9492C55.9376 49.6924 56.3691 49.3205 56.7018 48.8631C57.8243 47.4119 59.0462 46.0449 60.358 44.7723C61.7253 43.4004 63.5621 42.6348 65.4732 42.6405H85.2532C85.8464 42.6392 86.4149 42.3965 86.8344 41.9655C87.2539 41.5346 87.4901 40.9504 87.4913 40.3409V37.8341C87.4913 37.2238 87.2557 36.6384 86.8361 36.2063C86.4165 35.7743 85.8472 35.5309 85.2532 35.5296V35.5531Z" fill="url(#paint1_linear_1441_4)"/>
<defs>
<linearGradient id="paint0_linear_1441_4" x1="43.7403" y1="51.2754" x2="43.7403" y2="83.6395" gradientUnits="userSpaceOnUse">
<stop stop-color="#29F19B"/>
<stop offset="1" stop-color="#4D9DE7"/>
<stop offset="1" stop-color="#4D9DE7"/>
</linearGradient>
<linearGradient id="paint1_linear_1441_4" x1="43.7457" y1="0" x2="43.7457" y2="50.3436" gradientUnits="userSpaceOnUse">
<stop stop-color="#FECC00"/>
<stop offset="1" stop-color="#F8AE00"/>
</linearGradient>
</defs>
</svg>
