<svg width="71" height="71" viewBox="0 0 71 71" fill="none" xmlns="http://www.w3.org/2000/svg">
<g filter="url(#filter0_d_1367_15326)">
<path d="M43.9961 20H26.9961C23.1301 20 19.9961 23.134 19.9961 27V44C19.9961 47.866 23.1301 51 26.9961 51H43.9961C47.8621 51 50.9961 47.866 50.9961 44V27C50.9961 23.134 47.8621 20 43.9961 20Z" fill="url(#paint0_linear_1367_15326)"/>
</g>
<path d="M38.8977 28.313C39.8206 28.3156 40.705 28.6834 41.3576 29.3361C42.0102 29.9887 42.378 30.8731 42.3807 31.796V38.762C42.378 39.6849 42.0102 40.5693 41.3576 41.2219C40.705 41.8746 39.8206 42.2424 38.8977 42.245H31.9307C31.0078 42.2424 30.1234 41.8746 29.4707 41.2219C28.8181 40.5693 28.4503 39.6849 28.4477 38.762V31.797C28.4501 30.8739 28.8178 29.9892 29.4704 29.3364C30.123 28.6836 31.0076 28.3156 31.9307 28.313H38.8967M38.8967 26.92H31.9307C30.6385 26.924 29.4005 27.4391 28.4869 28.3529C27.5733 29.2667 27.0584 30.5048 27.0547 31.797V38.763C27.0584 40.0552 27.5733 41.2933 28.4869 42.2071C29.4005 43.1209 30.6385 43.636 31.9307 43.64H38.8967C40.1888 43.636 41.4269 43.1209 42.3405 42.2071C43.2541 41.2933 43.769 40.0552 43.7727 38.763V31.797C43.769 30.505 43.2543 29.267 42.3409 28.3532C41.4275 27.4395 40.1897 26.9242 38.8977 26.92H38.8967Z" fill="white"/>
<path d="M39.9434 31.797C39.7368 31.797 39.5347 31.7357 39.3629 31.6209C39.191 31.5061 39.0571 31.3429 38.978 31.1519C38.8989 30.961 38.8782 30.7508 38.9185 30.5481C38.9588 30.3454 39.0584 30.1592 39.2045 30.0131C39.3507 29.8669 39.5369 29.7674 39.7396 29.7271C39.9423 29.6868 40.1524 29.7075 40.3433 29.7865C40.5343 29.8656 40.6975 29.9996 40.8123 30.1714C40.9271 30.3433 40.9884 30.5453 40.9884 30.752C40.9888 30.8893 40.9621 31.0254 40.9097 31.1524C40.8573 31.2793 40.7804 31.3947 40.6832 31.4918C40.5861 31.5889 40.4708 31.6659 40.3438 31.7183C40.2168 31.7706 40.0808 31.7974 39.9434 31.797Z" fill="white"/>
<path d="M35.4144 32.493C35.9656 32.493 36.5044 32.6564 36.9628 32.9627C37.4211 33.2689 37.7783 33.7042 37.9892 34.2135C38.2002 34.7227 38.2554 35.2831 38.1478 35.8237C38.0403 36.3643 37.7749 36.8609 37.3851 37.2507C36.9953 37.6405 36.4987 37.9059 35.9581 38.0134C35.4175 38.121 34.8571 38.0658 34.3478 37.8548C33.8386 37.6439 33.4033 37.2867 33.0971 36.8284C32.7908 36.37 32.6274 35.8312 32.6274 35.28C32.6279 34.541 32.9217 33.8324 33.4443 33.3099C33.9668 32.7873 34.6754 32.4935 35.4144 32.493ZM35.4144 31.1C34.5877 31.1 33.7795 31.3451 33.0921 31.8044C32.4047 32.2638 31.8689 32.9166 31.5526 33.6804C31.2362 34.4442 31.1534 35.2846 31.3147 36.0955C31.476 36.9063 31.8741 37.6511 32.4587 38.2357C33.0433 38.8203 33.7881 39.2184 34.5989 39.3797C35.4097 39.541 36.2502 39.4582 37.014 39.1418C37.7778 38.8254 38.4306 38.2897 38.8899 37.6023C39.3492 36.9149 39.5944 36.1067 39.5944 35.28C39.5941 34.1715 39.1536 33.1084 38.3698 32.3246C37.5859 31.5407 36.5229 31.1003 35.4144 31.1Z" fill="white"/>
<defs>
<filter id="filter0_d_1367_15326" x="-0.00390625" y="0" width="71" height="71" filterUnits="userSpaceOnUse" color-interpolation-filters="sRGB">
<feFlood flood-opacity="0" result="BackgroundImageFix"/>
<feColorMatrix in="SourceAlpha" type="matrix" values="0 0 0 0 0 0 0 0 0 0 0 0 0 0 0 0 0 0 127 0" result="hardAlpha"/>
<feOffset/>
<feGaussianBlur stdDeviation="10"/>
<feColorMatrix type="matrix" values="0 0 0 0 0 0 0 0 0 0 0 0 0 0 0 0 0 0 0.122 0"/>
<feBlend mode="normal" in2="BackgroundImageFix" result="effect1_dropShadow_1367_15326"/>
<feBlend mode="normal" in="SourceGraphic" in2="effect1_dropShadow_1367_15326" result="shape"/>
</filter>
<linearGradient id="paint0_linear_1367_15326" x1="35.4961" y1="20" x2="35.4961" y2="51" gradientUnits="userSpaceOnUse">
<stop stop-color="#CE23A6"/>
<stop offset="1" stop-color="#E8A114"/>
</linearGradient>
</defs>
</svg>
