<svg width="205" height="180" viewBox="0 0 205 180" fill="none" xmlns="http://www.w3.org/2000/svg">
<g clip-path="url(#clip0_317_556)">
<path d="M149.834 173.198C177.627 173.198 200.158 150.667 200.158 122.874C200.158 95.0804 177.627 72.5495 149.834 72.5495C122.041 72.5495 99.5098 95.0804 99.5098 122.874C99.5098 150.667 122.041 173.198 149.834 173.198Z" fill="#F2F2F2"/>
<path d="M151.742 180C178.117 180 199.498 176.078 199.498 171.24C199.498 166.402 178.117 162.48 151.742 162.48C125.368 162.48 103.987 166.402 103.987 171.24C103.987 176.078 125.368 180 151.742 180Z" fill="#3F3D56"/>
<path d="M194.16 170.991C194.111 170.911 192.948 168.97 192.546 164.94C192.176 161.242 192.414 155.01 195.646 146.316C201.769 129.847 194.235 116.558 194.158 116.426L194.529 116.21C194.549 116.244 196.493 119.632 197.642 125.027C199.159 132.18 198.606 139.616 196.049 146.466C189.936 162.908 194.48 170.691 194.527 170.768L194.16 170.991Z" fill="#3F3D56"/>
<path d="M191.766 115.459C193.308 115.459 194.558 114.209 194.558 112.666C194.558 111.124 193.308 109.874 191.766 109.874C190.223 109.874 188.973 111.124 188.973 112.666C188.973 114.209 190.223 115.459 191.766 115.459Z" fill="#3F3D56"/>
<path d="M200.573 125.77C202.115 125.77 203.365 124.52 203.365 122.977C203.365 121.435 202.115 120.185 200.573 120.185C199.031 120.185 197.78 121.435 197.78 122.977C197.78 124.52 199.031 125.77 200.573 125.77Z" fill="#3F3D56"/>
<path d="M194.558 132.644C196.1 132.644 197.351 131.393 197.351 129.851C197.351 128.309 196.1 127.059 194.558 127.059C193.016 127.059 191.766 128.309 191.766 129.851C191.766 131.393 193.016 132.644 194.558 132.644Z" fill="#004AAD"/>
<path d="M201.861 138.443C203.404 138.443 204.654 137.193 204.654 135.651C204.654 134.109 203.404 132.858 201.861 132.858C200.319 132.858 199.069 134.109 199.069 135.651C199.069 137.193 200.319 138.443 201.861 138.443Z" fill="#004AAD"/>
<path d="M192.41 147.465C193.952 147.465 195.203 146.215 195.203 144.673C195.203 143.131 193.952 141.88 192.41 141.88C190.868 141.88 189.618 143.131 189.618 144.673C189.618 146.215 190.868 147.465 192.41 147.465Z" fill="#3F3D56"/>
<path d="M195.847 171.094C195.847 171.094 193.055 164.22 201.432 159.065L195.847 171.094Z" fill="#3F3D56"/>
<path d="M192.413 170.97C192.413 170.97 191.142 163.66 181.305 163.722L192.413 170.97Z" fill="#3F3D56"/>
<path d="M17.9434 90.5652L62.025 120.518L66.2227 117.282L69.9371 117.605L62.8728 124.474L17.9434 96.2167V90.5652Z" fill="#3F3D56"/>
<path d="M108.215 76.5778L126.876 98.6185L123.19 103.14L101.303 78.5558L108.215 76.5778Z" fill="#2F2E41"/>
<path d="M15.9657 89.1523C18.3066 89.1523 20.2043 87.0015 20.2043 84.3485C20.2043 81.6955 18.3066 79.5447 15.9657 79.5447C13.6247 79.5447 11.7271 81.6955 11.7271 84.3485C11.7271 87.0015 13.6247 89.1523 15.9657 89.1523Z" fill="#004AAD"/>
<path d="M113.95 75.0261C121.527 46.5923 111.135 19.1361 90.7385 13.701C70.3424 8.26597 47.6658 26.9101 40.0888 55.3439C32.5119 83.7777 42.904 111.234 63.3001 116.669C83.6963 122.104 106.373 103.46 113.95 75.0261Z" fill="#3F3D56"/>
<path opacity="0.1" d="M110.83 74.195C117.767 48.1636 108.253 23.0272 89.58 18.0513C70.9072 13.0754 50.1465 30.1442 43.2096 56.1756C36.2728 82.2069 45.7867 107.343 64.4596 112.319C83.1324 117.295 103.893 100.226 110.83 74.195Z" fill="white"/>
<path d="M69.0899 64.2857C69.5581 64.2857 69.9376 63.9062 69.9376 63.438C69.9376 62.9698 69.5581 62.5902 69.0899 62.5902C68.6217 62.5902 68.2422 62.9698 68.2422 63.438C68.2422 63.9062 68.6217 64.2857 69.0899 64.2857Z" fill="#004AAD"/>
<path d="M64.2857 84.3485C64.7539 84.3485 65.1334 83.969 65.1334 83.5008C65.1334 83.0326 64.7539 82.653 64.2857 82.653C63.8175 82.653 63.438 83.0326 63.438 83.5008C63.438 83.969 63.8175 84.3485 64.2857 84.3485Z" fill="#004AAD"/>
<path d="M88.022 65.9812C88.4902 65.9812 88.8698 65.6016 88.8698 65.1334C88.8698 64.6652 88.4902 64.2857 88.022 64.2857C87.5539 64.2857 87.1743 64.6652 87.1743 65.1334C87.1743 65.6016 87.5539 65.9812 88.022 65.9812Z" fill="#004AAD"/>
<path d="M83.2183 86.3265C83.6865 86.3265 84.0661 85.947 84.0661 85.4788C84.0661 85.0106 83.6865 84.6311 83.2183 84.6311C82.7501 84.6311 82.3706 85.0106 82.3706 85.4788C82.3706 85.947 82.7501 86.3265 83.2183 86.3265Z" fill="#004AAD"/>
<path d="M19.3567 97.6295L16.5762 98.1862L16.531 98.1947L10.0317 96.4992L8.05371 83.5008L9.25182 82.9413L12.2923 81.5228C17.6612 81.5228 18.7915 84.6311 18.7915 84.6311L19.3567 97.6295Z" fill="#3F3D56"/>
<path opacity="0.1" d="M16.5762 98.1862L16.531 98.1947L10.0317 96.4992L8.05371 83.5008L9.25182 82.9413C11.73 83.2691 14.6292 83.9727 15.6832 85.4788L16.5762 98.1862Z" fill="black"/>
<path d="M29.9523 65.84C29.7998 65.84 29.6501 65.7986 29.5192 65.7204C21.1598 60.74 13.0322 60.74 4.67277 65.7204C4.47965 65.8349 4.24898 65.8682 4.03137 65.8128C3.81376 65.7575 3.627 65.6181 3.51206 65.4252C3.39713 65.2323 3.36341 65.0017 3.41831 64.784C3.47321 64.5663 3.61225 64.3792 3.8049 64.2639C12.6243 59.0095 21.5676 59.0095 30.3871 64.2639C30.5466 64.359 30.6704 64.5038 30.7397 64.6761C30.8089 64.8484 30.8197 65.0386 30.7703 65.2176C30.7209 65.3966 30.6141 65.5545 30.4664 65.6669C30.3186 65.7793 30.138 65.8402 29.9523 65.84H29.9523Z" fill="#004AAD"/>
<path d="M26.7025 72.8653C26.5499 72.8654 26.4002 72.824 26.2694 72.7457C20.0014 69.0115 13.9075 69.0115 7.63957 72.7457C7.44645 72.8602 7.21578 72.8935 6.99817 72.8382C6.78056 72.7828 6.5938 72.6434 6.47886 72.4505C6.36393 72.2576 6.33021 72.027 6.38511 71.8093C6.44001 71.5916 6.57904 71.4045 6.7717 71.2892C13.5287 67.2636 20.3803 67.2636 27.1372 71.2892C27.2967 71.3843 27.4206 71.5291 27.4898 71.7014C27.5591 71.8737 27.5698 72.0639 27.5205 72.2429C27.4711 72.4219 27.3643 72.5798 27.2165 72.6922C27.0687 72.8046 26.8881 72.8655 26.7025 72.8653Z" fill="#004AAD"/>
<path d="M32.4953 57.9279C32.3427 57.928 32.193 57.8866 32.0621 57.8083C23.7198 52.8381 9.62395 52.8381 1.28165 57.8083C1.18601 57.8655 1.08002 57.9034 0.969738 57.9196C0.859459 57.9358 0.747059 57.9302 0.638975 57.9029C0.530891 57.8757 0.429245 57.8274 0.339852 57.7608C0.25046 57.6942 0.175076 57.6106 0.118017 57.5149C0.0609592 57.4191 0.0233456 57.313 0.00733056 57.2027C-0.00868449 57.0924 -0.00278786 56.98 0.0246846 56.872C0.052157 56.764 0.100666 56.6624 0.167433 56.5732C0.2342 56.4839 0.317913 56.4087 0.413784 56.3518C9.22657 51.1013 24.1172 51.1013 32.93 56.3518C33.0895 56.4469 33.2134 56.5917 33.2826 56.764C33.3519 56.9363 33.3626 57.1265 33.3132 57.3055C33.2639 57.4845 33.1571 57.6424 33.0093 57.7548C32.8615 57.8673 32.6809 57.9281 32.4952 57.9279H32.4953Z" fill="#004AAD"/>
<path d="M171.732 154.515L173.521 161.674L165.646 163.822L164.93 156.305L171.732 154.515Z" fill="#FBBEBE"/>
<path d="M143.094 163.464V170.266L135.219 171.697L133.787 168.118L136.651 162.032L143.094 163.464Z" fill="#FBBEBE"/>
<path d="M158.844 89.3651L157.77 99.0302L158.486 117.644C158.486 117.644 159.56 117.644 159.56 118.718C159.56 119.792 158.486 119.434 159.56 120.15C160.136 120.541 160.734 120.9 161.35 121.224L172.805 155.947C172.805 155.947 169.941 159.526 164.572 158.453L163.498 154.873C163.498 154.873 161.35 152.725 161.35 151.651C161.35 150.577 162.066 150.219 161.35 149.145C160.634 148.072 149.895 126.236 149.895 126.236L144.884 117.286L143.452 129.457C143.452 129.457 146.316 144.85 145.6 152.009C144.884 159.169 143.452 166.686 143.452 166.686L134.861 165.254C134.822 164.099 134.449 162.98 133.787 162.032C132.713 160.6 131.281 160.958 132.713 159.884C134.145 158.811 135.935 159.884 134.503 158.453C133.071 157.021 133.071 155.589 133.071 155.589V154.515L130.923 126.952L126.985 90.797L158.844 89.3651Z" fill="#2F2E41"/>
<path d="M134.503 24.2153C139.841 24.2153 144.168 19.8881 144.168 14.5502C144.168 9.2123 139.841 4.88509 134.503 4.88509C129.165 4.88509 124.838 9.2123 124.838 14.5502C124.838 19.8881 129.165 24.2153 134.503 24.2153Z" fill="#FBBEBE"/>
<path d="M142.915 14.7293L146.853 24.3944L137.546 31.1957L131.818 21.1726L142.915 14.7293Z" fill="#FBBEBE"/>
<path d="M143.452 22.0675L147.031 20.2776L149.179 25.2892C149.179 25.2892 163.14 29.5848 162.066 49.2729C160.992 68.9611 158.486 76.4784 158.486 76.4784C158.486 76.4784 164.572 89.3651 160.992 90.797C157.412 92.2289 126.985 97.5984 126.269 92.5868C125.553 87.5753 128.775 58.2221 128.775 58.2221C128.775 58.2221 127.701 37.1021 136.65 32.8065L134.861 28.8688L143.452 22.0675Z" fill="#D0CDE1"/>
<path d="M123.764 91.5129C123.764 91.5129 115.53 100.104 120.184 102.252C124.837 104.4 127.701 92.5868 127.701 92.5868L123.764 91.5129Z" fill="#FBBEBE"/>
<path d="M140.588 168.476L144.526 167.044C144.526 167.044 148.822 176.709 145.242 176.709H135.935C135.935 176.709 130.565 174.919 127.702 174.919C124.838 174.919 119.468 169.55 123.406 167.044C127.344 164.538 132.355 165.254 132.355 165.254L133.787 162.032L135.577 167.044C135.577 167.044 137.725 170.623 140.588 168.476Z" fill="#2F2E41"/>
<path d="M169.584 160.6C169.584 160.6 171.825 159.186 173.031 159.714C174.237 160.242 174.953 165.97 174.953 165.97C174.953 165.97 178.533 170.265 170.658 170.981C162.782 171.697 160.993 170.265 160.277 168.118C159.561 165.97 160.993 163.822 160.993 163.822L163.14 163.106C163.14 163.106 165.646 161.316 164.93 160.6C164.214 159.884 164.93 158.453 164.93 158.453C164.93 158.453 167.436 163.464 169.584 160.6Z" fill="#2F2E41"/>
<path d="M137.809 14.3953C137.769 14.0825 137.699 13.7744 137.598 13.4756C137.079 12.3858 135.052 12.7039 134.691 11.5519C134.62 11.3264 134.635 11.0811 134.566 10.8552C134.389 10.2792 133.712 9.99351 133.11 10.0212C132.508 10.0488 131.944 10.306 131.365 10.4705C129.949 10.8724 128.442 10.719 126.979 10.5623C126.331 10.4931 125.66 10.4158 125.106 10.0748C124.551 9.73383 124.152 9.04742 124.354 8.42873C124.547 7.83554 125.197 7.50959 125.488 6.95812C125.952 6.08245 125.385 4.95148 125.761 4.03483C126.364 2.56438 128.647 2.85964 129.807 1.77278C130.088 1.50896 130.291 1.17171 130.561 0.89596C131.361 0.0778316 132.625 -0.0805413 133.764 0.0323252C134.903 0.145192 136.022 0.479655 137.167 0.459417C138.252 0.440223 139.39 0.109727 140.39 0.531863C140.996 0.787972 141.46 1.28894 141.904 1.77557L144.469 4.58867C144.821 4.92077 145.092 5.32931 145.261 5.78281C145.416 6.32181 145.274 6.90051 145.339 7.45729C145.49 8.7271 146.678 9.68622 146.839 10.9548C146.871 11.3482 146.852 11.7442 146.782 12.1327L146.423 14.7818C146.405 15.0401 146.336 15.2923 146.22 15.5241C146.116 15.7026 145.958 15.8436 145.84 16.0137C145.508 16.4941 145.539 17.1291 145.374 17.6893C145.209 18.2495 144.617 18.8039 144.099 18.5339C143.761 18.3577 143.538 16.9011 143.127 16.5229C142.556 15.9962 142.257 16.0611 141.552 16.07C140.139 16.0879 138.261 16.209 137.809 14.3953Z" fill="#2F2E41"/>
<path d="M139.514 35.3122C139.514 35.3122 150.253 39.6078 147.032 49.2729C143.81 58.938 135.219 88.6492 135.219 88.6492L130.207 91.155L128.775 95.0926L121.974 92.5868L123.048 87.2173C123.048 87.2173 123.406 86.8594 123.406 85.4275C123.406 83.9956 121.974 83.6377 123.764 83.6377C125.554 83.6377 125.554 81.8478 125.554 81.8478L131.997 41.7556C131.997 41.7556 131.997 34.9543 139.514 35.3122Z" fill="#D0CDE1"/>
<path opacity="0.1" d="M147.569 51.2416L136.472 89.1861L131.818 93.8398L134.503 89.0071L147.569 51.2416Z" fill="black"/>
</g>
<defs>
<clipPath id="clip0_317_556">
<rect width="204.654" height="180" fill="white"/>
</clipPath>
</defs>
</svg>
