<svg width="29" height="29" viewBox="0 0 29 29" fill="none" xmlns="http://www.w3.org/2000/svg">
<path d="M14.313 28.712C22.1488 28.712 28.501 22.3598 28.501 14.524C28.501 6.68818 22.1488 0.335999 14.313 0.335999C6.47718 0.335999 0.125 6.68818 0.125 14.524C0.125 22.3598 6.47718 28.712 14.313 28.712Z" fill="white"/>
<path d="M20.7197 8.991C19.7618 8.21541 18.5446 7.83359 17.3153 7.92311C16.0861 8.01264 14.937 8.5668 14.1017 9.473L13.4017 10.193L12.7017 9.473C11.8663 8.5668 10.7172 8.01264 9.488 7.92311C8.25875 7.83359 7.04153 8.21541 6.08367 8.991C5.56117 9.44243 5.13593 9.99538 4.83379 10.6163C4.53164 11.2371 4.3589 11.913 4.32607 12.6027C4.29324 13.2924 4.40101 13.9816 4.64281 14.6284C4.88462 15.2751 5.25541 15.866 5.73267 16.365L12.5957 23.452C12.6995 23.5605 12.8242 23.6469 12.9623 23.7059C13.1004 23.7649 13.249 23.7953 13.3992 23.7953C13.5493 23.7953 13.698 23.7649 13.836 23.7059C13.9741 23.6469 14.0989 23.5605 14.2027 23.452L21.0657 16.365C21.5436 15.8665 21.9151 15.276 22.1576 14.6294C22.4001 13.9827 22.5084 13.2935 22.476 12.6037C22.4437 11.9139 22.2713 11.2378 21.9693 10.6168C21.6674 9.99568 21.2422 9.44254 20.7197 8.991Z" fill="url(#paint0_linear_1367_12595)"/>
<defs>
<linearGradient id="paint0_linear_1367_12595" x1="13.401" y1="7.91029" x2="13.401" y2="23.7953" gradientUnits="userSpaceOnUse">
<stop stop-color="#F3997B"/>
<stop offset="0.14" stop-color="#F08165"/>
<stop offset="0.5" stop-color="#E94A31"/>
<stop offset="0.75" stop-color="#D92F26"/>
<stop offset="1" stop-color="#CA181D"/>
</linearGradient>
</defs>
</svg>
