<svg width="31" height="31" viewBox="0 0 31 31" fill="none" xmlns="http://www.w3.org/2000/svg">
<path d="M24 0H7C3.13401 0 0 3.13401 0 7V24C0 27.866 3.13401 31 7 31H24C27.866 31 31 27.866 31 24V7C31 3.13401 27.866 0 24 0Z" fill="url(#paint0_linear_1367_15353)"/>
<path d="M15.8516 7.801C16.7236 7.788 17.5866 7.795 18.4566 7.788C18.4836 8.82737 18.8997 9.81876 19.6226 10.566C20.4044 11.2683 21.399 11.6884 22.4476 11.759V14.444C21.4801 14.4209 20.5274 14.2011 19.6476 13.798C19.2728 13.6189 18.9121 13.4116 18.5686 13.178C18.5616 15.123 18.5756 17.069 18.5556 19.008C18.5046 19.9495 18.193 20.8583 17.6556 21.633C17.2129 22.2734 16.6258 22.8006 15.9417 23.1722C15.2576 23.5438 14.4958 23.7492 13.7176 23.772C12.7644 23.8158 11.8195 23.5779 11.0006 23.088C10.3271 22.6881 9.75634 22.1361 9.33407 21.4763C8.9118 20.8166 8.64967 20.0672 8.56861 19.288C8.55561 18.955 8.54861 18.622 8.56161 18.295C8.62883 17.6112 8.83582 16.9485 9.16974 16.348C9.50367 15.7475 9.95741 15.222 10.5028 14.8041C11.0482 14.3862 11.6737 14.0848 12.3404 13.9186C13.0071 13.7524 13.7009 13.725 14.3786 13.838C14.3916 14.824 14.3516 15.81 14.3516 16.796C14.0674 16.6963 13.7662 16.6537 13.4654 16.6707C13.1647 16.6878 12.8702 16.7641 12.5991 16.8953C12.3279 17.0266 12.0853 17.2101 11.8853 17.4353C11.6853 17.6606 11.5318 17.9232 11.4336 18.208C11.3293 18.5555 11.2976 18.9207 11.3406 19.281C11.4285 19.8292 11.7145 20.3261 12.1443 20.6776C12.5741 21.0291 13.1179 21.2107 13.6726 21.188C14.0453 21.1771 14.4094 21.0732 14.7318 20.8858C15.0542 20.6985 15.3247 20.4335 15.5186 20.115C15.667 19.9061 15.7609 19.6634 15.7916 19.409C15.8586 18.216 15.8316 17.03 15.8386 15.838C15.8456 13.153 15.8316 10.475 15.8516 7.796V7.801Z" fill="white"/>
<defs>
<linearGradient id="paint0_linear_1367_15353" x1="15.5" y1="0" x2="15.5" y2="31" gradientUnits="userSpaceOnUse">
<stop/>
<stop offset="1" stop-color="#313131"/>
</linearGradient>
</defs>
</svg>
