<svg width="31" height="31" viewBox="0 0 31 31" fill="none" xmlns="http://www.w3.org/2000/svg">
<path d="M24 0H7C3.13401 0 0 3.13401 0 7V24C0 27.866 3.13401 31 7 31H24C27.866 31 31 27.866 31 24V7C31 3.13401 27.866 0 24 0Z" fill="url(#paint0_linear_1367_15347)"/>
<path d="M21.5495 12.097C21.5595 12.249 21.5595 12.397 21.5595 12.552C21.5595 17.173 18.2485 22.497 12.1975 22.497C10.3932 22.4979 8.63106 21.9508 7.14453 20.928C7.40838 20.9588 7.6739 20.9732 7.93953 20.971C9.43451 20.9698 10.8811 20.4411 12.0245 19.478C11.3206 19.4518 10.6431 19.2029 10.0896 18.7671C9.53611 18.3313 9.13518 17.7312 8.94453 17.053C9.14977 17.0875 9.35742 17.1056 9.56553 17.107C9.85821 17.1061 10.1494 17.066 10.4315 16.988C9.66708 16.8024 8.98902 16.361 8.50978 15.7372C8.03053 15.1134 7.77887 14.3445 7.79653 13.558V13.515C8.24774 13.784 8.75873 13.9365 9.28353 13.959C8.82442 13.6259 8.45169 13.1877 8.19649 12.6811C7.94128 12.1745 7.811 11.6142 7.81653 11.047C7.81391 10.4305 7.96807 9.82352 8.26453 9.28301C9.06286 10.348 10.0831 11.2267 11.2547 11.8583C12.4262 12.4899 13.7211 12.8593 15.0495 12.941C14.9966 12.6776 14.9691 12.4097 14.9675 12.141C14.9406 11.2407 15.272 10.3664 15.889 9.71024C16.5061 9.05403 17.3582 8.66948 18.2585 8.64101C18.7138 8.64308 19.1634 8.74227 19.5773 8.93197C19.9911 9.12166 20.3598 9.39748 20.6585 9.74101C21.3999 9.58838 22.1074 9.30241 22.7465 8.89701C22.5108 9.69177 21.9972 10.3753 21.2995 10.823C21.9557 10.7432 22.5952 10.5606 23.1945 10.282C22.7497 10.9725 22.1919 11.5834 21.5445 12.089L21.5495 12.097Z" fill="white"/>
<defs>
<linearGradient id="paint0_linear_1367_15347" x1="15.5" y1="0" x2="15.5" y2="31" gradientUnits="userSpaceOnUse">
<stop stop-color="#0FA2C1"/>
<stop offset="1" stop-color="#1FC6FB"/>
</linearGradient>
</defs>
</svg>
