<svg width="31" height="31" viewBox="0 0 31 31" fill="none" xmlns="http://www.w3.org/2000/svg">
<path d="M24 0H7C3.13401 0 0 3.13401 0 7V24C0 27.866 3.13401 31 7 31H24C27.866 31 31 27.866 31 24V7C31 3.13401 27.866 0 24 0Z" fill="url(#paint0_linear_1367_15342)"/>
<path d="M15.838 8.345C14.5716 8.34441 13.3297 8.69388 12.2495 9.35481C11.1692 10.0157 10.2926 10.9624 9.71663 12.0902C9.14061 13.218 8.88754 14.4831 8.98538 15.7458C9.08322 17.0084 9.52815 18.2194 10.271 19.245L9.41404 21.802L12.056 20.957C12.9506 21.5465 13.9707 21.9187 15.0347 22.0439C16.0987 22.1691 17.1773 22.0438 18.1843 21.6781C19.1912 21.3123 20.0988 20.7162 20.8344 19.9373C21.5701 19.1585 22.1135 18.2184 22.4212 17.1922C22.7289 16.166 22.7925 15.082 22.6068 14.0269C22.4212 12.9717 21.9914 11.9746 21.3518 11.1151C20.7122 10.2555 19.8806 9.55744 18.9233 9.07648C17.9659 8.59552 16.9094 8.34503 15.838 8.345ZM19.838 18.052C19.699 18.3035 19.5059 18.521 19.2726 18.6887C19.0393 18.8565 18.7717 18.9703 18.489 19.022C18.13 19.098 17.661 19.159 16.081 18.505C14.6902 17.8232 13.5091 16.7788 12.662 15.482C12.1941 14.8848 11.9093 14.1647 11.842 13.409C11.8328 13.0964 11.8905 12.7854 12.0112 12.4968C12.1319 12.2083 12.3129 11.9489 12.542 11.736C12.735 11.5669 12.9857 11.4785 13.242 11.489C13.327 11.489 13.404 11.489 13.472 11.497C13.672 11.506 13.772 11.518 13.909 11.836C14.075 12.236 14.479 13.222 14.527 13.323C14.561 13.3783 14.5814 13.4408 14.5864 13.5055C14.5915 13.5702 14.5811 13.6351 14.556 13.695C14.4994 13.8115 14.424 13.9179 14.333 14.01C14.233 14.127 14.133 14.216 14.033 14.342C13.94 14.451 13.833 14.568 13.952 14.77C14.2564 15.2845 14.6348 15.7515 15.075 16.156C15.5449 16.5859 16.0919 16.9232 16.687 17.15C16.7661 17.1876 16.8547 17.2005 16.9413 17.187C17.0278 17.1734 17.1082 17.134 17.172 17.074C17.3636 16.8468 17.5429 16.6094 17.709 16.363C17.758 16.2813 17.8355 16.2207 17.9266 16.193C18.0177 16.1653 18.1159 16.1724 18.202 16.213C18.388 16.277 19.37 16.763 19.572 16.863C19.774 16.963 19.907 17.013 19.956 17.098C20.0086 17.4207 19.9677 17.7518 19.838 18.052Z" fill="white"/>
<defs>
<linearGradient id="paint0_linear_1367_15342" x1="15.5" y1="0" x2="15.5" y2="31" gradientUnits="userSpaceOnUse">
<stop stop-color="#0DAE5D"/>
<stop offset="1" stop-color="#3FCE65"/>
</linearGradient>
</defs>
</svg>
