<svg width="31" height="31" viewBox="0 0 31 31" fill="none" xmlns="http://www.w3.org/2000/svg">
<path d="M24 0H7C3.13401 0 0 3.13401 0 7V24C0 27.866 3.13401 31 7 31H24C27.866 31 31 27.866 31 24V7C31 3.13401 27.866 0 24 0Z" fill="url(#paint0_linear_1367_15350)"/>
<path fill-rule="evenodd" clip-rule="evenodd" d="M13.5797 17.918V12.68L18.6157 15.309L13.5797 17.918ZM24.6397 11.773C24.5519 11.1036 24.2971 10.4671 23.8987 9.922C23.4041 9.4234 22.7329 9.1399 22.0307 9.133C19.4177 8.944 15.5047 8.944 15.5047 8.944H15.4977C15.4977 8.944 11.5797 8.944 8.97969 9.132C8.27745 9.1389 7.60625 9.4224 7.11169 9.921C6.71362 10.4662 6.45883 11.1027 6.37069 11.772C6.25309 12.7739 6.18933 13.7813 6.17969 14.79V16.204C6.1877 17.2126 6.24979 18.22 6.36569 19.222C6.45354 19.8914 6.70836 20.5279 7.10669 21.073C7.67342 21.5784 8.40341 21.8624 9.16269 21.873C10.6537 22.015 15.5007 22.059 15.5007 22.059C15.5007 22.059 19.4187 22.053 22.0267 21.865C22.729 21.8582 23.4002 21.5747 23.8947 21.076C24.2928 20.5308 24.5476 19.8943 24.6357 19.225C24.7516 18.223 24.8137 17.2156 24.8217 16.207V14.79C24.8137 13.7814 24.7516 12.7739 24.6357 11.772L24.6397 11.773Z" fill="white"/>
<defs>
<linearGradient id="paint0_linear_1367_15350" x1="15.5" y1="0" x2="15.5" y2="31" gradientUnits="userSpaceOnUse">
<stop stop-color="#F3997B"/>
<stop offset="0.14" stop-color="#F08165"/>
<stop offset="0.5" stop-color="#E94A31"/>
<stop offset="0.75" stop-color="#D92F26"/>
<stop offset="1" stop-color="#CA181D"/>
</linearGradient>
</defs>
</svg>
