<svg width="189" height="80" viewBox="0 0 189 80" fill="none" xmlns="http://www.w3.org/2000/svg">
<path d="M61.3824 38.219H49.7644C49.2339 38.2083 48.7085 38.325 48.2325 38.5594C47.7564 38.7938 47.3435 39.139 47.0284 39.566C45.6394 41.544 44.4284 43.59 42.3224 45.097C39.6995 46.9688 36.619 48.096 33.4074 48.359C33.0214 48.4037 32.6315 48.4037 32.2454 48.359C29.0318 48.0959 25.9487 46.9703 23.3214 45.101C21.2214 43.594 20.0044 41.548 18.6154 39.57C18.2976 39.146 17.8841 38.803 17.4087 38.569C16.9333 38.3349 16.4093 38.2164 15.8794 38.223H4.26144C4.09344 38.223 3.93344 38.534 3.77344 38.686C4.07344 39.856 4.30344 41.043 4.69944 42.171C5.49327 44.4935 6.60699 46.694 8.00844 48.709C9.11867 50.4908 10.4388 52.1329 11.9404 53.6C14.7233 56.2239 17.9536 58.3281 21.4784 59.813C23.3747 60.5393 25.3295 61.1027 27.3214 61.497C29.1421 61.8059 30.9907 61.9189 32.8354 61.834C34.6802 61.9188 36.5287 61.8059 38.3494 61.497C40.3412 61.1006 42.2961 60.5373 44.1934 59.813C47.7128 58.3178 50.9414 56.2147 53.7314 53.6C55.2302 52.1326 56.5473 50.4905 57.6544 48.709C59.0587 46.6934 60.1751 44.4919 60.9714 42.168C61.3714 41.04 61.5944 39.853 61.8894 38.683C61.7104 38.53 61.5424 38.219 61.3824 38.219Z" fill="black"/>
<path d="M63.982 26.846C63.4425 26.8467 62.9178 26.6698 62.4887 26.3427C62.0597 26.0156 61.7502 25.5564 61.608 25.036C60.7029 21.5524 59.1863 18.2573 57.129 15.304C54.9854 12.2807 52.337 9.64919 49.3 7.52501C49.1285 7.39658 48.9245 7.3185 48.7111 7.29953C48.4976 7.28057 48.2831 7.32146 48.0916 7.41763C47.9001 7.5138 47.7392 7.66143 47.6269 7.84397C47.5146 8.02651 47.4554 8.23672 47.456 8.45101V19.033C47.456 19.1999 47.4231 19.3652 47.3592 19.5194C47.2954 19.6736 47.2018 19.8137 47.0837 19.9317C46.9657 20.0498 46.8256 20.1434 46.6714 20.2073C46.5172 20.2711 46.3519 20.304 46.185 20.304H42.733C42.5649 20.304 42.3985 20.2709 42.2432 20.2066C42.0879 20.1423 41.9468 20.048 41.8279 19.9291C41.709 19.8103 41.6148 19.6691 41.5504 19.5138C41.4861 19.3586 41.453 19.1921 41.453 19.024C41.453 16.136 41.453 13.308 41.453 10.471C41.453 8.22301 41.504 5.97101 41.453 3.73601C41.4397 2.97387 41.1281 2.24731 40.5852 1.71225C40.0423 1.17719 39.3113 0.876251 38.549 0.874012H27.066C26.2993 0.871827 25.5626 1.17203 25.0158 1.70949C24.4689 2.24696 24.1561 2.97835 24.145 3.74501C24.145 5.96801 24.187 8.22401 24.145 10.48V19.033C24.145 19.2011 24.1119 19.3675 24.0476 19.5228C23.9832 19.6781 23.889 19.8193 23.7701 19.9381C23.6512 20.057 23.5101 20.1513 23.3548 20.2156C23.1995 20.2799 23.0331 20.313 22.865 20.313H19.413C19.2458 20.3141 19.08 20.2819 18.9254 20.2184C18.7707 20.1549 18.6301 20.0613 18.5119 19.9431C18.3937 19.8249 18.3001 19.6843 18.2366 19.5297C18.1731 19.375 18.1409 19.2092 18.142 19.042V8.45101C18.1361 8.24509 18.0752 8.0445 17.9656 7.8701C17.8559 7.69569 17.7016 7.55385 17.5185 7.45932C17.3355 7.36479 17.1305 7.32103 16.9248 7.33258C16.7191 7.34414 16.5203 7.41058 16.349 7.52501C13.3111 9.65121 10.6601 12.2823 8.511 15.304C6.45992 18.2597 4.9467 21.5542 4.041 25.036C3.89821 25.5529 3.59091 26.0091 3.16562 26.3357C2.74033 26.6623 2.2202 26.8415 1.684 26.846C1.23755 26.846 0.809368 27.0233 0.493586 27.3389C0.177803 27.6545 0.000265114 28.0826 0 28.529L0 30.339C0 30.7856 0.177421 31.214 0.493232 31.5298C0.809043 31.8456 1.23738 32.023 1.684 32.023H16.475C17.9198 32.0244 19.3056 32.5962 20.331 33.614C21.3142 34.5325 22.2286 35.5218 23.067 36.574C23.3222 36.9123 23.6532 37.186 24.0334 37.3732C24.4135 37.5604 24.8323 37.6559 25.256 37.652H40.41C40.8267 37.6505 41.2374 37.5524 41.6098 37.3654C41.9821 37.1783 42.306 36.9074 42.556 36.574C43.3983 35.5124 44.3153 34.5121 45.3 33.581C46.3262 32.5789 47.7047 32.0198 49.139 32.024H63.982C64.4286 32.024 64.857 31.8466 65.1728 31.5308C65.4886 31.215 65.666 30.7866 65.666 30.34V28.512C65.666 28.0654 65.4886 27.6371 65.1728 27.3212C64.857 27.0054 64.4286 26.828 63.982 26.828V26.846Z" fill="url(#paint0_linear_1367_16187)"/>
<path d="M2.24537 70.403C2.24537 70.31 2.29638 70.268 2.38838 70.268H3.27737C3.32368 70.263 3.37032 70.2736 3.40997 70.298C3.44961 70.3225 3.48001 70.3594 3.49637 70.403L6.28337 76.703L9.01938 70.403C9.03574 70.3594 9.06614 70.3225 9.10578 70.298C9.14543 70.2736 9.19207 70.263 9.23838 70.268H10.1814C10.1998 70.2651 10.2186 70.2666 10.2363 70.2723C10.254 70.2781 10.2701 70.2879 10.2833 70.3011C10.2964 70.3143 10.3063 70.3304 10.312 70.3481C10.3178 70.3658 10.3193 70.3846 10.3164 70.403V79.479C10.3193 79.4974 10.3178 79.5162 10.312 79.5339C10.3063 79.5516 10.2964 79.5677 10.2833 79.5809C10.2701 79.594 10.254 79.6039 10.2363 79.6097C10.2186 79.6154 10.1998 79.6169 10.1814 79.614H9.34238C9.24938 79.614 9.19937 79.614 9.19937 79.479V72.979H9.15737L6.83437 78.115C6.81777 78.1659 6.78488 78.2099 6.74079 78.2403C6.6967 78.2706 6.64384 78.2856 6.59037 78.283H6.01737C5.96139 78.288 5.90534 78.2741 5.85808 78.2437C5.81082 78.2133 5.77504 78.168 5.75637 78.115L3.43237 72.98H3.36538V79.48C3.36538 79.573 3.31437 79.615 3.22237 79.615H2.37737C2.28437 79.615 2.23438 79.615 2.23438 79.48L2.24537 70.403Z" fill="black"/>
<path d="M15.0516 70.404C15.0576 70.366 15.077 70.3315 15.1064 70.3067C15.1358 70.2819 15.1731 70.2685 15.2116 70.269H16.1116C16.152 70.2678 16.1917 70.2806 16.2239 70.3052C16.2561 70.3298 16.279 70.3646 16.2886 70.404L19.4886 79.479C19.4886 79.572 19.4886 79.614 19.3956 79.614H18.4356C18.3937 79.6171 18.3522 79.6052 18.3183 79.5804C18.2844 79.5557 18.2604 79.5198 18.2506 79.479L17.5346 77.479H13.7546L13.0386 79.516C13.029 79.5554 13.0061 79.5902 12.9739 79.6148C12.9417 79.6394 12.902 79.6521 12.8616 79.651H11.9016C11.8086 79.651 11.7756 79.651 11.8016 79.516L15.0516 70.404ZM17.1396 76.297L15.6666 72.088L14.1836 76.297H17.1396Z" fill="black"/>
<path d="M20.9819 70.403C20.979 70.3846 20.9805 70.3658 20.9862 70.3481C20.992 70.3304 21.0019 70.3143 21.015 70.3011C21.0282 70.2879 21.0443 70.2781 21.062 70.2723C21.0797 70.2666 21.0985 70.2651 21.1169 70.268H22.0679C22.0863 70.2651 22.1051 70.2666 22.1228 70.2723C22.1405 70.2781 22.1566 70.2879 22.1698 70.3011C22.183 70.3143 22.1928 70.3304 22.1986 70.3481C22.2043 70.3658 22.2058 70.3846 22.2029 70.403V79.479C22.2058 79.4974 22.2043 79.5162 22.1986 79.5339C22.1928 79.5516 22.183 79.5677 22.1698 79.5809C22.1566 79.594 22.1405 79.6039 22.1228 79.6097C22.1051 79.6154 22.0863 79.6169 22.0679 79.614H21.1169C21.0985 79.6169 21.0797 79.6154 21.062 79.6097C21.0443 79.6039 21.0282 79.594 21.015 79.5809C21.0019 79.5677 20.992 79.5516 20.9862 79.5339C20.9805 79.5162 20.979 79.4974 20.9819 79.479V70.403Z" fill="black"/>
<path d="M24.5053 70.403C24.5053 70.31 24.5563 70.268 24.6483 70.268H25.4903C25.5387 70.2634 25.5874 70.2739 25.6297 70.2981C25.6719 70.3223 25.7057 70.3589 25.7263 70.403L29.9353 77.416H29.9983V70.403C29.9954 70.3846 29.9969 70.3658 30.0026 70.3481C30.0084 70.3304 30.0182 70.3143 30.0314 70.3011C30.0446 70.2879 30.0607 70.2781 30.0784 70.2723C30.0961 70.2666 30.1149 70.2651 30.1333 70.268H30.9753C30.9937 70.2651 31.0125 70.2666 31.0302 70.2723C31.0479 70.2781 31.064 70.2879 31.0772 70.3011C31.0903 70.3143 31.1002 70.3304 31.106 70.3481C31.1117 70.3658 31.1132 70.3846 31.1103 70.403V79.479C31.1132 79.4974 31.1117 79.5162 31.106 79.5339C31.1002 79.5516 31.0903 79.5677 31.0772 79.5809C31.064 79.594 31.0479 79.6039 31.0302 79.6097C31.0125 79.6154 30.9937 79.6169 30.9753 79.614H30.1333C30.0861 79.618 30.0388 79.6071 29.9981 79.5829C29.9574 79.5587 29.9253 79.5224 29.9063 79.479L25.6553 72.492H25.6083V79.479C25.6112 79.4974 25.6097 79.5162 25.604 79.5339C25.5982 79.5516 25.5883 79.5677 25.5752 79.5809C25.562 79.594 25.5459 79.6039 25.5282 79.6097C25.5105 79.6154 25.4917 79.6169 25.4733 79.614H24.6313C24.5383 79.614 24.4883 79.614 24.4883 79.479L24.5053 70.403Z" fill="black"/>
<path d="M35.5614 79.614C35.543 79.6169 35.5242 79.6154 35.5065 79.6097C35.4888 79.6039 35.4727 79.594 35.4595 79.5809C35.4463 79.5677 35.4365 79.5516 35.4307 79.5339C35.425 79.5162 35.4235 79.4974 35.4264 79.479V71.49C35.4277 71.4787 35.4264 71.4672 35.4226 71.4564C35.4188 71.4456 35.4127 71.4359 35.4046 71.4278C35.3965 71.4197 35.3868 71.4136 35.376 71.4098C35.3652 71.406 35.3537 71.4047 35.3424 71.406H32.8344C32.7414 71.406 32.6914 71.406 32.6914 71.271V70.429C32.6914 70.336 32.7424 70.294 32.8344 70.294H39.3344C39.3528 70.2911 39.3716 70.2926 39.3893 70.2983C39.407 70.3041 39.4231 70.3139 39.4363 70.3271C39.4495 70.3403 39.4593 70.3564 39.4651 70.3741C39.4708 70.3918 39.4723 70.4106 39.4694 70.429V71.271C39.4723 71.2894 39.4708 71.3082 39.4651 71.3259C39.4593 71.3436 39.4495 71.3597 39.4363 71.3729C39.4231 71.386 39.407 71.3959 39.3893 71.4017C39.3716 71.4074 39.3528 71.4089 39.3344 71.406H36.8084C36.7574 71.406 36.7324 71.406 36.7324 71.49V79.479C36.7324 79.572 36.6814 79.614 36.5894 79.614H35.5614Z" fill="black"/>
<path d="M40.8893 70.403C40.8864 70.3846 40.8878 70.3658 40.8936 70.3481C40.8993 70.3304 40.9092 70.3143 40.9224 70.3011C40.9355 70.2879 40.9516 70.2781 40.9693 70.2723C40.9871 70.2666 41.0059 70.2651 41.0243 70.268H46.6483C46.6667 70.2651 46.6855 70.2666 46.7032 70.2723C46.7209 70.2781 46.737 70.2879 46.7502 70.3011C46.7633 70.3143 46.7732 70.3304 46.7789 70.3481C46.7847 70.3658 46.7862 70.3846 46.7833 70.403V71.245C46.7862 71.2634 46.7847 71.2822 46.7789 71.2999C46.7732 71.3176 46.7633 71.3337 46.7502 71.3469C46.737 71.36 46.7209 71.3699 46.7032 71.3757C46.6855 71.3814 46.6667 71.3829 46.6483 71.38H42.1943C42.1829 71.3787 42.1714 71.38 42.1607 71.3838C42.1499 71.3876 42.1401 71.3937 42.1321 71.4018C42.124 71.4098 42.1178 71.4196 42.1141 71.4304C42.1103 71.4412 42.109 71.4527 42.1103 71.464V74.217C42.109 74.2283 42.1103 74.2398 42.1141 74.2506C42.1178 74.2614 42.124 74.2711 42.1321 74.2792C42.1401 74.2873 42.1499 74.2934 42.1607 74.2972C42.1714 74.301 42.1829 74.3023 42.1943 74.301H45.9743C45.9927 74.2981 46.0115 74.2996 46.0292 74.3053C46.0469 74.3111 46.063 74.3209 46.0762 74.3341C46.0893 74.3473 46.0992 74.3634 46.1049 74.3811C46.1107 74.3988 46.1122 74.4176 46.1093 74.436V75.278C46.1122 75.2964 46.1107 75.3152 46.1049 75.3329C46.0992 75.3506 46.0893 75.3667 46.0762 75.3799C46.063 75.3931 46.0469 75.4029 46.0292 75.4087C46.0115 75.4144 45.9927 75.4159 45.9743 75.413H42.1943C42.1353 75.413 42.1103 75.413 42.1103 75.497V78.339C42.1103 78.398 42.1103 78.423 42.1943 78.423H46.6473C46.6657 78.4201 46.6845 78.4216 46.7022 78.4273C46.7199 78.4331 46.736 78.4429 46.7492 78.4561C46.7623 78.4693 46.7722 78.4854 46.7779 78.5031C46.7837 78.5208 46.7852 78.5396 46.7823 78.558V79.4C46.7852 79.4184 46.7837 79.4372 46.7779 79.4549C46.7722 79.4726 46.7623 79.4887 46.7492 79.5019C46.736 79.515 46.7199 79.5249 46.7022 79.5307C46.6845 79.5364 46.6657 79.5379 46.6473 79.535H41.0193C41.0009 79.5379 40.9821 79.5364 40.9643 79.5307C40.9466 79.5249 40.9305 79.515 40.9174 79.5019C40.9042 79.4887 40.8943 79.4726 40.8886 79.4549C40.8828 79.4372 40.8814 79.4184 40.8843 79.4L40.8893 70.403Z" fill="black"/>
<path d="M48.6265 70.403C48.6235 70.3846 48.625 70.3658 48.6308 70.3481C48.6365 70.3304 48.6464 70.3143 48.6596 70.3011C48.6727 70.2879 48.6888 70.2781 48.7065 70.2723C48.7242 70.2666 48.7431 70.2651 48.7615 70.268H49.6035C49.6517 70.2645 49.7 70.2755 49.742 70.2996C49.784 70.3236 49.8179 70.3596 49.8395 70.403L54.0485 77.416H54.0995V70.403C54.0995 70.31 54.1505 70.268 54.2425 70.268H55.0845C55.1775 70.268 55.2275 70.268 55.2275 70.403V79.479C55.2275 79.572 55.1765 79.614 55.0845 79.614H54.2425C54.1942 79.6174 54.1459 79.6064 54.1039 79.5824C54.0619 79.5584 54.028 79.5224 54.0065 79.479L49.7965 72.491V79.479C49.7965 79.572 49.7455 79.614 49.6535 79.614H48.8115C48.7931 79.6169 48.7742 79.6154 48.7565 79.6097C48.7388 79.6039 48.7227 79.594 48.7096 79.5809C48.6964 79.5677 48.6865 79.5516 48.6808 79.5339C48.675 79.5162 48.6735 79.4974 48.6765 79.479L48.6265 70.403Z" fill="black"/>
<path d="M60.0426 70.404C60.0469 70.3653 60.0659 70.3297 60.0957 70.3046C60.1255 70.2794 60.1638 70.2667 60.2026 70.269H61.0946C61.1365 70.2659 61.178 70.2778 61.2119 70.3025C61.2458 70.3273 61.2698 70.3632 61.2796 70.404L64.4796 79.479C64.4796 79.572 64.4796 79.614 64.3866 79.614H63.4186C63.3778 79.617 63.3372 79.6049 63.3046 79.58C63.272 79.5552 63.2496 79.5192 63.2416 79.479L62.5256 77.479H58.7456L58.0346 79.521C58.025 79.5604 58.0022 79.5952 57.97 79.6198C57.9378 79.6444 57.8981 79.6572 57.8576 79.656H56.8977C56.8047 79.656 56.7716 79.656 56.7976 79.521L60.0426 70.404ZM62.1346 76.297L60.6617 72.088L59.1716 76.297H62.1346Z" fill="black"/>
<path d="M65.9702 70.403C65.9673 70.3846 65.9688 70.3658 65.9745 70.3481C65.9803 70.3304 65.9901 70.3143 66.0033 70.3011C66.0165 70.2879 66.0326 70.2781 66.0503 70.2723C66.068 70.2666 66.0868 70.2651 66.1052 70.268H66.9472C66.9957 70.2634 67.0443 70.2739 67.0866 70.2981C67.1288 70.3223 67.1626 70.3589 67.1832 70.403L71.3922 77.416H71.4512V70.403C71.4483 70.3846 71.4498 70.3658 71.4555 70.3481C71.4613 70.3304 71.4711 70.3143 71.4843 70.3011C71.4975 70.2879 71.5136 70.2781 71.5313 70.2723C71.549 70.2666 71.5678 70.2651 71.5862 70.268H72.4282C72.4466 70.2651 72.4654 70.2666 72.4831 70.2723C72.5008 70.2781 72.5169 70.2879 72.5301 70.3011C72.5433 70.3143 72.5531 70.3304 72.5589 70.3481C72.5646 70.3658 72.5661 70.3846 72.5632 70.403V79.479C72.5661 79.4974 72.5646 79.5162 72.5589 79.5339C72.5531 79.5516 72.5433 79.5677 72.5301 79.5809C72.5169 79.594 72.5008 79.6039 72.4831 79.6097C72.4654 79.6154 72.4466 79.6169 72.4282 79.614H71.5862C71.539 79.618 71.4917 79.6071 71.451 79.5829C71.4103 79.5587 71.3782 79.5224 71.3592 79.479L67.1502 72.492H67.1102V79.479C67.1131 79.4974 67.1116 79.5162 67.1059 79.5339C67.1001 79.5516 67.0903 79.5677 67.0771 79.5809C67.0639 79.594 67.0478 79.6039 67.0301 79.6097C67.0124 79.6154 66.9936 79.6169 66.9752 79.614H66.1302C66.1118 79.6169 66.093 79.6154 66.0753 79.6097C66.0576 79.6039 66.0415 79.594 66.0283 79.5809C66.0151 79.5677 66.0053 79.5516 65.9995 79.5339C65.9938 79.5162 65.9923 79.4974 65.9952 79.479L65.9702 70.403Z" fill="black"/>
<path d="M74.8737 77.573C74.8255 77.4353 74.7861 77.2947 74.7557 77.152C74.7184 76.9857 74.693 76.8169 74.6797 76.647V73.247C74.693 73.0771 74.7184 72.9083 74.7557 72.742C74.7872 72.5996 74.8266 72.459 74.8737 72.321C75.053 71.6438 75.4602 71.0491 76.0267 70.637C76.6069 70.2611 77.2888 70.0729 77.9797 70.098C78.6202 70.0807 79.2519 70.2503 79.7977 70.586C80.3241 70.9216 80.7355 71.4101 80.9767 71.986C80.9915 72.0174 80.9937 72.0534 80.9827 72.0863C80.9717 72.1193 80.9484 72.1468 80.9177 72.163L80.0757 72.563C80.06 72.5746 80.0418 72.5822 80.0225 72.585C80.0032 72.5878 79.9835 72.5858 79.9652 72.5792C79.9469 72.5726 79.9305 72.5615 79.9175 72.547C79.9045 72.5325 79.8953 72.5149 79.8907 72.496C79.7195 72.1503 79.4752 71.8459 79.1747 71.604C78.8266 71.3529 78.4033 71.228 77.9747 71.25C77.5334 71.2306 77.0981 71.3579 76.7367 71.612C76.4051 71.8725 76.1608 72.228 76.0367 72.631C76.0025 72.7354 75.9771 72.8424 75.9607 72.951C75.9335 73.0929 75.9138 73.2361 75.9017 73.38V76.503C75.9138 76.6469 75.9335 76.7901 75.9607 76.932C75.9751 77.041 76.0006 77.1482 76.0367 77.252C76.1629 77.6515 76.4069 78.0036 76.7367 78.262C77.0964 78.5194 77.5329 78.647 77.9747 78.624C78.4033 78.646 78.8266 78.5211 79.1747 78.27C79.4839 78.0296 79.7343 77.7218 79.9067 77.37C79.9067 77.277 80.0067 77.261 80.0917 77.303L80.9337 77.703C80.965 77.7208 80.9885 77.7497 80.9994 77.784C81.0103 77.8182 81.0079 77.8554 80.9927 77.888C80.7532 78.462 80.3412 78.9474 79.8137 79.277C79.2679 79.6127 78.6362 79.7823 77.9957 79.765C77.3048 79.7901 76.6229 79.6019 76.0427 79.226C75.4761 78.8243 75.0636 78.2411 74.8737 77.573Z" fill="black"/>
<path d="M82.7407 70.403C82.7378 70.3846 82.7393 70.3658 82.7451 70.3481C82.7508 70.3304 82.7607 70.3143 82.7738 70.3011C82.787 70.2879 82.8031 70.2781 82.8208 70.2723C82.8385 70.2666 82.8573 70.2651 82.8757 70.268H88.4997C88.5927 70.268 88.6427 70.268 88.6427 70.403V71.245C88.6427 71.338 88.5917 71.38 88.4997 71.38H84.0457C84.0344 71.3787 84.0229 71.38 84.0121 71.3838C84.0014 71.3876 83.9916 71.3937 83.9835 71.4018C83.9755 71.4098 83.9693 71.4196 83.9655 71.4304C83.9618 71.4412 83.9605 71.4527 83.9617 71.464V74.217C83.9605 74.2283 83.9618 74.2398 83.9655 74.2506C83.9693 74.2614 83.9755 74.2711 83.9835 74.2792C83.9916 74.2873 84.0014 74.2934 84.0121 74.2972C84.0229 74.301 84.0344 74.3023 84.0457 74.301H87.8257C87.9187 74.301 87.9687 74.301 87.9687 74.436V75.278C87.9687 75.371 87.9187 75.413 87.8257 75.413H84.0457C84.0344 75.4117 84.0229 75.413 84.0121 75.4168C84.0014 75.4206 83.9916 75.4267 83.9835 75.4348C83.9755 75.4428 83.9693 75.4526 83.9655 75.4634C83.9618 75.4742 83.9605 75.4856 83.9617 75.497V78.339C83.9605 78.3503 83.9618 78.3618 83.9655 78.3726C83.9693 78.3834 83.9755 78.3931 83.9835 78.4012C83.9916 78.4093 84.0014 78.4154 84.0121 78.4192C84.0229 78.423 84.0344 78.4243 84.0457 78.423H88.4987C88.5917 78.423 88.6417 78.423 88.6417 78.558V79.4C88.6417 79.493 88.5907 79.535 88.4987 79.535H82.8747C82.8563 79.5379 82.8375 79.5364 82.8198 79.5307C82.8021 79.5249 82.786 79.515 82.7728 79.5019C82.7597 79.4887 82.7498 79.4726 82.7441 79.4549C82.7383 79.4372 82.7368 79.4184 82.7397 79.4L82.7407 70.403Z" fill="black"/>
<path d="M93.5898 77.324C93.5896 76.8062 93.742 76.2998 94.0278 75.868C94.4181 75.3051 94.8954 74.8079 95.4418 74.395L94.9028 73.688C94.7741 73.5042 94.656 73.3132 94.5488 73.116C94.464 72.9542 94.3937 72.7852 94.3388 72.611C94.2954 72.4519 94.2728 72.2879 94.2718 72.123C94.273 71.8514 94.3274 71.5827 94.4318 71.332C94.5327 71.089 94.6848 70.8707 94.8778 70.692C95.0748 70.5075 95.3067 70.3644 95.5598 70.271C95.8289 70.1694 96.1143 70.1179 96.4018 70.119C96.6901 70.1183 96.9759 70.1726 97.2438 70.279C97.496 70.3734 97.7256 70.5195 97.9178 70.708C98.1076 70.8879 98.2569 71.106 98.3558 71.348C98.4572 71.5938 98.5089 71.8572 98.5078 72.123C98.5079 72.3266 98.4765 72.529 98.4148 72.723C98.3463 72.9194 98.2528 73.1063 98.1368 73.279C97.98 73.4884 97.8072 73.6854 97.6198 73.868C97.4125 74.068 97.1515 74.2953 96.8368 74.55L98.6198 76.828L99.5708 75.658C99.5806 75.6423 99.5943 75.6293 99.6105 75.6204C99.6266 75.6114 99.6448 75.6067 99.6633 75.6067C99.6819 75.6067 99.7001 75.6114 99.7162 75.6204C99.7324 75.6293 99.7461 75.6423 99.7558 75.658L100.295 76.121C100.311 76.1319 100.323 76.1464 100.332 76.1633C100.341 76.1801 100.346 76.1989 100.346 76.218C100.346 76.2371 100.341 76.2559 100.332 76.2728C100.323 76.2896 100.311 76.3041 100.295 76.315L99.3438 77.654L99.7988 78.243C99.8748 78.338 99.9625 78.423 100.06 78.496C100.146 78.5475 100.245 78.5739 100.346 78.572H100.556C100.649 78.572 100.691 78.623 100.691 78.715V79.481C100.694 79.4994 100.692 79.5182 100.687 79.5359C100.681 79.5536 100.671 79.5697 100.658 79.5829C100.645 79.5961 100.628 79.6059 100.611 79.6117C100.593 79.6174 100.574 79.6189 100.556 79.616H100.186C99.9581 79.6277 99.7307 79.5874 99.5208 79.498C99.3075 79.3657 99.1264 79.1874 98.9908 78.976L98.6118 78.496C98.2654 78.8799 97.8604 79.2066 97.4118 79.464C96.9991 79.6696 96.5429 79.7726 96.0818 79.764C95.7224 79.7723 95.3649 79.7094 95.0298 79.579C94.7393 79.4714 94.4773 79.2986 94.2638 79.074C94.0502 78.853 93.8865 78.5887 93.7838 78.299C93.6614 77.9882 93.5957 77.658 93.5898 77.324ZM94.6758 77.257C94.6524 77.6575 94.7887 78.0509 95.0548 78.351C95.1953 78.4912 95.3642 78.5995 95.5502 78.6685C95.7363 78.7376 95.935 78.7657 96.1328 78.751C96.4507 78.7533 96.7627 78.6656 97.0328 78.498C97.3848 78.269 97.6975 77.9847 97.9588 77.656L96.0648 75.181C95.6602 75.4789 95.3002 75.8332 94.9958 76.233C94.7814 76.5289 94.6691 76.8866 94.6758 77.252V77.257ZM96.2918 73.721C96.5117 73.556 96.7224 73.3791 96.9228 73.191C97.0585 73.0672 97.1799 72.9287 97.2848 72.778C97.358 72.6689 97.4146 72.5496 97.4528 72.424C97.4652 72.315 97.4652 72.205 97.4528 72.096C97.4572 71.9626 97.4331 71.8298 97.3822 71.7063C97.3314 71.5829 97.2549 71.4717 97.1578 71.38C97.0548 71.2826 96.9331 71.2071 96.8001 71.158C96.667 71.1088 96.5255 71.0871 96.3838 71.094C96.2432 71.085 96.1023 71.1059 95.9703 71.1551C95.8383 71.2044 95.7182 71.2811 95.6178 71.38C95.4399 71.5813 95.3464 71.8435 95.3568 72.112C95.3444 72.2099 95.3444 72.3091 95.3568 72.407C95.3949 72.5192 95.4459 72.6266 95.5088 72.727C95.5917 72.871 95.6846 73.009 95.7868 73.14L96.2918 73.721Z" fill="black"/>
<path d="M105.697 77.573C105.651 77.4351 105.615 77.2945 105.588 77.152C105.55 76.9857 105.525 76.8169 105.512 76.647C105.512 76.447 105.512 76.2113 105.512 75.94V73.241C105.525 73.0711 105.55 72.9023 105.588 72.736C105.616 72.5937 105.653 72.4532 105.697 72.315C105.879 71.6368 106.289 71.0422 106.859 70.631C107.426 70.2873 108.075 70.1014 108.738 70.0926C109.401 70.0838 110.055 70.2524 110.631 70.581C111.155 70.9191 111.566 71.4068 111.81 71.981C111.825 72.0124 111.827 72.0484 111.816 72.0813C111.805 72.1143 111.781 72.1418 111.751 72.158L110.909 72.558C110.816 72.609 110.757 72.558 110.715 72.491C110.543 72.1411 110.296 71.8338 109.991 71.591C109.642 71.3409 109.219 71.2161 108.791 71.237C108.349 71.2176 107.914 71.3449 107.553 71.599C107.222 71.8614 106.976 72.2159 106.846 72.618L106.77 72.938C106.775 73.0828 106.758 73.2275 106.719 73.367C106.693 73.5766 106.693 73.7884 106.719 73.998V76.49C106.707 76.635 106.724 76.7808 106.77 76.919C106.804 77.0233 106.83 77.1304 106.846 77.239C106.978 77.6373 107.224 77.9884 107.553 78.249C107.912 78.5064 108.349 78.634 108.791 78.611C109.219 78.6319 109.642 78.5071 109.991 78.257C110.298 78.017 110.546 77.7089 110.715 77.357C110.757 77.264 110.815 77.248 110.909 77.29L111.751 77.69C111.782 77.7078 111.806 77.7367 111.816 77.771C111.827 77.8052 111.825 77.8424 111.81 77.875C111.568 78.4474 111.156 78.932 110.631 79.264C110.055 79.5926 109.401 79.7612 108.738 79.7524C108.075 79.7436 107.426 79.5578 106.859 79.214C106.299 78.8158 105.889 78.2405 105.697 77.581V77.573Z" fill="black"/>
<path d="M116.657 79.768C115.95 79.7927 115.253 79.602 114.657 79.221C114.092 78.826 113.679 78.2498 113.487 77.588C113.439 77.4476 113.399 77.3043 113.369 77.159C113.332 76.9897 113.306 76.8179 113.293 76.645V73.245C113.307 73.0722 113.332 72.9005 113.369 72.731C113.399 72.5883 113.439 72.4477 113.487 72.31C113.681 71.6467 114.093 71.0682 114.657 70.668C115.265 70.3097 115.959 70.1207 116.665 70.1207C117.371 70.1207 118.064 70.3097 118.673 70.668C119.241 71.0652 119.657 71.6445 119.852 72.31C119.877 72.454 119.916 72.5951 119.97 72.731C120.007 72.9005 120.032 73.0722 120.046 73.245V76.645C120.033 76.8179 120.007 76.9897 119.97 77.159C119.951 77.3069 119.912 77.4514 119.852 77.588C119.659 78.2519 119.242 78.8288 118.673 79.221C118.073 79.6062 117.369 79.7972 116.657 79.768ZM116.657 78.631C117.112 78.6522 117.561 78.5252 117.937 78.269C118.281 78.0136 118.532 77.6531 118.653 77.242C118.671 77.1367 118.697 77.0328 118.729 76.931C118.754 76.805 118.771 76.653 118.796 76.468C118.824 76.2557 118.841 76.0421 118.847 75.828C118.847 75.575 118.847 75.281 118.847 74.986V74.144C118.841 73.9273 118.825 73.711 118.797 73.496C118.791 73.3397 118.769 73.1845 118.73 73.033C118.705 72.907 118.679 72.806 118.654 72.722C118.533 72.3109 118.282 71.9504 117.938 71.695C117.56 71.4424 117.112 71.3157 116.658 71.333C116.207 71.3152 115.761 71.4421 115.387 71.695C115.045 71.9509 114.797 72.3116 114.68 72.722C114.662 72.8273 114.636 72.9312 114.604 73.033C114.598 73.1893 114.576 73.3445 114.537 73.496C114.509 73.711 114.492 73.9273 114.486 74.144C114.486 74.388 114.486 74.683 114.486 74.986V75.828C114.492 76.0421 114.508 76.2557 114.536 76.468C114.521 76.6255 114.544 76.7843 114.603 76.931C114.643 77.0304 114.669 77.1352 114.679 77.242C114.796 77.6524 115.044 78.0131 115.386 78.269C115.759 78.5245 116.205 78.651 116.657 78.629V78.631Z" fill="black"/>
<path d="M122.072 70.403C122.069 70.3846 122.071 70.3658 122.076 70.3481C122.082 70.3304 122.092 70.3143 122.105 70.3011C122.118 70.2879 122.135 70.2781 122.152 70.2723C122.17 70.2666 122.189 70.2651 122.207 70.268H123.049C123.098 70.262 123.147 70.2719 123.19 70.2963C123.232 70.3206 123.266 70.358 123.285 70.403L127.494 77.416H127.553V70.403C127.55 70.3846 127.552 70.3658 127.557 70.3481C127.563 70.3304 127.573 70.3143 127.586 70.3011C127.599 70.2879 127.616 70.2781 127.633 70.2723C127.651 70.2666 127.67 70.2651 127.688 70.268H128.53C128.549 70.2651 128.567 70.2666 128.585 70.2723C128.603 70.2781 128.619 70.2879 128.632 70.3011C128.645 70.3143 128.655 70.3304 128.661 70.3481C128.667 70.3658 128.668 70.3846 128.665 70.403V79.479C128.668 79.4974 128.667 79.5162 128.661 79.5339C128.655 79.5516 128.645 79.5677 128.632 79.5809C128.619 79.5941 128.603 79.6039 128.585 79.6097C128.567 79.6154 128.549 79.6169 128.53 79.614H127.646C127.599 79.618 127.552 79.6071 127.511 79.5829C127.47 79.5587 127.438 79.5224 127.419 79.479L123.168 72.491V79.479C123.171 79.4974 123.17 79.5162 123.164 79.5339C123.158 79.5516 123.148 79.5677 123.135 79.5809C123.122 79.5941 123.106 79.6039 123.088 79.6097C123.07 79.6154 123.052 79.6169 123.033 79.614H122.191C122.173 79.6169 122.154 79.6154 122.136 79.6097C122.119 79.6039 122.102 79.5941 122.089 79.5809C122.076 79.5677 122.066 79.5516 122.06 79.5339C122.055 79.5162 122.053 79.4974 122.056 79.479L122.072 70.403Z" fill="black"/>
<path d="M133.134 79.613C133.041 79.613 132.991 79.613 132.991 79.478V71.489C132.991 71.438 132.991 71.405 132.915 71.405H130.389C130.296 71.405 130.246 71.405 130.246 71.27V70.428C130.246 70.335 130.297 70.293 130.389 70.293H136.889C136.982 70.293 137.032 70.293 137.032 70.428V71.27C137.032 71.363 136.981 71.405 136.889 71.405H134.363C134.352 71.4037 134.34 71.405 134.329 71.4088C134.319 71.4126 134.309 71.4187 134.301 71.4268C134.293 71.4349 134.287 71.4446 134.283 71.4554C134.279 71.4662 134.278 71.4777 134.279 71.489V79.478C134.279 79.571 134.228 79.613 134.136 79.613H133.134Z" fill="black"/>
<path d="M143.865 79.613C143.824 79.6141 143.785 79.6014 143.752 79.5768C143.72 79.5522 143.697 79.5174 143.688 79.478L141.819 75.656H139.748C139.689 75.656 139.664 75.656 139.664 75.74V79.479C139.667 79.4974 139.665 79.5162 139.66 79.5339C139.654 79.5516 139.644 79.5677 139.631 79.5809C139.618 79.594 139.601 79.6039 139.584 79.6097C139.566 79.6154 139.547 79.6169 139.529 79.614H138.578C138.559 79.6169 138.541 79.6154 138.523 79.6097C138.505 79.6039 138.489 79.594 138.476 79.5809C138.463 79.5677 138.453 79.5516 138.447 79.5339C138.441 79.5162 138.44 79.4974 138.443 79.479V70.403C138.44 70.3846 138.441 70.3658 138.447 70.3481C138.453 70.3304 138.463 70.3143 138.476 70.3011C138.489 70.2879 138.505 70.2781 138.523 70.2723C138.541 70.2666 138.559 70.2651 138.578 70.268H141.945C142.353 70.2593 142.76 70.3251 143.145 70.462C143.485 70.5769 143.797 70.7604 144.063 71.001C144.323 71.2332 144.528 71.5209 144.663 71.843C144.81 72.1946 144.885 72.5726 144.882 72.954C144.897 73.5305 144.722 74.096 144.382 74.562C144.041 75.0061 143.57 75.3327 143.035 75.496L145.035 79.444C145.047 79.4611 145.054 79.4818 145.054 79.503C145.054 79.5242 145.047 79.5449 145.035 79.562H144.942L143.865 79.613ZM141.946 74.562C142.406 74.589 142.86 74.4415 143.217 74.149C143.506 73.8376 143.666 73.4286 143.666 73.004C143.666 72.5793 143.506 72.1704 143.217 71.859C142.862 71.5627 142.407 71.4147 141.946 71.446H139.746C139.735 71.4447 139.723 71.446 139.712 71.4498C139.701 71.4536 139.692 71.4597 139.684 71.4678C139.676 71.4758 139.669 71.4856 139.666 71.4964C139.662 71.5072 139.661 71.5187 139.662 71.53V74.477C139.661 74.4883 139.662 74.4998 139.666 74.5106C139.669 74.5214 139.676 74.5311 139.684 74.5392C139.692 74.5473 139.701 74.5534 139.712 74.5572C139.723 74.561 139.735 74.5623 139.746 74.561L141.946 74.562Z" fill="black"/>
<path d="M149.355 70.404C149.361 70.3646 149.381 70.3289 149.412 70.304C149.444 70.279 149.483 70.2665 149.523 70.269H150.415C150.455 70.266 150.496 70.2781 150.529 70.303C150.561 70.3278 150.584 70.3638 150.592 70.404L153.792 79.479C153.792 79.572 153.792 79.614 153.699 79.614H152.739C152.697 79.6171 152.655 79.6052 152.621 79.5805C152.587 79.5557 152.563 79.5198 152.554 79.479L151.847 77.479H148.06L147.328 79.479C147.318 79.5184 147.295 79.5532 147.263 79.5778C147.231 79.6024 147.191 79.6152 147.151 79.614H146.191C146.098 79.614 146.065 79.614 146.091 79.479L149.355 70.404ZM151.443 76.297L149.97 72.088L148.488 76.297H151.443Z" fill="black"/>
<path d="M154.903 77.572C154.861 77.437 154.819 77.294 154.785 77.151C154.751 77.008 154.735 76.84 154.709 76.646C154.696 76.4105 154.696 76.1745 154.709 75.939V73.241C154.717 73.0706 154.743 72.9014 154.785 72.736C154.816 72.5936 154.856 72.453 154.903 72.315C155.085 71.6368 155.495 71.0422 156.065 70.631C156.632 70.2871 157.281 70.101 157.944 70.0921C158.607 70.0831 159.261 70.2516 159.837 70.58C160.361 70.9181 160.772 71.4058 161.016 71.98C161.031 72.0114 161.033 72.0474 161.022 72.0803C161.011 72.1133 160.987 72.1408 160.957 72.157L160.115 72.557C160.098 72.5676 160.079 72.5743 160.06 72.5766C160.04 72.579 160.02 72.5768 160.002 72.5704C159.983 72.5639 159.966 72.5533 159.952 72.5394C159.938 72.5255 159.927 72.5086 159.921 72.49C159.746 72.1419 159.499 71.8351 159.197 71.59C158.848 71.3407 158.425 71.216 157.997 71.236C157.555 71.2166 157.12 71.3439 156.759 71.598C156.429 71.8607 156.186 72.2154 156.059 72.617L155.983 72.937C155.954 73.0784 155.937 73.2219 155.932 73.366V76.482C155.937 76.6261 155.954 76.7696 155.983 76.911C155.993 77.0207 156.019 77.1284 156.059 77.231C156.188 77.6289 156.432 77.9801 156.759 78.241C157.119 78.4984 157.555 78.626 157.997 78.603C158.425 78.623 158.848 78.4983 159.197 78.249C159.501 78.0058 159.748 77.6986 159.921 77.349C159.921 77.256 160.021 77.24 160.115 77.282L160.957 77.682C160.988 77.6998 161.012 77.7287 161.022 77.763C161.033 77.7973 161.031 77.8344 161.016 77.867C160.774 78.4394 160.362 78.924 159.837 79.256C159.261 79.5846 158.607 79.7532 157.944 79.7444C157.281 79.7356 156.632 79.5498 156.065 79.206C155.505 78.8075 155.095 78.2319 154.903 77.572Z" fill="black"/>
<path d="M164.6 79.614C164.582 79.6169 164.563 79.6154 164.545 79.6097C164.528 79.6039 164.511 79.594 164.498 79.5809C164.485 79.5677 164.475 79.5516 164.47 79.5339C164.464 79.5162 164.462 79.4974 164.465 79.479V71.49C164.466 71.4787 164.465 71.4672 164.461 71.4564C164.458 71.4456 164.451 71.4359 164.443 71.4278C164.435 71.4197 164.426 71.4136 164.415 71.4098C164.404 71.406 164.393 71.4047 164.381 71.406H161.855C161.837 71.4089 161.818 71.4074 161.8 71.4017C161.783 71.3959 161.766 71.386 161.753 71.3729C161.74 71.3597 161.73 71.3436 161.725 71.3259C161.719 71.3082 161.717 71.2894 161.72 71.271V70.429C161.717 70.4106 161.719 70.3918 161.725 70.3741C161.73 70.3564 161.74 70.3403 161.753 70.3271C161.766 70.3139 161.783 70.3041 161.8 70.2983C161.818 70.2926 161.837 70.2911 161.855 70.294H168.371C168.39 70.2911 168.408 70.2926 168.426 70.2983C168.444 70.3041 168.46 70.3139 168.473 70.3271C168.486 70.3403 168.496 70.3564 168.502 70.3741C168.508 70.3918 168.509 70.4106 168.506 70.429V71.271C168.509 71.2894 168.508 71.3082 168.502 71.3259C168.496 71.3436 168.486 71.3597 168.473 71.3729C168.46 71.386 168.444 71.3959 168.426 71.4017C168.408 71.4074 168.39 71.4089 168.371 71.406H165.845C165.834 71.4047 165.822 71.406 165.812 71.4098C165.801 71.4136 165.791 71.4197 165.783 71.4278C165.775 71.4359 165.769 71.4456 165.765 71.4564C165.761 71.4672 165.76 71.4787 165.761 71.49V79.479C165.764 79.4974 165.763 79.5162 165.757 79.5339C165.751 79.5516 165.741 79.5677 165.728 79.5809C165.715 79.594 165.699 79.6039 165.681 79.6097C165.663 79.6154 165.645 79.6169 165.626 79.614H164.6Z" fill="black"/>
<path d="M169.922 70.404C169.922 70.311 169.973 70.269 170.065 70.269H171.008C171.101 70.269 171.151 70.269 171.151 70.404V79.479C171.151 79.572 171.101 79.614 171.008 79.614H170.057C169.964 79.614 169.914 79.614 169.914 79.479L169.922 70.404Z" fill="black"/>
<path d="M173.423 70.403C173.42 70.3846 173.422 70.3658 173.428 70.3481C173.433 70.3304 173.443 70.3143 173.456 70.3011C173.47 70.2879 173.486 70.2781 173.503 70.2723C173.521 70.2666 173.54 70.2651 173.558 70.268H174.442C174.491 70.2645 174.539 70.2755 174.581 70.2996C174.623 70.3236 174.657 70.3596 174.678 70.403L178.887 77.416H178.938V70.403C178.935 70.3846 178.937 70.3658 178.943 70.3481C178.948 70.3304 178.958 70.3143 178.971 70.3011C178.985 70.2879 179.001 70.2781 179.018 70.2723C179.036 70.2666 179.055 70.2651 179.073 70.268H179.915C180.008 70.268 180.058 70.268 180.058 70.403V79.479C180.058 79.572 180.008 79.614 179.915 79.614H179.073C179.025 79.6186 178.976 79.6081 178.934 79.5839C178.892 79.5597 178.858 79.5231 178.837 79.479L174.586 72.492H174.544V79.479C174.547 79.4974 174.546 79.5162 174.54 79.5339C174.534 79.5516 174.524 79.5677 174.511 79.5809C174.498 79.594 174.482 79.6039 174.464 79.6097C174.447 79.6154 174.428 79.6169 174.409 79.614H173.567C173.549 79.6169 173.53 79.6154 173.512 79.6097C173.495 79.6039 173.479 79.594 173.465 79.5809C173.452 79.5677 173.442 79.5516 173.437 79.5339C173.431 79.5162 173.429 79.4974 173.432 79.479L173.423 70.403Z" fill="black"/>
<path d="M182.364 77.585C182.319 77.4444 182.283 77.3011 182.255 77.156C182.239 76.9835 182.213 76.8119 182.179 76.642C182.154 76.448 182.179 76.204 182.128 75.935C182.103 75.6045 182.103 75.2725 182.128 74.942V73.957C182.118 73.7172 182.135 73.4769 182.179 73.241C182.214 73.0711 182.239 72.8995 182.255 72.727C182.283 72.5845 182.319 72.4439 182.364 72.306C182.555 71.6432 182.965 71.0645 183.526 70.664C184.131 70.2847 184.834 70.0943 185.547 70.117C185.923 70.1135 186.296 70.1616 186.658 70.26C187.099 70.3766 187.507 70.5907 187.853 70.8865C188.199 71.1824 188.475 71.5523 188.658 71.969C188.658 72.053 188.658 72.121 188.616 72.163L187.774 72.563C187.69 72.563 187.631 72.563 187.58 72.487C187.386 72.1077 187.096 71.7858 186.738 71.553C186.348 71.3443 185.91 71.24 185.468 71.2503C185.025 71.2607 184.593 71.3853 184.212 71.612C183.868 71.8674 183.617 72.2279 183.496 72.639C183.46 72.7366 183.432 72.8369 183.412 72.939C183.381 73.0858 183.361 73.235 183.353 73.385C183.358 73.5991 183.344 73.8133 183.311 74.025C183.29 74.3276 183.29 74.6314 183.311 74.934V75.852C183.302 76.0662 183.316 76.2809 183.353 76.492C183.361 76.6393 183.381 76.7858 183.412 76.93C183.432 77.0321 183.46 77.1324 183.496 77.23C183.617 77.6411 183.868 78.0016 184.212 78.257C184.596 78.5126 185.052 78.6394 185.512 78.619C185.952 78.627 186.385 78.5072 186.758 78.274C187.123 78.0424 187.392 77.6875 187.516 77.274C187.574 77.0814 187.616 76.8844 187.642 76.685C187.677 76.4057 187.694 76.1245 187.693 75.843C187.693 75.784 187.693 75.759 187.617 75.759H185.799C185.781 75.7619 185.762 75.7604 185.745 75.7547C185.727 75.7489 185.711 75.7391 185.698 75.7259C185.684 75.7127 185.675 75.6966 185.669 75.6789C185.663 75.6612 185.662 75.6424 185.664 75.624V74.782C185.662 74.7636 185.663 74.7448 185.669 74.7271C185.675 74.7094 185.684 74.6933 185.698 74.6801C185.711 74.667 185.727 74.6571 185.745 74.6513C185.762 74.6456 185.781 74.6441 185.799 74.647H188.779C188.872 74.647 188.922 74.647 188.922 74.782V75.482C188.923 75.876 188.901 76.2696 188.855 76.661C188.83 76.9469 188.773 77.2291 188.687 77.503C188.499 78.183 188.083 78.7777 187.508 79.187C186.916 79.576 186.217 79.7729 185.508 79.751C184.795 79.7777 184.091 79.587 183.488 79.204C182.942 78.806 182.546 78.2357 182.364 77.585Z" fill="black"/>
<path d="M135.364 60.872C130.145 60.872 126.445 59.668 124.264 57.26C122.084 54.852 120.996 51.084 121.002 45.956V26.366C121.002 26.0088 120.86 25.6661 120.608 25.4135C120.355 25.1609 120.012 25.019 119.655 25.019H118.114C117.934 25.019 117.756 24.9835 117.589 24.9146C117.423 24.8456 117.271 24.7446 117.144 24.6171C117.017 24.4897 116.916 24.3385 116.847 24.172C116.778 24.0056 116.742 23.8272 116.742 23.647V16.872C116.741 16.6911 116.776 16.5117 116.844 16.3442C116.912 16.1767 117.013 16.0244 117.141 15.896C117.268 15.7677 117.42 15.6658 117.587 15.5963C117.754 15.5268 117.933 15.491 118.114 15.491H119.655C120.012 15.491 120.355 15.3491 120.608 15.0965C120.86 14.8439 121.002 14.5012 121.002 14.144V5.53C121.002 5.05869 121.095 4.59203 121.276 4.15682C121.457 3.7216 121.722 3.32641 122.056 2.99394C122.39 2.66147 122.787 2.39827 123.223 2.21946C123.659 2.04065 124.126 1.94976 124.597 1.952H130.389C131.341 1.95331 132.253 2.33126 132.927 3.00322C133.6 3.67519 133.981 4.58651 133.984 5.538V14.024C133.984 14.408 134.137 14.7763 134.408 15.0479C134.68 15.3194 135.048 15.472 135.432 15.472H138.707C139.377 15.472 140.02 15.7381 140.493 16.2118C140.967 16.6856 141.233 17.3281 141.233 17.998V22.536C141.233 23.2059 140.967 23.8484 140.493 24.3222C140.02 24.7959 139.377 25.062 138.707 25.062H135.432C135.048 25.062 134.68 25.2146 134.408 25.4861C134.137 25.7577 133.984 26.126 133.984 26.51V45.493C133.85 46.7293 134.18 47.9714 134.91 48.978C135.345 49.3424 135.848 49.6153 136.391 49.7803C136.933 49.9452 137.503 49.9989 138.067 49.938H138.909C139.513 49.9488 140.089 50.1935 140.517 50.6207C140.944 51.0478 141.188 51.624 141.199 52.228V58.528C141.204 58.8328 141.148 59.1354 141.035 59.4186C140.922 59.7018 140.755 59.9599 140.542 60.1781C140.329 60.3964 140.076 60.5705 139.795 60.6904C139.515 60.8103 139.214 60.8737 138.909 60.877L135.364 60.872Z" fill="black"/>
<path d="M178.574 60.318C176.453 60.318 176.158 58.062 176.335 56.429C152.695 77.063 133.652 32.352 167.622 33.168C169.306 32.705 176.883 34.675 176.142 30.945C175.948 21.445 163.32 25.288 157.251 27.089C156.829 27.213 156.377 27.1906 155.969 27.0256C155.561 26.8606 155.221 26.5627 155.003 26.18L152.318 21.466C152.098 21.0892 152.011 20.6487 152.072 20.2163C152.133 19.7839 152.339 19.3848 152.655 19.084C162.32 10.236 190.766 12.517 188.468 30.668V58.068C188.661 61.901 180.554 59.805 178.574 60.318ZM167.682 51.605C173.238 51.605 176.016 49.5383 176.016 45.405V43.717C176.016 43.1945 175.809 42.6934 175.439 42.324C175.07 41.9546 174.569 41.747 174.046 41.747H169.163C163.848 41.747 161.191 43.4307 161.191 46.798C161.191 50.0027 163.355 51.605 167.682 51.605Z" fill="black"/>
<path d="M90.079 61.859C84.27 61.707 76.205 60.359 72.029 56.808C71.6401 56.4826 71.3206 56.0825 71.0892 55.6314C70.8579 55.1802 70.7194 54.6872 70.6821 54.1816C70.6448 53.676 70.7094 53.168 70.8721 52.6878C71.0347 52.2076 71.2921 51.7649 71.6289 51.386L73.9099 48.86C74.439 48.25 75.1499 47.8259 75.9379 47.65C76.726 47.4741 77.5497 47.5558 78.288 47.883C83.095 49.983 89.182 53.212 94.288 51.368C95.4369 50.8908 96.4328 50.1074 97.167 49.103C100.349 44.178 90.525 43.21 86.273 43.05C72.711 43.294 66.5059 27.156 76.4229 18.821C82.4759 13.77 98.6059 13.475 105.695 18.921C106.098 19.2303 106.435 19.6172 106.686 20.0589C106.937 20.5005 107.097 20.988 107.157 21.4925C107.216 21.997 107.174 22.5084 107.033 22.9964C106.892 23.4844 106.655 23.9392 106.335 24.334L104.542 26.548C103.962 27.2576 103.145 27.7337 102.241 27.8884C101.338 28.0431 100.409 27.8661 99.626 27.39C98.764 26.7982 97.8154 26.3437 96.8139 26.043C96.498 25.9733 96.1882 25.8776 95.888 25.757C87.023 22.019 77.8299 29.806 88.7409 32.046C89.6399 32.2157 90.5544 32.2891 91.469 32.265C117.305 32.023 115.807 62.684 90.079 61.859Z" fill="black"/>
<defs>
<linearGradient id="paint0_linear_1367_16187" x1="32.833" y1="0.874001" x2="32.833" y2="37.6521" gradientUnits="userSpaceOnUse">
<stop stop-color="#FECC00"/>
<stop offset="1" stop-color="#F8AE00"/>
</linearGradient>
</defs>
</svg>
