<svg width="16" height="22" viewBox="0 0 16 22" fill="none" xmlns="http://www.w3.org/2000/svg">
<path d="M12.9406 8.31399H12.2686V4.95499C12.2686 3.88617 11.844 2.86112 11.0883 2.10535C10.3325 1.34958 9.30743 0.924988 8.23861 0.924988C7.16979 0.924988 6.14474 1.34958 5.38897 2.10535C4.6332 2.86112 4.20861 3.88617 4.20861 4.95499V8.31399H3.53661C2.82439 8.31478 2.14155 8.59799 1.63784 9.10151C1.13413 9.60504 0.850668 10.2878 0.849609 11V18.389C0.850403 19.1014 1.13375 19.7844 1.63749 20.2881C2.14123 20.7918 2.82422 21.0752 3.53661 21.076H12.9366C13.6492 21.0755 14.3324 20.7922 14.8364 20.2885C15.3403 19.7847 15.6238 19.1016 15.6246 18.389V11C15.6236 10.2883 15.3405 9.60601 14.8374 9.10257C14.3344 8.59914 13.6523 8.31557 12.9406 8.31399ZM10.9256 8.31399H5.55161V4.95499C5.55161 4.24235 5.8347 3.5589 6.33861 3.05499C6.84252 2.55108 7.52597 2.26799 8.23861 2.26799C8.95125 2.26799 9.6347 2.55108 10.1386 3.05499C10.6425 3.5589 10.9256 4.24235 10.9256 4.95499V8.31399Z" fill="white"/>
</svg>
