<svg width="20" height="16" viewBox="0 0 20 16" fill="none" xmlns="http://www.w3.org/2000/svg">
<path d="M17.481 0.151002H2.49805C1.83501 0.151002 1.19912 0.414394 0.73028 0.883235C0.261439 1.35208 -0.00195312 1.98796 -0.00195312 2.651V13.351C-0.00195312 14.014 0.261439 14.6499 0.73028 15.1188C1.19912 15.5876 1.83501 15.851 2.49805 15.851H17.481C18.1441 15.851 18.78 15.5876 19.2488 15.1188C19.7177 14.6499 19.981 14.014 19.981 13.351V2.649C19.981 1.98596 19.7177 1.35008 19.2488 0.881235C18.78 0.412394 18.1441 0.149002 17.481 0.149002V0.151002ZM16.85 4.282L10.427 9.276C10.3018 9.37347 10.1477 9.4264 9.98905 9.4264C9.83038 9.4264 9.67625 9.37347 9.55105 9.276L3.13005 4.282C2.98073 4.16584 2.88368 3.99511 2.86023 3.80739C2.83679 3.61967 2.88888 3.43032 3.00505 3.281C3.12121 3.13169 3.29193 3.03463 3.47966 3.01119C3.66738 2.98775 3.85673 3.03984 4.00605 3.156L9.98905 7.81L15.973 3.156C16.047 3.09842 16.1315 3.05596 16.2219 3.03105C16.3122 3.00614 16.4066 2.99927 16.4996 3.01083C16.5926 3.0224 16.6824 3.05216 16.7639 3.09843C16.8454 3.1447 16.917 3.20657 16.9745 3.2805C17.0321 3.35444 17.0746 3.43899 17.0995 3.52933C17.1244 3.61967 17.1313 3.71404 17.1197 3.80704C17.1082 3.90003 17.0784 3.98985 17.0321 4.07134C16.9858 4.15283 16.924 4.22442 16.85 4.282Z" fill="#1C1B20"/>
</svg>
