<svg width="252" height="108" viewBox="0 0 252 108" fill="none" xmlns="http://www.w3.org/2000/svg">
<path d="M81.777 51.2763H66.303C65.596 51.2617 64.896 51.4216 64.2617 51.7425C63.6274 52.0635 63.0772 52.5361 62.6575 53.1206C60.8071 55.8347 59.1909 58.629 56.3872 60.6917C52.8917 63.2522 48.7869 64.7932 44.5082 65.1514C43.994 65.2125 43.4746 65.2125 42.9604 65.1514C38.6796 64.7907 34.5727 63.25 31.073 60.6917C28.2692 58.629 26.653 55.8285 24.8027 53.1206C24.3791 52.5402 23.8282 52.0707 23.1948 51.7502C22.5613 51.4297 21.8632 51.2674 21.1572 51.2763H5.67595C5.45141 51.2763 5.23888 51.7032 5.02515 51.9104C5.4286 53.5142 5.73239 55.1377 6.25952 56.681C7.31641 59.8621 8.80002 62.8762 10.6675 65.6362C12.1467 68.0752 13.9056 70.323 15.9063 72.3313C19.6143 75.9232 23.9185 78.8037 28.6151 80.8362C31.1414 81.8302 33.7457 82.6011 36.3995 83.1407C38.8256 83.5636 41.2888 83.7182 43.7469 83.6021C46.205 83.7182 48.6682 83.5636 51.0943 83.1407C53.7474 82.5982 56.3514 81.8273 58.8787 80.8362C63.568 78.7895 67.8699 75.9106 71.5875 72.3313C73.584 70.3226 75.3384 68.0748 76.8131 65.6362C78.6842 62.877 80.1718 59.8634 81.2331 56.6822C81.7602 55.1377 82.0628 53.5129 82.4554 51.9116C82.2201 51.7032 81.9956 51.2763 81.777 51.2763Z" fill="url(#paint0_linear_1399_35)"/>
<path d="M85.2532 35.5531C84.5345 35.5538 83.8355 35.3117 83.264 34.864C82.6925 34.4164 82.2801 33.7881 82.0904 33.0759C80.8846 28.3067 78.864 23.7955 76.1227 19.7523C73.2634 15.613 69.7311 12.011 65.681 9.10448C65.4523 8.92899 65.1805 8.82238 64.8962 8.79662C64.6119 8.77085 64.3262 8.82694 64.0711 8.9586C63.8161 9.09026 63.6018 9.29229 63.4522 9.54205C63.3026 9.79181 63.2237 10.0794 63.2242 10.3727V24.8584C63.2242 25.087 63.1804 25.3134 63.0953 25.5245C63.0101 25.7357 62.8853 25.9276 62.728 26.0893C62.5707 26.2509 62.3839 26.3791 62.1783 26.4666C61.9728 26.5541 61.7525 26.5991 61.53 26.5991H56.9311C56.4801 26.5968 56.0484 26.4111 55.7304 26.0825C55.4125 25.754 55.2341 25.3094 55.2344 24.8461C55.2344 20.8983 55.2344 17.0209 55.2344 13.1373C55.2344 10.0606 55.3017 6.96901 55.2344 3.91815C55.2168 2.87418 54.8014 1.87897 54.0773 1.14634C53.3532 0.41371 52.3783 0.00212513 51.362 2.04392e-05H36.0621C35.0405 -0.00333814 34.0587 0.407336 33.33 1.14293C32.6012 1.87853 32.1841 2.87972 32.1693 3.92925C32.1693 6.97147 32.2257 10.0606 32.1693 13.1484V24.8584C32.1693 25.0885 32.1252 25.3163 32.0395 25.5288C31.9538 25.7413 31.8282 25.9345 31.6699 26.0971C31.5115 26.2598 31.3236 26.3888 31.1167 26.4769C30.9098 26.5649 30.6881 26.6102 30.4642 26.6102H25.8653C25.6423 26.612 25.4212 26.5682 25.2149 26.4814C25.0085 26.3946 24.8211 26.2664 24.6634 26.1044C24.5057 25.9424 24.381 25.7498 24.2965 25.5378C24.2119 25.3258 24.1693 25.0986 24.1711 24.8695V10.3715C24.1632 10.0895 24.082 9.81492 23.9359 9.57616C23.7897 9.3374 23.584 9.1432 23.3401 9.01376C23.0963 8.88431 22.8231 8.82434 22.549 8.84008C22.2749 8.85582 22.0099 8.94669 21.7816 9.10325C17.7328 12.0136 14.1994 15.6154 11.3351 19.7523C8.60211 23.7987 6.58593 28.3092 5.37935 33.0759C5.18906 33.7835 4.77949 34.4081 4.21268 34.8551C3.64587 35.3021 2.95271 35.5471 2.2382 35.5531C1.64415 35.5544 1.07487 35.7977 0.65526 36.2298C0.235654 36.6618 -1.36194e-06 37.2472 0 37.8576L0 40.3409C0 40.6436 0.0580169 40.9432 0.170738 41.2228C0.283459 41.5024 0.448677 41.7565 0.656959 41.9704C0.865241 42.1844 1.11251 42.3542 1.38464 42.47C1.65677 42.5858 1.94844 42.6454 2.243 42.6454H21.9509C23.8757 42.6476 25.7219 43.4306 27.0877 44.8241C28.3993 46.077 29.6197 47.4269 30.7392 48.8631C31.0787 49.327 31.5195 49.7027 32.0261 49.9598C32.5326 50.2169 33.0908 50.3483 33.6558 50.3435H53.8416C54.3973 50.3411 54.945 50.2062 55.4413 49.9492C55.9376 49.6924 56.3691 49.3205 56.7018 48.8631C57.8243 47.4119 59.0462 46.0449 60.358 44.7723C61.7253 43.4004 63.5621 42.6348 65.4732 42.6405H85.2532C85.8464 42.6392 86.4149 42.3965 86.8344 41.9655C87.2539 41.5346 87.4901 40.9504 87.4913 40.3409V37.8341C87.4913 37.2238 87.2557 36.6384 86.8361 36.2063C86.4165 35.7743 85.8472 35.5309 85.2532 35.5296V35.5531Z" fill="url(#paint1_linear_1399_35)"/>
<path d="M2.99469 95.1807C2.99469 95.0574 3.06194 94.9969 3.18561 94.9969H4.37435C4.4359 94.9903 4.49787 95.0047 4.55063 95.0379C4.60339 95.0711 4.64399 95.1214 4.66614 95.1807L8.37885 103.8L12.0243 95.1807C12.0465 95.1214 12.0871 95.0711 12.1398 95.0379C12.1926 95.0047 12.2546 94.9903 12.3161 94.9969H13.5721C13.5964 94.9932 13.6213 94.9953 13.6447 95.0032C13.668 95.0111 13.6893 95.0246 13.7067 95.0425C13.7241 95.0603 13.7372 95.0822 13.7448 95.1062C13.7525 95.1302 13.7547 95.1557 13.751 95.1807V107.605C13.7547 107.63 13.7525 107.656 13.7448 107.68C13.7372 107.704 13.7241 107.725 13.7067 107.743C13.6893 107.761 13.668 107.775 13.6447 107.782C13.6213 107.79 13.5964 107.793 13.5721 107.789H12.4506C12.3305 107.789 12.2597 107.789 12.2597 107.605V98.7078H12.2032L9.10771 105.74C9.08564 105.81 9.04182 105.87 8.98301 105.912C8.9242 105.953 8.85367 105.974 8.7823 105.97H8.01983C7.94505 105.977 7.87013 105.958 7.80702 105.917C7.74391 105.875 7.69624 105.813 7.67161 105.74L4.57608 98.7078H4.48722V107.605C4.48722 107.728 4.41998 107.789 4.2963 107.789H3.17481C3.05473 107.789 2.98389 107.789 2.98389 107.605L2.99469 95.1807Z" fill="#455A64"/>
<path d="M20.0559 95.1791C20.0642 95.1274 20.0902 95.0805 20.1292 95.0468C20.1681 95.0131 20.2175 94.9948 20.2685 94.9953H21.4692C21.5236 94.9934 21.577 95.0106 21.6206 95.044C21.6642 95.0774 21.6955 95.125 21.7094 95.1791L25.972 107.602C25.972 107.725 25.972 107.786 25.852 107.786H24.566C24.5104 107.789 24.4553 107.773 24.4102 107.74C24.3651 107.706 24.3327 107.657 24.3186 107.602L23.3652 104.871H18.3293L17.3759 107.665C17.362 107.719 17.3307 107.767 17.2871 107.8C17.2435 107.833 17.1901 107.851 17.1357 107.849H15.8605C15.7405 107.849 15.6924 107.849 15.726 107.665L20.0559 95.1791ZM22.8381 103.246L20.8749 97.4836L18.9008 103.246H22.8381Z" fill="#455A64"/>
<path d="M27.9524 95.1807C27.9488 95.1557 27.9509 95.1302 27.9586 95.1062C27.9663 95.0822 27.9794 95.0603 27.9968 95.0425C28.0142 95.0246 28.0354 95.0111 28.0588 95.0032C28.0821 94.9953 28.107 94.9932 28.1313 94.9969H29.3993C29.4237 94.9932 29.4485 94.9953 29.4719 95.0032C29.4953 95.0111 29.5165 95.0246 29.5339 95.0425C29.5513 95.0603 29.5644 95.0822 29.5721 95.1062C29.5798 95.1302 29.5819 95.1557 29.5782 95.1807V107.605C29.5819 107.63 29.5798 107.656 29.5721 107.68C29.5644 107.704 29.5513 107.725 29.5339 107.743C29.5165 107.761 29.4953 107.775 29.4719 107.782C29.4485 107.79 29.4237 107.793 29.3993 107.789H28.1313C28.107 107.793 28.0821 107.79 28.0588 107.782C28.0354 107.775 28.0142 107.761 27.9968 107.743C27.9794 107.725 27.9663 107.704 27.9586 107.68C27.9509 107.656 27.9488 107.63 27.9524 107.605V95.1807Z" fill="#455A64"/>
<path d="M32.6534 95.1807C32.6534 95.0574 32.7207 94.9969 32.8443 94.9969H33.9634C34.0279 94.9905 34.0927 95.0048 34.149 95.0377C34.2054 95.0706 34.2504 95.1205 34.278 95.1807L39.8867 104.781H39.9672V95.1807C39.9635 95.1557 39.9656 95.1302 39.9733 95.1062C39.981 95.0822 39.9941 95.0603 40.0115 95.0425C40.0289 95.0246 40.0502 95.0111 40.0735 95.0032C40.0969 94.9953 40.1218 94.9932 40.1461 94.9969H41.2676C41.2919 94.9932 41.3168 94.9953 41.3402 95.0032C41.3635 95.0111 41.3848 95.0246 41.4022 95.0425C41.4196 95.0603 41.4327 95.0822 41.4404 95.1062C41.4481 95.1302 41.4502 95.1557 41.4465 95.1807V107.605C41.4502 107.63 41.4481 107.656 41.4404 107.68C41.4327 107.704 41.4196 107.725 41.4022 107.743C41.3848 107.761 41.3635 107.775 41.3402 107.782C41.3168 107.79 41.2919 107.793 41.2676 107.789H40.1461C40.0833 107.794 40.0204 107.78 39.9662 107.747C39.9119 107.714 39.869 107.664 39.8435 107.605L34.1784 98.0441H34.1219V107.605C34.1256 107.63 34.1235 107.656 34.1158 107.68C34.1081 107.704 34.095 107.725 34.0776 107.743C34.0602 107.761 34.039 107.775 34.0156 107.782C33.9922 107.79 33.9674 107.793 33.943 107.789H32.8215C32.7015 107.789 32.6306 107.789 32.6306 107.605L32.6534 95.1807Z" fill="#455A64"/>
<path d="M47.3791 107.787C47.3547 107.791 47.3299 107.789 47.3065 107.781C47.2831 107.773 47.2619 107.759 47.2445 107.741C47.2271 107.724 47.214 107.702 47.2063 107.678C47.1986 107.654 47.1965 107.628 47.2002 107.603V96.6667C47.2019 96.6512 47.2002 96.6355 47.1952 96.6208C47.1902 96.606 47.182 96.5926 47.1713 96.5816C47.1605 96.5706 47.1475 96.5622 47.1332 96.5571C47.1188 96.5519 47.1036 96.5502 47.0885 96.5519H43.7456C43.6255 96.5519 43.5547 96.5519 43.5547 96.3681V95.2159C43.5547 95.0925 43.6219 95.0321 43.7456 95.0321H52.4042C52.4285 95.0283 52.4534 95.0305 52.4768 95.0384C52.5001 95.0463 52.5214 95.0597 52.5388 95.0776C52.5562 95.0955 52.5693 95.1173 52.577 95.1413C52.5847 95.1653 52.5868 95.1909 52.5831 95.2159V96.3681C52.5868 96.3931 52.5847 96.4187 52.577 96.4427C52.5693 96.4667 52.5562 96.4885 52.5388 96.5064C52.5214 96.5243 52.5001 96.5377 52.4768 96.5456C52.4534 96.5535 52.4285 96.5557 52.4042 96.5519H49.0421C48.9749 96.5519 48.9412 96.5519 48.9412 96.6667V107.603C48.9412 107.727 48.874 107.787 48.7503 107.787H47.3791Z" fill="#455A64"/>
<path d="M54.4805 95.1807C54.4768 95.1557 54.479 95.1302 54.4867 95.1062C54.4944 95.0822 54.5074 95.0603 54.5248 95.0425C54.5422 95.0246 54.5635 95.0111 54.5868 95.0032C54.6102 94.9953 54.6351 94.9932 54.6594 94.9969H62.1521C62.1764 94.9932 62.2013 94.9953 62.2247 95.0032C62.248 95.0111 62.2693 95.0246 62.2867 95.0425C62.3041 95.0603 62.3172 95.0822 62.3248 95.1062C62.3325 95.1302 62.3347 95.1557 62.331 95.1807V96.333C62.3347 96.358 62.3325 96.3835 62.3248 96.4075C62.3172 96.4315 62.3041 96.4534 62.2867 96.4712C62.2693 96.4891 62.248 96.5026 62.2247 96.5105C62.2013 96.5184 62.1764 96.5205 62.1521 96.5168H56.2192C56.2041 96.515 56.1888 96.5168 56.1745 96.5219C56.1602 96.527 56.1471 96.5354 56.1364 96.5465C56.1257 96.5575 56.1175 96.5709 56.1125 96.5856C56.1075 96.6003 56.1058 96.616 56.1075 96.6315V100.4C56.1058 100.416 56.1075 100.432 56.1125 100.446C56.1175 100.461 56.1257 100.474 56.1364 100.485C56.1471 100.496 56.1602 100.505 56.1745 100.51C56.1888 100.515 56.2041 100.517 56.2192 100.515H61.2551C61.2795 100.511 61.3043 100.514 61.3277 100.521C61.3511 100.529 61.3723 100.543 61.3897 100.561C61.4071 100.579 61.4202 100.6 61.4279 100.624C61.4356 100.648 61.4377 100.674 61.434 100.699V101.851C61.4377 101.876 61.4356 101.902 61.4279 101.926C61.4202 101.95 61.4071 101.972 61.3897 101.989C61.3723 102.007 61.3511 102.021 61.3277 102.029C61.3043 102.037 61.2795 102.039 61.2551 102.035H56.2192C56.1411 102.035 56.1075 102.035 56.1075 102.15V106.044C56.1075 106.125 56.1075 106.159 56.2192 106.159H62.1533C62.1776 106.155 62.2025 106.158 62.2259 106.165C62.2492 106.173 62.2705 106.187 62.2879 106.205C62.3053 106.223 62.3183 106.244 62.326 106.268C62.3337 106.292 62.3359 106.318 62.3322 106.343V107.495C62.3359 107.52 62.3337 107.546 62.326 107.57C62.3183 107.594 62.3053 107.616 62.2879 107.633C62.2705 107.651 62.2492 107.665 62.2259 107.673C62.2025 107.681 62.1776 107.683 62.1533 107.679H54.6606C54.6363 107.683 54.6114 107.681 54.588 107.673C54.5647 107.665 54.5434 107.651 54.526 107.633C54.5086 107.616 54.4956 107.594 54.4879 107.57C54.4802 107.546 54.478 107.52 54.4817 107.495L54.4805 95.1807Z" fill="#455A64"/>
<path d="M64.7886 95.1807C64.785 95.1557 64.7871 95.1302 64.7948 95.1062C64.8025 95.0822 64.8155 95.0603 64.8329 95.0425C64.8503 95.0246 64.8716 95.0111 64.895 95.0032C64.9183 94.9953 64.9432 94.9932 64.9675 94.9969H66.089C66.1533 94.9921 66.2175 95.007 66.2735 95.0397C66.3295 95.0725 66.3748 95.1215 66.4036 95.1807L72.0123 104.781H72.0796V95.1807C72.0796 95.0574 72.1468 94.9969 72.2705 94.9969H73.392C73.5121 94.9969 73.5829 94.9969 73.5829 95.1807V107.605C73.5829 107.728 73.5157 107.789 73.392 107.789H72.2705C72.2062 107.794 72.142 107.779 72.086 107.746C72.03 107.713 71.9847 107.664 71.9559 107.605L66.3472 98.0441V107.605C66.3472 107.728 66.2799 107.789 66.1563 107.789H65.0348C65.0104 107.793 64.9856 107.79 64.9622 107.782C64.9388 107.775 64.9176 107.761 64.9002 107.743C64.8828 107.725 64.8697 107.704 64.862 107.68C64.8543 107.656 64.8522 107.63 64.8559 107.605L64.7886 95.1807Z" fill="#455A64"/>
<path d="M79.9986 95.1794C80.0043 95.1266 80.0296 95.0781 80.0691 95.0439C80.1087 95.0097 80.1595 94.9924 80.2111 94.9956H81.3998C81.4554 94.992 81.5105 95.0084 81.5556 95.0419C81.6007 95.0755 81.6331 95.1241 81.6472 95.1794L85.9099 107.602C85.9099 107.726 85.9099 107.786 85.7898 107.786H84.4966C84.4415 107.791 84.3866 107.775 84.3423 107.741C84.298 107.708 84.2674 107.658 84.2564 107.602L83.303 104.871H78.2719L77.3185 107.665C77.3047 107.719 77.2734 107.767 77.2297 107.8C77.1861 107.834 77.1327 107.851 77.0784 107.849H75.8032C75.6831 107.849 75.6351 107.849 75.6687 107.665L79.9986 95.1794ZM82.7807 103.246L80.8175 97.4839L78.8326 103.246H82.7807Z" fill="#455A64"/>
<path d="M87.8958 95.1807C87.8921 95.1557 87.8942 95.1302 87.9019 95.1062C87.9096 95.0822 87.9227 95.0603 87.9401 95.0425C87.9575 95.0246 87.9788 95.0111 88.0021 95.0032C88.0255 94.9953 88.0504 94.9932 88.0747 94.9969H89.1962C89.2607 94.9905 89.3255 95.0048 89.3818 95.0377C89.4381 95.0706 89.4832 95.1205 89.5108 95.1807L95.1195 104.781H95.1975V95.1807C95.1939 95.1557 95.196 95.1302 95.2037 95.1062C95.2114 95.0822 95.2245 95.0603 95.2419 95.0425C95.2593 95.0246 95.2805 95.0111 95.3039 95.0032C95.3273 94.9953 95.3521 94.9932 95.3764 94.9969H96.498C96.5223 94.9932 96.5471 94.9953 96.5705 95.0032C96.5939 95.0111 96.6151 95.0246 96.6325 95.0425C96.6499 95.0603 96.663 95.0822 96.6707 95.1062C96.6784 95.1302 96.6805 95.1557 96.6769 95.1807V107.605C96.6805 107.63 96.6784 107.656 96.6707 107.68C96.663 107.704 96.6499 107.725 96.6325 107.743C96.6151 107.761 96.5939 107.775 96.5705 107.782C96.5471 107.79 96.5223 107.793 96.498 107.789H95.3764C95.3137 107.794 95.2508 107.78 95.1965 107.747C95.1423 107.714 95.0994 107.664 95.0739 107.605L89.4664 98.0441H89.4099V107.605C89.4136 107.63 89.4115 107.656 89.4038 107.68C89.3961 107.704 89.383 107.725 89.3656 107.743C89.3482 107.761 89.327 107.775 89.3036 107.782C89.2802 107.79 89.2554 107.793 89.231 107.789H88.1095C88.0852 107.793 88.0603 107.79 88.037 107.782C88.0136 107.775 87.9923 107.761 87.9749 107.743C87.9575 107.725 87.9445 107.704 87.9368 107.68C87.9291 107.656 87.927 107.63 87.9306 107.605L87.8958 95.1807Z" fill="#455A64"/>
<path d="M99.7628 104.987C99.6986 104.799 99.646 104.607 99.6055 104.411C99.5559 104.183 99.5222 103.952 99.5046 103.719V99.0646C99.5222 98.8321 99.5559 98.6013 99.6055 98.3737C99.6475 98.1788 99.7 97.9865 99.7628 97.7976C100.002 96.8708 100.545 96.057 101.3 95.4931C102.073 94.9777 102.981 94.7193 103.902 94.7529C104.756 94.7293 105.598 94.9616 106.325 95.4216C107.027 95.8799 107.575 96.5475 107.898 97.335C107.919 97.3783 107.923 97.4287 107.908 97.4749C107.894 97.5211 107.862 97.5596 107.82 97.5817L106.698 98.1233C106.677 98.1394 106.653 98.1498 106.627 98.1538C106.601 98.1577 106.575 98.1549 106.55 98.1457C106.526 98.1366 106.504 98.1212 106.486 98.1012C106.469 98.0811 106.457 98.0569 106.451 98.0308C106.223 97.5575 105.898 97.1407 105.498 96.8094C105.035 96.4673 104.473 96.2968 103.904 96.3258C103.317 96.2993 102.737 96.4727 102.256 96.8193C101.815 97.1761 101.49 97.6623 101.325 98.2133C101.28 98.3562 101.246 98.5027 101.224 98.6513C101.188 98.8455 101.162 99.0415 101.146 99.2385V103.514C101.162 103.711 101.188 103.907 101.224 104.102C101.243 104.251 101.277 104.397 101.325 104.54C101.492 105.086 101.816 105.567 102.254 105.921C102.734 106.273 103.315 106.447 103.903 106.415C104.472 106.444 105.033 106.273 105.495 105.931C105.908 105.602 106.242 105.18 106.471 104.697C106.471 104.574 106.606 104.548 106.719 104.605L107.84 105.147C107.882 105.171 107.913 105.211 107.927 105.257C107.942 105.304 107.938 105.355 107.918 105.399C107.599 106.185 107.051 106.85 106.348 107.301C105.62 107.76 104.778 107.993 103.925 107.969C103.004 108.003 102.095 107.744 101.323 107.229C100.571 106.685 100.021 105.895 99.7628 104.987Z" fill="#455A64"/>
<path d="M110.24 95.1807C110.236 95.1557 110.238 95.1302 110.246 95.1062C110.253 95.0822 110.266 95.0603 110.284 95.0425C110.301 95.0246 110.323 95.0111 110.346 95.0032C110.369 94.9953 110.394 94.9932 110.418 94.9969H117.911C118.031 94.9969 118.102 94.9969 118.102 95.1807V96.333C118.102 96.4563 118.035 96.5168 117.911 96.5168H111.978C111.963 96.515 111.948 96.5168 111.934 96.5219C111.919 96.527 111.906 96.5354 111.895 96.5465C111.885 96.5575 111.877 96.5709 111.872 96.5856C111.867 96.6003 111.865 96.616 111.867 96.6315V100.4C111.865 100.416 111.867 100.432 111.872 100.446C111.877 100.461 111.885 100.474 111.895 100.485C111.906 100.496 111.919 100.505 111.934 100.51C111.948 100.515 111.963 100.517 111.978 100.515H117.014C117.134 100.515 117.205 100.515 117.205 100.699V101.851C117.205 101.975 117.138 102.035 117.014 102.035H111.978C111.963 102.033 111.948 102.035 111.934 102.04C111.919 102.045 111.906 102.054 111.895 102.065C111.885 102.076 111.877 102.089 111.872 102.104C111.867 102.119 111.865 102.134 111.867 102.15V106.044C111.865 106.06 111.867 106.076 111.872 106.09C111.877 106.105 111.885 106.118 111.895 106.129C111.906 106.14 111.919 106.149 111.934 106.154C111.948 106.159 111.963 106.161 111.978 106.159H117.912C118.032 106.159 118.103 106.159 118.103 106.343V107.495C118.103 107.619 118.036 107.679 117.912 107.679H110.42C110.395 107.683 110.37 107.681 110.347 107.673C110.324 107.665 110.302 107.651 110.285 107.633C110.268 107.616 110.255 107.594 110.247 107.57C110.239 107.546 110.237 107.52 110.241 107.495L110.24 95.1807Z" fill="#455A64"/>
<path d="M124.698 104.652C124.697 103.943 124.9 103.25 125.281 102.659C125.802 101.89 126.438 101.211 127.165 100.648L126.445 99.6793C126.274 99.4275 126.117 99.166 125.974 98.8959C125.861 98.6747 125.767 98.4435 125.693 98.2051C125.635 97.9872 125.605 97.7624 125.603 97.5364C125.604 97.1646 125.677 96.7966 125.816 96.4533C125.952 96.1202 126.157 95.8213 126.416 95.5774C126.679 95.3249 126.988 95.129 127.325 95.0012C127.683 94.8625 128.063 94.7922 128.446 94.794C128.831 94.7932 129.211 94.8677 129.568 95.0136C129.904 95.1429 130.209 95.3429 130.465 95.6008C130.718 95.847 130.917 96.1455 131.049 96.4767C131.183 96.8128 131.252 97.173 131.25 97.5364C131.251 97.8138 131.211 98.0896 131.13 98.3543C131.039 98.6232 130.915 98.879 130.76 99.1155C130.553 99.4022 130.324 99.672 130.076 99.9223C129.799 100.199 129.451 100.51 129.032 100.856L131.399 103.98L132.667 102.376C132.68 102.354 132.698 102.337 132.72 102.324C132.742 102.312 132.766 102.305 132.791 102.305C132.816 102.305 132.84 102.312 132.862 102.324C132.883 102.337 132.901 102.354 132.914 102.376L133.635 103.01C133.656 103.025 133.673 103.045 133.684 103.068C133.696 103.091 133.702 103.117 133.702 103.143C133.702 103.169 133.696 103.195 133.684 103.218C133.673 103.241 133.656 103.261 133.635 103.275L132.367 105.107L132.967 105.914C133.069 106.044 133.186 106.16 133.316 106.26C133.431 106.33 133.563 106.366 133.697 106.363H133.978C134.098 106.363 134.157 106.432 134.157 106.559V107.608C134.161 107.633 134.159 107.659 134.151 107.683C134.143 107.707 134.13 107.728 134.113 107.746C134.096 107.764 134.074 107.778 134.051 107.786C134.028 107.793 134.003 107.796 133.978 107.792H133.485C133.181 107.808 132.878 107.753 132.599 107.63C132.314 107.449 132.072 107.205 131.891 106.916L131.387 106.26C130.927 106.785 130.39 107.232 129.795 107.585C129.245 107.868 128.637 108.01 128.023 107.999C127.543 108.01 127.067 107.924 126.62 107.745C126.233 107.598 125.884 107.361 125.6 107.054C125.315 106.752 125.097 106.391 124.961 105.994C124.795 105.567 124.706 105.112 124.698 104.652ZM126.145 104.56C126.113 105.108 126.295 105.646 126.649 106.057C126.836 106.251 127.062 106.4 127.311 106.496C127.559 106.591 127.825 106.63 128.09 106.61C128.514 106.614 128.93 106.494 129.291 106.265C129.76 105.951 130.177 105.562 130.525 105.112L128.003 101.725C127.464 102.133 126.985 102.618 126.579 103.166C126.294 103.571 126.144 104.06 126.153 104.56H126.145ZM128.299 99.72C128.592 99.4938 128.872 99.2512 129.139 98.9934C129.319 98.8239 129.48 98.6344 129.62 98.4284C129.717 98.2794 129.793 98.1164 129.844 97.9448C129.861 97.7956 129.861 97.6449 129.844 97.4957C129.85 97.3132 129.818 97.1315 129.75 96.9626C129.682 96.7938 129.581 96.6416 129.452 96.5162C129.314 96.3828 129.152 96.2792 128.975 96.2118C128.798 96.1444 128.609 96.1145 128.42 96.1239C128.233 96.1119 128.045 96.1406 127.869 96.2082C127.693 96.2758 127.533 96.3807 127.399 96.5162C127.162 96.7919 127.037 97.1512 127.051 97.5191C127.035 97.6531 127.035 97.7886 127.051 97.9226C127.102 98.0761 127.169 98.2231 127.253 98.3605C127.363 98.5575 127.487 98.7463 127.623 98.9255L128.299 99.72Z" fill="#455A64"/>
<path d="M140.828 104.987C140.768 104.798 140.72 104.606 140.683 104.411C140.634 104.183 140.6 103.951 140.582 103.719C140.582 103.442 140.582 103.119 140.582 102.75V99.064C140.6 98.8315 140.634 98.6007 140.683 98.3731C140.721 98.1784 140.77 97.9861 140.828 97.797C141.071 96.869 141.618 96.0552 142.376 95.4925C143.132 95.022 143.996 94.7675 144.88 94.7553C145.763 94.7432 146.634 94.9738 147.401 95.4234C148.099 95.8854 148.646 96.552 148.972 97.3369C148.993 97.3802 148.997 97.4305 148.982 97.4768C148.968 97.523 148.936 97.5614 148.894 97.5836L147.772 98.1252C147.652 98.1943 147.571 98.1252 147.514 98.0326C147.287 97.5535 146.959 97.1322 146.554 96.799C146.091 96.4587 145.53 96.2884 144.961 96.3154C144.374 96.2888 143.794 96.4623 143.313 96.8088C142.871 97.1677 142.543 97.6528 142.37 98.2029L142.269 98.6408C142.277 98.839 142.254 99.0371 142.202 99.2281C142.168 99.5149 142.168 99.8048 142.202 100.092V103.5C142.186 103.699 142.209 103.898 142.269 104.087C142.315 104.23 142.349 104.377 142.37 104.525C142.547 105.071 142.874 105.552 143.313 105.908C143.792 106.26 144.373 106.434 144.961 106.402C145.53 106.429 146.092 106.259 146.555 105.918C146.963 105.589 147.292 105.167 147.515 104.685C147.572 104.561 147.65 104.535 147.774 104.592L148.895 105.134C148.937 105.158 148.968 105.198 148.982 105.244C148.996 105.291 148.993 105.342 148.973 105.387C148.65 106.17 148.102 106.833 147.403 107.288C146.635 107.737 145.764 107.968 144.881 107.956C143.997 107.944 143.133 107.689 142.377 107.219C141.632 106.673 141.086 105.886 140.83 104.983L140.828 104.987Z" fill="#455A64"/>
<path d="M155.432 107.994C154.489 108.029 153.558 107.768 152.763 107.245C152.009 106.705 151.459 105.916 151.202 105.01C151.138 104.818 151.085 104.621 151.044 104.423C150.995 104.191 150.961 103.956 150.944 103.719V99.0635C150.962 98.8271 150.996 98.5922 151.044 98.3603C151.085 98.165 151.138 97.9726 151.202 97.7842C151.461 96.8758 152.011 96.0839 152.763 95.5364C153.573 95.0458 154.497 94.7871 155.438 94.7871C156.379 94.7871 157.303 95.0458 158.113 95.5364C158.87 96.0803 159.425 96.8731 159.684 97.7842C159.717 97.9813 159.77 98.1743 159.841 98.3603C159.89 98.5922 159.924 98.8271 159.942 99.0635V103.719C159.924 103.956 159.891 104.191 159.841 104.423C159.816 104.625 159.763 104.823 159.684 105.01C159.427 105.919 158.872 106.708 158.113 107.245C157.315 107.771 156.379 108.033 155.432 107.994ZM155.432 106.438C156.037 106.468 156.636 106.295 157.137 105.945C157.595 105.595 157.93 105.101 158.09 104.539C158.114 104.394 158.148 104.251 158.191 104.112C158.225 103.939 158.248 103.732 158.281 103.478C158.319 103.187 158.341 102.895 158.349 102.602C158.349 102.256 158.349 101.853 158.349 101.449V100.297C158.341 100.001 158.319 99.7044 158.281 99.4102C158.274 99.1961 158.243 98.9835 158.191 98.776C158.158 98.6033 158.124 98.4652 158.09 98.3492C157.93 97.7864 157.595 97.2926 157.137 96.9428C156.634 96.5979 156.037 96.4252 155.432 96.4493C154.831 96.4243 154.237 96.5972 153.738 96.9428C153.282 97.2931 152.951 97.7871 152.795 98.3492C152.771 98.4937 152.737 98.6363 152.694 98.776C152.686 98.9901 152.656 99.2027 152.604 99.4102C152.567 99.7045 152.545 100.001 152.537 100.297C152.537 100.631 152.537 101.037 152.537 101.449V102.602C152.545 102.895 152.567 103.187 152.604 103.478C152.584 103.693 152.615 103.911 152.694 104.112C152.748 104.248 152.782 104.392 152.795 104.539C152.951 105.101 153.282 105.594 153.738 105.945C154.235 106.295 154.83 106.468 155.432 106.438Z" fill="#455A64"/>
<path d="M162.646 95.1784C162.642 95.1534 162.644 95.1278 162.652 95.1038C162.66 95.0798 162.673 95.058 162.69 95.0401C162.708 95.0222 162.729 95.0088 162.752 95.0009C162.776 94.993 162.8 94.9908 162.825 94.9946H163.946C164.011 94.9863 164.077 94.9997 164.133 95.0328C164.19 95.066 164.235 95.117 164.261 95.1784L169.87 104.779H169.948V95.1784C169.944 95.1534 169.946 95.1278 169.954 95.1038C169.962 95.0798 169.975 95.058 169.992 95.0401C170.009 95.0222 170.031 95.0088 170.054 95.0009C170.077 94.993 170.102 94.9908 170.127 94.9946H171.248C171.272 94.9908 171.297 94.993 171.321 95.0009C171.344 95.0088 171.365 95.0222 171.383 95.0401C171.4 95.058 171.413 95.0798 171.421 95.1038C171.429 95.1278 171.431 95.1534 171.427 95.1784V107.603C171.431 107.628 171.429 107.653 171.421 107.677C171.413 107.701 171.4 107.723 171.383 107.741C171.365 107.759 171.344 107.772 171.321 107.78C171.297 107.788 171.272 107.79 171.248 107.786H170.07C170.007 107.792 169.944 107.777 169.89 107.744C169.836 107.711 169.793 107.662 169.768 107.603L164.102 98.0417V107.603C164.106 107.628 164.104 107.653 164.096 107.677C164.089 107.701 164.075 107.723 164.058 107.741C164.041 107.759 164.019 107.772 163.996 107.78C163.973 107.788 163.948 107.79 163.924 107.786H162.802C162.778 107.79 162.753 107.788 162.729 107.781C162.706 107.773 162.684 107.759 162.667 107.741C162.649 107.724 162.636 107.702 162.628 107.678C162.62 107.653 162.618 107.628 162.622 107.603L162.646 95.1784Z" fill="#455A64"/>
<path d="M177.383 107.786C177.263 107.786 177.192 107.786 177.192 107.602V96.6659C177.192 96.5968 177.192 96.5511 177.091 96.5511H173.729C173.609 96.5511 173.538 96.5511 173.538 96.3673V95.2151C173.538 95.0917 173.605 95.0312 173.729 95.0312H182.389C182.509 95.0312 182.58 95.0313 182.58 95.2151V96.3673C182.58 96.4907 182.512 96.5511 182.389 96.5511H179.027C179.012 96.5494 178.996 96.5511 178.982 96.5562C178.968 96.5614 178.955 96.5698 178.944 96.5808C178.933 96.5918 178.925 96.6052 178.92 96.6199C178.915 96.6347 178.913 96.6504 178.915 96.6659V107.602C178.915 107.726 178.848 107.786 178.724 107.786H177.383Z" fill="#455A64"/>
<path d="M191.685 107.79C191.631 107.792 191.577 107.775 191.534 107.741C191.49 107.708 191.459 107.66 191.445 107.606L188.964 102.372H186.203C186.125 102.372 186.091 102.372 186.091 102.487V107.605C186.095 107.63 186.092 107.656 186.085 107.68C186.077 107.704 186.064 107.725 186.047 107.743C186.029 107.761 186.008 107.775 185.985 107.782C185.961 107.79 185.936 107.793 185.912 107.789H184.642C184.617 107.793 184.592 107.79 184.569 107.782C184.546 107.775 184.524 107.761 184.507 107.743C184.49 107.725 184.477 107.704 184.469 107.68C184.461 107.656 184.459 107.63 184.463 107.605V95.1807C184.459 95.1557 184.461 95.1302 184.469 95.1062C184.477 95.0822 184.49 95.0603 184.507 95.0425C184.524 95.0246 184.546 95.0111 184.569 95.0032C184.592 94.9953 184.617 94.9932 184.642 94.9969H189.129C189.671 94.9858 190.21 95.0756 190.721 95.2621C191.174 95.4201 191.59 95.672 191.943 96.0024C192.289 96.3205 192.561 96.7142 192.739 97.1546C192.936 97.636 193.035 98.1536 193.031 98.6757C193.053 99.4642 192.82 100.238 192.37 100.877C191.916 101.485 191.288 101.932 190.574 102.156L193.233 107.561C193.249 107.584 193.258 107.612 193.258 107.641C193.258 107.67 193.249 107.699 193.233 107.722H193.113L191.685 107.79ZM189.128 100.881C189.741 100.919 190.346 100.717 190.822 100.316C191.207 99.8903 191.421 99.3304 191.421 98.7491C191.421 98.1678 191.207 97.6079 190.822 97.1817C190.349 96.7761 189.742 96.5737 189.128 96.6167H186.203C186.187 96.6149 186.172 96.6167 186.158 96.6218C186.144 96.627 186.131 96.6354 186.12 96.6464C186.109 96.6574 186.101 96.6708 186.096 96.6855C186.091 96.7003 186.089 96.7159 186.091 96.7314V100.758C186.089 100.774 186.091 100.789 186.096 100.804C186.101 100.819 186.109 100.832 186.12 100.843C186.131 100.854 186.144 100.863 186.158 100.868C186.172 100.873 186.187 100.875 186.203 100.873L189.128 100.881Z" fill="#455A64"/>
<path d="M198.999 95.1799C199.007 95.1261 199.035 95.0774 199.077 95.0435C199.118 95.0095 199.17 94.9926 199.223 94.996H200.412C200.467 94.991 200.522 95.0069 200.566 95.0408C200.611 95.0747 200.641 95.1242 200.652 95.1799L204.915 107.603C204.915 107.726 204.915 107.787 204.795 107.787H203.516C203.461 107.79 203.406 107.773 203.361 107.74C203.316 107.706 203.284 107.658 203.27 107.603L202.327 104.872H197.284L196.292 107.604C196.278 107.658 196.247 107.706 196.204 107.739C196.16 107.773 196.107 107.79 196.052 107.788H194.773C194.653 107.788 194.605 107.788 194.639 107.604L198.999 95.1799ZM201.781 103.247L199.818 97.4843L197.844 103.247H201.781Z" fill="#455A64"/>
<path d="M206.39 104.986C206.334 104.802 206.279 104.606 206.233 104.41C206.188 104.214 206.166 103.983 206.132 103.719C206.115 103.396 206.115 103.073 206.132 102.75V99.063C206.144 98.8298 206.177 98.5984 206.233 98.3722C206.275 98.1773 206.328 97.9849 206.39 97.796C206.633 96.868 207.18 96.0543 207.938 95.4915C208.694 95.021 209.558 94.7665 210.442 94.7544C211.325 94.7422 212.196 94.9729 212.963 95.4225C213.661 95.8845 214.209 96.551 214.534 97.3359C214.555 97.3792 214.559 97.4296 214.545 97.4758C214.53 97.522 214.498 97.5604 214.456 97.5826L213.334 98.1242C213.312 98.1385 213.287 98.1475 213.261 98.1505C213.235 98.1535 213.209 98.1504 213.184 98.1415C213.159 98.1326 213.136 98.1182 213.118 98.0992C213.099 98.0801 213.085 98.0571 213.076 98.0317C212.845 97.5549 212.518 97.1344 212.116 96.798C211.649 96.4559 211.084 96.2855 210.511 96.3144C209.924 96.2878 209.344 96.4613 208.863 96.8079C208.425 97.1675 208.101 97.6527 207.932 98.2019L207.831 98.6399C207.794 98.8335 207.771 99.0298 207.764 99.2271V103.499C207.771 103.697 207.794 103.893 207.831 104.087C207.845 104.237 207.879 104.384 207.932 104.524C208.104 105.069 208.428 105.55 208.863 105.907C209.342 106.259 209.923 106.433 210.511 106.401C211.084 106.43 211.649 106.259 212.116 105.917C212.52 105.583 212.848 105.162 213.076 104.684C213.076 104.56 213.211 104.534 213.334 104.591L214.456 105.133C214.498 105.157 214.529 105.197 214.543 105.244C214.558 105.291 214.555 105.342 214.534 105.387C214.211 106.17 213.663 106.833 212.963 107.288C212.196 107.737 211.325 107.968 210.442 107.956C209.558 107.944 208.694 107.689 207.938 107.219C207.193 106.674 206.648 105.888 206.39 104.986Z" fill="#455A64"/>
<path d="M219.313 107.787C219.289 107.791 219.264 107.789 219.241 107.781C219.217 107.773 219.196 107.759 219.179 107.741C219.161 107.724 219.148 107.702 219.141 107.678C219.133 107.654 219.131 107.628 219.134 107.603V96.6667C219.136 96.6512 219.134 96.6355 219.129 96.6208C219.124 96.606 219.116 96.5926 219.106 96.5816C219.095 96.5706 219.082 96.5622 219.067 96.5571C219.053 96.5519 219.038 96.5502 219.023 96.5519H215.661C215.636 96.5557 215.611 96.5535 215.588 96.5456C215.565 96.5377 215.543 96.5243 215.526 96.5064C215.509 96.4885 215.496 96.4667 215.488 96.4427C215.48 96.4187 215.478 96.3931 215.482 96.3681V95.2159C215.478 95.1909 215.48 95.1653 215.488 95.1413C215.496 95.1173 215.509 95.0955 215.526 95.0776C215.543 95.0597 215.565 95.0463 215.588 95.0384C215.611 95.0305 215.636 95.0283 215.661 95.0321H224.342C224.366 95.0283 224.391 95.0305 224.415 95.0384C224.438 95.0463 224.459 95.0597 224.477 95.0776C224.494 95.0955 224.507 95.1173 224.515 95.1413C224.523 95.1653 224.525 95.1909 224.521 95.2159V96.3681C224.525 96.3931 224.523 96.4187 224.515 96.4427C224.507 96.4667 224.494 96.4885 224.477 96.5064C224.459 96.5243 224.438 96.5377 224.415 96.5456C224.391 96.5535 224.366 96.5557 224.342 96.5519H220.98C220.965 96.5502 220.95 96.5519 220.935 96.5571C220.921 96.5622 220.908 96.5706 220.897 96.5816C220.886 96.5926 220.878 96.606 220.873 96.6208C220.868 96.6355 220.867 96.6512 220.868 96.6667V107.603C220.872 107.628 220.87 107.654 220.862 107.678C220.854 107.702 220.841 107.724 220.824 107.741C220.807 107.759 220.785 107.773 220.762 107.781C220.739 107.789 220.714 107.791 220.689 107.787H219.313Z" fill="#455A64"/>
<path d="M226.401 95.1789C226.401 95.0556 226.468 94.9951 226.592 94.9951H227.848C227.968 94.9951 228.039 94.9951 228.039 95.1789V107.603C228.039 107.727 227.972 107.787 227.848 107.787H226.58C226.46 107.787 226.389 107.787 226.389 107.603L226.401 95.1789Z" fill="#455A64"/>
<path d="M231.067 95.1807C231.064 95.1557 231.066 95.1302 231.073 95.1062C231.081 95.0822 231.094 95.0603 231.111 95.0425C231.129 95.0246 231.15 95.0111 231.174 95.0032C231.197 94.9953 231.222 94.9932 231.246 94.9969H232.424C232.488 94.9921 232.552 95.007 232.608 95.0397C232.664 95.0725 232.71 95.1215 232.739 95.1807L238.347 104.781H238.415V95.1807C238.411 95.1557 238.413 95.1302 238.421 95.1062C238.428 95.0822 238.441 95.0603 238.459 95.0425C238.476 95.0246 238.498 95.0111 238.521 95.0032C238.544 94.9953 238.569 94.9932 238.593 94.9969H239.715C239.835 94.9969 239.906 94.9969 239.906 95.1807V107.605C239.906 107.728 239.839 107.789 239.715 107.789H238.593C238.529 107.795 238.464 107.781 238.408 107.748C238.352 107.715 238.307 107.665 238.279 107.605L232.615 98.0441H232.559V107.605C232.562 107.63 232.56 107.656 232.552 107.68C232.545 107.704 232.532 107.725 232.514 107.743C232.497 107.761 232.476 107.775 232.452 107.782C232.429 107.79 232.404 107.793 232.38 107.789H231.258C231.234 107.793 231.209 107.79 231.186 107.782C231.162 107.775 231.141 107.761 231.124 107.743C231.106 107.725 231.093 107.704 231.085 107.68C231.078 107.656 231.076 107.63 231.079 107.605L231.067 95.1807Z" fill="#455A64"/>
<path d="M242.98 105.012C242.92 104.819 242.871 104.623 242.835 104.425C242.813 104.189 242.779 103.954 242.734 103.721C242.7 103.456 242.734 103.122 242.667 102.753C242.633 102.301 242.633 101.848 242.667 101.396V100.045C242.652 99.7169 242.675 99.3882 242.734 99.0655C242.779 98.833 242.813 98.5983 242.835 98.3623C242.871 98.1673 242.92 97.9748 242.98 97.7862C243.234 96.8789 243.78 96.0868 244.528 95.5384C245.333 95.0193 246.27 94.7586 247.22 94.7896C247.72 94.7849 248.218 94.8509 248.7 94.9857C249.286 95.1466 249.829 95.4408 250.29 95.8465C250.75 96.2523 251.115 96.7592 251.359 97.3297C251.359 97.4444 251.359 97.537 251.302 97.5949L250.181 98.1476C250.069 98.1476 249.99 98.1476 249.923 98.044C249.664 97.5245 249.277 97.0836 248.801 96.7647C248.282 96.4794 247.699 96.337 247.11 96.351C246.521 96.3651 245.945 96.5352 245.439 96.8449C244.981 97.1947 244.646 97.6884 244.486 98.2512C244.438 98.3861 244.4 98.5247 244.374 98.6658C244.332 98.8688 244.305 99.0751 244.296 99.2826C244.302 99.5757 244.283 99.8687 244.24 100.158C244.211 100.573 244.211 100.989 244.24 101.403V102.659C244.227 102.952 244.246 103.246 244.296 103.535C244.306 103.737 244.333 103.937 244.374 104.135C244.4 104.276 244.438 104.414 244.486 104.549C244.646 105.112 244.981 105.606 245.439 105.955C245.953 106.306 246.562 106.479 247.178 106.449C247.764 106.46 248.341 106.296 248.839 105.976C249.324 105.658 249.683 105.172 249.848 104.605C249.926 104.341 249.982 104.071 250.016 103.798C250.063 103.416 250.085 103.031 250.084 102.646C250.084 102.565 250.084 102.531 249.983 102.531H247.56C247.535 102.535 247.511 102.532 247.487 102.525C247.464 102.517 247.443 102.503 247.425 102.485C247.408 102.467 247.395 102.446 247.387 102.422C247.379 102.398 247.377 102.372 247.381 102.347V101.195C247.377 101.17 247.379 101.144 247.387 101.12C247.395 101.096 247.408 101.074 247.425 101.057C247.443 101.039 247.464 101.025 247.487 101.017C247.511 101.009 247.535 101.007 247.56 101.011H251.531C251.651 101.011 251.722 101.011 251.722 101.195V102.151C251.722 102.69 251.692 103.229 251.631 103.765C251.597 104.156 251.522 104.542 251.407 104.917C251.156 105.847 250.602 106.661 249.836 107.221C249.048 107.753 248.12 108.022 247.178 107.994C246.227 108.031 245.288 107.769 244.486 107.245C243.752 106.697 243.221 105.91 242.98 105.012Z" fill="#455A64"/>
<path d="M181.156 81.9107C174.202 81.9107 169.274 80.2625 166.373 76.9661C163.472 73.6698 162.022 68.5106 162.024 61.4885V34.6723C162.022 34.1837 161.832 33.7155 161.496 33.37C161.16 33.0244 160.704 32.8296 160.229 32.828H158.176C157.691 32.828 157.226 32.63 156.883 32.2777C156.54 31.9253 156.348 31.4474 156.348 30.9491V21.6719C156.346 21.4243 156.393 21.1787 156.484 20.9495C156.575 20.7203 156.71 20.5118 156.879 20.3362C157.049 20.1605 157.252 20.0211 157.474 19.926C157.697 19.8309 157.935 19.7819 158.176 19.7819H160.23C160.705 19.7803 161.161 19.5855 161.497 19.24C161.834 18.8944 162.023 18.4263 162.025 17.9376V6.14869C162.025 5.50354 162.149 4.86475 162.39 4.26901C162.631 3.67326 162.984 3.13231 163.429 2.67721C163.874 2.22211 164.402 1.86184 164.983 1.6171C165.564 1.37235 166.187 1.24795 166.815 1.25103H174.532C175.799 1.25299 177.014 1.7708 177.91 2.69107C178.807 3.61135 179.312 4.85908 179.314 6.16103V17.7772C179.314 18.0376 179.364 18.2954 179.461 18.5359C179.558 18.7764 179.7 18.995 179.88 19.1791C180.059 19.3632 180.271 19.5092 180.506 19.6088C180.74 19.7085 180.991 19.7597 181.244 19.7597H185.608C186.499 19.7597 187.354 20.1237 187.985 20.7715C188.615 21.4193 188.97 22.2979 188.97 23.214V29.428C188.97 30.3441 188.615 31.2227 187.985 31.8705C187.354 32.5183 186.499 32.8823 185.608 32.8823H181.244C180.732 32.8823 180.241 33.0911 179.88 33.4629C179.518 33.8347 179.314 34.339 179.314 34.8648V60.8557C179.314 63.1601 179.718 64.7392 180.549 65.6263C181.127 66.1245 181.798 66.4977 182.52 66.7235C183.242 66.9492 184.001 67.0229 184.751 66.9401H185.873C186.678 66.955 187.445 67.29 188.014 67.8747C188.583 68.4594 188.91 69.2481 188.924 70.0749V78.6945C188.93 79.1116 188.856 79.5258 188.705 79.9134C188.555 80.3009 188.332 80.6542 188.048 80.9529C187.765 81.2515 187.427 81.4898 187.053 81.6539C186.68 81.8181 186.279 81.9049 185.873 81.9094L181.156 81.9107Z" fill="url(#paint2_linear_1399_35)"/>
<path d="M238.644 81.4389C235.818 81.4389 235.425 78.3547 235.66 76.1144C204.164 104.365 178.791 43.1545 224.05 44.2722C226.293 43.6381 236.389 46.3349 235.402 41.23C235.144 28.2308 218.319 33.485 210.232 35.9524C209.669 36.1219 209.068 36.0912 208.524 35.8653C207.98 35.6393 207.527 35.2314 207.237 34.7076L203.659 28.2543C203.365 27.7382 203.249 27.1352 203.331 26.543C203.412 25.9509 203.686 25.4044 204.108 24.9925C216.985 12.8803 254.887 16.004 251.825 40.85V78.3634C252.082 83.6052 241.281 80.7357 238.644 81.4389ZM224.13 69.5106C231.533 69.5106 235.234 66.6793 235.234 61.0168V58.7135C235.234 57.9983 234.958 57.3123 234.465 56.8066C233.973 56.3008 233.305 56.0167 232.609 56.0167H226.104C219.022 56.0167 215.481 58.3196 215.482 62.9253C215.482 67.3163 218.364 69.5106 224.13 69.5106Z" fill="url(#paint3_linear_1399_35)"/>
<path d="M119.038 83.6167C111.298 83.4095 100.552 81.5652 94.9894 76.7082C94.4713 76.2627 94.0457 75.7148 93.7377 75.0971C93.4297 74.4793 93.2456 73.8042 93.1965 73.112C93.1473 72.4197 93.234 71.7244 93.4515 71.0672C93.6689 70.4101 94.0126 69.8045 94.4622 69.2865L97.5025 65.8322C98.206 64.997 99.1516 64.4155 100.2 64.1732C101.249 63.931 102.346 64.0407 103.33 64.4863C109.735 67.3669 117.844 71.7809 124.642 69.2569C126.173 68.6038 127.5 67.5314 128.478 66.1567C132.718 59.4147 119.628 58.0897 113.964 57.8701C95.8935 58.2044 87.6264 36.1119 100.839 24.703C108.905 17.7944 130.396 17.3849 139.841 24.8411C140.378 25.2646 140.827 25.7943 141.162 26.3989C141.496 27.0036 141.709 27.671 141.789 28.3617C141.868 29.0524 141.812 29.7525 141.624 30.4206C141.436 31.0887 141.12 31.7114 140.693 32.2518L138.304 35.2829C137.532 36.255 136.443 36.9072 135.239 37.119C134.035 37.3308 132.797 37.0879 131.754 36.4351C130.606 35.6249 129.342 35.0027 128.008 34.5908C127.586 34.4951 127.173 34.3639 126.773 34.1985C114.961 29.0813 102.713 39.7414 117.25 42.807C118.448 43.0393 119.666 43.1398 120.885 43.1068C155.314 42.775 153.317 84.7468 119.038 83.6167Z" fill="url(#paint4_linear_1399_35)"/>
<defs>
<linearGradient id="paint0_linear_1399_35" x1="43.7403" y1="51.2754" x2="43.7403" y2="83.6395" gradientUnits="userSpaceOnUse">
<stop stop-color="#29F19B"/>
<stop offset="1" stop-color="#4D9DE7"/>
<stop offset="1" stop-color="#4D9DE7"/>
</linearGradient>
<linearGradient id="paint1_linear_1399_35" x1="43.7457" y1="0" x2="43.7457" y2="50.3436" gradientUnits="userSpaceOnUse">
<stop stop-color="#FECC00"/>
<stop offset="1" stop-color="#F8AE00"/>
</linearGradient>
<linearGradient id="paint2_linear_1399_35" x1="172.659" y1="1.25098" x2="172.659" y2="81.9107" gradientUnits="userSpaceOnUse">
<stop stop-color="#29F19B"/>
<stop offset="1" stop-color="#4D9DE7"/>
<stop offset="1" stop-color="#4D9DE7"/>
</linearGradient>
<linearGradient id="paint3_linear_1399_35" x1="225.853" y1="1.94094" x2="225.853" y2="97.3015" gradientUnits="userSpaceOnUse">
<stop stop-color="#29F19B"/>
<stop offset="1" stop-color="#4D9DE7"/>
</linearGradient>
<linearGradient id="paint4_linear_1399_35" x1="119.465" y1="19.3848" x2="119.465" y2="83.6392" gradientUnits="userSpaceOnUse">
<stop stop-color="#29F19B"/>
<stop offset="1" stop-color="#4D9DE7"/>
<stop offset="1" stop-color="#4D9DE7"/>
</linearGradient>
</defs>
</svg>
