<svg width="403" height="173" viewBox="0 0 403 173" fill="none" xmlns="http://www.w3.org/2000/svg">
<path d="M131.122 81.9351H106.379C105.248 81.9118 104.129 82.1674 103.115 82.6807C102.1 83.1939 101.221 83.9496 100.55 84.8845C97.5909 89.2248 95.0066 93.6934 90.5234 96.992C84.9341 101.087 78.3706 103.551 71.5288 104.124C70.7066 104.222 69.8762 104.222 69.054 104.124C62.2089 103.547 55.6421 101.083 50.0459 96.992C45.5627 93.6934 42.9784 89.215 40.0197 84.8845C39.3424 83.9563 38.4616 83.2054 37.4487 82.6929C36.4358 82.1804 35.3195 81.9208 34.1906 81.9351H9.43603C9.07699 81.9351 8.73715 82.6177 8.39539 82.9491C9.04051 85.5138 9.52627 88.1101 10.3691 90.5782C12.0591 95.6654 14.4314 100.486 17.4175 104.899C19.7828 108.8 22.5952 112.394 25.7944 115.606C31.7234 121.35 38.6059 125.957 46.1157 129.207C50.1554 130.797 54.3196 132.03 58.5631 132.892C62.4424 133.569 66.381 133.816 70.3116 133.63C74.2421 133.816 78.1807 133.569 82.06 132.892C86.3024 132.025 90.4662 130.792 94.5074 129.207C102.005 125.934 108.884 121.33 114.829 115.606C118.021 112.394 120.826 108.799 123.185 104.899C126.176 100.487 128.555 95.6675 130.252 90.5802C131.095 88.1101 131.579 85.5119 132.207 82.9511C131.83 82.6177 131.471 81.9351 131.122 81.9351Z" fill="white"/>
<path d="M136.68 57.0369C135.531 57.0381 134.413 56.6509 133.499 55.935C132.586 55.2192 131.926 54.2143 131.623 53.0754C129.695 45.4486 126.464 38.2342 122.08 31.7684C117.508 25.1489 111.86 19.3886 105.384 14.7405C105.018 14.4598 104.584 14.2894 104.129 14.2482C103.675 14.207 103.218 14.2967 102.81 14.5072C102.402 14.7178 102.059 15.0408 101.82 15.4403C101.581 15.8397 101.455 16.2996 101.456 16.7686V39.9341C101.456 40.2997 101.386 40.6616 101.25 40.9994C101.113 41.3371 100.914 41.644 100.662 41.9025C100.411 42.161 100.112 42.366 99.7834 42.5059C99.4547 42.6458 99.1024 42.7178 98.7467 42.7178H91.3931C90.672 42.7142 89.9817 42.4171 89.4732 41.8917C88.9648 41.3663 88.6796 40.6553 88.6801 39.9144C88.6801 33.6012 88.6801 27.4004 88.6801 21.1898C88.6801 16.2695 88.7876 11.3255 88.6801 6.44654C88.652 4.77704 87.9876 3.1855 86.8298 2.01388C85.672 0.842266 84.1131 0.184063 82.4881 0.180697H58.0235C56.3899 0.175326 54.8201 0.832073 53.6548 2.00844C52.4895 3.1848 51.8226 4.78589 51.7988 6.4643C51.7988 11.3294 51.8891 16.2695 51.7988 21.2076V39.9341C51.7988 40.302 51.7283 40.6663 51.5913 41.0062C51.4543 41.3461 51.2535 41.6549 51.0003 41.915C50.7471 42.1752 50.4466 42.3815 50.1158 42.5223C49.785 42.6631 49.4305 42.7356 49.0724 42.7356H41.7188C41.3623 42.7385 41.0087 42.6684 40.6788 42.5296C40.3488 42.3907 40.049 42.1857 39.7969 41.9267C39.5448 41.6676 39.3454 41.3596 39.2102 41.0205C39.0751 40.6815 39.0069 40.3182 39.0097 39.9518V16.7666C38.9971 16.3158 38.8673 15.8766 38.6336 15.4948C38.4 15.113 38.071 14.8024 37.6811 14.5954C37.2911 14.3884 36.8543 14.2925 36.416 14.3177C35.9777 14.3428 35.554 14.4882 35.1889 14.7385C28.7149 19.3927 23.0651 25.1528 18.4849 31.7684C14.1149 38.2395 10.891 45.4525 8.96171 53.0754C8.65743 54.207 8.00252 55.2059 7.09619 55.9207C6.18986 56.6356 5.08149 57.0274 3.93899 57.0369C2.9891 57.039 2.07882 57.4282 1.40787 58.1191C0.736919 58.81 0.360105 59.7462 0.360107 60.7223L0.360107 64.6936C0.360107 65.1776 0.452877 65.6568 0.633118 66.104C0.81336 66.5511 1.07754 66.9573 1.41059 67.2996C1.74363 67.6418 2.13901 67.9132 2.57415 68.0984C3.00929 68.2836 3.47567 68.379 3.94667 68.379H35.4596C38.5374 68.3825 41.4894 69.6347 43.6734 71.8631C45.7706 73.8667 47.722 76.0255 49.5121 78.3223C50.0551 79.0642 50.7599 79.6649 51.5699 80.076C52.3798 80.4872 53.2724 80.6974 54.1758 80.6897H86.4529C87.3416 80.6859 88.2172 80.47 89.0109 80.0592C89.8045 79.6484 90.4945 79.0538 91.0264 78.3223C92.8214 76.0016 94.7751 73.8153 96.8727 71.7802C99.059 69.5863 101.996 68.362 105.052 68.3711H136.68C137.629 68.369 138.538 67.9809 139.209 67.2917C139.879 66.6025 140.257 65.6683 140.259 64.6936V60.6848C140.259 59.7087 139.882 58.7725 139.211 58.0816C138.54 57.3907 137.63 57.0015 136.68 56.9994V57.0369Z" fill="url(#paint0_linear_1393_13)"/>
<path d="M5.14851 152.393C5.14851 152.195 5.25603 152.099 5.45379 152.099H7.35459C7.453 152.088 7.55209 152.111 7.63645 152.164C7.72082 152.217 7.78574 152.298 7.82115 152.393L13.7578 166.177L19.5869 152.393C19.6223 152.298 19.6872 152.217 19.7716 152.164C19.856 152.111 19.955 152.088 20.0535 152.099H22.0618C22.1007 152.093 22.1404 152.096 22.1778 152.109C22.2152 152.121 22.2492 152.143 22.277 152.171C22.3048 152.2 22.3257 152.235 22.338 152.273C22.3503 152.312 22.3537 152.353 22.3479 152.393V172.261C22.3537 172.301 22.3503 172.342 22.338 172.381C22.3257 172.419 22.3048 172.454 22.277 172.482C22.2492 172.511 22.2152 172.533 22.1778 172.545C22.1404 172.558 22.1007 172.561 22.0618 172.555H20.2685C20.0765 172.555 19.9632 172.555 19.9632 172.261V158.033H19.873L14.9232 169.278C14.8879 169.39 14.8179 169.487 14.7238 169.553C14.6298 169.62 14.517 169.653 14.4029 169.647H13.1837C13.0641 169.659 12.9443 169.628 12.8434 169.561C12.7425 169.495 12.6663 169.395 12.6269 169.278L7.67715 158.033H7.53507V172.261C7.53507 172.459 7.42755 172.555 7.22979 172.555H5.43651C5.24451 172.555 5.13123 172.555 5.13123 172.261L5.14851 152.393Z" fill="white"/>
<path d="M32.4298 152.392C32.443 152.309 32.4846 152.234 32.5469 152.18C32.6092 152.126 32.6882 152.097 32.7696 152.098H34.6896C34.7765 152.095 34.8619 152.122 34.9317 152.176C35.0014 152.229 35.0515 152.305 35.0736 152.392L41.8896 172.259C41.8896 172.456 41.8896 172.553 41.6976 172.553H39.6413C39.5524 172.558 39.4644 172.532 39.3922 172.479C39.3201 172.425 39.2683 172.347 39.2458 172.259L37.7213 167.891H29.6688L28.1443 172.359C28.1222 172.446 28.0721 172.522 28.0024 172.575C27.9326 172.629 27.8473 172.656 27.7603 172.653H25.7213C25.5293 172.653 25.4525 172.653 25.5062 172.359L32.4298 152.392ZM36.8784 165.292L33.7392 156.077L30.5827 165.292H36.8784Z" fill="white"/>
<path d="M45.0559 152.393C45.05 152.353 45.0534 152.312 45.0657 152.273C45.078 152.235 45.0989 152.2 45.1268 152.171C45.1546 152.143 45.1886 152.121 45.2259 152.109C45.2633 152.096 45.3031 152.093 45.342 152.099H47.3695C47.4084 152.093 47.4481 152.096 47.4855 152.109C47.5229 152.121 47.5569 152.143 47.5847 152.171C47.6125 152.2 47.6334 152.235 47.6457 152.273C47.658 152.312 47.6614 152.353 47.6556 152.393V172.261C47.6614 172.301 47.658 172.342 47.6457 172.381C47.6334 172.419 47.6125 172.454 47.5847 172.482C47.5569 172.511 47.5229 172.533 47.4855 172.545C47.4481 172.558 47.4084 172.561 47.3695 172.555H45.342C45.3031 172.561 45.2633 172.558 45.2259 172.545C45.1886 172.533 45.1546 172.511 45.1268 172.482C45.0989 172.454 45.078 172.419 45.0657 172.381C45.0534 172.342 45.05 172.301 45.0559 172.261V152.393Z" fill="white"/>
<path d="M52.5726 152.393C52.5726 152.195 52.6801 152.099 52.8779 152.099H54.6673C54.7704 152.088 54.8741 152.111 54.9641 152.164C55.0541 152.216 55.1262 152.296 55.1704 152.393L64.1387 167.745H64.2673V152.393C64.2615 152.353 64.2649 152.312 64.2772 152.273C64.2895 152.235 64.3104 152.2 64.3382 152.171C64.366 152.143 64.4 152.121 64.4374 152.109C64.4748 152.096 64.5145 152.093 64.5534 152.099H66.3467C66.3856 152.093 66.4253 152.096 66.4627 152.109C66.5001 152.121 66.5341 152.143 66.5619 152.171C66.5897 152.2 66.6106 152.235 66.6229 152.273C66.6352 152.312 66.6386 152.353 66.6328 152.393V172.261C66.6386 172.301 66.6352 172.342 66.6229 172.381C66.6106 172.419 66.5897 172.454 66.5619 172.482C66.5341 172.511 66.5001 172.533 66.4627 172.545C66.4253 172.558 66.3856 172.561 66.3467 172.555H64.5534C64.453 172.564 64.3524 172.541 64.2657 172.488C64.179 172.435 64.1104 172.356 64.0696 172.261L55.011 156.972H54.9208V172.261C54.9266 172.301 54.9232 172.342 54.9109 172.381C54.8986 172.419 54.8777 172.454 54.8499 172.482C54.8221 172.511 54.7881 172.533 54.7507 172.545C54.7133 172.558 54.6736 172.561 54.6347 172.555H52.8414C52.6494 172.555 52.5361 172.555 52.5361 172.261L52.5726 152.393Z" fill="white"/>
<path d="M76.1193 172.553C76.0804 172.559 76.0407 172.555 76.0033 172.543C75.9659 172.53 75.932 172.509 75.9041 172.48C75.8763 172.451 75.8554 172.416 75.8431 172.378C75.8308 172.34 75.8274 172.299 75.8333 172.259V154.769C75.836 154.744 75.8333 154.719 75.8253 154.696C75.8173 154.672 75.8042 154.651 75.7871 154.633C75.7699 154.616 75.7491 154.602 75.7262 154.594C75.7033 154.586 75.6788 154.583 75.6547 154.586H70.3094C70.1174 154.586 70.0042 154.586 70.0042 154.292V152.449C70.0042 152.252 70.1117 152.155 70.3094 152.155H84.1545C84.1935 152.149 84.2332 152.153 84.2706 152.165C84.308 152.178 84.3419 152.199 84.3697 152.228C84.3976 152.257 84.4185 152.292 84.4308 152.33C84.4431 152.368 84.4465 152.409 84.4406 152.449V154.292C84.4465 154.332 84.4431 154.373 84.4308 154.411C84.4185 154.449 84.3976 154.484 84.3697 154.513C84.3419 154.542 84.308 154.563 84.2706 154.576C84.2332 154.588 84.1935 154.592 84.1545 154.586H78.7785C78.671 154.586 78.6173 154.586 78.6173 154.769V172.259C78.6173 172.456 78.5097 172.553 78.312 172.553H76.1193Z" fill="white"/>
<path d="M87.4745 152.393C87.4686 152.353 87.472 152.312 87.4843 152.273C87.4966 152.235 87.5175 152.2 87.5454 152.171C87.5732 152.143 87.6071 152.121 87.6445 152.109C87.6819 152.096 87.7216 152.093 87.7606 152.099H99.7413C99.7803 152.093 99.82 152.096 99.8574 152.109C99.8948 152.121 99.9287 152.143 99.9565 152.171C99.9844 152.2 100.005 152.235 100.018 152.273C100.03 152.312 100.033 152.353 100.027 152.393V154.235C100.033 154.275 100.03 154.316 100.018 154.354C100.005 154.393 99.9844 154.428 99.9565 154.456C99.9287 154.485 99.8948 154.506 99.8574 154.519C99.82 154.532 99.7803 154.535 99.7413 154.529H90.2546C90.2305 154.526 90.2061 154.529 90.1832 154.537C90.1602 154.546 90.1394 154.559 90.1223 154.577C90.1051 154.594 90.092 154.616 90.084 154.639C90.076 154.663 90.0733 154.688 90.0761 154.713V160.74C90.0733 160.765 90.076 160.79 90.084 160.813C90.092 160.837 90.1051 160.858 90.1223 160.876C90.1394 160.893 90.1602 160.907 90.1832 160.915C90.2061 160.923 90.2305 160.926 90.2546 160.923H98.3071C98.346 160.917 98.3858 160.921 98.4231 160.933C98.4605 160.946 98.4945 160.967 98.5223 160.996C98.5501 161.025 98.571 161.06 98.5834 161.098C98.5957 161.136 98.599 161.177 98.5932 161.217V163.06C98.599 163.1 98.5957 163.141 98.5834 163.179C98.571 163.217 98.5501 163.252 98.5223 163.281C98.4945 163.31 98.4605 163.331 98.4231 163.344C98.3858 163.356 98.346 163.36 98.3071 163.354H90.2546C90.1298 163.354 90.0761 163.354 90.0761 163.537V169.766C90.0761 169.894 90.0761 169.949 90.2546 169.949H99.7433C99.7822 169.943 99.8219 169.947 99.8593 169.959C99.8967 169.972 99.9306 169.993 99.9585 170.022C99.9863 170.051 100.007 170.085 100.02 170.124C100.032 170.162 100.035 170.203 100.029 170.243V172.086C100.035 172.126 100.032 172.167 100.02 172.205C100.007 172.243 99.9863 172.278 99.9585 172.307C99.9306 172.335 99.8967 172.357 99.8593 172.37C99.8219 172.382 99.7822 172.386 99.7433 172.38H87.7625C87.7236 172.386 87.6838 172.382 87.6464 172.37C87.6091 172.357 87.5751 172.335 87.5473 172.307C87.5194 172.278 87.4985 172.243 87.4862 172.205C87.4739 172.167 87.4705 172.126 87.4764 172.086L87.4745 152.393Z" fill="white"/>
<path d="M103.958 152.393C103.952 152.353 103.955 152.312 103.967 152.273C103.98 152.235 104.001 152.2 104.028 152.171C104.056 152.143 104.09 152.121 104.128 152.109C104.165 152.096 104.205 152.093 104.244 152.099H106.037C106.14 152.091 106.242 152.115 106.332 152.167C106.421 152.219 106.494 152.298 106.54 152.393L115.508 167.745H115.616V152.393C115.616 152.195 115.723 152.099 115.921 152.099H117.714C117.906 152.099 118.02 152.099 118.02 152.393V172.261C118.02 172.459 117.912 172.555 117.714 172.555H115.921C115.818 172.563 115.716 172.539 115.626 172.487C115.537 172.434 115.464 172.356 115.418 172.261L106.45 156.972V172.261C106.45 172.459 106.342 172.555 106.144 172.555H104.351C104.312 172.561 104.272 172.558 104.235 172.545C104.198 172.533 104.164 172.511 104.136 172.482C104.108 172.454 104.087 172.419 104.075 172.381C104.063 172.342 104.059 172.301 104.065 172.261L103.958 152.393Z" fill="white"/>
<path d="M128.278 152.392C128.287 152.308 128.328 152.23 128.391 152.176C128.454 152.121 128.535 152.093 128.618 152.098H130.519C130.608 152.093 130.696 152.119 130.768 152.173C130.84 152.226 130.892 152.304 130.914 152.392L137.73 172.259C137.73 172.457 137.73 172.553 137.538 172.553H135.47C135.382 172.561 135.295 172.536 135.224 172.482C135.153 172.427 135.104 172.348 135.086 172.259L133.562 167.891H125.517L123.993 172.36C123.971 172.446 123.921 172.522 123.851 172.576C123.781 172.629 123.696 172.657 123.609 172.654H121.57C121.378 172.654 121.301 172.654 121.355 172.36L128.278 152.392ZM132.727 165.293L129.588 156.078L126.414 165.293H132.727Z" fill="white"/>
<path d="M140.906 152.393C140.9 152.353 140.904 152.312 140.916 152.273C140.928 152.235 140.949 152.2 140.977 152.171C141.005 152.143 141.039 152.121 141.076 152.109C141.114 152.096 141.153 152.093 141.192 152.099H142.985C143.089 152.088 143.192 152.111 143.282 152.164C143.372 152.216 143.444 152.296 143.489 152.393L152.457 167.745H152.582V152.393C152.576 152.353 152.579 152.312 152.591 152.273C152.604 152.235 152.625 152.2 152.653 152.171C152.68 152.143 152.714 152.121 152.752 152.109C152.789 152.096 152.829 152.093 152.868 152.099H154.661C154.7 152.093 154.74 152.096 154.777 152.109C154.814 152.121 154.848 152.143 154.876 152.171C154.904 152.2 154.925 152.235 154.937 152.273C154.95 152.312 154.953 152.353 154.947 152.393V172.261C154.953 172.301 154.95 172.342 154.937 172.381C154.925 172.419 154.904 172.454 154.876 172.482C154.848 172.511 154.814 172.533 154.777 172.545C154.74 172.558 154.7 172.561 154.661 172.555H152.868C152.767 172.564 152.667 172.541 152.58 172.488C152.493 172.435 152.425 172.356 152.384 172.261L143.417 156.972H143.327V172.261C143.333 172.301 143.33 172.342 143.317 172.381C143.305 172.419 143.284 172.454 143.256 172.482C143.229 172.511 143.195 172.533 143.157 172.545C143.12 172.558 143.08 172.561 143.041 172.555H141.248C141.209 172.561 141.169 172.558 141.132 172.545C141.094 172.533 141.06 172.511 141.033 172.482C141.005 172.454 140.984 172.419 140.972 172.381C140.959 172.342 140.956 172.301 140.962 172.261L140.906 152.393Z" fill="white"/>
<path d="M159.881 168.076C159.779 167.774 159.695 167.467 159.63 167.154C159.55 166.79 159.497 166.42 159.469 166.048V158.604C159.497 158.232 159.551 157.863 159.63 157.499C159.697 157.187 159.781 156.88 159.881 156.578C160.264 155.096 161.132 153.794 162.339 152.892C163.575 152.068 165.027 151.655 166.5 151.709C167.865 151.671 169.211 152.043 170.374 152.778C171.496 153.511 172.374 154.579 172.889 155.838C172.924 155.907 172.93 155.988 172.906 156.062C172.883 156.136 172.832 156.197 172.765 156.233L170.971 157.099C170.938 157.124 170.899 157.141 170.857 157.147C170.816 157.154 170.774 157.149 170.735 157.135C170.695 157.12 170.66 157.095 170.632 157.063C170.605 157.031 170.585 156.992 170.576 156.951C170.211 156.194 169.691 155.527 169.051 154.998C168.312 154.45 167.413 154.178 166.503 154.224C165.564 154.182 164.637 154.459 163.867 155.013C163.162 155.584 162.643 156.361 162.379 157.243C162.307 157.471 162.253 157.705 162.218 157.943C162.16 158.254 162.119 158.567 162.093 158.882V165.72C162.119 166.035 162.16 166.349 162.218 166.659C162.248 166.898 162.303 167.132 162.379 167.36C162.647 168.233 163.165 169.003 163.865 169.569C164.632 170.131 165.561 170.409 166.501 170.358C167.411 170.404 168.309 170.132 169.047 169.585C169.707 169.058 170.241 168.383 170.608 167.612C170.608 167.415 170.823 167.373 171.004 167.464L172.797 168.33C172.863 168.369 172.913 168.433 172.936 168.507C172.959 168.582 172.954 168.663 172.922 168.735C172.412 169.991 171.534 171.054 170.411 171.775C169.248 172.51 167.901 172.882 166.536 172.844C165.064 172.898 163.611 172.485 162.375 171.66C161.173 170.79 160.294 169.526 159.881 168.076Z" fill="white"/>
<path d="M176.633 152.393C176.627 152.353 176.631 152.312 176.643 152.273C176.655 152.235 176.676 152.2 176.704 152.171C176.732 152.143 176.766 152.121 176.803 152.109C176.841 152.096 176.88 152.093 176.919 152.099H188.9C189.092 152.099 189.205 152.099 189.205 152.393V154.235C189.205 154.432 189.098 154.529 188.9 154.529H179.413C179.389 154.526 179.365 154.529 179.342 154.537C179.319 154.546 179.298 154.559 179.281 154.577C179.264 154.594 179.251 154.616 179.243 154.639C179.235 154.663 179.232 154.688 179.235 154.713V160.74C179.232 160.765 179.235 160.79 179.243 160.813C179.251 160.837 179.264 160.858 179.281 160.876C179.298 160.893 179.319 160.907 179.342 160.915C179.365 160.923 179.389 160.926 179.413 160.923H187.466C187.658 160.923 187.771 160.923 187.771 161.217V163.06C187.771 163.257 187.664 163.354 187.466 163.354H179.413C179.389 163.351 179.365 163.354 179.342 163.362C179.319 163.37 179.298 163.384 179.281 163.401C179.264 163.419 179.251 163.44 179.243 163.464C179.235 163.487 179.232 163.513 179.235 163.537V169.766C179.232 169.79 179.235 169.816 179.243 169.839C179.251 169.863 179.264 169.884 179.281 169.902C179.298 169.919 179.319 169.933 179.342 169.941C179.365 169.949 179.389 169.952 179.413 169.949H188.902C189.094 169.949 189.207 169.949 189.207 170.243V172.086C189.207 172.283 189.1 172.38 188.902 172.38H176.921C176.882 172.386 176.843 172.382 176.805 172.37C176.768 172.357 176.734 172.335 176.706 172.307C176.678 172.278 176.657 172.243 176.645 172.205C176.633 172.167 176.629 172.126 176.635 172.086L176.633 152.393Z" fill="white"/>
<path d="M199.752 167.54C199.751 166.406 200.076 165.297 200.685 164.352C201.517 163.122 202.534 162.037 203.698 161.136L202.546 159.587C202.272 159.184 202.021 158.766 201.793 158.334C201.612 157.98 201.461 157.611 201.344 157.229C201.251 156.881 201.202 156.522 201.2 156.16C201.202 155.565 201.317 154.977 201.54 154.428C201.757 153.895 202.085 153.417 202.5 153.027C202.919 152.623 203.414 152.31 203.953 152.106C204.526 151.884 205.134 151.772 205.746 151.774C206.36 151.773 206.969 151.892 207.54 152.126C208.076 152.332 208.565 152.652 208.974 153.065C209.378 153.458 209.696 153.936 209.907 154.465C210.122 155.003 210.232 155.579 210.23 156.16C210.231 156.604 210.166 157.045 210.038 157.468C209.892 157.898 209.693 158.307 209.446 158.685C209.114 159.144 208.748 159.575 208.352 159.976C207.909 160.418 207.353 160.915 206.683 161.469L210.468 166.464L212.495 163.9C212.516 163.865 212.545 163.836 212.58 163.817C212.614 163.797 212.653 163.786 212.693 163.786C212.733 163.786 212.772 163.797 212.806 163.817C212.841 163.836 212.87 163.865 212.891 163.9L214.043 164.914C214.076 164.938 214.103 164.969 214.122 165.006C214.141 165.043 214.15 165.084 214.15 165.126C214.15 165.168 214.141 165.209 214.122 165.246C214.103 165.282 214.076 165.314 214.043 165.338L212.015 168.268L212.975 169.558C213.137 169.765 213.324 169.951 213.532 170.11C213.716 170.223 213.928 170.28 214.142 170.276H214.592C214.784 170.276 214.878 170.387 214.878 170.59V172.267C214.884 172.307 214.88 172.348 214.868 172.386C214.856 172.424 214.835 172.459 214.807 172.488C214.779 172.516 214.745 172.538 214.708 172.551C214.67 172.563 214.631 172.567 214.592 172.561H213.803C213.317 172.587 212.833 172.498 212.386 172.302C211.93 172.013 211.544 171.623 211.255 171.16L210.448 170.11C209.713 170.95 208.854 171.665 207.902 172.229C207.024 172.682 206.051 172.909 205.069 172.892C204.302 172.91 203.54 172.772 202.826 172.486C202.207 172.25 201.649 171.872 201.194 171.381C200.739 170.898 200.391 170.32 200.173 169.686C199.908 169.003 199.765 168.275 199.752 167.54ZM202.066 167.392C202.015 168.268 202.305 169.13 202.872 169.787C203.171 170.096 203.532 170.335 203.93 170.488C204.328 170.641 204.753 170.703 205.176 170.671C205.854 170.677 206.52 170.485 207.096 170.118C207.846 169.617 208.513 168.995 209.07 168.276L205.038 162.858C204.176 163.511 203.409 164.287 202.761 165.162C202.304 165.81 202.065 166.592 202.079 167.392H202.066ZM205.51 159.652C205.979 159.29 206.427 158.902 206.854 158.49C207.142 158.219 207.399 157.916 207.622 157.587C207.778 157.348 207.899 157.088 207.981 156.813C208.008 156.575 208.008 156.334 207.981 156.095C207.99 155.803 207.939 155.513 207.831 155.243C207.723 154.973 207.56 154.729 207.353 154.529C207.134 154.315 206.874 154.15 206.591 154.042C206.308 153.934 206.006 153.886 205.704 153.901C205.404 153.882 205.104 153.928 204.823 154.036C204.542 154.144 204.286 154.312 204.072 154.529C203.692 154.97 203.493 155.544 203.515 156.133C203.489 156.347 203.489 156.563 203.515 156.778C203.596 157.023 203.704 157.258 203.838 157.478C204.014 157.793 204.212 158.095 204.429 158.382L205.51 159.652Z" fill="white"/>
<path d="M225.545 168.075C225.449 167.773 225.371 167.465 225.313 167.153C225.234 166.789 225.18 166.419 225.152 166.047C225.152 165.605 225.152 165.088 225.152 164.498V158.603C225.18 158.231 225.234 157.862 225.313 157.498C225.374 157.187 225.451 156.879 225.545 156.577C225.934 155.093 226.808 153.791 228.02 152.892C229.228 152.139 230.61 151.732 232.023 151.713C233.436 151.693 234.828 152.062 236.055 152.781C237.172 153.52 238.046 154.586 238.567 155.841C238.601 155.91 238.607 155.991 238.584 156.065C238.56 156.139 238.509 156.2 238.442 156.236L236.649 157.102C236.457 157.212 236.326 157.102 236.236 156.954C235.872 156.188 235.347 155.514 234.7 154.981C233.96 154.437 233.063 154.164 232.154 154.207C231.215 154.165 230.288 154.442 229.518 154.997C228.812 155.57 228.288 156.346 228.011 157.226L227.849 157.926C227.861 158.243 227.825 158.56 227.742 158.865C227.688 159.324 227.688 159.788 227.742 160.246V165.697C227.717 166.015 227.753 166.334 227.849 166.637C227.923 166.865 227.976 167.099 228.011 167.337C228.293 168.209 228.817 168.978 229.518 169.549C230.284 170.11 231.214 170.389 232.154 170.338C233.064 170.381 233.961 170.109 234.702 169.564C235.355 169.037 235.881 168.362 236.238 167.591C236.328 167.394 236.453 167.353 236.651 167.443L238.444 168.31C238.51 168.349 238.56 168.412 238.583 168.487C238.606 168.562 238.601 168.643 238.569 168.714C238.053 169.967 237.176 171.028 236.057 171.754C234.83 172.473 233.438 172.842 232.025 172.823C230.612 172.803 229.23 172.396 228.022 171.644C226.83 170.772 225.958 169.512 225.547 168.069L225.545 168.075Z" fill="white"/>
<path d="M248.896 172.884C247.388 172.94 245.9 172.522 244.628 171.687C243.424 170.822 242.543 169.561 242.132 168.112C242.03 167.804 241.946 167.491 241.881 167.173C241.802 166.802 241.748 166.426 241.719 166.048V158.602C241.749 158.224 241.803 157.849 241.881 157.478C241.946 157.166 242.03 156.858 242.132 156.557C242.547 155.104 243.426 153.837 244.628 152.962C245.925 152.177 247.402 151.764 248.906 151.764C250.41 151.764 251.887 152.177 253.184 152.962C254.395 153.832 255.28 155.1 255.695 156.557C255.748 156.872 255.832 157.181 255.947 157.478C256.025 157.849 256.078 158.224 256.108 158.602V166.048C256.08 166.426 256.026 166.802 255.947 167.173C255.907 167.496 255.823 167.813 255.695 168.112C255.284 169.565 254.397 170.828 253.184 171.687C251.908 172.528 250.411 172.946 248.896 172.884ZM248.896 170.396C249.865 170.444 250.821 170.167 251.623 169.607C252.355 169.048 252.891 168.258 253.147 167.358C253.186 167.127 253.24 166.899 253.309 166.675C253.362 166.399 253.399 166.068 253.453 165.661C253.512 165.197 253.548 164.729 253.56 164.261C253.56 163.708 253.56 163.063 253.56 162.418V160.575C253.548 160.101 253.512 159.627 253.453 159.157C253.44 158.814 253.392 158.474 253.309 158.143C253.255 157.867 253.201 157.646 253.147 157.46C252.891 156.56 252.355 155.77 251.623 155.211C250.818 154.659 249.863 154.383 248.896 154.422C247.935 154.382 246.986 154.658 246.187 155.211C245.459 155.771 244.93 156.561 244.68 157.46C244.642 157.691 244.588 157.919 244.519 158.143C244.506 158.485 244.458 158.825 244.375 159.157C244.316 159.627 244.28 160.101 244.267 160.575C244.267 161.11 244.267 161.759 244.267 162.418V164.261C244.279 164.729 244.315 165.197 244.375 165.661C244.342 166.006 244.392 166.354 244.519 166.675C244.605 166.894 244.659 167.124 244.68 167.358C244.93 168.257 245.459 169.047 246.187 169.607C246.982 170.167 247.934 170.444 248.896 170.396Z" fill="white"/>
<path d="M260.432 152.391C260.426 152.351 260.429 152.31 260.441 152.271C260.454 152.233 260.475 152.198 260.502 152.169C260.53 152.141 260.564 152.119 260.602 152.107C260.639 152.094 260.679 152.091 260.718 152.097H262.511C262.614 152.083 262.719 152.105 262.81 152.158C262.901 152.211 262.972 152.292 263.014 152.391L271.982 167.743H272.107V152.391C272.101 152.351 272.105 152.31 272.117 152.271C272.129 152.233 272.15 152.198 272.178 152.169C272.206 152.141 272.24 152.119 272.277 152.107C272.315 152.094 272.354 152.091 272.393 152.097H274.187C274.225 152.091 274.265 152.094 274.303 152.107C274.34 152.119 274.374 152.141 274.402 152.169C274.43 152.198 274.45 152.233 274.463 152.271C274.475 152.31 274.478 152.351 274.473 152.391V172.259C274.478 172.299 274.475 172.34 274.463 172.379C274.45 172.417 274.43 172.452 274.402 172.48C274.374 172.509 274.34 172.531 274.303 172.543C274.265 172.556 274.225 172.559 274.187 172.553H272.303C272.203 172.562 272.102 172.539 272.015 172.486C271.929 172.433 271.86 172.354 271.819 172.259L262.761 156.97V172.259C262.766 172.299 262.763 172.34 262.751 172.379C262.738 172.417 262.718 172.452 262.69 172.48C262.662 172.509 262.628 172.531 262.591 172.543C262.553 172.556 262.513 172.559 262.474 172.553H260.681C260.642 172.56 260.602 172.556 260.565 172.544C260.527 172.531 260.493 172.51 260.465 172.481C260.437 172.453 260.415 172.418 260.403 172.379C260.391 172.341 260.387 172.3 260.393 172.259L260.432 152.391Z" fill="white"/>
<path d="M283.996 172.552C283.804 172.552 283.691 172.552 283.691 172.258V154.768C283.691 154.658 283.691 154.585 283.529 154.585H278.153C277.961 154.585 277.848 154.585 277.848 154.291V152.448C277.848 152.251 277.956 152.154 278.153 152.154H292C292.192 152.154 292.306 152.154 292.306 152.448V154.291C292.306 154.488 292.198 154.585 292 154.585H286.624C286.6 154.582 286.576 154.585 286.553 154.593C286.53 154.601 286.509 154.615 286.492 154.632C286.475 154.65 286.462 154.671 286.454 154.695C286.446 154.718 286.443 154.744 286.446 154.768V172.258C286.446 172.455 286.338 172.552 286.141 172.552H283.996Z" fill="white"/>
<path d="M306.865 172.557C306.778 172.56 306.693 172.533 306.623 172.479C306.553 172.426 306.503 172.35 306.481 172.263L302.514 163.892H298.098C297.974 163.892 297.92 163.892 297.92 164.076V172.261C297.926 172.301 297.922 172.342 297.91 172.381C297.898 172.419 297.877 172.454 297.849 172.482C297.821 172.511 297.787 172.533 297.75 172.545C297.712 172.558 297.673 172.561 297.634 172.555H295.602C295.563 172.561 295.524 172.558 295.486 172.545C295.449 172.533 295.415 172.511 295.387 172.482C295.359 172.454 295.338 172.419 295.326 172.381C295.314 172.342 295.31 172.301 295.316 172.261V152.393C295.31 152.353 295.314 152.312 295.326 152.273C295.338 152.235 295.359 152.2 295.387 152.171C295.415 152.143 295.449 152.121 295.486 152.109C295.524 152.096 295.563 152.093 295.602 152.099H302.777C303.644 152.081 304.507 152.224 305.323 152.523C306.047 152.775 306.712 153.178 307.278 153.706C307.831 154.215 308.266 154.845 308.551 155.549C308.865 156.319 309.024 157.147 309.017 157.982C309.052 159.243 308.68 160.48 307.959 161.501C307.234 162.474 306.23 163.189 305.089 163.547L309.34 172.19C309.366 172.228 309.381 172.273 309.381 172.32C309.381 172.366 309.366 172.411 309.34 172.449H309.148L306.865 172.557ZM302.775 161.509C303.757 161.569 304.724 161.246 305.485 160.606C306.1 159.924 306.442 159.029 306.442 158.099C306.442 157.169 306.1 156.274 305.485 155.593C304.729 154.944 303.758 154.62 302.775 154.689H298.098C298.074 154.686 298.05 154.689 298.027 154.697C298.004 154.705 297.983 154.719 297.966 154.736C297.949 154.754 297.936 154.775 297.928 154.799C297.92 154.823 297.917 154.848 297.92 154.872V161.312C297.917 161.337 297.92 161.362 297.928 161.385C297.936 161.409 297.949 161.43 297.966 161.448C297.983 161.466 298.004 161.479 298.027 161.487C298.05 161.495 298.074 161.498 298.098 161.495L302.775 161.509Z" fill="white"/>
<path d="M318.56 152.391C318.573 152.305 318.618 152.227 318.684 152.173C318.75 152.119 318.834 152.092 318.919 152.097H320.819C320.907 152.089 320.995 152.115 321.066 152.169C321.137 152.223 321.186 152.302 321.203 152.391L328.019 172.258C328.019 172.455 328.019 172.552 327.827 172.552H325.783C325.694 172.557 325.606 172.531 325.535 172.477C325.463 172.424 325.411 172.346 325.389 172.258L323.882 167.89H315.818L314.232 172.26C314.21 172.346 314.16 172.423 314.09 172.476C314.02 172.529 313.935 172.557 313.848 172.554H311.803C311.611 172.554 311.534 172.554 311.588 172.26L318.56 152.391ZM323.008 165.292L319.869 156.076L316.713 165.292H323.008Z" fill="white"/>
<path d="M330.379 168.074C330.289 167.78 330.201 167.466 330.128 167.152C330.055 166.839 330.02 166.47 329.966 166.048C329.939 165.532 329.939 165.015 329.966 164.499V158.602C329.984 158.229 330.038 157.859 330.128 157.497C330.195 157.186 330.279 156.878 330.379 156.576C330.768 155.092 331.642 153.79 332.854 152.891C334.062 152.138 335.444 151.731 336.857 151.712C338.27 151.692 339.662 152.061 340.889 152.78C342.006 153.519 342.88 154.585 343.401 155.84C343.435 155.909 343.441 155.99 343.418 156.064C343.394 156.138 343.343 156.199 343.276 156.235L341.483 157.101C341.447 157.124 341.407 157.138 341.365 157.143C341.324 157.147 341.281 157.143 341.242 157.128C341.202 157.114 341.166 157.091 341.136 157.061C341.107 157.03 341.084 156.993 341.07 156.953C340.7 156.19 340.177 155.518 339.534 154.98C338.788 154.433 337.884 154.16 336.969 154.206C336.029 154.164 335.103 154.441 334.333 154.996C333.633 155.571 333.115 156.347 332.845 157.225L332.683 157.925C332.623 158.235 332.588 158.549 332.576 158.864V165.696C332.587 166.012 332.623 166.326 332.683 166.636C332.705 166.876 332.76 167.111 332.845 167.336C333.119 168.207 333.637 168.976 334.333 169.548C335.099 170.11 336.028 170.388 336.969 170.337C337.884 170.383 338.788 170.11 339.534 169.563C340.181 169.029 340.705 168.356 341.07 167.59C341.07 167.393 341.285 167.352 341.483 167.442L343.276 168.309C343.343 168.348 343.393 168.411 343.416 168.487C343.439 168.562 343.434 168.644 343.401 168.715C342.885 169.968 342.009 171.029 340.889 171.755C339.662 172.474 338.27 172.843 336.857 172.824C335.444 172.804 334.062 172.397 332.854 171.645C331.662 170.774 330.791 169.516 330.379 168.074Z" fill="white"/>
<path d="M351.042 172.553C351.004 172.559 350.964 172.555 350.926 172.543C350.889 172.53 350.855 172.509 350.827 172.48C350.799 172.451 350.779 172.416 350.766 172.378C350.754 172.34 350.751 172.299 350.756 172.259V154.769C350.759 154.744 350.756 154.719 350.748 154.696C350.74 154.672 350.727 154.651 350.71 154.633C350.693 154.616 350.672 154.602 350.649 154.594C350.626 154.586 350.602 154.583 350.578 154.586H345.202C345.163 154.592 345.123 154.588 345.086 154.576C345.048 154.563 345.014 154.542 344.987 154.513C344.959 154.484 344.938 154.449 344.926 154.411C344.913 154.373 344.91 154.332 344.916 154.292V152.449C344.91 152.409 344.913 152.368 344.926 152.33C344.938 152.292 344.959 152.257 344.987 152.228C345.014 152.199 345.048 152.178 345.086 152.165C345.123 152.153 345.163 152.149 345.202 152.155H359.083C359.122 152.149 359.162 152.153 359.199 152.165C359.237 152.178 359.271 152.199 359.299 152.228C359.326 152.257 359.347 152.292 359.36 152.33C359.372 152.368 359.375 152.409 359.37 152.449V154.292C359.375 154.332 359.372 154.373 359.36 154.411C359.347 154.449 359.326 154.484 359.299 154.513C359.271 154.542 359.237 154.563 359.199 154.576C359.162 154.588 359.122 154.592 359.083 154.586H353.707C353.683 154.583 353.659 154.586 353.636 154.594C353.613 154.602 353.592 154.616 353.575 154.633C353.558 154.651 353.545 154.672 353.537 154.696C353.529 154.719 353.526 154.744 353.529 154.769V172.259C353.535 172.299 353.531 172.34 353.519 172.378C353.507 172.416 353.486 172.451 353.458 172.48C353.43 172.509 353.396 172.53 353.359 172.543C353.321 172.555 353.282 172.559 353.243 172.553H351.042Z" fill="white"/>
<path d="M362.376 152.392C362.376 152.194 362.484 152.098 362.681 152.098H364.69C364.882 152.098 364.995 152.098 364.995 152.392V172.26C364.995 172.458 364.888 172.554 364.69 172.554H362.662C362.47 172.554 362.357 172.554 362.357 172.26L362.376 152.392Z" fill="white"/>
<path d="M369.837 152.393C369.831 152.353 369.835 152.312 369.847 152.273C369.859 152.235 369.88 152.2 369.908 152.171C369.936 152.143 369.97 152.121 370.007 152.109C370.045 152.096 370.084 152.093 370.123 152.099H372.007C372.11 152.091 372.212 152.115 372.302 152.167C372.391 152.219 372.464 152.298 372.51 152.393L381.478 167.745H381.586V152.393C381.58 152.353 381.583 152.312 381.596 152.273C381.608 152.235 381.629 152.2 381.657 152.171C381.684 152.143 381.718 152.121 381.756 152.109C381.793 152.096 381.833 152.093 381.872 152.099H383.665C383.857 152.099 383.97 152.099 383.97 152.393V172.261C383.97 172.459 383.863 172.555 383.665 172.555H381.872C381.769 172.565 381.665 172.543 381.575 172.49C381.485 172.437 381.413 172.358 381.369 172.261L372.312 156.972H372.222V172.261C372.228 172.301 372.224 172.342 372.212 172.381C372.2 172.419 372.179 172.454 372.151 172.482C372.123 172.511 372.089 172.533 372.052 172.545C372.014 172.558 371.975 172.561 371.936 172.555H370.143C370.104 172.561 370.064 172.558 370.027 172.545C369.989 172.533 369.955 172.511 369.927 172.482C369.9 172.454 369.879 172.419 369.866 172.381C369.854 172.342 369.851 172.301 369.856 172.261L369.837 152.393Z" fill="white"/>
<path d="M388.886 168.114C388.789 167.806 388.712 167.492 388.653 167.175C388.618 166.797 388.564 166.422 388.492 166.05C388.438 165.626 388.492 165.091 388.384 164.502C388.33 163.779 388.33 163.054 388.384 162.331V160.171C388.361 159.646 388.397 159.121 388.492 158.605C388.564 158.233 388.618 157.858 388.653 157.48C388.712 157.168 388.789 156.861 388.886 156.559C389.292 155.108 390.164 153.841 391.36 152.964C392.648 152.134 394.146 151.717 395.665 151.767C396.464 151.759 397.261 151.865 398.032 152.08C398.969 152.338 399.838 152.808 400.574 153.457C401.309 154.106 401.894 154.916 402.283 155.829C402.283 156.012 402.283 156.16 402.193 156.253L400.4 157.137C400.221 157.137 400.095 157.137 399.987 156.971C399.573 156.14 398.955 155.435 398.194 154.925C397.363 154.469 396.431 154.241 395.489 154.264C394.547 154.286 393.627 154.558 392.818 155.053C392.085 155.613 391.55 156.402 391.293 157.303C391.216 157.518 391.157 157.74 391.115 157.965C391.047 158.29 391.005 158.62 390.99 158.952C390.999 159.421 390.969 159.889 390.9 160.353C390.854 161.015 390.854 161.68 390.9 162.343V164.352C390.879 164.82 390.91 165.29 390.99 165.752C391.006 166.075 391.048 166.395 391.115 166.711C391.156 166.937 391.216 167.158 391.293 167.374C391.55 168.274 392.085 169.064 392.818 169.623C393.639 170.184 394.613 170.46 395.598 170.412C396.535 170.43 397.458 170.167 398.253 169.657C399.03 169.148 399.603 168.369 399.868 167.463C399.991 167.041 400.081 166.609 400.137 166.173C400.211 165.561 400.247 164.946 400.244 164.33C400.244 164.202 400.244 164.146 400.083 164.146H396.208C396.17 164.152 396.13 164.149 396.092 164.136C396.055 164.124 396.021 164.102 395.993 164.074C395.965 164.045 395.944 164.01 395.932 163.972C395.92 163.933 395.916 163.892 395.922 163.852V162.01C395.916 161.97 395.92 161.929 395.932 161.891C395.944 161.852 395.965 161.817 395.993 161.789C396.021 161.76 396.055 161.739 396.092 161.726C396.13 161.713 396.17 161.71 396.208 161.716H402.558C402.75 161.716 402.863 161.716 402.863 162.01V163.539C402.864 164.401 402.816 165.263 402.719 166.119C402.664 166.745 402.543 167.363 402.36 167.962C401.96 169.45 401.073 170.752 399.849 171.647C398.588 172.497 397.104 172.928 395.598 172.882C394.078 172.942 392.576 172.524 391.293 171.685C390.12 170.809 389.272 169.55 388.886 168.114Z" fill="white"/>
<path d="M288.752 131.531C277.631 131.531 269.751 128.896 265.113 123.624C260.474 118.353 258.156 110.102 258.158 98.8726V55.9882C258.156 55.2068 257.853 54.4581 257.315 53.9055C256.777 53.3529 256.048 53.0414 255.288 53.0388H252.007C251.231 53.0388 250.487 52.7222 249.939 52.1587C249.391 51.5952 249.083 50.831 249.083 50.0341V35.1981C249.08 34.802 249.154 34.4094 249.3 34.0428C249.446 33.6762 249.661 33.3428 249.933 33.062C250.205 32.7811 250.528 32.5581 250.884 32.406C251.24 32.2539 251.621 32.1756 252.007 32.1756H255.29C256.05 32.173 256.779 31.8615 257.317 31.3089C257.855 30.7563 258.158 30.0076 258.16 29.2262V10.3734C258.16 9.3417 258.359 8.32015 258.744 7.36743C259.129 6.41472 259.694 5.54963 260.406 4.82184C261.117 4.09405 261.962 3.51791 262.891 3.12651C263.82 2.73511 264.815 2.53617 265.819 2.54111H278.159C280.185 2.54423 282.128 3.37231 283.561 4.84401C284.994 6.3157 285.802 8.31107 285.806 10.3931V28.9697C285.806 29.3861 285.886 29.7983 286.041 30.183C286.196 30.5676 286.424 30.9171 286.71 31.2115C286.997 31.5059 287.337 31.7395 287.711 31.8988C288.085 32.0581 288.487 32.1401 288.892 32.1401H295.869C297.295 32.1401 298.662 32.7221 299.671 33.7581C300.679 34.794 301.245 36.1991 301.245 37.6642V47.6015C301.245 49.0666 300.679 50.4717 299.671 51.5076C298.662 52.5436 297.295 53.1256 295.869 53.1256H288.892C288.074 53.1256 287.289 53.4596 286.71 54.0542C286.131 54.6487 285.806 55.4551 285.806 56.296V97.8605C285.806 101.546 286.452 104.071 287.78 105.49C288.705 106.286 289.777 106.883 290.932 107.244C292.086 107.605 293.3 107.723 294.5 107.591H296.293C297.58 107.614 298.808 108.15 299.718 109.085C300.628 110.02 301.149 111.282 301.172 112.604V126.388C301.182 127.055 301.063 127.718 300.822 128.337C300.582 128.957 300.225 129.522 299.772 130C299.318 130.477 298.778 130.858 298.181 131.121C297.584 131.383 296.943 131.522 296.293 131.53L288.752 131.531Z" fill="white"/>
<path d="M380.814 130.313C376.294 130.313 375.666 125.381 376.043 121.798C325.679 166.977 285.108 69.0892 357.478 70.8766C361.065 69.8625 377.208 74.1752 375.63 66.0115C375.217 45.2233 348.314 53.6258 335.383 57.5715C334.483 57.8427 333.521 57.7936 332.652 57.4323C331.782 57.0709 331.057 56.4186 330.594 55.5809L324.873 45.2608C324.402 44.4356 324.217 43.4711 324.348 42.5242C324.478 41.5772 324.916 40.7033 325.591 40.0445C346.181 20.6749 406.786 25.6702 401.89 65.4038V125.395C402.301 133.778 385.03 129.189 380.814 130.313ZM357.605 111.238C369.442 111.238 375.361 106.71 375.361 97.6544V93.971C375.361 92.8272 374.919 91.7303 374.132 90.9215C373.345 90.1127 372.277 89.6583 371.164 89.6583H360.761C349.437 89.6583 343.776 93.341 343.777 100.706C343.777 107.729 348.386 111.238 357.605 111.238Z" fill="white"/>
<path d="M192.272 133.685C179.896 133.354 162.714 130.404 153.818 122.637C152.99 121.925 152.309 121.049 151.817 120.061C151.324 119.073 151.03 117.993 150.951 116.886C150.873 115.779 151.011 114.667 151.359 113.616C151.707 112.565 152.256 111.597 152.975 110.768L157.837 105.244C158.961 103.909 160.473 102.979 162.151 102.591C163.828 102.204 165.582 102.379 167.154 103.092C177.396 107.699 190.363 114.757 201.233 110.721C203.681 109.677 205.802 107.962 207.367 105.763C214.146 94.9814 193.215 92.8625 184.158 92.5114C155.264 93.046 142.045 57.7158 163.172 39.4707C176.069 28.4226 210.433 27.7676 225.536 39.6916C226.395 40.3688 227.113 41.2159 227.648 42.1828C228.183 43.1498 228.524 44.217 228.651 45.3216C228.778 46.4262 228.688 47.5458 228.387 48.6142C228.087 49.6827 227.581 50.6784 226.899 51.5427L223.078 56.39C221.843 57.9447 220.102 58.9876 218.177 59.3263C216.252 59.665 214.273 59.2766 212.605 58.2327C210.768 56.9369 208.748 55.9419 206.614 55.2832C205.941 55.1302 205.281 54.9204 204.641 54.6559C185.754 46.4724 166.168 63.52 189.413 68.4226C191.328 68.794 193.277 68.9547 195.225 68.902C250.277 68.3713 247.084 135.492 192.272 133.685Z" fill="white"/>
<defs>
<linearGradient id="paint0_linear_1393_13" x1="70.3095" y1="0.180664" x2="70.3095" y2="80.6899" gradientUnits="userSpaceOnUse">
<stop stop-color="#FECC00"/>
<stop offset="1" stop-color="#F8AE00"/>
</linearGradient>
</defs>
</svg>
