<svg width="22" height="22" viewBox="0 0 22 22" fill="none" xmlns="http://www.w3.org/2000/svg">
<path d="M10.55 0.450001C8.46341 0.450001 6.42368 1.06875 4.68874 2.228C2.9538 3.38725 1.60158 5.03493 0.803076 6.96269C0.00457114 8.89045 -0.204354 11.0117 0.20272 13.0582C0.609794 15.1047 1.61458 16.9845 3.09003 18.46C4.56547 19.9354 6.4453 20.9402 8.4918 21.3473C10.5383 21.7544 12.6596 21.5454 14.5873 20.7469C16.5151 19.9484 18.1628 18.5962 19.322 16.8613C20.4813 15.1263 21.1 13.0866 21.1 11C21.1 8.20197 19.9885 5.51853 18.01 3.54002C16.0315 1.56152 13.348 0.450001 10.55 0.450001ZM10.55 4.218C11.3323 4.21978 12.0899 4.49266 12.6936 4.99016C13.2974 5.48767 13.7101 6.17906 13.8614 6.94662C14.0127 7.71418 13.8934 8.51046 13.5236 9.1999C13.1538 9.88934 12.5566 10.4293 11.8335 10.7279C11.1103 11.0265 10.3061 11.0652 9.55763 10.8375C8.80917 10.6098 8.16276 10.1297 7.72846 9.47902C7.29415 8.8283 7.0988 8.04718 7.17566 7.26863C7.25252 6.49008 7.59685 5.76223 8.15 5.209C8.46533 4.89425 8.83959 4.64473 9.25139 4.47469C9.6632 4.30465 10.1045 4.21742 10.55 4.218ZM16.578 17.718C14.9255 19.2118 12.7771 20.0389 10.5495 20.0389C8.32186 20.0389 6.17356 19.2118 4.521 17.718V17.281C4.49234 16.2492 4.87203 15.2477 5.57757 14.4942C6.28312 13.7407 7.2575 13.2961 8.289 13.257H12.81C13.8365 13.2981 14.8061 13.74 15.5105 14.4879C16.2149 15.2357 16.5982 16.2298 16.578 17.257V17.718Z" fill="#1C1B20"/>
</svg>
